<?xml version="1.0" encoding="utf-8" standalone="no"?>
<!DOCTYPE svg PUBLIC "-//W3C//DTD SVG 1.1//EN"
  "http://www.w3.org/Graphics/SVG/1.1/DTD/svg11.dtd">
<svg xmlns:xlink="http://www.w3.org/1999/xlink" width="1144.8pt" height="650.25pt" viewBox="0 0 1144.8 650.25" xmlns="http://www.w3.org/2000/svg" version="1.1">
 <metadata>
  <rdf:RDF xmlns:dc="http://purl.org/dc/elements/1.1/" xmlns:cc="http://creativecommons.org/ns#" xmlns:rdf="http://www.w3.org/1999/02/22-rdf-syntax-ns#">
   <cc:Work>
    <dc:type rdf:resource="http://purl.org/dc/dcmitype/StillImage"/>
    <dc:date>2026-02-08T21:11:51.070619</dc:date>
    <dc:format>image/svg+xml</dc:format>
    <dc:creator>
     <cc:Agent>
      <dc:title>Matplotlib v3.5.1, https://matplotlib.org/</dc:title>
     </cc:Agent>
    </dc:creator>
   </cc:Work>
  </rdf:RDF>
 </metadata>
 <defs>
  <style type="text/css">*{stroke-linejoin: round; stroke-linecap: butt}</style>
 </defs>
 <g id="figure_1">
  <g id="patch_1">
   <path d="M 0 650.25 
L 1144.8 650.25 
L 1144.8 0 
L 0 0 
z
" style="fill: #ffffff"/>
  </g>
  <g id="axes_1">
   <g id="patch_2">
    <path d="M 65.8395 361.863 
L 160.5105 361.863 
Q 167.5755 361.863 167.5755 354.798 
L 167.5755 224.802 
Q 167.5755 217.737 160.5105 217.737 
L 65.8395 217.737 
Q 58.7745 217.737 58.7745 224.802 
L 58.7745 354.798 
Q 58.7745 361.863 65.8395 361.863 
z
" clip-path="url(#pc7c99a4a51)" style="fill: #ffe066; opacity: 0.5; stroke: #000000; stroke-width: 1.5; stroke-linejoin: miter"/>
   </g>
   <g id="patch_3">
    <path d="M 87.741 286.974 
L 138.609 286.974 
Q 142.1415 286.974 142.1415 283.4415 
L 142.1415 253.7685 
Q 142.1415 250.236 138.609 250.236 
L 87.741 250.236 
Q 84.2085 250.236 84.2085 253.7685 
L 84.2085 283.4415 
Q 84.2085 286.974 87.741 286.974 
z
" clip-path="url(#pc7c99a4a51)" style="fill: #ffe066; opacity: 0.8; stroke: #808080; stroke-linejoin: miter"/>
   </g>
   <g id="patch_4">
    <path d="M 87.741 329.364 
L 138.609 329.364 
Q 142.1415 329.364 142.1415 325.8315 
L 142.1415 296.1585 
Q 142.1415 292.626 138.609 292.626 
L 87.741 292.626 
Q 84.2085 292.626 84.2085 296.1585 
L 84.2085 325.8315 
Q 84.2085 329.364 87.741 329.364 
z
" clip-path="url(#pc7c99a4a51)" style="fill: #ffe066; opacity: 0.8; stroke: #808080; stroke-linejoin: miter"/>
   </g>
   <g id="patch_5">
    <path d="M 242.4645 485.5005 
L 549.0855 485.5005 
Q 556.1505 485.5005 556.1505 478.4355 
L 556.1505 101.1645 
Q 556.1505 94.0995 549.0855 94.0995 
L 242.4645 94.0995 
Q 235.3995 94.0995 235.3995 101.1645 
L 235.3995 478.4355 
Q 235.3995 485.5005 242.4645 485.5005 
z
" clip-path="url(#pc7c99a4a51)" style="fill: #e0e0e0; opacity: 0.3; stroke: #000000; stroke-width: 1.5; stroke-linejoin: miter"/>
   </g>
   <g id="patch_6">
    <path d="M 285.561 188.064 
L 364.689 188.064 
Q 368.2215 188.064 368.2215 184.5315 
L 368.2215 140.7285 
Q 368.2215 137.196 364.689 137.196 
L 285.561 137.196 
Q 282.0285 137.196 282.0285 140.7285 
L 282.0285 184.5315 
Q 282.0285 188.064 285.561 188.064 
z
" clip-path="url(#pc7c99a4a51)" style="fill: #cccccc; opacity: 0.7; stroke: #808080; stroke-linejoin: miter"/>
   </g>
   <g id="patch_7">
    <path d="M 426.861 188.064 
L 505.989 188.064 
Q 509.5215 188.064 509.5215 184.5315 
L 509.5215 140.7285 
Q 509.5215 137.196 505.989 137.196 
L 426.861 137.196 
Q 423.3285 137.196 423.3285 140.7285 
L 423.3285 184.5315 
Q 423.3285 188.064 426.861 188.064 
z
" clip-path="url(#pc7c99a4a51)" style="fill: #cccccc; opacity: 0.7; stroke: #808080; stroke-linejoin: miter"/>
   </g>
   <g id="patch_8">
    <path d="M 345.6135 297.5715 
L 445.9365 297.5715 
Q 449.469 297.5715 449.469 294.039 
L 449.469 243.171 
Q 449.469 239.6385 445.9365 239.6385 
L 345.6135 239.6385 
Q 342.081 239.6385 342.081 243.171 
L 342.081 294.039 
Q 342.081 297.5715 345.6135 297.5715 
z
" clip-path="url(#pc7c99a4a51)" style="fill: #b0b0b0; opacity: 0.7; stroke: #808080; stroke-linejoin: miter"/>
   </g>
   <g id="patch_9">
    <path d="M 326.492378 188.822547 
Q 349.853793 213.852635 372.070926 237.656706 
" clip-path="url(#pc7c99a4a51)" style="fill: none; stroke: #333333; stroke-width: 1.5; stroke-linecap: round"/>
    <path d="M 370.550331 232.510077 
L 372.070926 237.656706 
L 367.041266 235.785205 
" clip-path="url(#pc7c99a4a51)" style="fill: none; stroke: #333333; stroke-width: 1.5; stroke-linecap: round"/>
   </g>
   <g id="patch_10">
    <path d="M 465.057622 188.822547 
Q 441.696207 213.852635 419.479074 237.656706 
" clip-path="url(#pc7c99a4a51)" style="fill: none; stroke: #333333; stroke-width: 1.5; stroke-linecap: round"/>
    <path d="M 424.508734 235.785205 
L 419.479074 237.656706 
L 420.999669 232.510077 
" clip-path="url(#pc7c99a4a51)" style="fill: none; stroke: #333333; stroke-width: 1.5; stroke-linecap: round"/>
   </g>
   <g id="patch_11">
    <path d="M 325.125 406.3725 
C 333.55647 406.3725 341.643743 403.022642 347.605692 397.060692 
C 353.567642 391.098743 356.9175 383.01147 356.9175 374.58 
C 356.9175 366.14853 353.567642 358.061257 347.605692 352.099308 
C 341.643743 346.137358 333.55647 342.7875 325.125 342.7875 
C 316.69353 342.7875 308.606257 346.137358 302.644308 352.099308 
C 296.682358 358.061257 293.3325 366.14853 293.3325 374.58 
C 293.3325 383.01147 296.682358 391.098743 302.644308 397.060692 
C 308.606257 403.022642 316.69353 406.3725 325.125 406.3725 
z
" clip-path="url(#pc7c99a4a51)" style="fill: #ff9500; opacity: 0.7; stroke: #808080; stroke-linejoin: miter"/>
   </g>
   <g id="patch_12">
    <path d="M 466.425 406.3725 
C 474.85647 406.3725 482.943743 403.022642 488.905692 397.060692 
C 494.867642 391.098743 498.2175 383.01147 498.2175 374.58 
C 498.2175 366.14853 494.867642 358.061257 488.905692 352.099308 
C 482.943743 346.137358 474.85647 342.7875 466.425 342.7875 
C 457.99353 342.7875 449.906257 346.137358 443.944308 352.099308 
C 437.982358 358.061257 434.6325 366.14853 434.6325 374.58 
C 434.6325 383.01147 437.982358 391.098743 443.944308 397.060692 
C 449.906257 403.022642 457.99353 406.3725 466.425 406.3725 
z
" clip-path="url(#pc7c99a4a51)" style="fill: #4a90d9; opacity: 0.7; stroke: #808080; stroke-linejoin: miter"/>
   </g>
   <g id="patch_13">
    <path d="M 366.156678 298.336516 
Q 346.318272 319.828122 327.617377 340.087425 
" clip-path="url(#pc7c99a4a51)" style="fill: none; stroke: #333333; stroke-width: 1.5; stroke-linecap: round"/>
    <path d="M 332.63665 338.188241 
L 327.617377 340.087425 
L 329.109593 334.932496 
" clip-path="url(#pc7c99a4a51)" style="fill: none; stroke: #333333; stroke-width: 1.5; stroke-linecap: round"/>
   </g>
   <g id="patch_14">
    <path d="M 425.393322 298.336516 
Q 445.231728 319.828122 463.932623 340.087425 
" clip-path="url(#pc7c99a4a51)" style="fill: none; stroke: #333333; stroke-width: 1.5; stroke-linecap: round"/>
    <path d="M 462.440407 334.932496 
L 463.932623 340.087425 
L 458.91335 338.188241 
" clip-path="url(#pc7c99a4a51)" style="fill: none; stroke: #333333; stroke-width: 1.5; stroke-linecap: round"/>
   </g>
   <g id="patch_15">
    <path d="M 666.3645 432.513 
L 831.6855 432.513 
Q 838.7505 432.513 838.7505 425.448 
L 838.7505 154.152 
Q 838.7505 147.087 831.6855 147.087 
L 666.3645 147.087 
Q 659.2995 147.087 659.2995 154.152 
L 659.2995 425.448 
Q 659.2995 432.513 666.3645 432.513 
z
" clip-path="url(#pc7c99a4a51)" style="fill: #4a90d9; opacity: 0.3; stroke: #000000; stroke-width: 1.5; stroke-linejoin: miter"/>
   </g>
   <g id="patch_16">
    <path d="M 688.266 244.584 
L 809.784 244.584 
Q 813.3165 244.584 813.3165 241.0515 
L 813.3165 197.2485 
Q 813.3165 193.716 809.784 193.716 
L 688.266 193.716 
Q 684.7335 193.716 684.7335 197.2485 
L 684.7335 241.0515 
Q 684.7335 244.584 688.266 244.584 
z
" clip-path="url(#pc7c99a4a51)" style="fill: #6ba3e0; opacity: 0.7; stroke: #808080; stroke-linejoin: miter"/>
   </g>
   <g id="patch_17">
    <path d="M 688.266 336.429 
L 809.784 336.429 
Q 813.3165 336.429 813.3165 332.8965 
L 813.3165 289.0935 
Q 813.3165 285.561 809.784 285.561 
L 688.266 285.561 
Q 684.7335 285.561 684.7335 289.0935 
L 684.7335 332.8965 
Q 684.7335 336.429 688.266 336.429 
z
" clip-path="url(#pc7c99a4a51)" style="fill: #ffb347; opacity: 0.7; stroke: #808080; stroke-linejoin: miter"/>
   </g>
   <g id="patch_18">
    <path d="M 681.201 417.6765 
L 816.849 417.6765 
Q 820.3815 417.6765 820.3815 414.144 
L 820.3815 377.406 
Q 820.3815 373.8735 816.849 373.8735 
L 681.201 373.8735 
Q 677.6685 373.8735 677.6685 377.406 
L 677.6685 414.144 
Q 677.6685 417.6765 681.201 417.6765 
z
" clip-path="url(#pc7c99a4a51)" style="fill: #4a90d9; opacity: 0.9; stroke: #808080; stroke-linejoin: miter"/>
   </g>
   <g id="patch_19">
    <path d="M 749.025 245.875958 
Q 749.025 266.836659 749.025 286.120309 
" clip-path="url(#pc7c99a4a51)" style="fill: none; stroke: #333333; stroke-width: 1.5; stroke-linecap: round"/>
    <path d="M 751.425 281.320309 
L 749.025 286.120309 
L 746.625 281.320309 
" clip-path="url(#pc7c99a4a51)" style="fill: none; stroke: #333333; stroke-width: 1.5; stroke-linecap: round"/>
   </g>
   <g id="patch_20">
    <path d="M 748.066413 337.47991 
Q 738.42682 355.152496 729.590287 371.352807 
" clip-path="url(#pc7c99a4a51)" style="fill: none; stroke: #333333; stroke-width: 1.5; stroke-linecap: round"/>
    <path d="M 733.995727 368.288153 
L 729.590287 371.352807 
L 729.781828 365.989663 
" clip-path="url(#pc7c99a4a51)" style="fill: none; stroke: #333333; stroke-width: 1.5; stroke-linecap: round"/>
   </g>
   <g id="patch_21">
    <path d="M 750.048357 245.598706 
Q 785.038453 305.108411 770.996097 370.985818 
" clip-path="url(#pc7c99a4a51)" style="fill: none; stroke: #333333; stroke-width: 1.5; stroke-linecap: round"/>
    <path d="M 774.344045 366.791626 
L 770.996097 370.985818 
L 769.649512 365.790944 
" clip-path="url(#pc7c99a4a51)" style="fill: none; stroke: #333333; stroke-width: 1.5; stroke-linecap: round"/>
   </g>
   <g id="patch_22">
    <path d="M 888.912 414.8505 
L 1033.038 414.8505 
Q 1040.103 414.8505 1040.103 407.7855 
L 1040.103 171.8145 
Q 1040.103 164.7495 1033.038 164.7495 
L 888.912 164.7495 
Q 881.847 164.7495 881.847 171.8145 
L 881.847 407.7855 
Q 881.847 414.8505 888.912 414.8505 
z
" clip-path="url(#pc7c99a4a51)" style="fill: #7cb342; opacity: 0.3; stroke: #000000; stroke-width: 1.5; stroke-linejoin: miter"/>
   </g>
   <g id="patch_23">
    <path d="M 900.216 283.4415 
L 1021.734 283.4415 
Q 1025.2665 283.4415 1025.2665 279.909 
L 1025.2665 229.041 
Q 1025.2665 225.5085 1021.734 225.5085 
L 900.216 225.5085 
Q 896.6835 225.5085 896.6835 229.041 
L 896.6835 279.909 
Q 896.6835 283.4415 900.216 283.4415 
z
" clip-path="url(#pc7c99a4a51)" style="fill: #7cb342; opacity: 0.8; stroke: #808080; stroke-linejoin: miter"/>
   </g>
   <g id="patch_24">
    <path d="M 900.216 357.624 
L 1021.734 357.624 
Q 1025.2665 357.624 1025.2665 354.0915 
L 1025.2665 310.2885 
Q 1025.2665 306.756 1021.734 306.756 
L 900.216 306.756 
Q 896.6835 306.756 896.6835 310.2885 
L 896.6835 354.0915 
Q 896.6835 357.624 900.216 357.624 
z
" clip-path="url(#pc7c99a4a51)" style="fill: #b0b0b0; opacity: 0.6; stroke: #808080; stroke-linejoin: miter"/>
   </g>
   <g id="patch_25">
    <path d="M 960.975 305.461239 
Q 960.975 295.098218 960.975 286.412249 
" clip-path="url(#pc7c99a4a51)" style="fill: none; stroke: #333333; stroke-width: 1.5; stroke-linecap: round"/>
    <path d="M 958.575 291.212249 
L 960.975 286.412249 
L 963.375 291.212249 
" clip-path="url(#pc7c99a4a51)" style="fill: none; stroke: #333333; stroke-width: 1.5; stroke-linecap: round"/>
   </g>
   <g id="patch_26">
    <path d="M 1065.537 344.2005 
L 1139.013 344.2005 
Q 1146.078 344.2005 1146.078 337.1355 
L 1146.078 242.4645 
Q 1146.078 235.3995 1139.013 235.3995 
L 1065.537 235.3995 
Q 1058.472 235.3995 1058.472 242.4645 
L 1058.472 337.1355 
Q 1058.472 344.2005 1065.537 344.2005 
z
" clip-path="url(#pc7c99a4a51)" style="fill: #ffe066; opacity: 0.5; stroke: #000000; stroke-width: 1.5; stroke-linejoin: miter"/>
   </g>
   <g id="patch_27">
    <path d="M 1076.841 311.7015 
L 1127.709 311.7015 
Q 1131.2415 311.7015 1131.2415 308.169 
L 1131.2415 271.431 
Q 1131.2415 267.8985 1127.709 267.8985 
L 1076.841 267.8985 
Q 1073.3085 267.8985 1073.3085 271.431 
L 1073.3085 308.169 
Q 1073.3085 311.7015 1076.841 311.7015 
z
" clip-path="url(#pc7c99a4a51)" style="fill: #ffe066; opacity: 0.8; stroke: #808080; stroke-linejoin: miter"/>
   </g>
   <g id="patch_28">
    <path d="M 168.159018 289.8 
Q 201.486378 289.8 233.136687 289.8 
" clip-path="url(#pc7c99a4a51)" style="fill: none; stroke: #333333; stroke-width: 1.5; stroke-linecap: round"/>
    <path d="M 228.336687 287.4 
L 233.136687 289.8 
L 228.336687 292.2 
L 228.336687 287.4 
z
" clip-path="url(#pc7c99a4a51)" style="fill: #333333; stroke: #333333; stroke-width: 1.5; stroke-linecap: round"/>
   </g>
   <g id="patch_29">
    <path d="M 521.361054 374.128083 
Q 596.260415 356.564493 657.709938 313.123613 
" clip-path="url(#pc7c99a4a51)" style="fill: none; stroke: #ff9500; stroke-width: 1.5; stroke-linecap: round"/>
    <path d="M 652.405021 313.934699 
L 657.709938 313.123613 
L 655.175856 317.854198 
L 652.405021 313.934699 
z
" clip-path="url(#pc7c99a4a51)" style="fill: #ff9500; stroke: #ff9500; stroke-width: 1.5; stroke-linecap: round"/>
   </g>
   <g id="patch_30">
    <path d="M 837.575829 393.788085 
Q 846.53719 320.652967 881.470607 257.689659 
" clip-path="url(#pc7c99a4a51)" style="fill: none; stroke: #4a90d9; stroke-width: 1.5; stroke-linecap: round"/>
    <path d="M 877.043244 260.722555 
L 881.470607 257.689659 
L 881.240506 263.051287 
L 877.043244 260.722555 
z
" clip-path="url(#pc7c99a4a51)" style="fill: #4a90d9; stroke: #4a90d9; stroke-width: 1.5; stroke-linecap: round"/>
   </g>
   <g id="patch_31">
    <path d="M 535.49621 289.384966 
Q 712.594148 252.04159 879.833962 316.731555 
" clip-path="url(#pc7c99a4a51)" style="fill: none; stroke: #b0b0b0; stroke-width: 1.5; stroke-linecap: round"/>
    <path d="M 876.22303 312.761522 
L 879.833962 316.731555 
L 874.491376 317.238282 
L 876.22303 312.761522 
z
" clip-path="url(#pc7c99a4a51)" style="fill: #b0b0b0; stroke: #b0b0b0; stroke-width: 1.5; stroke-linecap: round"/>
   </g>
   <g id="patch_32">
    <path d="M 500.206694 374.789501 
Q 694.234681 395.032931 879.731895 340.298081 
" clip-path="url(#pc7c99a4a51)" style="fill: none; stroke: #4a90d9; stroke-width: 1.5; stroke-linecap: round"/>
    <path d="M 874.448912 339.354636 
L 879.731895 340.298081 
L 875.807349 343.958401 
L 874.448912 339.354636 
z
" clip-path="url(#pc7c99a4a51)" style="fill: #4a90d9; stroke: #4a90d9; stroke-width: 1.5; stroke-linecap: round"/>
   </g>
   <g id="patch_33">
    <path d="M 1040.689968 289.8 
Q 1049.286962 289.8 1056.206904 289.8 
" clip-path="url(#pc7c99a4a51)" style="fill: none; stroke: #333333; stroke-width: 1.5; stroke-linecap: round"/>
    <path d="M 1051.406904 287.4 
L 1056.206904 289.8 
L 1051.406904 292.2 
L 1051.406904 287.4 
z
" clip-path="url(#pc7c99a4a51)" style="fill: #333333; stroke: #333333; stroke-width: 1.5; stroke-linecap: round"/>
   </g>
   <g id="patch_34">
    <path d="M 173.2275 563.2155 
L 194.4225 563.2155 
Q 195.8355 563.2155 195.8355 561.8025 
L 195.8355 540.6075 
Q 195.8355 539.1945 194.4225 539.1945 
L 173.2275 539.1945 
Q 171.8145 539.1945 171.8145 540.6075 
L 171.8145 561.8025 
Q 171.8145 563.2155 173.2275 563.2155 
z
" clip-path="url(#pc7c99a4a51)" style="fill: #ffe066; opacity: 0.7; stroke: #808080; stroke-width: 0.5; stroke-linejoin: miter"/>
   </g>
   <g id="patch_35">
    <path d="M 328.6575 563.2155 
L 349.8525 563.2155 
Q 351.2655 563.2155 351.2655 561.8025 
L 351.2655 540.6075 
Q 351.2655 539.1945 349.8525 539.1945 
L 328.6575 539.1945 
Q 327.2445 539.1945 327.2445 540.6075 
L 327.2445 561.8025 
Q 327.2445 563.2155 328.6575 563.2155 
z
" clip-path="url(#pc7c99a4a51)" style="fill: #e0e0e0; opacity: 0.7; stroke: #808080; stroke-width: 0.5; stroke-linejoin: miter"/>
   </g>
   <g id="patch_36">
    <path d="M 484.0875 563.2155 
L 505.2825 563.2155 
Q 506.6955 563.2155 506.6955 561.8025 
L 506.6955 540.6075 
Q 506.6955 539.1945 505.2825 539.1945 
L 484.0875 539.1945 
Q 482.6745 539.1945 482.6745 540.6075 
L 482.6745 561.8025 
Q 482.6745 563.2155 484.0875 563.2155 
z
" clip-path="url(#pc7c99a4a51)" style="fill: #ff9500; opacity: 0.7; stroke: #808080; stroke-width: 0.5; stroke-linejoin: miter"/>
   </g>
   <g id="patch_37">
    <path d="M 639.5175 563.2155 
L 660.7125 563.2155 
Q 662.1255 563.2155 662.1255 561.8025 
L 662.1255 540.6075 
Q 662.1255 539.1945 660.7125 539.1945 
L 639.5175 539.1945 
Q 638.1045 539.1945 638.1045 540.6075 
L 638.1045 561.8025 
Q 638.1045 563.2155 639.5175 563.2155 
z
" clip-path="url(#pc7c99a4a51)" style="fill: #4a90d9; opacity: 0.7; stroke: #808080; stroke-width: 0.5; stroke-linejoin: miter"/>
   </g>
   <g id="patch_38">
    <path d="M 794.9475 563.2155 
L 816.1425 563.2155 
Q 817.5555 563.2155 817.5555 561.8025 
L 817.5555 540.6075 
Q 817.5555 539.1945 816.1425 539.1945 
L 794.9475 539.1945 
Q 793.5345 539.1945 793.5345 540.6075 
L 793.5345 561.8025 
Q 793.5345 563.2155 794.9475 563.2155 
z
" clip-path="url(#pc7c99a4a51)" style="fill: #4a90d9; opacity: 0.7; stroke: #808080; stroke-width: 0.5; stroke-linejoin: miter"/>
   </g>
   <g id="patch_39">
    <path d="M 950.3775 563.2155 
L 971.5725 563.2155 
Q 972.9855 563.2155 972.9855 561.8025 
L 972.9855 540.6075 
Q 972.9855 539.1945 971.5725 539.1945 
L 950.3775 539.1945 
Q 948.9645 539.1945 948.9645 540.6075 
L 948.9645 561.8025 
Q 948.9645 563.2155 950.3775 563.2155 
z
" clip-path="url(#pc7c99a4a51)" style="fill: #7cb342; opacity: 0.7; stroke: #808080; stroke-width: 0.5; stroke-linejoin: miter"/>
   </g>
   <g id="text_1">
    <!-- Input -->
    <g style="fill: #333333" transform="translate(98.227344 206.472812)scale(0.1 -0.1)">
     <defs>
      <path id="DejaVuSans-Bold-49" d="M 588 4666 
L 1791 4666 
L 1791 0 
L 588 0 
L 588 4666 
z
" transform="scale(0.015625)"/>
      <path id="DejaVuSans-Bold-6e" d="M 4056 2131 
L 4056 0 
L 2931 0 
L 2931 347 
L 2931 1631 
Q 2931 2084 2911 2256 
Q 2891 2428 2841 2509 
Q 2775 2619 2662 2680 
Q 2550 2741 2406 2741 
Q 2056 2741 1856 2470 
Q 1656 2200 1656 1722 
L 1656 0 
L 538 0 
L 538 3500 
L 1656 3500 
L 1656 2988 
Q 1909 3294 2193 3439 
Q 2478 3584 2822 3584 
Q 3428 3584 3742 3212 
Q 4056 2841 4056 2131 
z
" transform="scale(0.015625)"/>
      <path id="DejaVuSans-Bold-70" d="M 1656 506 
L 1656 -1331 
L 538 -1331 
L 538 3500 
L 1656 3500 
L 1656 2988 
Q 1888 3294 2169 3439 
Q 2450 3584 2816 3584 
Q 3463 3584 3878 3070 
Q 4294 2556 4294 1747 
Q 4294 938 3878 423 
Q 3463 -91 2816 -91 
Q 2450 -91 2169 54 
Q 1888 200 1656 506 
z
M 2400 2772 
Q 2041 2772 1848 2508 
Q 1656 2244 1656 1747 
Q 1656 1250 1848 986 
Q 2041 722 2400 722 
Q 2759 722 2948 984 
Q 3138 1247 3138 1747 
Q 3138 2247 2948 2509 
Q 2759 2772 2400 2772 
z
" transform="scale(0.015625)"/>
      <path id="DejaVuSans-Bold-75" d="M 500 1363 
L 500 3500 
L 1625 3500 
L 1625 3150 
Q 1625 2866 1622 2436 
Q 1619 2006 1619 1863 
Q 1619 1441 1641 1255 
Q 1663 1069 1716 984 
Q 1784 875 1895 815 
Q 2006 756 2150 756 
Q 2500 756 2700 1025 
Q 2900 1294 2900 1772 
L 2900 3500 
L 4019 3500 
L 4019 0 
L 2900 0 
L 2900 506 
Q 2647 200 2364 54 
Q 2081 -91 1741 -91 
Q 1134 -91 817 281 
Q 500 653 500 1363 
z
" transform="scale(0.015625)"/>
      <path id="DejaVuSans-Bold-74" d="M 1759 4494 
L 1759 3500 
L 2913 3500 
L 2913 2700 
L 1759 2700 
L 1759 1216 
Q 1759 972 1856 886 
Q 1953 800 2241 800 
L 2816 800 
L 2816 0 
L 1856 0 
Q 1194 0 917 276 
Q 641 553 641 1216 
L 641 2700 
L 84 2700 
L 84 3500 
L 641 3500 
L 641 4494 
L 1759 4494 
z
" transform="scale(0.015625)"/>
     </defs>
     <use xlink:href="#DejaVuSans-Bold-49"/>
     <use xlink:href="#DejaVuSans-Bold-6e" x="37.207031"/>
     <use xlink:href="#DejaVuSans-Bold-70" x="108.398438"/>
     <use xlink:href="#DejaVuSans-Bold-75" x="179.980469"/>
     <use xlink:href="#DejaVuSans-Bold-74" x="251.171875"/>
    </g>
   </g>
   <g id="text_2">
    <!-- $X_t$ -->
    <g style="fill: #333333" transform="translate(108.225 271.364375)scale(0.1 -0.1)">
     <defs>
      <path id="DejaVuSans-Oblique-58" d="M 878 4666 
L 1516 4666 
L 2316 2981 
L 3763 4666 
L 4500 4666 
L 2578 2438 
L 3738 0 
L 3103 0 
L 2163 1966 
L 459 0 
L -275 0 
L 1906 2509 
L 878 4666 
z
" transform="scale(0.015625)"/>
      <path id="DejaVuSans-Oblique-74" d="M 2706 3500 
L 2619 3053 
L 1472 3053 
L 1100 1153 
Q 1081 1047 1072 975 
Q 1063 903 1063 863 
Q 1063 663 1183 572 
Q 1303 481 1569 481 
L 2150 481 
L 2053 0 
L 1503 0 
Q 991 0 739 200 
Q 488 400 488 806 
Q 488 878 497 964 
Q 506 1050 525 1153 
L 897 3053 
L 409 3053 
L 500 3500 
L 978 3500 
L 1172 4494 
L 1747 4494 
L 1556 3500 
L 2706 3500 
z
" transform="scale(0.015625)"/>
     </defs>
     <use xlink:href="#DejaVuSans-Oblique-58" transform="translate(0 0.09375)"/>
     <use xlink:href="#DejaVuSans-Oblique-74" transform="translate(68.505859 -16.3125)scale(0.7)"/>
    </g>
   </g>
   <g id="text_3">
    <!-- $Y_t$ -->
    <g style="fill: #333333" transform="translate(108.575 313.754375)scale(0.1 -0.1)">
     <defs>
      <path id="DejaVuSans-Oblique-59" d="M 403 4666 
L 1081 4666 
L 1953 2747 
L 3616 4666 
L 4325 4666 
L 2209 2222 
L 1778 0 
L 1147 0 
L 1575 2222 
L 403 4666 
z
" transform="scale(0.015625)"/>
     </defs>
     <use xlink:href="#DejaVuSans-Oblique-59" transform="translate(0 0.09375)"/>
     <use xlink:href="#DejaVuSans-Oblique-74" transform="translate(61.083984 -16.3125)scale(0.7)"/>
    </g>
   </g>
   <g id="text_4">
    <!-- Features &amp; -->
    <g transform="translate(91.27875 387.72375)scale(0.08 -0.08)">
     <defs>
      <path id="DejaVuSans-Oblique-46" d="M 1081 4666 
L 3756 4666 
L 3653 4134 
L 1606 4134 
L 1338 2759 
L 3188 2759 
L 3084 2228 
L 1234 2228 
L 800 0 
L 172 0 
L 1081 4666 
z
" transform="scale(0.015625)"/>
      <path id="DejaVuSans-Oblique-65" d="M 3078 2063 
Q 3088 2113 3092 2166 
Q 3097 2219 3097 2272 
Q 3097 2653 2873 2875 
Q 2650 3097 2266 3097 
Q 1838 3097 1509 2826 
Q 1181 2556 1013 2059 
L 3078 2063 
z
M 3578 1613 
L 903 1613 
Q 884 1494 878 1425 
Q 872 1356 872 1306 
Q 872 872 1139 634 
Q 1406 397 1894 397 
Q 2269 397 2603 481 
Q 2938 566 3225 728 
L 3116 159 
Q 2806 34 2476 -28 
Q 2147 -91 1806 -91 
Q 1078 -91 686 257 
Q 294 606 294 1247 
Q 294 1794 489 2264 
Q 684 2734 1063 3103 
Q 1306 3334 1642 3459 
Q 1978 3584 2356 3584 
Q 2950 3584 3301 3228 
Q 3653 2872 3653 2272 
Q 3653 2128 3634 1964 
Q 3616 1800 3578 1613 
z
" transform="scale(0.015625)"/>
      <path id="DejaVuSans-Oblique-61" d="M 3438 1997 
L 3047 0 
L 2472 0 
L 2578 531 
Q 2325 219 2001 64 
Q 1678 -91 1281 -91 
Q 834 -91 548 182 
Q 263 456 263 884 
Q 263 1497 752 1853 
Q 1241 2209 2100 2209 
L 2900 2209 
L 2931 2363 
Q 2938 2388 2941 2417 
Q 2944 2447 2944 2509 
Q 2944 2788 2717 2942 
Q 2491 3097 2081 3097 
Q 1800 3097 1504 3025 
Q 1209 2953 897 2809 
L 997 3341 
Q 1322 3463 1633 3523 
Q 1944 3584 2234 3584 
Q 2853 3584 3176 3315 
Q 3500 3047 3500 2534 
Q 3500 2431 3484 2292 
Q 3469 2153 3438 1997 
z
M 2816 1759 
L 2241 1759 
Q 1534 1759 1195 1570 
Q 856 1381 856 984 
Q 856 709 1029 553 
Q 1203 397 1509 397 
Q 1978 397 2328 733 
Q 2678 1069 2791 1631 
L 2816 1759 
z
" transform="scale(0.015625)"/>
      <path id="DejaVuSans-Oblique-75" d="M 428 1388 
L 838 3500 
L 1416 3500 
L 1006 1409 
Q 975 1256 961 1147 
Q 947 1038 947 966 
Q 947 700 1109 554 
Q 1272 409 1569 409 
Q 2031 409 2368 721 
Q 2706 1034 2809 1563 
L 3194 3500 
L 3769 3500 
L 3091 0 
L 2516 0 
L 2631 550 
Q 2388 244 2052 76 
Q 1716 -91 1338 -91 
Q 878 -91 622 161 
Q 366 413 366 863 
Q 366 956 381 1097 
Q 397 1238 428 1388 
z
" transform="scale(0.015625)"/>
      <path id="DejaVuSans-Oblique-72" d="M 2853 2969 
Q 2766 3016 2653 3041 
Q 2541 3066 2413 3066 
Q 1953 3066 1609 2717 
Q 1266 2369 1153 1784 
L 800 0 
L 225 0 
L 909 3500 
L 1484 3500 
L 1375 2956 
Q 1603 3259 1920 3421 
Q 2238 3584 2597 3584 
Q 2691 3584 2781 3573 
Q 2872 3563 2963 3538 
L 2853 2969 
z
" transform="scale(0.015625)"/>
      <path id="DejaVuSans-Oblique-73" d="M 3200 3397 
L 3091 2853 
Q 2863 2978 2609 3040 
Q 2356 3103 2088 3103 
Q 1634 3103 1373 2948 
Q 1113 2794 1113 2528 
Q 1113 2219 1719 2053 
Q 1766 2041 1788 2034 
L 1972 1978 
Q 2547 1819 2739 1644 
Q 2931 1469 2931 1166 
Q 2931 609 2489 259 
Q 2047 -91 1331 -91 
Q 1053 -91 747 -37 
Q 441 16 72 128 
L 184 722 
Q 500 559 806 475 
Q 1113 391 1394 391 
Q 1816 391 2080 572 
Q 2344 753 2344 1031 
Q 2344 1331 1650 1516 
L 1591 1531 
L 1394 1581 
Q 956 1697 753 1886 
Q 550 2075 550 2369 
Q 550 2928 970 3256 
Q 1391 3584 2113 3584 
Q 2397 3584 2667 3537 
Q 2938 3491 3200 3397 
z
" transform="scale(0.015625)"/>
      <path id="DejaVuSans-Oblique-20" transform="scale(0.015625)"/>
      <path id="DejaVuSans-Oblique-26" d="M 3022 813 
L 1691 2509 
Q 1313 2234 1117 1925 
Q 922 1616 922 1294 
Q 922 897 1189 656 
Q 1456 416 1900 416 
Q 2194 416 2480 517 
Q 2766 619 3022 813 
z
M 4709 2503 
Q 4569 2006 4339 1593 
Q 4109 1181 3788 844 
L 4441 0 
L 3653 0 
L 3322 434 
Q 2991 175 2609 42 
Q 2228 -91 1813 -91 
Q 1122 -91 711 250 
Q 300 591 300 1153 
Q 300 1634 589 2062 
Q 878 2491 1447 2853 
Q 1350 2997 1304 3145 
Q 1259 3294 1259 3463 
Q 1259 3675 1331 3865 
Q 1403 4056 1538 4213 
Q 1753 4469 2078 4609 
Q 2403 4750 2778 4750 
Q 3022 4750 3269 4694 
Q 3516 4638 3769 4525 
L 3659 3956 
Q 3425 4103 3192 4179 
Q 2959 4256 2741 4256 
Q 2353 4256 2111 4054 
Q 1869 3853 1869 3541 
Q 1869 3403 1928 3268 
Q 1988 3134 2203 2859 
L 3475 1234 
Q 3709 1481 3875 1801 
Q 4041 2122 4128 2503 
L 4709 2503 
z
" transform="scale(0.015625)"/>
     </defs>
     <use xlink:href="#DejaVuSans-Oblique-46"/>
     <use xlink:href="#DejaVuSans-Oblique-65" x="57.519531"/>
     <use xlink:href="#DejaVuSans-Oblique-61" x="119.042969"/>
     <use xlink:href="#DejaVuSans-Oblique-74" x="180.322266"/>
     <use xlink:href="#DejaVuSans-Oblique-75" x="219.53125"/>
     <use xlink:href="#DejaVuSans-Oblique-72" x="282.910156"/>
     <use xlink:href="#DejaVuSans-Oblique-65" x="324.023438"/>
     <use xlink:href="#DejaVuSans-Oblique-73" x="385.546875"/>
     <use xlink:href="#DejaVuSans-Oblique-20" x="437.646484"/>
     <use xlink:href="#DejaVuSans-Oblique-26" x="469.433594"/>
    </g>
    <!-- Target -->
    <g transform="translate(100.4875 396.682)scale(0.08 -0.08)">
     <defs>
      <path id="DejaVuSans-Oblique-54" d="M 378 4666 
L 4325 4666 
L 4225 4134 
L 2559 4134 
L 1759 0 
L 1125 0 
L 1925 4134 
L 275 4134 
L 378 4666 
z
" transform="scale(0.015625)"/>
      <path id="DejaVuSans-Oblique-67" d="M 3816 3500 
L 3219 434 
Q 3047 -456 2561 -893 
Q 2075 -1331 1253 -1331 
Q 950 -1331 690 -1286 
Q 431 -1241 206 -1147 
L 313 -588 
Q 525 -725 762 -790 
Q 1000 -856 1269 -856 
Q 1816 -856 2167 -557 
Q 2519 -259 2631 300 
L 2681 563 
Q 2441 288 2122 144 
Q 1803 0 1434 0 
Q 903 0 598 351 
Q 294 703 294 1319 
Q 294 1803 478 2267 
Q 663 2731 997 3091 
Q 1219 3328 1514 3456 
Q 1809 3584 2131 3584 
Q 2484 3584 2746 3420 
Q 3009 3256 3138 2956 
L 3238 3500 
L 3816 3500 
z
M 2950 2216 
Q 2950 2641 2750 2872 
Q 2550 3103 2181 3103 
Q 1953 3103 1747 3012 
Q 1541 2922 1394 2759 
Q 1156 2491 1023 2127 
Q 891 1763 891 1375 
Q 891 944 1092 712 
Q 1294 481 1672 481 
Q 2219 481 2584 976 
Q 2950 1472 2950 2216 
z
" transform="scale(0.015625)"/>
     </defs>
     <use xlink:href="#DejaVuSans-Oblique-54"/>
     <use xlink:href="#DejaVuSans-Oblique-61" x="50.583984"/>
     <use xlink:href="#DejaVuSans-Oblique-72" x="111.863281"/>
     <use xlink:href="#DejaVuSans-Oblique-67" x="152.976562"/>
     <use xlink:href="#DejaVuSans-Oblique-65" x="216.453125"/>
     <use xlink:href="#DejaVuSans-Oblique-74" x="277.976562"/>
    </g>
   </g>
   <g id="text_5">
    <!-- GRU Backbone -->
    <g style="fill: #333333" transform="translate(354.58125 82.835312)scale(0.1 -0.1)">
     <defs>
      <path id="DejaVuSans-Bold-47" d="M 4781 347 
Q 4331 128 3847 18 
Q 3363 -91 2847 -91 
Q 1681 -91 1000 561 
Q 319 1213 319 2328 
Q 319 3456 1012 4103 
Q 1706 4750 2913 4750 
Q 3378 4750 3804 4662 
Q 4231 4575 4609 4403 
L 4609 3438 
Q 4219 3659 3833 3768 
Q 3447 3878 3059 3878 
Q 2341 3878 1952 3476 
Q 1563 3075 1563 2328 
Q 1563 1588 1938 1184 
Q 2313 781 3003 781 
Q 3191 781 3352 804 
Q 3513 828 3641 878 
L 3641 1784 
L 2906 1784 
L 2906 2591 
L 4781 2591 
L 4781 347 
z
" transform="scale(0.015625)"/>
      <path id="DejaVuSans-Bold-52" d="M 2297 2597 
Q 2675 2597 2839 2737 
Q 3003 2878 3003 3200 
Q 3003 3519 2839 3656 
Q 2675 3794 2297 3794 
L 1791 3794 
L 1791 2597 
L 2297 2597 
z
M 1791 1766 
L 1791 0 
L 588 0 
L 588 4666 
L 2425 4666 
Q 3347 4666 3776 4356 
Q 4206 4047 4206 3378 
Q 4206 2916 3982 2619 
Q 3759 2322 3309 2181 
Q 3556 2125 3751 1926 
Q 3947 1728 4147 1325 
L 4800 0 
L 3519 0 
L 2950 1159 
Q 2778 1509 2601 1637 
Q 2425 1766 2131 1766 
L 1791 1766 
z
" transform="scale(0.015625)"/>
      <path id="DejaVuSans-Bold-55" d="M 588 4666 
L 1791 4666 
L 1791 1869 
Q 1791 1291 1980 1042 
Q 2169 794 2597 794 
Q 3028 794 3217 1042 
Q 3406 1291 3406 1869 
L 3406 4666 
L 4609 4666 
L 4609 1869 
Q 4609 878 4112 393 
Q 3616 -91 2597 -91 
Q 1581 -91 1084 393 
Q 588 878 588 1869 
L 588 4666 
z
" transform="scale(0.015625)"/>
      <path id="DejaVuSans-Bold-20" transform="scale(0.015625)"/>
      <path id="DejaVuSans-Bold-42" d="M 2456 2859 
Q 2741 2859 2887 2984 
Q 3034 3109 3034 3353 
Q 3034 3594 2887 3720 
Q 2741 3847 2456 3847 
L 1791 3847 
L 1791 2859 
L 2456 2859 
z
M 2497 819 
Q 2859 819 3042 972 
Q 3225 1125 3225 1434 
Q 3225 1738 3044 1889 
Q 2863 2041 2497 2041 
L 1791 2041 
L 1791 819 
L 2497 819 
z
M 3616 2497 
Q 4003 2384 4215 2081 
Q 4428 1778 4428 1338 
Q 4428 663 3972 331 
Q 3516 0 2584 0 
L 588 0 
L 588 4666 
L 2394 4666 
Q 3366 4666 3802 4372 
Q 4238 4078 4238 3431 
Q 4238 3091 4078 2852 
Q 3919 2613 3616 2497 
z
" transform="scale(0.015625)"/>
      <path id="DejaVuSans-Bold-61" d="M 2106 1575 
Q 1756 1575 1579 1456 
Q 1403 1338 1403 1106 
Q 1403 894 1545 773 
Q 1688 653 1941 653 
Q 2256 653 2472 879 
Q 2688 1106 2688 1447 
L 2688 1575 
L 2106 1575 
z
M 3816 1997 
L 3816 0 
L 2688 0 
L 2688 519 
Q 2463 200 2181 54 
Q 1900 -91 1497 -91 
Q 953 -91 614 226 
Q 275 544 275 1050 
Q 275 1666 698 1953 
Q 1122 2241 2028 2241 
L 2688 2241 
L 2688 2328 
Q 2688 2594 2478 2717 
Q 2269 2841 1825 2841 
Q 1466 2841 1156 2769 
Q 847 2697 581 2553 
L 581 3406 
Q 941 3494 1303 3539 
Q 1666 3584 2028 3584 
Q 2975 3584 3395 3211 
Q 3816 2838 3816 1997 
z
" transform="scale(0.015625)"/>
      <path id="DejaVuSans-Bold-63" d="M 3366 3391 
L 3366 2478 
Q 3138 2634 2908 2709 
Q 2678 2784 2431 2784 
Q 1963 2784 1702 2511 
Q 1441 2238 1441 1747 
Q 1441 1256 1702 982 
Q 1963 709 2431 709 
Q 2694 709 2930 787 
Q 3166 866 3366 1019 
L 3366 103 
Q 3103 6 2833 -42 
Q 2563 -91 2291 -91 
Q 1344 -91 809 395 
Q 275 881 275 1747 
Q 275 2613 809 3098 
Q 1344 3584 2291 3584 
Q 2566 3584 2833 3536 
Q 3100 3488 3366 3391 
z
" transform="scale(0.015625)"/>
      <path id="DejaVuSans-Bold-6b" d="M 538 4863 
L 1656 4863 
L 1656 2216 
L 2944 3500 
L 4244 3500 
L 2534 1894 
L 4378 0 
L 3022 0 
L 1656 1459 
L 1656 0 
L 538 0 
L 538 4863 
z
" transform="scale(0.015625)"/>
      <path id="DejaVuSans-Bold-62" d="M 2400 722 
Q 2759 722 2948 984 
Q 3138 1247 3138 1747 
Q 3138 2247 2948 2509 
Q 2759 2772 2400 2772 
Q 2041 2772 1848 2508 
Q 1656 2244 1656 1747 
Q 1656 1250 1848 986 
Q 2041 722 2400 722 
z
M 1656 2988 
Q 1888 3294 2169 3439 
Q 2450 3584 2816 3584 
Q 3463 3584 3878 3070 
Q 4294 2556 4294 1747 
Q 4294 938 3878 423 
Q 3463 -91 2816 -91 
Q 2450 -91 2169 54 
Q 1888 200 1656 506 
L 1656 0 
L 538 0 
L 538 4863 
L 1656 4863 
L 1656 2988 
z
" transform="scale(0.015625)"/>
      <path id="DejaVuSans-Bold-6f" d="M 2203 2784 
Q 1831 2784 1636 2517 
Q 1441 2250 1441 1747 
Q 1441 1244 1636 976 
Q 1831 709 2203 709 
Q 2569 709 2762 976 
Q 2956 1244 2956 1747 
Q 2956 2250 2762 2517 
Q 2569 2784 2203 2784 
z
M 2203 3584 
Q 3106 3584 3614 3096 
Q 4122 2609 4122 1747 
Q 4122 884 3614 396 
Q 3106 -91 2203 -91 
Q 1297 -91 786 396 
Q 275 884 275 1747 
Q 275 2609 786 3096 
Q 1297 3584 2203 3584 
z
" transform="scale(0.015625)"/>
      <path id="DejaVuSans-Bold-65" d="M 4031 1759 
L 4031 1441 
L 1416 1441 
Q 1456 1047 1700 850 
Q 1944 653 2381 653 
Q 2734 653 3104 758 
Q 3475 863 3866 1075 
L 3866 213 
Q 3469 63 3072 -14 
Q 2675 -91 2278 -91 
Q 1328 -91 801 392 
Q 275 875 275 1747 
Q 275 2603 792 3093 
Q 1309 3584 2216 3584 
Q 3041 3584 3536 3087 
Q 4031 2591 4031 1759 
z
M 2881 2131 
Q 2881 2450 2695 2645 
Q 2509 2841 2209 2841 
Q 1884 2841 1681 2658 
Q 1478 2475 1428 2131 
L 2881 2131 
z
" transform="scale(0.015625)"/>
     </defs>
     <use xlink:href="#DejaVuSans-Bold-47"/>
     <use xlink:href="#DejaVuSans-Bold-52" x="82.080078"/>
     <use xlink:href="#DejaVuSans-Bold-55" x="159.082031"/>
     <use xlink:href="#DejaVuSans-Bold-20" x="240.283203"/>
     <use xlink:href="#DejaVuSans-Bold-42" x="275.097656"/>
     <use xlink:href="#DejaVuSans-Bold-61" x="351.318359"/>
     <use xlink:href="#DejaVuSans-Bold-63" x="418.798828"/>
     <use xlink:href="#DejaVuSans-Bold-6b" x="478.076172"/>
     <use xlink:href="#DejaVuSans-Bold-62" x="544.580078"/>
     <use xlink:href="#DejaVuSans-Bold-6f" x="616.162109"/>
     <use xlink:href="#DejaVuSans-Bold-6e" x="684.863281"/>
     <use xlink:href="#DejaVuSans-Bold-65" x="756.054688"/>
    </g>
   </g>
   <g id="text_6">
    <!-- Reset $r_t$ -->
    <g style="fill: #333333" transform="translate(307.71 165.113437)scale(0.09 -0.09)">
     <defs>
      <path id="DejaVuSans-52" d="M 2841 2188 
Q 3044 2119 3236 1894 
Q 3428 1669 3622 1275 
L 4263 0 
L 3584 0 
L 2988 1197 
Q 2756 1666 2539 1819 
Q 2322 1972 1947 1972 
L 1259 1972 
L 1259 0 
L 628 0 
L 628 4666 
L 2053 4666 
Q 2853 4666 3247 4331 
Q 3641 3997 3641 3322 
Q 3641 2881 3436 2590 
Q 3231 2300 2841 2188 
z
M 1259 4147 
L 1259 2491 
L 2053 2491 
Q 2509 2491 2742 2702 
Q 2975 2913 2975 3322 
Q 2975 3731 2742 3939 
Q 2509 4147 2053 4147 
L 1259 4147 
z
" transform="scale(0.015625)"/>
      <path id="DejaVuSans-65" d="M 3597 1894 
L 3597 1613 
L 953 1613 
Q 991 1019 1311 708 
Q 1631 397 2203 397 
Q 2534 397 2845 478 
Q 3156 559 3463 722 
L 3463 178 
Q 3153 47 2828 -22 
Q 2503 -91 2169 -91 
Q 1331 -91 842 396 
Q 353 884 353 1716 
Q 353 2575 817 3079 
Q 1281 3584 2069 3584 
Q 2775 3584 3186 3129 
Q 3597 2675 3597 1894 
z
M 3022 2063 
Q 3016 2534 2758 2815 
Q 2500 3097 2075 3097 
Q 1594 3097 1305 2825 
Q 1016 2553 972 2059 
L 3022 2063 
z
" transform="scale(0.015625)"/>
      <path id="DejaVuSans-73" d="M 2834 3397 
L 2834 2853 
Q 2591 2978 2328 3040 
Q 2066 3103 1784 3103 
Q 1356 3103 1142 2972 
Q 928 2841 928 2578 
Q 928 2378 1081 2264 
Q 1234 2150 1697 2047 
L 1894 2003 
Q 2506 1872 2764 1633 
Q 3022 1394 3022 966 
Q 3022 478 2636 193 
Q 2250 -91 1575 -91 
Q 1294 -91 989 -36 
Q 684 19 347 128 
L 347 722 
Q 666 556 975 473 
Q 1284 391 1588 391 
Q 1994 391 2212 530 
Q 2431 669 2431 922 
Q 2431 1156 2273 1281 
Q 2116 1406 1581 1522 
L 1381 1569 
Q 847 1681 609 1914 
Q 372 2147 372 2553 
Q 372 3047 722 3315 
Q 1072 3584 1716 3584 
Q 2034 3584 2315 3537 
Q 2597 3491 2834 3397 
z
" transform="scale(0.015625)"/>
      <path id="DejaVuSans-74" d="M 1172 4494 
L 1172 3500 
L 2356 3500 
L 2356 3053 
L 1172 3053 
L 1172 1153 
Q 1172 725 1289 603 
Q 1406 481 1766 481 
L 2356 481 
L 2356 0 
L 1766 0 
Q 1100 0 847 248 
Q 594 497 594 1153 
L 594 3053 
L 172 3053 
L 172 3500 
L 594 3500 
L 594 4494 
L 1172 4494 
z
" transform="scale(0.015625)"/>
      <path id="DejaVuSans-20" transform="scale(0.015625)"/>
     </defs>
     <use xlink:href="#DejaVuSans-52" transform="translate(0 0.09375)"/>
     <use xlink:href="#DejaVuSans-65" transform="translate(69.482422 0.09375)"/>
     <use xlink:href="#DejaVuSans-73" transform="translate(131.005859 0.09375)"/>
     <use xlink:href="#DejaVuSans-65" transform="translate(183.105469 0.09375)"/>
     <use xlink:href="#DejaVuSans-74" transform="translate(244.628906 0.09375)"/>
     <use xlink:href="#DejaVuSans-20" transform="translate(283.837891 0.09375)"/>
     <use xlink:href="#DejaVuSans-Oblique-72" transform="translate(315.625 0.09375)"/>
     <use xlink:href="#DejaVuSans-Oblique-74" transform="translate(356.738281 -16.3125)scale(0.7)"/>
    </g>
   </g>
   <g id="text_7">
    <!-- Update $u_t$ -->
    <g style="fill: #333333" transform="translate(444.465 165.105)scale(0.09 -0.09)">
     <defs>
      <path id="DejaVuSans-55" d="M 556 4666 
L 1191 4666 
L 1191 1831 
Q 1191 1081 1462 751 
Q 1734 422 2344 422 
Q 2950 422 3222 751 
Q 3494 1081 3494 1831 
L 3494 4666 
L 4128 4666 
L 4128 1753 
Q 4128 841 3676 375 
Q 3225 -91 2344 -91 
Q 1459 -91 1007 375 
Q 556 841 556 1753 
L 556 4666 
z
" transform="scale(0.015625)"/>
      <path id="DejaVuSans-70" d="M 1159 525 
L 1159 -1331 
L 581 -1331 
L 581 3500 
L 1159 3500 
L 1159 2969 
Q 1341 3281 1617 3432 
Q 1894 3584 2278 3584 
Q 2916 3584 3314 3078 
Q 3713 2572 3713 1747 
Q 3713 922 3314 415 
Q 2916 -91 2278 -91 
Q 1894 -91 1617 61 
Q 1341 213 1159 525 
z
M 3116 1747 
Q 3116 2381 2855 2742 
Q 2594 3103 2138 3103 
Q 1681 3103 1420 2742 
Q 1159 2381 1159 1747 
Q 1159 1113 1420 752 
Q 1681 391 2138 391 
Q 2594 391 2855 752 
Q 3116 1113 3116 1747 
z
" transform="scale(0.015625)"/>
      <path id="DejaVuSans-64" d="M 2906 2969 
L 2906 4863 
L 3481 4863 
L 3481 0 
L 2906 0 
L 2906 525 
Q 2725 213 2448 61 
Q 2172 -91 1784 -91 
Q 1150 -91 751 415 
Q 353 922 353 1747 
Q 353 2572 751 3078 
Q 1150 3584 1784 3584 
Q 2172 3584 2448 3432 
Q 2725 3281 2906 2969 
z
M 947 1747 
Q 947 1113 1208 752 
Q 1469 391 1925 391 
Q 2381 391 2643 752 
Q 2906 1113 2906 1747 
Q 2906 2381 2643 2742 
Q 2381 3103 1925 3103 
Q 1469 3103 1208 2742 
Q 947 2381 947 1747 
z
" transform="scale(0.015625)"/>
      <path id="DejaVuSans-61" d="M 2194 1759 
Q 1497 1759 1228 1600 
Q 959 1441 959 1056 
Q 959 750 1161 570 
Q 1363 391 1709 391 
Q 2188 391 2477 730 
Q 2766 1069 2766 1631 
L 2766 1759 
L 2194 1759 
z
M 3341 1997 
L 3341 0 
L 2766 0 
L 2766 531 
Q 2569 213 2275 61 
Q 1981 -91 1556 -91 
Q 1019 -91 701 211 
Q 384 513 384 1019 
Q 384 1609 779 1909 
Q 1175 2209 1959 2209 
L 2766 2209 
L 2766 2266 
Q 2766 2663 2505 2880 
Q 2244 3097 1772 3097 
Q 1472 3097 1187 3025 
Q 903 2953 641 2809 
L 641 3341 
Q 956 3463 1253 3523 
Q 1550 3584 1831 3584 
Q 2591 3584 2966 3190 
Q 3341 2797 3341 1997 
z
" transform="scale(0.015625)"/>
     </defs>
     <use xlink:href="#DejaVuSans-55" transform="translate(0 0.015625)"/>
     <use xlink:href="#DejaVuSans-70" transform="translate(73.193359 0.015625)"/>
     <use xlink:href="#DejaVuSans-64" transform="translate(136.669922 0.015625)"/>
     <use xlink:href="#DejaVuSans-61" transform="translate(200.146484 0.015625)"/>
     <use xlink:href="#DejaVuSans-74" transform="translate(261.425781 0.015625)"/>
     <use xlink:href="#DejaVuSans-65" transform="translate(300.634766 0.015625)"/>
     <use xlink:href="#DejaVuSans-20" transform="translate(362.158203 0.015625)"/>
     <use xlink:href="#DejaVuSans-Oblique-75" transform="translate(393.945312 0.015625)"/>
     <use xlink:href="#DejaVuSans-Oblique-74" transform="translate(457.324219 -16.390625)scale(0.7)"/>
    </g>
   </g>
   <g id="text_8">
    <!-- $r_t = \sigma(W_r[h_{t-1}, x_t])$ -->
    <g style="fill: #808080" transform="translate(363.96 118.784219)scale(0.07 -0.07)">
     <defs>
      <path id="DejaVuSans-3d" d="M 678 2906 
L 4684 2906 
L 4684 2381 
L 678 2381 
L 678 2906 
z
M 678 1631 
L 4684 1631 
L 4684 1100 
L 678 1100 
L 678 1631 
z
" transform="scale(0.015625)"/>
      <path id="DejaVuSans-Oblique-3c3" d="M 2219 3044 
Q 1744 3044 1422 2700 
Q 1081 2341 969 1747 
Q 844 1119 1044 756 
Q 1241 397 1706 397 
Q 2166 397 2503 759 
Q 2844 1122 2966 1747 
Q 3075 2319 2881 2700 
Q 2700 3044 2219 3044 
z
M 2309 3503 
L 4219 3500 
L 4106 2925 
L 3463 2925 
Q 3706 2438 3575 1747 
Q 3406 888 2884 400 
Q 2359 -91 1609 -91 
Q 856 -91 525 400 
Q 194 888 363 1747 
Q 528 2609 1050 3097 
Q 1484 3503 2309 3503 
z
" transform="scale(0.015625)"/>
      <path id="DejaVuSans-28" d="M 1984 4856 
Q 1566 4138 1362 3434 
Q 1159 2731 1159 2009 
Q 1159 1288 1364 580 
Q 1569 -128 1984 -844 
L 1484 -844 
Q 1016 -109 783 600 
Q 550 1309 550 2009 
Q 550 2706 781 3412 
Q 1013 4119 1484 4856 
L 1984 4856 
z
" transform="scale(0.015625)"/>
      <path id="DejaVuSans-Oblique-57" d="M 616 4666 
L 1228 4666 
L 1453 697 
L 3213 4666 
L 3916 4666 
L 4147 697 
L 5888 4666 
L 6528 4666 
L 4453 0 
L 3659 0 
L 3444 3891 
L 1697 0 
L 903 0 
L 616 4666 
z
" transform="scale(0.015625)"/>
      <path id="DejaVuSans-5b" d="M 550 4863 
L 1875 4863 
L 1875 4416 
L 1125 4416 
L 1125 -397 
L 1875 -397 
L 1875 -844 
L 550 -844 
L 550 4863 
z
" transform="scale(0.015625)"/>
      <path id="DejaVuSans-Oblique-68" d="M 3566 2113 
L 3156 0 
L 2578 0 
L 2988 2091 
Q 3016 2238 3031 2350 
Q 3047 2463 3047 2528 
Q 3047 2791 2881 2937 
Q 2716 3084 2419 3084 
Q 1956 3084 1617 2771 
Q 1278 2459 1178 1941 
L 800 0 
L 225 0 
L 1172 4863 
L 1747 4863 
L 1375 2950 
Q 1594 3244 1934 3414 
Q 2275 3584 2650 3584 
Q 3113 3584 3367 3334 
Q 3622 3084 3622 2631 
Q 3622 2519 3608 2391 
Q 3594 2263 3566 2113 
z
" transform="scale(0.015625)"/>
      <path id="DejaVuSans-2212" d="M 678 2272 
L 4684 2272 
L 4684 1741 
L 678 1741 
L 678 2272 
z
" transform="scale(0.015625)"/>
      <path id="DejaVuSans-31" d="M 794 531 
L 1825 531 
L 1825 4091 
L 703 3866 
L 703 4441 
L 1819 4666 
L 2450 4666 
L 2450 531 
L 3481 531 
L 3481 0 
L 794 0 
L 794 531 
z
" transform="scale(0.015625)"/>
      <path id="DejaVuSans-2c" d="M 750 794 
L 1409 794 
L 1409 256 
L 897 -744 
L 494 -744 
L 750 256 
L 750 794 
z
" transform="scale(0.015625)"/>
      <path id="DejaVuSans-Oblique-78" d="M 3841 3500 
L 2234 1784 
L 3219 0 
L 2559 0 
L 1819 1388 
L 531 0 
L -166 0 
L 1556 1844 
L 641 3500 
L 1300 3500 
L 1972 2234 
L 3144 3500 
L 3841 3500 
z
" transform="scale(0.015625)"/>
      <path id="DejaVuSans-5d" d="M 1947 4863 
L 1947 -844 
L 622 -844 
L 622 -397 
L 1369 -397 
L 1369 4416 
L 622 4416 
L 622 4863 
L 1947 4863 
z
" transform="scale(0.015625)"/>
      <path id="DejaVuSans-29" d="M 513 4856 
L 1013 4856 
Q 1481 4119 1714 3412 
Q 1947 2706 1947 2009 
Q 1947 1309 1714 600 
Q 1481 -109 1013 -844 
L 513 -844 
Q 928 -128 1133 580 
Q 1338 1288 1338 2009 
Q 1338 2731 1133 3434 
Q 928 4138 513 4856 
z
" transform="scale(0.015625)"/>
     </defs>
     <use xlink:href="#DejaVuSans-Oblique-72" transform="translate(0 0.015625)"/>
     <use xlink:href="#DejaVuSans-Oblique-74" transform="translate(41.113281 -16.390625)scale(0.7)"/>
     <use xlink:href="#DejaVuSans-3d" transform="translate(90.776367 0.015625)"/>
     <use xlink:href="#DejaVuSans-Oblique-3c3" transform="translate(194.047852 0.015625)"/>
     <use xlink:href="#DejaVuSans-28" transform="translate(257.426758 0.015625)"/>
     <use xlink:href="#DejaVuSans-Oblique-57" transform="translate(296.44043 0.015625)"/>
     <use xlink:href="#DejaVuSans-Oblique-72" transform="translate(395.317383 -16.390625)scale(0.7)"/>
     <use xlink:href="#DejaVuSans-5b" transform="translate(426.831055 0.015625)"/>
     <use xlink:href="#DejaVuSans-Oblique-68" transform="translate(465.844727 0.015625)"/>
     <use xlink:href="#DejaVuSans-Oblique-74" transform="translate(529.223633 -16.390625)scale(0.7)"/>
     <use xlink:href="#DejaVuSans-2212" transform="translate(570.307617 -16.390625)scale(0.7)"/>
     <use xlink:href="#DejaVuSans-31" transform="translate(642.597656 -16.390625)scale(0.7)"/>
     <use xlink:href="#DejaVuSans-2c" transform="translate(689.868164 0.015625)"/>
     <use xlink:href="#DejaVuSans-Oblique-78" transform="translate(741.137695 0.015625)"/>
     <use xlink:href="#DejaVuSans-Oblique-74" transform="translate(800.317383 -16.390625)scale(0.7)"/>
     <use xlink:href="#DejaVuSans-5d" transform="translate(830.498047 0.015625)"/>
     <use xlink:href="#DejaVuSans-29" transform="translate(869.511719 0.015625)"/>
    </g>
   </g>
   <g id="text_9">
    <!-- $u_t = \sigma(W_u[h_{t-1}, x_t])$ -->
    <g style="fill: #808080" transform="translate(329.485 206.806406)scale(0.07 -0.07)">
     <use xlink:href="#DejaVuSans-Oblique-75" transform="translate(0 0.015625)"/>
     <use xlink:href="#DejaVuSans-Oblique-74" transform="translate(63.378906 -16.390625)scale(0.7)"/>
     <use xlink:href="#DejaVuSans-3d" transform="translate(113.041992 0.015625)"/>
     <use xlink:href="#DejaVuSans-Oblique-3c3" transform="translate(216.313477 0.015625)"/>
     <use xlink:href="#DejaVuSans-28" transform="translate(279.692383 0.015625)"/>
     <use xlink:href="#DejaVuSans-Oblique-57" transform="translate(318.706055 0.015625)"/>
     <use xlink:href="#DejaVuSans-Oblique-75" transform="translate(417.583008 -16.390625)scale(0.7)"/>
     <use xlink:href="#DejaVuSans-5b" transform="translate(464.682617 0.015625)"/>
     <use xlink:href="#DejaVuSans-Oblique-68" transform="translate(503.696289 0.015625)"/>
     <use xlink:href="#DejaVuSans-Oblique-74" transform="translate(567.075195 -16.390625)scale(0.7)"/>
     <use xlink:href="#DejaVuSans-2212" transform="translate(608.15918 -16.390625)scale(0.7)"/>
     <use xlink:href="#DejaVuSans-31" transform="translate(680.449219 -16.390625)scale(0.7)"/>
     <use xlink:href="#DejaVuSans-2c" transform="translate(727.719727 0.015625)"/>
     <use xlink:href="#DejaVuSans-Oblique-78" transform="translate(778.989258 0.015625)"/>
     <use xlink:href="#DejaVuSans-Oblique-74" transform="translate(838.168945 -16.390625)scale(0.7)"/>
     <use xlink:href="#DejaVuSans-5d" transform="translate(868.349609 0.015625)"/>
     <use xlink:href="#DejaVuSans-29" transform="translate(907.363281 0.015625)"/>
    </g>
   </g>
   <g id="text_10">
    <!-- $h_t$ -->
    <g style="fill: #333333" transform="translate(390.605 271.640312)scale(0.11 -0.11)">
     <use xlink:href="#DejaVuSans-Oblique-68" transform="translate(0 0.015625)"/>
     <use xlink:href="#DejaVuSans-Oblique-74" transform="translate(63.378906 -16.390625)scale(0.7)"/>
    </g>
   </g>
   <g id="text_11">
    <!-- hidden -->
    <g transform="translate(466.425 266.617328)scale(0.07 -0.07)">
     <defs>
      <path id="DejaVuSans-Oblique-69" d="M 1172 4863 
L 1747 4863 
L 1606 4134 
L 1031 4134 
L 1172 4863 
z
M 909 3500 
L 1484 3500 
L 800 0 
L 225 0 
L 909 3500 
z
" transform="scale(0.015625)"/>
      <path id="DejaVuSans-Oblique-64" d="M 2675 525 
Q 2444 222 2128 65 
Q 1813 -91 1428 -91 
Q 903 -91 598 267 
Q 294 625 294 1247 
Q 294 1766 478 2236 
Q 663 2706 1013 3078 
Q 1244 3325 1534 3454 
Q 1825 3584 2144 3584 
Q 2481 3584 2739 3421 
Q 2997 3259 3138 2956 
L 3513 4863 
L 4091 4863 
L 3144 0 
L 2566 0 
L 2675 525 
z
M 891 1350 
Q 891 897 1095 644 
Q 1300 391 1663 391 
Q 1931 391 2161 520 
Q 2391 650 2566 903 
Q 2750 1166 2856 1509 
Q 2963 1853 2963 2188 
Q 2963 2622 2758 2865 
Q 2553 3109 2194 3109 
Q 1922 3109 1687 2981 
Q 1453 2853 1288 2613 
Q 1106 2353 998 2009 
Q 891 1666 891 1350 
z
" transform="scale(0.015625)"/>
      <path id="DejaVuSans-Oblique-6e" d="M 3566 2113 
L 3156 0 
L 2578 0 
L 2988 2091 
Q 3016 2238 3031 2350 
Q 3047 2463 3047 2528 
Q 3047 2791 2881 2937 
Q 2716 3084 2419 3084 
Q 1956 3084 1622 2776 
Q 1288 2469 1184 1941 
L 800 0 
L 225 0 
L 903 3500 
L 1478 3500 
L 1363 2950 
Q 1603 3253 1940 3418 
Q 2278 3584 2650 3584 
Q 3113 3584 3367 3334 
Q 3622 3084 3622 2631 
Q 3622 2519 3608 2391 
Q 3594 2263 3566 2113 
z
" transform="scale(0.015625)"/>
     </defs>
     <use xlink:href="#DejaVuSans-Oblique-68"/>
     <use xlink:href="#DejaVuSans-Oblique-69" x="63.378906"/>
     <use xlink:href="#DejaVuSans-Oblique-64" x="91.162109"/>
     <use xlink:href="#DejaVuSans-Oblique-64" x="154.638672"/>
     <use xlink:href="#DejaVuSans-Oblique-65" x="218.115234"/>
     <use xlink:href="#DejaVuSans-Oblique-6e" x="279.638672"/>
    </g>
    <!-- state -->
    <g transform="translate(466.425 274.455797)scale(0.07 -0.07)">
     <use xlink:href="#DejaVuSans-Oblique-73"/>
     <use xlink:href="#DejaVuSans-Oblique-74" x="52.099609"/>
     <use xlink:href="#DejaVuSans-Oblique-61" x="91.308594"/>
     <use xlink:href="#DejaVuSans-Oblique-74" x="152.587891"/>
     <use xlink:href="#DejaVuSans-Oblique-65" x="191.796875"/>
    </g>
   </g>
   <g id="text_12">
    <!-- $d_t$ -->
    <g style="fill: #333333" transform="translate(320.425 377.339375)scale(0.1 -0.1)">
     <use xlink:href="#DejaVuSans-Oblique-64" transform="translate(0 0.015625)"/>
     <use xlink:href="#DejaVuSans-Oblique-74" transform="translate(63.476562 -16.390625)scale(0.7)"/>
    </g>
   </g>
   <g id="text_13">
    <!-- regime -->
    <g transform="translate(312.775469 429.353906)scale(0.07 -0.07)">
     <defs>
      <path id="DejaVuSans-Oblique-6d" d="M 5747 2113 
L 5338 0 
L 4763 0 
L 5166 2094 
Q 5191 2228 5203 2325 
Q 5216 2422 5216 2491 
Q 5216 2772 5059 2928 
Q 4903 3084 4622 3084 
Q 4203 3084 3875 2770 
Q 3547 2456 3450 1953 
L 3066 0 
L 2491 0 
L 2900 2094 
Q 2925 2209 2937 2307 
Q 2950 2406 2950 2484 
Q 2950 2769 2794 2926 
Q 2638 3084 2363 3084 
Q 1938 3084 1609 2770 
Q 1281 2456 1184 1953 
L 800 0 
L 225 0 
L 909 3500 
L 1484 3500 
L 1375 2956 
Q 1609 3263 1923 3423 
Q 2238 3584 2597 3584 
Q 2978 3584 3223 3384 
Q 3469 3184 3519 2828 
Q 3781 3197 4126 3390 
Q 4472 3584 4856 3584 
Q 5306 3584 5551 3325 
Q 5797 3066 5797 2591 
Q 5797 2488 5784 2364 
Q 5772 2241 5747 2113 
z
" transform="scale(0.015625)"/>
     </defs>
     <use xlink:href="#DejaVuSans-Oblique-72"/>
     <use xlink:href="#DejaVuSans-Oblique-65" x="41.113281"/>
     <use xlink:href="#DejaVuSans-Oblique-67" x="102.636719"/>
     <use xlink:href="#DejaVuSans-Oblique-69" x="166.113281"/>
     <use xlink:href="#DejaVuSans-Oblique-6d" x="193.896484"/>
     <use xlink:href="#DejaVuSans-Oblique-65" x="291.308594"/>
    </g>
   </g>
   <g id="text_14">
    <!-- $z_t$ -->
    <g style="fill: #333333" transform="translate(462.275 377.339375)scale(0.1 -0.1)">
     <defs>
      <path id="DejaVuSans-Oblique-7a" d="M 744 3500 
L 3475 3500 
L 3372 2975 
L 738 459 
L 2913 459 
L 2822 0 
L -19 0 
L 84 525 
L 2719 3041 
L 653 3041 
L 744 3500 
z
" transform="scale(0.015625)"/>
     </defs>
     <use xlink:href="#DejaVuSans-Oblique-7a" transform="translate(0 0.3125)"/>
     <use xlink:href="#DejaVuSans-Oblique-74" transform="translate(52.490234 -16.09375)scale(0.7)"/>
    </g>
   </g>
   <g id="text_15">
    <!-- latent -->
    <g transform="translate(456.191875 429.353906)scale(0.07 -0.07)">
     <defs>
      <path id="DejaVuSans-Oblique-6c" d="M 1172 4863 
L 1747 4863 
L 800 0 
L 225 0 
L 1172 4863 
z
" transform="scale(0.015625)"/>
     </defs>
     <use xlink:href="#DejaVuSans-Oblique-6c"/>
     <use xlink:href="#DejaVuSans-Oblique-61" x="27.783203"/>
     <use xlink:href="#DejaVuSans-Oblique-74" x="89.0625"/>
     <use xlink:href="#DejaVuSans-Oblique-65" x="128.271484"/>
     <use xlink:href="#DejaVuSans-Oblique-6e" x="189.794922"/>
     <use xlink:href="#DejaVuSans-Oblique-74" x="253.173828"/>
    </g>
   </g>
   <g id="text_16">
    <!-- $d_t \sim \mathrm{Cat}(\mathrm{softmax}(W_d h_t))$ -->
    <g style="fill: #808080" transform="translate(354.195 457.613906)scale(0.07 -0.07)">
     <defs>
      <path id="DejaVuSans-223c" d="M 4684 2556 
L 4684 1997 
Q 4356 1753 4076 1645 
Q 3797 1538 3494 1538 
Q 3150 1538 2694 1722 
Q 2663 1734 2641 1744 
Q 2622 1750 2575 1769 
Q 2091 1959 1797 1959 
Q 1522 1959 1253 1840 
Q 984 1722 678 1459 
L 678 2019 
Q 1006 2263 1286 2370 
Q 1566 2478 1869 2478 
Q 2213 2478 2672 2294 
Q 2706 2278 2722 2272 
Q 2741 2266 2788 2247 
Q 3272 2056 3566 2056 
Q 3834 2056 4098 2173 
Q 4363 2291 4684 2556 
z
" transform="scale(0.015625)"/>
      <path id="DejaVuSans-43" d="M 4122 4306 
L 4122 3641 
Q 3803 3938 3442 4084 
Q 3081 4231 2675 4231 
Q 1875 4231 1450 3742 
Q 1025 3253 1025 2328 
Q 1025 1406 1450 917 
Q 1875 428 2675 428 
Q 3081 428 3442 575 
Q 3803 722 4122 1019 
L 4122 359 
Q 3791 134 3420 21 
Q 3050 -91 2638 -91 
Q 1578 -91 968 557 
Q 359 1206 359 2328 
Q 359 3453 968 4101 
Q 1578 4750 2638 4750 
Q 3056 4750 3426 4639 
Q 3797 4528 4122 4306 
z
" transform="scale(0.015625)"/>
      <path id="DejaVuSans-6f" d="M 1959 3097 
Q 1497 3097 1228 2736 
Q 959 2375 959 1747 
Q 959 1119 1226 758 
Q 1494 397 1959 397 
Q 2419 397 2687 759 
Q 2956 1122 2956 1747 
Q 2956 2369 2687 2733 
Q 2419 3097 1959 3097 
z
M 1959 3584 
Q 2709 3584 3137 3096 
Q 3566 2609 3566 1747 
Q 3566 888 3137 398 
Q 2709 -91 1959 -91 
Q 1206 -91 779 398 
Q 353 888 353 1747 
Q 353 2609 779 3096 
Q 1206 3584 1959 3584 
z
" transform="scale(0.015625)"/>
      <path id="DejaVuSans-66" d="M 2375 4863 
L 2375 4384 
L 1825 4384 
Q 1516 4384 1395 4259 
Q 1275 4134 1275 3809 
L 1275 3500 
L 2222 3500 
L 2222 3053 
L 1275 3053 
L 1275 0 
L 697 0 
L 697 3053 
L 147 3053 
L 147 3500 
L 697 3500 
L 697 3744 
Q 697 4328 969 4595 
Q 1241 4863 1831 4863 
L 2375 4863 
z
" transform="scale(0.015625)"/>
      <path id="DejaVuSans-6d" d="M 3328 2828 
Q 3544 3216 3844 3400 
Q 4144 3584 4550 3584 
Q 5097 3584 5394 3201 
Q 5691 2819 5691 2113 
L 5691 0 
L 5113 0 
L 5113 2094 
Q 5113 2597 4934 2840 
Q 4756 3084 4391 3084 
Q 3944 3084 3684 2787 
Q 3425 2491 3425 1978 
L 3425 0 
L 2847 0 
L 2847 2094 
Q 2847 2600 2669 2842 
Q 2491 3084 2119 3084 
Q 1678 3084 1418 2786 
Q 1159 2488 1159 1978 
L 1159 0 
L 581 0 
L 581 3500 
L 1159 3500 
L 1159 2956 
Q 1356 3278 1631 3431 
Q 1906 3584 2284 3584 
Q 2666 3584 2933 3390 
Q 3200 3197 3328 2828 
z
" transform="scale(0.015625)"/>
      <path id="DejaVuSans-78" d="M 3513 3500 
L 2247 1797 
L 3578 0 
L 2900 0 
L 1881 1375 
L 863 0 
L 184 0 
L 1544 1831 
L 300 3500 
L 978 3500 
L 1906 2253 
L 2834 3500 
L 3513 3500 
z
" transform="scale(0.015625)"/>
     </defs>
     <use xlink:href="#DejaVuSans-Oblique-64" transform="translate(0 0.015625)"/>
     <use xlink:href="#DejaVuSans-Oblique-74" transform="translate(63.476562 -16.390625)scale(0.7)"/>
     <use xlink:href="#DejaVuSans-223c" transform="translate(113.139648 0.015625)"/>
     <use xlink:href="#DejaVuSans-43" transform="translate(216.411133 0.015625)"/>
     <use xlink:href="#DejaVuSans-61" transform="translate(286.235352 0.015625)"/>
     <use xlink:href="#DejaVuSans-74" transform="translate(347.514648 0.015625)"/>
     <use xlink:href="#DejaVuSans-28" transform="translate(386.723633 0.015625)"/>
     <use xlink:href="#DejaVuSans-73" transform="translate(425.737305 0.015625)"/>
     <use xlink:href="#DejaVuSans-6f" transform="translate(477.836914 0.015625)"/>
     <use xlink:href="#DejaVuSans-66" transform="translate(539.018555 0.015625)"/>
     <use xlink:href="#DejaVuSans-74" transform="translate(574.223633 0.015625)"/>
     <use xlink:href="#DejaVuSans-6d" transform="translate(613.432617 0.015625)"/>
     <use xlink:href="#DejaVuSans-61" transform="translate(710.844727 0.015625)"/>
     <use xlink:href="#DejaVuSans-78" transform="translate(772.124023 0.015625)"/>
     <use xlink:href="#DejaVuSans-28" transform="translate(831.303711 0.015625)"/>
     <use xlink:href="#DejaVuSans-Oblique-57" transform="translate(870.317383 0.015625)"/>
     <use xlink:href="#DejaVuSans-Oblique-64" transform="translate(969.194336 -16.390625)scale(0.7)"/>
     <use xlink:href="#DejaVuSans-Oblique-68" transform="translate(1016.362305 0.015625)"/>
     <use xlink:href="#DejaVuSans-Oblique-74" transform="translate(1079.741211 -16.390625)scale(0.7)"/>
     <use xlink:href="#DejaVuSans-29" transform="translate(1109.921875 0.015625)"/>
     <use xlink:href="#DejaVuSans-29" transform="translate(1148.935547 0.015625)"/>
    </g>
   </g>
   <g id="text_17">
    <!-- $z_t \sim \mathcal{N}(\mu(h_t), \sigma(h_t))$ -->
    <g style="fill: #808080" transform="translate(364.24 486.155)scale(0.07 -0.07)">
     <defs>
      <path id="STIXNonUnicode-Italic-e23a" d="M 4294 800 
L 4301 800 
Q 5293 4070 5408 4378 
Q 5472 4538 5523 4614 
Q 5830 5088 6253 5088 
Q 6490 5088 6650 4931 
Q 6810 4774 6810 4550 
Q 6810 4378 6720 4272 
Q 6630 4166 6470 4166 
Q 6368 4166 6297 4224 
Q 6227 4282 6198 4349 
Q 6170 4416 6118 4473 
Q 6067 4531 6003 4531 
Q 5939 4531 5881 4508 
Q 5824 4486 5785 4457 
Q 5747 4429 5705 4371 
Q 5664 4314 5638 4275 
Q 5613 4237 5584 4163 
Q 5555 4090 5545 4058 
Q 5536 4026 5510 3952 
Q 5485 3878 5485 3866 
L 4262 -154 
L 4134 -154 
Q 3078 1280 2483 2893 
L 2470 2893 
Q 2406 2579 2358 2361 
Q 2310 2144 2214 1792 
Q 2118 1440 2028 1190 
Q 1939 941 1804 653 
Q 1670 365 1529 185 
Q 1389 6 1203 -115 
Q 1018 -237 813 -237 
Q 576 -237 416 -80 
Q 256 77 256 301 
Q 256 474 345 579 
Q 435 685 595 685 
Q 698 685 768 627 
Q 838 570 867 502 
Q 896 435 947 377 
Q 998 320 1062 320 
Q 1222 320 1369 480 
Q 1517 640 1638 928 
Q 1760 1216 1862 1542 
Q 1965 1869 2057 2288 
Q 2150 2707 2214 3033 
Q 2278 3360 2348 3741 
Q 2419 4122 2458 4294 
L 2630 4294 
Q 2682 4166 2874 3680 
Q 3066 3194 3142 3008 
Q 3219 2822 3392 2422 
Q 3565 2022 3683 1798 
Q 3802 1574 3968 1292 
Q 4134 1011 4294 800 
z
" transform="scale(0.015625)"/>
      <path id="DejaVuSans-Oblique-3bc" d="M -84 -1331 
L 856 3500 
L 1434 3500 
L 1009 1322 
Q 997 1256 987 1175 
Q 978 1094 978 1013 
Q 978 722 1161 565 
Q 1344 409 1684 409 
Q 2147 409 2431 671 
Q 2716 934 2816 1459 
L 3213 3500 
L 3788 3500 
L 3266 809 
Q 3253 750 3248 706 
Q 3244 663 3244 628 
Q 3244 531 3283 486 
Q 3322 441 3406 441 
Q 3438 441 3492 456 
Q 3547 472 3647 513 
L 3559 50 
Q 3422 -19 3297 -55 
Q 3172 -91 3053 -91 
Q 2847 -91 2730 40 
Q 2613 172 2613 403 
Q 2438 153 2195 31 
Q 1953 -91 1625 -91 
Q 1334 -91 1117 43 
Q 900 178 831 397 
L 494 -1331 
L -84 -1331 
z
" transform="scale(0.015625)"/>
     </defs>
     <use xlink:href="#DejaVuSans-Oblique-7a" transform="translate(0 0.5)"/>
     <use xlink:href="#DejaVuSans-Oblique-74" transform="translate(52.490234 -15.90625)scale(0.7)"/>
     <use xlink:href="#DejaVuSans-223c" transform="translate(102.15332 0.5)"/>
     <use xlink:href="#STIXNonUnicode-Italic-e23a" transform="translate(205.424805 0.5)"/>
     <use xlink:href="#DejaVuSans-28" transform="translate(301.124786 0.5)"/>
     <use xlink:href="#DejaVuSans-Oblique-3bc" transform="translate(340.138458 0.5)"/>
     <use xlink:href="#DejaVuSans-28" transform="translate(403.761505 0.5)"/>
     <use xlink:href="#DejaVuSans-Oblique-68" transform="translate(442.775177 0.5)"/>
     <use xlink:href="#DejaVuSans-Oblique-74" transform="translate(506.154083 -15.90625)scale(0.7)"/>
     <use xlink:href="#DejaVuSans-29" transform="translate(536.334747 0.5)"/>
     <use xlink:href="#DejaVuSans-2c" transform="translate(575.348419 0.5)"/>
     <use xlink:href="#DejaVuSans-Oblique-3c3" transform="translate(626.61795 0.5)"/>
     <use xlink:href="#DejaVuSans-28" transform="translate(689.996857 0.5)"/>
     <use xlink:href="#DejaVuSans-Oblique-68" transform="translate(729.010529 0.5)"/>
     <use xlink:href="#DejaVuSans-Oblique-74" transform="translate(792.389435 -15.90625)scale(0.7)"/>
     <use xlink:href="#DejaVuSans-29" transform="translate(822.570099 0.5)"/>
     <use xlink:href="#DejaVuSans-29" transform="translate(861.583771 0.5)"/>
    </g>
   </g>
   <g id="text_18">
    <!-- Shared -->
    <g style="fill: #333333" transform="translate(729.054688 124.546875)scale(0.1 -0.1)">
     <defs>
      <path id="DejaVuSans-Bold-53" d="M 3834 4519 
L 3834 3531 
Q 3450 3703 3084 3790 
Q 2719 3878 2394 3878 
Q 1963 3878 1756 3759 
Q 1550 3641 1550 3391 
Q 1550 3203 1689 3098 
Q 1828 2994 2194 2919 
L 2706 2816 
Q 3484 2659 3812 2340 
Q 4141 2022 4141 1434 
Q 4141 663 3683 286 
Q 3225 -91 2284 -91 
Q 1841 -91 1394 -6 
Q 947 78 500 244 
L 500 1259 
Q 947 1022 1364 901 
Q 1781 781 2169 781 
Q 2563 781 2772 912 
Q 2981 1044 2981 1288 
Q 2981 1506 2839 1625 
Q 2697 1744 2272 1838 
L 1806 1941 
Q 1106 2091 782 2419 
Q 459 2747 459 3303 
Q 459 4000 909 4375 
Q 1359 4750 2203 4750 
Q 2588 4750 2994 4692 
Q 3400 4634 3834 4519 
z
" transform="scale(0.015625)"/>
      <path id="DejaVuSans-Bold-68" d="M 4056 2131 
L 4056 0 
L 2931 0 
L 2931 347 
L 2931 1625 
Q 2931 2084 2911 2256 
Q 2891 2428 2841 2509 
Q 2775 2619 2662 2680 
Q 2550 2741 2406 2741 
Q 2056 2741 1856 2470 
Q 1656 2200 1656 1722 
L 1656 0 
L 538 0 
L 538 4863 
L 1656 4863 
L 1656 2988 
Q 1909 3294 2193 3439 
Q 2478 3584 2822 3584 
Q 3428 3584 3742 3212 
Q 4056 2841 4056 2131 
z
" transform="scale(0.015625)"/>
      <path id="DejaVuSans-Bold-72" d="M 3138 2547 
Q 2991 2616 2845 2648 
Q 2700 2681 2553 2681 
Q 2122 2681 1889 2404 
Q 1656 2128 1656 1613 
L 1656 0 
L 538 0 
L 538 3500 
L 1656 3500 
L 1656 2925 
Q 1872 3269 2151 3426 
Q 2431 3584 2822 3584 
Q 2878 3584 2943 3579 
Q 3009 3575 3134 3559 
L 3138 2547 
z
" transform="scale(0.015625)"/>
      <path id="DejaVuSans-Bold-64" d="M 2919 2988 
L 2919 4863 
L 4044 4863 
L 4044 0 
L 2919 0 
L 2919 506 
Q 2688 197 2409 53 
Q 2131 -91 1766 -91 
Q 1119 -91 703 423 
Q 288 938 288 1747 
Q 288 2556 703 3070 
Q 1119 3584 1766 3584 
Q 2128 3584 2408 3439 
Q 2688 3294 2919 2988 
z
M 2181 722 
Q 2541 722 2730 984 
Q 2919 1247 2919 1747 
Q 2919 2247 2730 2509 
Q 2541 2772 2181 2772 
Q 1825 2772 1636 2509 
Q 1447 2247 1447 1747 
Q 1447 1247 1636 984 
Q 1825 722 2181 722 
z
" transform="scale(0.015625)"/>
     </defs>
     <use xlink:href="#DejaVuSans-Bold-53"/>
     <use xlink:href="#DejaVuSans-Bold-68" x="72.021484"/>
     <use xlink:href="#DejaVuSans-Bold-61" x="143.212891"/>
     <use xlink:href="#DejaVuSans-Bold-72" x="210.693359"/>
     <use xlink:href="#DejaVuSans-Bold-65" x="260.009766"/>
     <use xlink:href="#DejaVuSans-Bold-64" x="327.832031"/>
    </g>
    <!-- Regime DAG -->
    <g style="fill: #333333" transform="translate(714.024219 135.744687)scale(0.1 -0.1)">
     <defs>
      <path id="DejaVuSans-Bold-67" d="M 2919 594 
Q 2688 288 2409 144 
Q 2131 0 1766 0 
Q 1125 0 706 504 
Q 288 1009 288 1791 
Q 288 2575 706 3076 
Q 1125 3578 1766 3578 
Q 2131 3578 2409 3434 
Q 2688 3291 2919 2981 
L 2919 3500 
L 4044 3500 
L 4044 353 
Q 4044 -491 3511 -936 
Q 2978 -1381 1966 -1381 
Q 1638 -1381 1331 -1331 
Q 1025 -1281 716 -1178 
L 716 -306 
Q 1009 -475 1290 -558 
Q 1572 -641 1856 -641 
Q 2406 -641 2662 -400 
Q 2919 -159 2919 353 
L 2919 594 
z
M 2181 2772 
Q 1834 2772 1640 2515 
Q 1447 2259 1447 1791 
Q 1447 1309 1634 1061 
Q 1822 813 2181 813 
Q 2531 813 2725 1069 
Q 2919 1325 2919 1791 
Q 2919 2259 2725 2515 
Q 2531 2772 2181 2772 
z
" transform="scale(0.015625)"/>
      <path id="DejaVuSans-Bold-69" d="M 538 3500 
L 1656 3500 
L 1656 0 
L 538 0 
L 538 3500 
z
M 538 4863 
L 1656 4863 
L 1656 3950 
L 538 3950 
L 538 4863 
z
" transform="scale(0.015625)"/>
      <path id="DejaVuSans-Bold-6d" d="M 3781 2919 
Q 3994 3244 4286 3414 
Q 4578 3584 4928 3584 
Q 5531 3584 5847 3212 
Q 6163 2841 6163 2131 
L 6163 0 
L 5038 0 
L 5038 1825 
Q 5041 1866 5042 1909 
Q 5044 1953 5044 2034 
Q 5044 2406 4934 2573 
Q 4825 2741 4581 2741 
Q 4263 2741 4089 2478 
Q 3916 2216 3909 1719 
L 3909 0 
L 2784 0 
L 2784 1825 
Q 2784 2406 2684 2573 
Q 2584 2741 2328 2741 
Q 2006 2741 1831 2477 
Q 1656 2213 1656 1722 
L 1656 0 
L 531 0 
L 531 3500 
L 1656 3500 
L 1656 2988 
Q 1863 3284 2130 3434 
Q 2397 3584 2719 3584 
Q 3081 3584 3359 3409 
Q 3638 3234 3781 2919 
z
" transform="scale(0.015625)"/>
      <path id="DejaVuSans-Bold-44" d="M 1791 3756 
L 1791 909 
L 2222 909 
Q 2959 909 3348 1275 
Q 3738 1641 3738 2338 
Q 3738 3031 3350 3393 
Q 2963 3756 2222 3756 
L 1791 3756 
z
M 588 4666 
L 1856 4666 
Q 2919 4666 3439 4514 
Q 3959 4363 4331 4000 
Q 4659 3684 4818 3271 
Q 4978 2859 4978 2338 
Q 4978 1809 4818 1395 
Q 4659 981 4331 666 
Q 3956 303 3431 151 
Q 2906 0 1856 0 
L 588 0 
L 588 4666 
z
" transform="scale(0.015625)"/>
      <path id="DejaVuSans-Bold-41" d="M 3419 850 
L 1538 850 
L 1241 0 
L 31 0 
L 1759 4666 
L 3194 4666 
L 4922 0 
L 3713 0 
L 3419 850 
z
M 1838 1716 
L 3116 1716 
L 2478 3572 
L 1838 1716 
z
" transform="scale(0.015625)"/>
     </defs>
     <use xlink:href="#DejaVuSans-Bold-52"/>
     <use xlink:href="#DejaVuSans-Bold-65" x="77.001953"/>
     <use xlink:href="#DejaVuSans-Bold-67" x="144.824219"/>
     <use xlink:href="#DejaVuSans-Bold-69" x="216.40625"/>
     <use xlink:href="#DejaVuSans-Bold-6d" x="250.683594"/>
     <use xlink:href="#DejaVuSans-Bold-65" x="354.882812"/>
     <use xlink:href="#DejaVuSans-Bold-20" x="422.705078"/>
     <use xlink:href="#DejaVuSans-Bold-44" x="457.519531"/>
     <use xlink:href="#DejaVuSans-Bold-41" x="540.527344"/>
     <use xlink:href="#DejaVuSans-Bold-47" x="617.919922"/>
    </g>
   </g>
   <g id="text_19">
    <!-- $A_{\mathrm{shared}}$ -->
    <g style="fill: #333333" transform="translate(734.985 221.633437)scale(0.09 -0.09)">
     <defs>
      <path id="DejaVuSans-Oblique-41" d="M 2356 4666 
L 3072 4666 
L 3938 0 
L 3278 0 
L 3084 1197 
L 984 1197 
L 325 0 
L -341 0 
L 2356 4666 
z
M 2584 4044 
L 1275 1722 
L 2988 1722 
L 2584 4044 
z
" transform="scale(0.015625)"/>
      <path id="DejaVuSans-68" d="M 3513 2113 
L 3513 0 
L 2938 0 
L 2938 2094 
Q 2938 2591 2744 2837 
Q 2550 3084 2163 3084 
Q 1697 3084 1428 2787 
Q 1159 2491 1159 1978 
L 1159 0 
L 581 0 
L 581 4863 
L 1159 4863 
L 1159 2956 
Q 1366 3272 1645 3428 
Q 1925 3584 2291 3584 
Q 2894 3584 3203 3211 
Q 3513 2838 3513 2113 
z
" transform="scale(0.015625)"/>
      <path id="DejaVuSans-72" d="M 2631 2963 
Q 2534 3019 2420 3045 
Q 2306 3072 2169 3072 
Q 1681 3072 1420 2755 
Q 1159 2438 1159 1844 
L 1159 0 
L 581 0 
L 581 3500 
L 1159 3500 
L 1159 2956 
Q 1341 3275 1631 3429 
Q 1922 3584 2338 3584 
Q 2397 3584 2469 3576 
Q 2541 3569 2628 3553 
L 2631 2963 
z
" transform="scale(0.015625)"/>
     </defs>
     <use xlink:href="#DejaVuSans-Oblique-41" transform="translate(0 0.09375)"/>
     <use xlink:href="#DejaVuSans-73" transform="translate(68.408203 -16.3125)scale(0.7)"/>
     <use xlink:href="#DejaVuSans-68" transform="translate(104.87793 -16.3125)scale(0.7)"/>
     <use xlink:href="#DejaVuSans-61" transform="translate(149.243164 -16.3125)scale(0.7)"/>
     <use xlink:href="#DejaVuSans-72" transform="translate(192.138672 -16.3125)scale(0.7)"/>
     <use xlink:href="#DejaVuSans-65" transform="translate(220.917969 -16.3125)scale(0.7)"/>
     <use xlink:href="#DejaVuSans-64" transform="translate(263.984375 -16.3125)scale(0.7)"/>
    </g>
   </g>
   <g id="text_20">
    <!-- backbone -->
    <g transform="translate(731.971797 263.326406)scale(0.07 -0.07)">
     <defs>
      <path id="DejaVuSans-Oblique-62" d="M 3169 2138 
Q 3169 2591 2961 2847 
Q 2753 3103 2388 3103 
Q 2122 3103 1889 2973 
Q 1656 2844 1484 2597 
Q 1303 2338 1198 1995 
Q 1094 1653 1094 1313 
Q 1094 881 1298 636 
Q 1503 391 1863 391 
Q 2134 391 2365 517 
Q 2597 644 2772 891 
Q 2950 1147 3059 1487 
Q 3169 1828 3169 2138 
z
M 1381 2969 
Q 1594 3256 1914 3420 
Q 2234 3584 2584 3584 
Q 3122 3584 3439 3221 
Q 3756 2859 3756 2241 
Q 3756 1734 3570 1259 
Q 3384 784 3041 416 
Q 2816 172 2522 40 
Q 2228 -91 1906 -91 
Q 1566 -91 1316 65 
Q 1066 222 909 531 
L 806 0 
L 231 0 
L 1178 4863 
L 1753 4863 
L 1381 2969 
z
" transform="scale(0.015625)"/>
      <path id="DejaVuSans-Oblique-63" d="M 3431 3366 
L 3316 2797 
Q 3109 2947 2876 3022 
Q 2644 3097 2394 3097 
Q 2119 3097 1870 3000 
Q 1622 2903 1453 2725 
Q 1184 2453 1037 2087 
Q 891 1722 891 1331 
Q 891 859 1127 628 
Q 1363 397 1844 397 
Q 2081 397 2348 469 
Q 2616 541 2906 684 
L 2797 116 
Q 2547 13 2283 -39 
Q 2019 -91 1741 -91 
Q 1044 -91 669 257 
Q 294 606 294 1253 
Q 294 1797 489 2255 
Q 684 2713 1069 3078 
Q 1331 3328 1684 3456 
Q 2038 3584 2456 3584 
Q 2700 3584 2940 3529 
Q 3181 3475 3431 3366 
z
" transform="scale(0.015625)"/>
      <path id="DejaVuSans-Oblique-6b" d="M 1172 4863 
L 1747 4863 
L 1197 2028 
L 3169 3500 
L 3916 3500 
L 1716 1825 
L 3322 0 
L 2625 0 
L 1131 1709 
L 800 0 
L 225 0 
L 1172 4863 
z
" transform="scale(0.015625)"/>
      <path id="DejaVuSans-Oblique-6f" d="M 1625 -91 
Q 1009 -91 651 289 
Q 294 669 294 1325 
Q 294 1706 417 2101 
Q 541 2497 738 2766 
Q 1047 3184 1428 3384 
Q 1809 3584 2291 3584 
Q 2888 3584 3255 3212 
Q 3622 2841 3622 2241 
Q 3622 1825 3500 1412 
Q 3378 1000 3181 728 
Q 2875 309 2494 109 
Q 2113 -91 1625 -91 
z
M 891 1344 
Q 891 869 1089 633 
Q 1288 397 1691 397 
Q 2269 397 2648 901 
Q 3028 1406 3028 2181 
Q 3028 2634 2825 2865 
Q 2622 3097 2228 3097 
Q 1903 3097 1650 2945 
Q 1397 2794 1197 2484 
Q 1050 2253 970 1956 
Q 891 1659 891 1344 
z
" transform="scale(0.015625)"/>
     </defs>
     <use xlink:href="#DejaVuSans-Oblique-62"/>
     <use xlink:href="#DejaVuSans-Oblique-61" x="63.476562"/>
     <use xlink:href="#DejaVuSans-Oblique-63" x="124.755859"/>
     <use xlink:href="#DejaVuSans-Oblique-6b" x="179.736328"/>
     <use xlink:href="#DejaVuSans-Oblique-62" x="237.646484"/>
     <use xlink:href="#DejaVuSans-Oblique-6f" x="301.123047"/>
     <use xlink:href="#DejaVuSans-Oblique-6e" x="362.304688"/>
     <use xlink:href="#DejaVuSans-Oblique-65" x="425.683594"/>
    </g>
   </g>
   <g id="text_21">
    <!-- $A_{\mathrm{regime}}^{(d)}$ -->
    <g style="fill: #333333" transform="translate(734.67 313.65)scale(0.09 -0.09)">
     <defs>
      <path id="DejaVuSans-67" d="M 2906 1791 
Q 2906 2416 2648 2759 
Q 2391 3103 1925 3103 
Q 1463 3103 1205 2759 
Q 947 2416 947 1791 
Q 947 1169 1205 825 
Q 1463 481 1925 481 
Q 2391 481 2648 825 
Q 2906 1169 2906 1791 
z
M 3481 434 
Q 3481 -459 3084 -895 
Q 2688 -1331 1869 -1331 
Q 1566 -1331 1297 -1286 
Q 1028 -1241 775 -1147 
L 775 -588 
Q 1028 -725 1275 -790 
Q 1522 -856 1778 -856 
Q 2344 -856 2625 -561 
Q 2906 -266 2906 331 
L 2906 616 
Q 2728 306 2450 153 
Q 2172 0 1784 0 
Q 1141 0 747 490 
Q 353 981 353 1791 
Q 353 2603 747 3093 
Q 1141 3584 1784 3584 
Q 2172 3584 2450 3431 
Q 2728 3278 2906 2969 
L 2906 3500 
L 3481 3500 
L 3481 434 
z
" transform="scale(0.015625)"/>
      <path id="DejaVuSans-69" d="M 603 3500 
L 1178 3500 
L 1178 0 
L 603 0 
L 603 3500 
z
M 603 4863 
L 1178 4863 
L 1178 4134 
L 603 4134 
L 603 4863 
z
" transform="scale(0.015625)"/>
     </defs>
     <use xlink:href="#DejaVuSans-Oblique-41" transform="translate(0 0.234375)"/>
     <use xlink:href="#DejaVuSans-28" transform="translate(75.424974 47.810938)scale(0.7)"/>
     <use xlink:href="#DejaVuSans-Oblique-64" transform="translate(102.734544 47.810938)scale(0.7)"/>
     <use xlink:href="#DejaVuSans-29" transform="translate(147.168138 47.810938)scale(0.7)"/>
     <use xlink:href="#DejaVuSans-72" transform="translate(68.408203 -27.109375)scale(0.7)"/>
     <use xlink:href="#DejaVuSans-65" transform="translate(97.1875 -27.109375)scale(0.7)"/>
     <use xlink:href="#DejaVuSans-67" transform="translate(140.253906 -27.109375)scale(0.7)"/>
     <use xlink:href="#DejaVuSans-69" transform="translate(184.6875 -27.109375)scale(0.7)"/>
     <use xlink:href="#DejaVuSans-6d" transform="translate(204.135742 -27.109375)scale(0.7)"/>
     <use xlink:href="#DejaVuSans-65" transform="translate(272.324219 -27.109375)scale(0.7)"/>
    </g>
   </g>
   <g id="text_22">
    <!-- sparse -->
    <g transform="translate(737.419219 355.171406)scale(0.07 -0.07)">
     <defs>
      <path id="DejaVuSans-Oblique-70" d="M 3175 2156 
Q 3175 2616 2975 2859 
Q 2775 3103 2400 3103 
Q 2144 3103 1911 2972 
Q 1678 2841 1497 2591 
Q 1319 2344 1212 1994 
Q 1106 1644 1106 1300 
Q 1106 863 1306 627 
Q 1506 391 1875 391 
Q 2147 391 2380 519 
Q 2613 647 2778 891 
Q 2956 1147 3065 1494 
Q 3175 1841 3175 2156 
z
M 1394 2969 
Q 1625 3272 1939 3428 
Q 2253 3584 2638 3584 
Q 3175 3584 3472 3232 
Q 3769 2881 3769 2247 
Q 3769 1728 3584 1258 
Q 3400 788 3053 416 
Q 2822 169 2531 39 
Q 2241 -91 1919 -91 
Q 1547 -91 1294 64 
Q 1041 219 916 525 
L 556 -1331 
L -19 -1331 
L 922 3500 
L 1497 3500 
L 1394 2969 
z
" transform="scale(0.015625)"/>
     </defs>
     <use xlink:href="#DejaVuSans-Oblique-73"/>
     <use xlink:href="#DejaVuSans-Oblique-70" x="52.099609"/>
     <use xlink:href="#DejaVuSans-Oblique-61" x="115.576172"/>
     <use xlink:href="#DejaVuSans-Oblique-72" x="176.855469"/>
     <use xlink:href="#DejaVuSans-Oblique-73" x="217.96875"/>
     <use xlink:href="#DejaVuSans-Oblique-65" x="270.068359"/>
    </g>
    <!-- deviation -->
    <g transform="translate(732.756563 363.009875)scale(0.07 -0.07)">
     <defs>
      <path id="DejaVuSans-Oblique-76" d="M 459 3500 
L 1069 3500 
L 1581 525 
L 3256 3500 
L 3866 3500 
L 1875 0 
L 1100 0 
L 459 3500 
z
" transform="scale(0.015625)"/>
     </defs>
     <use xlink:href="#DejaVuSans-Oblique-64"/>
     <use xlink:href="#DejaVuSans-Oblique-65" x="63.476562"/>
     <use xlink:href="#DejaVuSans-Oblique-76" x="125"/>
     <use xlink:href="#DejaVuSans-Oblique-69" x="184.179688"/>
     <use xlink:href="#DejaVuSans-Oblique-61" x="211.962891"/>
     <use xlink:href="#DejaVuSans-Oblique-74" x="273.242188"/>
     <use xlink:href="#DejaVuSans-Oblique-69" x="312.451172"/>
     <use xlink:href="#DejaVuSans-Oblique-6f" x="340.234375"/>
     <use xlink:href="#DejaVuSans-Oblique-6e" x="401.416016"/>
    </g>
   </g>
   <g id="text_23">
    <!-- $A^{(d)}$ -->
    <g style="fill: #333333" transform="translate(741.015 398.258437)scale(0.09 -0.09)">
     <use xlink:href="#DejaVuSans-Oblique-41" transform="translate(0 0.529687)"/>
     <use xlink:href="#DejaVuSans-28" transform="translate(75.424974 38.810937)scale(0.7)"/>
     <use xlink:href="#DejaVuSans-Oblique-64" transform="translate(102.734544 38.810937)scale(0.7)"/>
     <use xlink:href="#DejaVuSans-29" transform="translate(147.168138 38.810937)scale(0.7)"/>
    </g>
   </g>
   <g id="text_24">
    <!-- $= 1-(1-A_s)(1-A_r)$ -->
    <g style="fill: #808080" transform="translate(712.415 432.886406)scale(0.07 -0.07)">
     <use xlink:href="#DejaVuSans-3d" transform="translate(19.482422 0.125)"/>
     <use xlink:href="#DejaVuSans-31" transform="translate(122.753906 0.125)"/>
     <use xlink:href="#DejaVuSans-2212" transform="translate(205.859375 0.125)"/>
     <use xlink:href="#DejaVuSans-28" transform="translate(309.130859 0.125)"/>
     <use xlink:href="#DejaVuSans-31" transform="translate(348.144531 0.125)"/>
     <use xlink:href="#DejaVuSans-2212" transform="translate(431.25 0.125)"/>
     <use xlink:href="#DejaVuSans-Oblique-41" transform="translate(534.521484 0.125)"/>
     <use xlink:href="#DejaVuSans-Oblique-73" transform="translate(602.929688 -16.28125)scale(0.7)"/>
     <use xlink:href="#DejaVuSans-29" transform="translate(642.133789 0.125)"/>
     <use xlink:href="#DejaVuSans-28" transform="translate(681.147461 0.125)"/>
     <use xlink:href="#DejaVuSans-31" transform="translate(720.161133 0.125)"/>
     <use xlink:href="#DejaVuSans-2212" transform="translate(803.266602 0.125)"/>
     <use xlink:href="#DejaVuSans-Oblique-41" transform="translate(906.538086 0.125)"/>
     <use xlink:href="#DejaVuSans-Oblique-72" transform="translate(974.946289 -16.28125)scale(0.7)"/>
     <use xlink:href="#DejaVuSans-29" transform="translate(1006.459961 0.125)"/>
    </g>
   </g>
   <g id="text_25">
    <!-- Causal -->
    <g style="fill: #333333" transform="translate(942.307813 142.2875)scale(0.1 -0.1)">
     <defs>
      <path id="DejaVuSans-Bold-43" d="M 4288 256 
Q 3956 84 3597 -3 
Q 3238 -91 2847 -91 
Q 1681 -91 1000 561 
Q 319 1213 319 2328 
Q 319 3447 1000 4098 
Q 1681 4750 2847 4750 
Q 3238 4750 3597 4662 
Q 3956 4575 4288 4403 
L 4288 3438 
Q 3953 3666 3628 3772 
Q 3303 3878 2944 3878 
Q 2300 3878 1931 3465 
Q 1563 3053 1563 2328 
Q 1563 1606 1931 1193 
Q 2300 781 2944 781 
Q 3303 781 3628 887 
Q 3953 994 4288 1222 
L 4288 256 
z
" transform="scale(0.015625)"/>
      <path id="DejaVuSans-Bold-73" d="M 3272 3391 
L 3272 2541 
Q 2913 2691 2578 2766 
Q 2244 2841 1947 2841 
Q 1628 2841 1473 2761 
Q 1319 2681 1319 2516 
Q 1319 2381 1436 2309 
Q 1553 2238 1856 2203 
L 2053 2175 
Q 2913 2066 3209 1816 
Q 3506 1566 3506 1031 
Q 3506 472 3093 190 
Q 2681 -91 1863 -91 
Q 1516 -91 1145 -36 
Q 775 19 384 128 
L 384 978 
Q 719 816 1070 734 
Q 1422 653 1784 653 
Q 2113 653 2278 743 
Q 2444 834 2444 1013 
Q 2444 1163 2330 1236 
Q 2216 1309 1875 1350 
L 1678 1375 
Q 931 1469 631 1722 
Q 331 1975 331 2491 
Q 331 3047 712 3315 
Q 1094 3584 1881 3584 
Q 2191 3584 2531 3537 
Q 2872 3491 3272 3391 
z
" transform="scale(0.015625)"/>
      <path id="DejaVuSans-Bold-6c" d="M 538 4863 
L 1656 4863 
L 1656 0 
L 538 0 
L 538 4863 
z
" transform="scale(0.015625)"/>
     </defs>
     <use xlink:href="#DejaVuSans-Bold-43"/>
     <use xlink:href="#DejaVuSans-Bold-61" x="73.388672"/>
     <use xlink:href="#DejaVuSans-Bold-75" x="140.869141"/>
     <use xlink:href="#DejaVuSans-Bold-73" x="212.060547"/>
     <use xlink:href="#DejaVuSans-Bold-61" x="271.582031"/>
     <use xlink:href="#DejaVuSans-Bold-6c" x="339.0625"/>
    </g>
    <!-- Emission -->
    <g style="fill: #333333" transform="translate(935.975 153.485312)scale(0.1 -0.1)">
     <defs>
      <path id="DejaVuSans-Bold-45" d="M 588 4666 
L 3834 4666 
L 3834 3756 
L 1791 3756 
L 1791 2888 
L 3713 2888 
L 3713 1978 
L 1791 1978 
L 1791 909 
L 3903 909 
L 3903 0 
L 588 0 
L 588 4666 
z
" transform="scale(0.015625)"/>
     </defs>
     <use xlink:href="#DejaVuSans-Bold-45"/>
     <use xlink:href="#DejaVuSans-Bold-6d" x="68.310547"/>
     <use xlink:href="#DejaVuSans-Bold-69" x="172.509766"/>
     <use xlink:href="#DejaVuSans-Bold-73" x="206.787109"/>
     <use xlink:href="#DejaVuSans-Bold-73" x="266.308594"/>
     <use xlink:href="#DejaVuSans-Bold-69" x="325.830078"/>
     <use xlink:href="#DejaVuSans-Bold-6f" x="360.107422"/>
     <use xlink:href="#DejaVuSans-Bold-6e" x="428.808594"/>
    </g>
   </g>
   <g id="text_26">
    <!-- CausalICGNN -->
    <g style="fill: #333333" transform="translate(934.491875 256.6825)scale(0.08 -0.08)">
     <defs>
      <path id="DejaVuSans-75" d="M 544 1381 
L 544 3500 
L 1119 3500 
L 1119 1403 
Q 1119 906 1312 657 
Q 1506 409 1894 409 
Q 2359 409 2629 706 
Q 2900 1003 2900 1516 
L 2900 3500 
L 3475 3500 
L 3475 0 
L 2900 0 
L 2900 538 
Q 2691 219 2414 64 
Q 2138 -91 1772 -91 
Q 1169 -91 856 284 
Q 544 659 544 1381 
z
M 1991 3584 
L 1991 3584 
z
" transform="scale(0.015625)"/>
      <path id="DejaVuSans-6c" d="M 603 4863 
L 1178 4863 
L 1178 0 
L 603 0 
L 603 4863 
z
" transform="scale(0.015625)"/>
      <path id="DejaVuSans-49" d="M 628 4666 
L 1259 4666 
L 1259 0 
L 628 0 
L 628 4666 
z
" transform="scale(0.015625)"/>
      <path id="DejaVuSans-47" d="M 3809 666 
L 3809 1919 
L 2778 1919 
L 2778 2438 
L 4434 2438 
L 4434 434 
Q 4069 175 3628 42 
Q 3188 -91 2688 -91 
Q 1594 -91 976 548 
Q 359 1188 359 2328 
Q 359 3472 976 4111 
Q 1594 4750 2688 4750 
Q 3144 4750 3555 4637 
Q 3966 4525 4313 4306 
L 4313 3634 
Q 3963 3931 3569 4081 
Q 3175 4231 2741 4231 
Q 1884 4231 1454 3753 
Q 1025 3275 1025 2328 
Q 1025 1384 1454 906 
Q 1884 428 2741 428 
Q 3075 428 3337 486 
Q 3600 544 3809 666 
z
" transform="scale(0.015625)"/>
      <path id="DejaVuSans-4e" d="M 628 4666 
L 1478 4666 
L 3547 763 
L 3547 4666 
L 4159 4666 
L 4159 0 
L 3309 0 
L 1241 3903 
L 1241 0 
L 628 0 
L 628 4666 
z
" transform="scale(0.015625)"/>
     </defs>
     <use xlink:href="#DejaVuSans-43"/>
     <use xlink:href="#DejaVuSans-61" x="69.824219"/>
     <use xlink:href="#DejaVuSans-75" x="131.103516"/>
     <use xlink:href="#DejaVuSans-73" x="194.482422"/>
     <use xlink:href="#DejaVuSans-61" x="246.582031"/>
     <use xlink:href="#DejaVuSans-6c" x="307.861328"/>
     <use xlink:href="#DejaVuSans-49" x="335.644531"/>
     <use xlink:href="#DejaVuSans-43" x="365.136719"/>
     <use xlink:href="#DejaVuSans-47" x="434.960938"/>
     <use xlink:href="#DejaVuSans-4e" x="512.451172"/>
     <use xlink:href="#DejaVuSans-4e" x="587.255859"/>
    </g>
   </g>
   <g id="text_27">
    <!-- Cond: $[h_t, z_t]$ -->
    <g style="fill: #333333" transform="translate(935.815 334.3975)scale(0.08 -0.08)">
     <defs>
      <path id="DejaVuSans-6e" d="M 3513 2113 
L 3513 0 
L 2938 0 
L 2938 2094 
Q 2938 2591 2744 2837 
Q 2550 3084 2163 3084 
Q 1697 3084 1428 2787 
Q 1159 2491 1159 1978 
L 1159 0 
L 581 0 
L 581 3500 
L 1159 3500 
L 1159 2956 
Q 1366 3272 1645 3428 
Q 1925 3584 2291 3584 
Q 2894 3584 3203 3211 
Q 3513 2838 3513 2113 
z
" transform="scale(0.015625)"/>
      <path id="DejaVuSans-3a" d="M 750 794 
L 1409 794 
L 1409 0 
L 750 0 
L 750 794 
z
M 750 3309 
L 1409 3309 
L 1409 2516 
L 750 2516 
L 750 3309 
z
" transform="scale(0.015625)"/>
     </defs>
     <use xlink:href="#DejaVuSans-43" transform="translate(0 0.015625)"/>
     <use xlink:href="#DejaVuSans-6f" transform="translate(69.824219 0.015625)"/>
     <use xlink:href="#DejaVuSans-6e" transform="translate(131.005859 0.015625)"/>
     <use xlink:href="#DejaVuSans-64" transform="translate(194.384766 0.015625)"/>
     <use xlink:href="#DejaVuSans-3a" transform="translate(257.861328 0.015625)"/>
     <use xlink:href="#DejaVuSans-20" transform="translate(291.552734 0.015625)"/>
     <use xlink:href="#DejaVuSans-5b" transform="translate(323.339844 0.015625)"/>
     <use xlink:href="#DejaVuSans-Oblique-68" transform="translate(362.353516 0.015625)"/>
     <use xlink:href="#DejaVuSans-Oblique-74" transform="translate(425.732422 -16.390625)scale(0.7)"/>
     <use xlink:href="#DejaVuSans-2c" transform="translate(455.913086 0.015625)"/>
     <use xlink:href="#DejaVuSans-Oblique-7a" transform="translate(507.182617 0.015625)"/>
     <use xlink:href="#DejaVuSans-Oblique-74" transform="translate(559.672852 -16.390625)scale(0.7)"/>
     <use xlink:href="#DejaVuSans-5d" transform="translate(589.853516 0.015625)"/>
    </g>
   </g>
   <g id="text_28">
    <!-- Output -->
    <g style="fill: #333333" transform="translate(1082.546875 224.135312)scale(0.1 -0.1)">
     <defs>
      <path id="DejaVuSans-Bold-4f" d="M 2719 3878 
Q 2169 3878 1866 3472 
Q 1563 3066 1563 2328 
Q 1563 1594 1866 1187 
Q 2169 781 2719 781 
Q 3272 781 3575 1187 
Q 3878 1594 3878 2328 
Q 3878 3066 3575 3472 
Q 3272 3878 2719 3878 
z
M 2719 4750 
Q 3844 4750 4481 4106 
Q 5119 3463 5119 2328 
Q 5119 1197 4481 553 
Q 3844 -91 2719 -91 
Q 1597 -91 958 553 
Q 319 1197 319 2328 
Q 319 3463 958 4106 
Q 1597 4750 2719 4750 
z
" transform="scale(0.015625)"/>
     </defs>
     <use xlink:href="#DejaVuSans-Bold-4f"/>
     <use xlink:href="#DejaVuSans-Bold-75" x="85.009766"/>
     <use xlink:href="#DejaVuSans-Bold-74" x="156.201172"/>
     <use xlink:href="#DejaVuSans-Bold-70" x="204.003906"/>
     <use xlink:href="#DejaVuSans-Bold-75" x="275.585938"/>
     <use xlink:href="#DejaVuSans-Bold-74" x="346.777344"/>
    </g>
   </g>
   <g id="text_29">
    <!-- $\hat{Y}_t$ -->
    <g style="fill: #333333" transform="translate(1097.16 294.497344)scale(0.11 -0.11)">
     <defs>
      <path id="DejaVuSans-302" d="M -1831 5119 
L -1369 5119 
L -603 3944 
L -1038 3944 
L -1600 4709 
L -2163 3944 
L -2597 3944 
L -1831 5119 
z
M -1600 3584 
L -1600 3584 
z
" transform="scale(0.015625)"/>
     </defs>
     <use xlink:href="#DejaVuSans-302" transform="translate(62.849121 30.015625)"/>
     <use xlink:href="#DejaVuSans-Oblique-59" transform="translate(0 0.609375)"/>
     <use xlink:href="#DejaVuSans-Oblique-74" transform="translate(62.041016 -15.796875)scale(0.7)"/>
    </g>
   </g>
   <g id="text_30">
    <!-- Predicted -->
    <g transform="translate(1083.33875 366.52875)scale(0.08 -0.08)">
     <defs>
      <path id="DejaVuSans-Oblique-50" d="M 1081 4666 
L 2541 4666 
Q 3178 4666 3512 4369 
Q 3847 4072 3847 3500 
Q 3847 2731 3353 2303 
Q 2859 1875 1966 1875 
L 1172 1875 
L 806 0 
L 172 0 
L 1081 4666 
z
M 1613 4147 
L 1275 2394 
L 2069 2394 
Q 2606 2394 2893 2669 
Q 3181 2944 3181 3456 
Q 3181 3784 2986 3965 
Q 2791 4147 2438 4147 
L 1613 4147 
z
" transform="scale(0.015625)"/>
     </defs>
     <use xlink:href="#DejaVuSans-Oblique-50"/>
     <use xlink:href="#DejaVuSans-Oblique-72" x="60.302734"/>
     <use xlink:href="#DejaVuSans-Oblique-65" x="101.416016"/>
     <use xlink:href="#DejaVuSans-Oblique-64" x="162.939453"/>
     <use xlink:href="#DejaVuSans-Oblique-69" x="226.416016"/>
     <use xlink:href="#DejaVuSans-Oblique-63" x="254.199219"/>
     <use xlink:href="#DejaVuSans-Oblique-74" x="309.179688"/>
     <use xlink:href="#DejaVuSans-Oblique-65" x="348.388672"/>
     <use xlink:href="#DejaVuSans-Oblique-64" x="409.912109"/>
    </g>
    <!-- Target -->
    <g transform="translate(1089.5875 375.487)scale(0.08 -0.08)">
     <use xlink:href="#DejaVuSans-Oblique-54"/>
     <use xlink:href="#DejaVuSans-Oblique-61" x="50.583984"/>
     <use xlink:href="#DejaVuSans-Oblique-72" x="111.863281"/>
     <use xlink:href="#DejaVuSans-Oblique-67" x="152.976562"/>
     <use xlink:href="#DejaVuSans-Oblique-65" x="216.453125"/>
     <use xlink:href="#DejaVuSans-Oblique-74" x="277.976562"/>
    </g>
   </g>
   <g id="text_31">
    <!-- $d_t$ selects -->
    <g style="fill: #ff9500" transform="translate(593.595 339.255)scale(0.07 -0.07)">
     <use xlink:href="#DejaVuSans-Oblique-64" transform="translate(0 0.015625)"/>
     <use xlink:href="#DejaVuSans-Oblique-74" transform="translate(63.476562 -16.390625)scale(0.7)"/>
     <use xlink:href="#DejaVuSans-Oblique-20" transform="translate(93.657227 0.015625)"/>
     <use xlink:href="#DejaVuSans-Oblique-73" transform="translate(125.444336 0.015625)"/>
     <use xlink:href="#DejaVuSans-Oblique-65" transform="translate(177.543945 0.015625)"/>
     <use xlink:href="#DejaVuSans-Oblique-6c" transform="translate(239.067383 0.015625)"/>
     <use xlink:href="#DejaVuSans-Oblique-65" transform="translate(266.850586 0.015625)"/>
     <use xlink:href="#DejaVuSans-Oblique-63" transform="translate(328.374023 0.015625)"/>
     <use xlink:href="#DejaVuSans-Oblique-74" transform="translate(383.354492 0.015625)"/>
     <use xlink:href="#DejaVuSans-Oblique-73" transform="translate(422.563477 0.015625)"/>
    </g>
   </g>
   <g id="text_32">
    <!-- $A^{(d)}$ -->
    <g style="fill: #4a90d9" transform="translate(855 310.995)scale(0.08 -0.08)">
     <use xlink:href="#DejaVuSans-Oblique-41" transform="translate(0 0.529687)"/>
     <use xlink:href="#DejaVuSans-28" transform="translate(75.424974 38.810937)scale(0.7)"/>
     <use xlink:href="#DejaVuSans-Oblique-64" transform="translate(102.734544 38.810937)scale(0.7)"/>
     <use xlink:href="#DejaVuSans-29" transform="translate(147.168138 38.810937)scale(0.7)"/>
    </g>
   </g>
   <g id="text_33">
    <!-- CaRS: Causal Regime-Switching Model Architecture -->
    <g transform="translate(369.044531 46.333437)scale(0.14 -0.14)">
     <defs>
      <path id="DejaVuSans-Bold-3a" d="M 716 3500 
L 1844 3500 
L 1844 2291 
L 716 2291 
L 716 3500 
z
M 716 1209 
L 1844 1209 
L 1844 0 
L 716 0 
L 716 1209 
z
" transform="scale(0.015625)"/>
      <path id="DejaVuSans-Bold-2d" d="M 347 2297 
L 2309 2297 
L 2309 1388 
L 347 1388 
L 347 2297 
z
" transform="scale(0.015625)"/>
      <path id="DejaVuSans-Bold-77" d="M 225 3500 
L 1313 3500 
L 1900 1088 
L 2491 3500 
L 3425 3500 
L 4013 1113 
L 4603 3500 
L 5691 3500 
L 4769 0 
L 3547 0 
L 2956 2406 
L 2369 0 
L 1147 0 
L 225 3500 
z
" transform="scale(0.015625)"/>
      <path id="DejaVuSans-Bold-4d" d="M 588 4666 
L 2119 4666 
L 3181 2169 
L 4250 4666 
L 5778 4666 
L 5778 0 
L 4641 0 
L 4641 3413 
L 3566 897 
L 2803 897 
L 1728 3413 
L 1728 0 
L 588 0 
L 588 4666 
z
" transform="scale(0.015625)"/>
     </defs>
     <use xlink:href="#DejaVuSans-Bold-43"/>
     <use xlink:href="#DejaVuSans-Bold-61" x="73.388672"/>
     <use xlink:href="#DejaVuSans-Bold-52" x="140.869141"/>
     <use xlink:href="#DejaVuSans-Bold-53" x="217.871094"/>
     <use xlink:href="#DejaVuSans-Bold-3a" x="289.892578"/>
     <use xlink:href="#DejaVuSans-Bold-20" x="329.882812"/>
     <use xlink:href="#DejaVuSans-Bold-43" x="364.697266"/>
     <use xlink:href="#DejaVuSans-Bold-61" x="438.085938"/>
     <use xlink:href="#DejaVuSans-Bold-75" x="505.566406"/>
     <use xlink:href="#DejaVuSans-Bold-73" x="576.757812"/>
     <use xlink:href="#DejaVuSans-Bold-61" x="636.279297"/>
     <use xlink:href="#DejaVuSans-Bold-6c" x="703.759766"/>
     <use xlink:href="#DejaVuSans-Bold-20" x="738.037109"/>
     <use xlink:href="#DejaVuSans-Bold-52" x="772.851562"/>
     <use xlink:href="#DejaVuSans-Bold-65" x="849.853516"/>
     <use xlink:href="#DejaVuSans-Bold-67" x="917.675781"/>
     <use xlink:href="#DejaVuSans-Bold-69" x="989.257812"/>
     <use xlink:href="#DejaVuSans-Bold-6d" x="1023.535156"/>
     <use xlink:href="#DejaVuSans-Bold-65" x="1127.734375"/>
     <use xlink:href="#DejaVuSans-Bold-2d" x="1195.556641"/>
     <use xlink:href="#DejaVuSans-Bold-53" x="1237.060547"/>
     <use xlink:href="#DejaVuSans-Bold-77" x="1309.082031"/>
     <use xlink:href="#DejaVuSans-Bold-69" x="1401.464844"/>
     <use xlink:href="#DejaVuSans-Bold-74" x="1435.742188"/>
     <use xlink:href="#DejaVuSans-Bold-63" x="1483.544922"/>
     <use xlink:href="#DejaVuSans-Bold-68" x="1542.822266"/>
     <use xlink:href="#DejaVuSans-Bold-69" x="1614.013672"/>
     <use xlink:href="#DejaVuSans-Bold-6e" x="1648.291016"/>
     <use xlink:href="#DejaVuSans-Bold-67" x="1719.482422"/>
     <use xlink:href="#DejaVuSans-Bold-20" x="1791.064453"/>
     <use xlink:href="#DejaVuSans-Bold-4d" x="1825.878906"/>
     <use xlink:href="#DejaVuSans-Bold-6f" x="1925.390625"/>
     <use xlink:href="#DejaVuSans-Bold-64" x="1994.091797"/>
     <use xlink:href="#DejaVuSans-Bold-65" x="2065.673828"/>
     <use xlink:href="#DejaVuSans-Bold-6c" x="2133.496094"/>
     <use xlink:href="#DejaVuSans-Bold-20" x="2167.773438"/>
     <use xlink:href="#DejaVuSans-Bold-41" x="2202.587891"/>
     <use xlink:href="#DejaVuSans-Bold-72" x="2279.980469"/>
     <use xlink:href="#DejaVuSans-Bold-63" x="2329.296875"/>
     <use xlink:href="#DejaVuSans-Bold-68" x="2388.574219"/>
     <use xlink:href="#DejaVuSans-Bold-69" x="2459.765625"/>
     <use xlink:href="#DejaVuSans-Bold-74" x="2494.042969"/>
     <use xlink:href="#DejaVuSans-Bold-65" x="2541.845703"/>
     <use xlink:href="#DejaVuSans-Bold-63" x="2609.667969"/>
     <use xlink:href="#DejaVuSans-Bold-74" x="2668.945312"/>
     <use xlink:href="#DejaVuSans-Bold-75" x="2716.748047"/>
     <use xlink:href="#DejaVuSans-Bold-72" x="2787.939453"/>
     <use xlink:href="#DejaVuSans-Bold-65" x="2837.255859"/>
    </g>
   </g>
   <g id="text_34">
    <!-- Input/Output -->
    <g transform="translate(201.4875 553.4125)scale(0.08 -0.08)">
     <defs>
      <path id="DejaVuSans-2f" d="M 1625 4666 
L 2156 4666 
L 531 -594 
L 0 -594 
L 1625 4666 
z
" transform="scale(0.015625)"/>
      <path id="DejaVuSans-4f" d="M 2522 4238 
Q 1834 4238 1429 3725 
Q 1025 3213 1025 2328 
Q 1025 1447 1429 934 
Q 1834 422 2522 422 
Q 3209 422 3611 934 
Q 4013 1447 4013 2328 
Q 4013 3213 3611 3725 
Q 3209 4238 2522 4238 
z
M 2522 4750 
Q 3503 4750 4090 4092 
Q 4678 3434 4678 2328 
Q 4678 1225 4090 567 
Q 3503 -91 2522 -91 
Q 1538 -91 948 565 
Q 359 1222 359 2328 
Q 359 3434 948 4092 
Q 1538 4750 2522 4750 
z
" transform="scale(0.015625)"/>
     </defs>
     <use xlink:href="#DejaVuSans-49"/>
     <use xlink:href="#DejaVuSans-6e" x="29.492188"/>
     <use xlink:href="#DejaVuSans-70" x="92.871094"/>
     <use xlink:href="#DejaVuSans-75" x="156.347656"/>
     <use xlink:href="#DejaVuSans-74" x="219.726562"/>
     <use xlink:href="#DejaVuSans-2f" x="258.935547"/>
     <use xlink:href="#DejaVuSans-4f" x="292.626953"/>
     <use xlink:href="#DejaVuSans-75" x="371.337891"/>
     <use xlink:href="#DejaVuSans-74" x="434.716797"/>
     <use xlink:href="#DejaVuSans-70" x="473.925781"/>
     <use xlink:href="#DejaVuSans-75" x="537.402344"/>
     <use xlink:href="#DejaVuSans-74" x="600.78125"/>
    </g>
   </g>
   <g id="text_35">
    <!-- GRU Backbone -->
    <g transform="translate(356.9175 553.4125)scale(0.08 -0.08)">
     <defs>
      <path id="DejaVuSans-42" d="M 1259 2228 
L 1259 519 
L 2272 519 
Q 2781 519 3026 730 
Q 3272 941 3272 1375 
Q 3272 1813 3026 2020 
Q 2781 2228 2272 2228 
L 1259 2228 
z
M 1259 4147 
L 1259 2741 
L 2194 2741 
Q 2656 2741 2882 2914 
Q 3109 3088 3109 3444 
Q 3109 3797 2882 3972 
Q 2656 4147 2194 4147 
L 1259 4147 
z
M 628 4666 
L 2241 4666 
Q 2963 4666 3353 4366 
Q 3744 4066 3744 3513 
Q 3744 3084 3544 2831 
Q 3344 2578 2956 2516 
Q 3422 2416 3680 2098 
Q 3938 1781 3938 1306 
Q 3938 681 3513 340 
Q 3088 0 2303 0 
L 628 0 
L 628 4666 
z
" transform="scale(0.015625)"/>
      <path id="DejaVuSans-63" d="M 3122 3366 
L 3122 2828 
Q 2878 2963 2633 3030 
Q 2388 3097 2138 3097 
Q 1578 3097 1268 2742 
Q 959 2388 959 1747 
Q 959 1106 1268 751 
Q 1578 397 2138 397 
Q 2388 397 2633 464 
Q 2878 531 3122 666 
L 3122 134 
Q 2881 22 2623 -34 
Q 2366 -91 2075 -91 
Q 1284 -91 818 406 
Q 353 903 353 1747 
Q 353 2603 823 3093 
Q 1294 3584 2113 3584 
Q 2378 3584 2631 3529 
Q 2884 3475 3122 3366 
z
" transform="scale(0.015625)"/>
      <path id="DejaVuSans-6b" d="M 581 4863 
L 1159 4863 
L 1159 1991 
L 2875 3500 
L 3609 3500 
L 1753 1863 
L 3688 0 
L 2938 0 
L 1159 1709 
L 1159 0 
L 581 0 
L 581 4863 
z
" transform="scale(0.015625)"/>
      <path id="DejaVuSans-62" d="M 3116 1747 
Q 3116 2381 2855 2742 
Q 2594 3103 2138 3103 
Q 1681 3103 1420 2742 
Q 1159 2381 1159 1747 
Q 1159 1113 1420 752 
Q 1681 391 2138 391 
Q 2594 391 2855 752 
Q 3116 1113 3116 1747 
z
M 1159 2969 
Q 1341 3281 1617 3432 
Q 1894 3584 2278 3584 
Q 2916 3584 3314 3078 
Q 3713 2572 3713 1747 
Q 3713 922 3314 415 
Q 2916 -91 2278 -91 
Q 1894 -91 1617 61 
Q 1341 213 1159 525 
L 1159 0 
L 581 0 
L 581 4863 
L 1159 4863 
L 1159 2969 
z
" transform="scale(0.015625)"/>
     </defs>
     <use xlink:href="#DejaVuSans-47"/>
     <use xlink:href="#DejaVuSans-52" x="77.490234"/>
     <use xlink:href="#DejaVuSans-55" x="146.972656"/>
     <use xlink:href="#DejaVuSans-20" x="220.166016"/>
     <use xlink:href="#DejaVuSans-42" x="251.953125"/>
     <use xlink:href="#DejaVuSans-61" x="320.556641"/>
     <use xlink:href="#DejaVuSans-63" x="381.835938"/>
     <use xlink:href="#DejaVuSans-6b" x="436.816406"/>
     <use xlink:href="#DejaVuSans-62" x="494.726562"/>
     <use xlink:href="#DejaVuSans-6f" x="558.203125"/>
     <use xlink:href="#DejaVuSans-6e" x="619.384766"/>
     <use xlink:href="#DejaVuSans-65" x="682.763672"/>
    </g>
   </g>
   <g id="text_36">
    <!-- Regime (discrete) -->
    <g transform="translate(512.3475 553.4125)scale(0.08 -0.08)">
     <use xlink:href="#DejaVuSans-52"/>
     <use xlink:href="#DejaVuSans-65" x="64.982422"/>
     <use xlink:href="#DejaVuSans-67" x="126.505859"/>
     <use xlink:href="#DejaVuSans-69" x="189.982422"/>
     <use xlink:href="#DejaVuSans-6d" x="217.765625"/>
     <use xlink:href="#DejaVuSans-65" x="315.177734"/>
     <use xlink:href="#DejaVuSans-20" x="376.701172"/>
     <use xlink:href="#DejaVuSans-28" x="408.488281"/>
     <use xlink:href="#DejaVuSans-64" x="447.501953"/>
     <use xlink:href="#DejaVuSans-69" x="510.978516"/>
     <use xlink:href="#DejaVuSans-73" x="538.761719"/>
     <use xlink:href="#DejaVuSans-63" x="590.861328"/>
     <use xlink:href="#DejaVuSans-72" x="645.841797"/>
     <use xlink:href="#DejaVuSans-65" x="684.705078"/>
     <use xlink:href="#DejaVuSans-74" x="746.228516"/>
     <use xlink:href="#DejaVuSans-65" x="785.4375"/>
     <use xlink:href="#DejaVuSans-29" x="846.960938"/>
    </g>
   </g>
   <g id="text_37">
    <!-- Latent (continuous) -->
    <g transform="translate(667.7775 553.4125)scale(0.08 -0.08)">
     <defs>
      <path id="DejaVuSans-4c" d="M 628 4666 
L 1259 4666 
L 1259 531 
L 3531 531 
L 3531 0 
L 628 0 
L 628 4666 
z
" transform="scale(0.015625)"/>
     </defs>
     <use xlink:href="#DejaVuSans-4c"/>
     <use xlink:href="#DejaVuSans-61" x="55.712891"/>
     <use xlink:href="#DejaVuSans-74" x="116.992188"/>
     <use xlink:href="#DejaVuSans-65" x="156.201172"/>
     <use xlink:href="#DejaVuSans-6e" x="217.724609"/>
     <use xlink:href="#DejaVuSans-74" x="281.103516"/>
     <use xlink:href="#DejaVuSans-20" x="320.3125"/>
     <use xlink:href="#DejaVuSans-28" x="352.099609"/>
     <use xlink:href="#DejaVuSans-63" x="391.113281"/>
     <use xlink:href="#DejaVuSans-6f" x="446.09375"/>
     <use xlink:href="#DejaVuSans-6e" x="507.275391"/>
     <use xlink:href="#DejaVuSans-74" x="570.654297"/>
     <use xlink:href="#DejaVuSans-69" x="609.863281"/>
     <use xlink:href="#DejaVuSans-6e" x="637.646484"/>
     <use xlink:href="#DejaVuSans-75" x="701.025391"/>
     <use xlink:href="#DejaVuSans-6f" x="764.404297"/>
     <use xlink:href="#DejaVuSans-75" x="825.585938"/>
     <use xlink:href="#DejaVuSans-73" x="888.964844"/>
     <use xlink:href="#DejaVuSans-29" x="941.064453"/>
    </g>
   </g>
   <g id="text_38">
    <!-- Causal DAG -->
    <g transform="translate(823.2075 553.4125)scale(0.08 -0.08)">
     <defs>
      <path id="DejaVuSans-44" d="M 1259 4147 
L 1259 519 
L 2022 519 
Q 2988 519 3436 956 
Q 3884 1394 3884 2338 
Q 3884 3275 3436 3711 
Q 2988 4147 2022 4147 
L 1259 4147 
z
M 628 4666 
L 1925 4666 
Q 3281 4666 3915 4102 
Q 4550 3538 4550 2338 
Q 4550 1131 3912 565 
Q 3275 0 1925 0 
L 628 0 
L 628 4666 
z
" transform="scale(0.015625)"/>
      <path id="DejaVuSans-41" d="M 2188 4044 
L 1331 1722 
L 3047 1722 
L 2188 4044 
z
M 1831 4666 
L 2547 4666 
L 4325 0 
L 3669 0 
L 3244 1197 
L 1141 1197 
L 716 0 
L 50 0 
L 1831 4666 
z
" transform="scale(0.015625)"/>
     </defs>
     <use xlink:href="#DejaVuSans-43"/>
     <use xlink:href="#DejaVuSans-61" x="69.824219"/>
     <use xlink:href="#DejaVuSans-75" x="131.103516"/>
     <use xlink:href="#DejaVuSans-73" x="194.482422"/>
     <use xlink:href="#DejaVuSans-61" x="246.582031"/>
     <use xlink:href="#DejaVuSans-6c" x="307.861328"/>
     <use xlink:href="#DejaVuSans-20" x="335.644531"/>
     <use xlink:href="#DejaVuSans-44" x="367.431641"/>
     <use xlink:href="#DejaVuSans-41" x="442.683594"/>
     <use xlink:href="#DejaVuSans-47" x="509.341797"/>
    </g>
   </g>
   <g id="text_39">
    <!-- Emission Model -->
    <g transform="translate(978.6375 553.4125)scale(0.08 -0.08)">
     <defs>
      <path id="DejaVuSans-45" d="M 628 4666 
L 3578 4666 
L 3578 4134 
L 1259 4134 
L 1259 2753 
L 3481 2753 
L 3481 2222 
L 1259 2222 
L 1259 531 
L 3634 531 
L 3634 0 
L 628 0 
L 628 4666 
z
" transform="scale(0.015625)"/>
      <path id="DejaVuSans-4d" d="M 628 4666 
L 1569 4666 
L 2759 1491 
L 3956 4666 
L 4897 4666 
L 4897 0 
L 4281 0 
L 4281 4097 
L 3078 897 
L 2444 897 
L 1241 4097 
L 1241 0 
L 628 0 
L 628 4666 
z
" transform="scale(0.015625)"/>
     </defs>
     <use xlink:href="#DejaVuSans-45"/>
     <use xlink:href="#DejaVuSans-6d" x="63.183594"/>
     <use xlink:href="#DejaVuSans-69" x="160.595703"/>
     <use xlink:href="#DejaVuSans-73" x="188.378906"/>
     <use xlink:href="#DejaVuSans-73" x="240.478516"/>
     <use xlink:href="#DejaVuSans-69" x="292.578125"/>
     <use xlink:href="#DejaVuSans-6f" x="320.361328"/>
     <use xlink:href="#DejaVuSans-6e" x="381.542969"/>
     <use xlink:href="#DejaVuSans-20" x="444.921875"/>
     <use xlink:href="#DejaVuSans-4d" x="476.708984"/>
     <use xlink:href="#DejaVuSans-6f" x="562.988281"/>
     <use xlink:href="#DejaVuSans-64" x="624.169922"/>
     <use xlink:href="#DejaVuSans-65" x="687.646484"/>
     <use xlink:href="#DejaVuSans-6c" x="749.169922"/>
    </g>
   </g>
  </g>
 </g>
 <defs>
  <clipPath id="pc7c99a4a51">
   <rect x="7.2" y="7.2" width="1130.4" height="635.85"/>
  </clipPath>
 </defs>
</svg>
