<?xml version="1.0" encoding="utf-8" standalone="no"?>
<!DOCTYPE svg PUBLIC "-//W3C//DTD SVG 1.1//EN"
  "http://www.w3.org/Graphics/SVG/1.1/DTD/svg11.dtd">
<svg xmlns:xlink="http://www.w3.org/1999/xlink" width="717.12pt" height="573.197812pt" viewBox="0 0 717.12 573.197812" xmlns="http://www.w3.org/2000/svg" version="1.1">
 <metadata>
  <rdf:RDF xmlns:dc="http://purl.org/dc/elements/1.1/" xmlns:cc="http://creativecommons.org/ns#" xmlns:rdf="http://www.w3.org/1999/02/22-rdf-syntax-ns#">
   <cc:Work>
    <dc:type rdf:resource="http://purl.org/dc/dcmitype/StillImage"/>
    <dc:date>2026-02-11T20:18:22.309673</dc:date>
    <dc:format>image/svg+xml</dc:format>
    <dc:creator>
     <cc:Agent>
      <dc:title>Matplotlib v3.5.1, https://matplotlib.org/</dc:title>
     </cc:Agent>
    </dc:creator>
   </cc:Work>
  </rdf:RDF>
 </metadata>
 <defs>
  <style type="text/css">*{stroke-linejoin: round; stroke-linecap: butt}</style>
 </defs>
 <g id="figure_1">
  <g id="patch_1">
   <path d="M 0 573.197812 
L 717.12 573.197812 
L 717.12 0 
L 0 0 
z
" style="fill: #ffffff"/>
  </g>
  <g id="axes_1">
   <g id="patch_2">
    <path d="M 129.810517 140.403649 
Q 275.433144 133.744802 407.005761 75.162305 
" clip-path="url(#p0c3752177d)" style="fill: none; stroke: #c44e52; stroke-opacity: 0.7; stroke-width: 1.564708; stroke-linecap: round"/>
    <path d="M 400.304273 74.862199 
L 407.005761 75.162305 
L 402.744783 80.343431 
L 400.304273 74.862199 
z
" clip-path="url(#p0c3752177d)" style="fill: #c44e52; fill-opacity: 0.7; stroke: #c44e52; stroke-opacity: 0.7; stroke-width: 1.564708; stroke-linecap: round"/>
   </g>
   <g id="patch_3">
    <path d="M 627.528249 399.447977 
Q 555.851944 218.672433 423.312295 78.062364 
" clip-path="url(#p0c3752177d)" style="fill: none; stroke: #1f77b4; stroke-opacity: 0.7; stroke-width: 1.105728; stroke-linecap: round"/>
    <path d="M 425.244744 84.486198 
L 423.312295 78.062364 
L 429.610831 80.370706 
L 425.244744 84.486198 
z
" clip-path="url(#p0c3752177d)" style="fill: #1f77b4; fill-opacity: 0.7; stroke: #1f77b4; stroke-opacity: 0.7; stroke-width: 1.105728; stroke-linecap: round"/>
   </g>
   <g id="patch_4">
    <path d="M 348.39633 509.05867 
Q 423.93918 300.881427 416.852952 80.935176 
" clip-path="url(#p0c3752177d)" style="fill: none; stroke: #c44e52; stroke-opacity: 0.7; stroke-width: 1.251911; stroke-linecap: round"/>
    <path d="M 414.047715 87.028668 
L 416.852952 80.935176 
L 420.044604 86.83546 
L 414.047715 87.028668 
z
" clip-path="url(#p0c3752177d)" style="fill: #c44e52; fill-opacity: 0.7; stroke: #c44e52; stroke-opacity: 0.7; stroke-width: 1.251911; stroke-linecap: round"/>
   </g>
   <g id="patch_5">
    <path d="M 551.25926 465.023573 
Q 523.142236 259.190468 421.658461 79.932655 
" clip-path="url(#p0c3752177d)" style="fill: none; stroke: #c44e52; stroke-opacity: 0.7; stroke-width: 1.568386; stroke-linecap: round"/>
    <path d="M 422.003764 86.631966 
L 421.658461 79.932655 
L 427.225091 83.676 
L 422.003764 86.631966 
z
" clip-path="url(#p0c3752177d)" style="fill: #c44e52; fill-opacity: 0.7; stroke: #c44e52; stroke-opacity: 0.7; stroke-width: 1.568386; stroke-linecap: round"/>
   </g>
   <g id="patch_6">
    <path d="M 103.276459 380.203586 
Q 286.508299 258.778361 410.614782 79.441397 
" clip-path="url(#p0c3752177d)" style="fill: none; stroke: #c44e52; stroke-opacity: 0.7; stroke-width: 1.539693; stroke-linecap: round"/>
    <path d="M 404.733552 82.668026 
L 410.614782 79.441397 
L 409.667348 86.082358 
L 404.733552 82.668026 
z
" clip-path="url(#p0c3752177d)" style="fill: #c44e52; fill-opacity: 0.7; stroke: #c44e52; stroke-opacity: 0.7; stroke-width: 1.539693; stroke-linecap: round"/>
   </g>
   <g id="patch_7">
    <path d="M 75.295274 301.734548 
Q 264.394675 221.52148 409.404497 77.954944 
" clip-path="url(#p0c3752177d)" style="fill: none; stroke: #c44e52; stroke-opacity: 0.7; stroke-width: 1.208961; stroke-linecap: round"/>
    <path d="M 403.030006 80.04441 
L 409.404497 77.954944 
L 407.251374 84.308216 
L 403.030006 80.04441 
z
" clip-path="url(#p0c3752177d)" style="fill: #c44e52; fill-opacity: 0.7; stroke: #c44e52; stroke-opacity: 0.7; stroke-width: 1.208961; stroke-linecap: round"/>
   </g>
   <g id="patch_8">
    <path d="M 641.284568 239.952901 
Q 516.498612 179.226314 425.372306 80.565333 
" clip-path="url(#p0c3752177d)" style="fill: none; stroke-dasharray: 14.8,6.4; stroke-dashoffset: 0; stroke: #c44e52; stroke-opacity: 0.7; stroke-width: 4; stroke-linecap: round"/>
    <path d="M 427.239503 87.008436 
L 425.372306 80.565333 
L 431.647107 82.937438 
L 427.239503 87.008436 
z
" clip-path="url(#p0c3752177d)" style="fill: #c44e52; fill-opacity: 0.7; stroke-dasharray: 14.8,6.4; stroke-dashoffset: 0; stroke: #c44e52; stroke-opacity: 0.7; stroke-width: 4; stroke-linecap: round"/>
   </g>
   <g id="patch_9">
    <path d="M 146.152051 451.726768 
Q 242.049741 238.834122 408.942795 78.118675 
" clip-path="url(#p0c3752177d)" style="fill: none; stroke-dasharray: 5.954012,2.574708; stroke-dashoffset: 0; stroke: #ff7f0e; stroke-opacity: 0.7; stroke-width: 1.609193; stroke-linecap: round"/>
    <path d="M 402.539971 80.119636 
L 408.942795 78.118675 
L 406.70187 84.441511 
L 402.539971 80.119636 
z
" clip-path="url(#p0c3752177d)" style="fill: #ff7f0e; fill-opacity: 0.7; stroke-dasharray: 5.954012,2.574708; stroke-dashoffset: 0; stroke: #ff7f0e; stroke-opacity: 0.7; stroke-width: 1.609193; stroke-linecap: round"/>
   </g>
   <g id="patch_10">
    <path d="M 78.535627 216.52754 
Q 229.562076 113.180968 405.588875 73.316623 
" clip-path="url(#p0c3752177d)" style="fill: none; stroke-dasharray: 8.329904,3.602121; stroke-dashoffset: 0; stroke: #c44e52; stroke-opacity: 0.7; stroke-width: 2.251325; stroke-linecap: round"/>
    <path d="M 399.074438 71.715962 
L 405.588875 73.316623 
L 400.399684 77.567776 
L 399.074438 71.715962 
z
" clip-path="url(#p0c3752177d)" style="fill: #c44e52; fill-opacity: 0.7; stroke-dasharray: 8.329904,3.602121; stroke-dashoffset: 0; stroke: #c44e52; stroke-opacity: 0.7; stroke-width: 2.251325; stroke-linecap: round"/>
   </g>
   <g id="patch_11">
    <path d="M 590.302384 164.310591 
Q 498.70816 135.624829 425.418283 77.988011 
" clip-path="url(#p0c3752177d)" style="fill: none; stroke-dasharray: 9.076793,3.9251; stroke-dashoffset: 0; stroke: #c44e52; stroke-opacity: 0.7; stroke-width: 2.453187; stroke-linecap: round"/>
    <path d="M 428.280073 84.055149 
L 425.418283 77.988011 
L 431.989067 79.338862 
L 428.280073 84.055149 
z
" clip-path="url(#p0c3752177d)" style="fill: #c44e52; fill-opacity: 0.7; stroke-dasharray: 9.076793,3.9251; stroke-dashoffset: 0; stroke: #c44e52; stroke-opacity: 0.7; stroke-width: 2.453187; stroke-linecap: round"/>
   </g>
   <g id="patch_12">
    <path d="M 242.486315 490.343603 
Q 287.397726 267.925957 410.068329 80.644628 
" clip-path="url(#p0c3752177d)" style="fill: none; stroke-dasharray: 10.015174,4.330886; stroke-dashoffset: 0; stroke: #c44e52; stroke-opacity: 0.7; stroke-width: 2.706804; stroke-linecap: round"/>
    <path d="M 404.271179 84.019986 
L 410.068329 80.644628 
L 409.290326 87.307563 
L 404.271179 84.019986 
z
" clip-path="url(#p0c3752177d)" style="fill: #c44e52; fill-opacity: 0.7; stroke-dasharray: 10.015174,4.330886; stroke-dashoffset: 0; stroke: #c44e52; stroke-opacity: 0.7; stroke-width: 2.706804; stroke-linecap: round"/>
   </g>
   <g id="patch_13">
    <path d="M 325.092343 85.954929 
Q 365.21188 71.534717 405.238429 70.917004 
" clip-path="url(#p0c3752177d)" style="fill: none; stroke-dasharray: 8.607821,3.722301; stroke-dashoffset: 0; stroke: #c44e52; stroke-opacity: 0.7; stroke-width: 2.326438; stroke-linecap: round"/>
    <path d="M 399.192851 68.009946 
L 405.238429 70.917004 
L 399.285436 74.009231 
L 399.192851 68.009946 
z
" clip-path="url(#p0c3752177d)" style="fill: #c44e52; fill-opacity: 0.7; stroke-dasharray: 8.607821,3.722301; stroke-dashoffset: 0; stroke: #c44e52; stroke-opacity: 0.7; stroke-width: 2.326438; stroke-linecap: round"/>
   </g>
   <g id="patch_14">
    <path d="M 508.547543 107.805855 
Q 463.491732 98.727282 425.851069 76.549881 
" clip-path="url(#p0c3752177d)" style="fill: none; stroke-dasharray: 7.522402,3.252931; stroke-dashoffset: 0; stroke: #c44e52; stroke-opacity: 0.7; stroke-width: 2.033082; stroke-linecap: round"/>
    <path d="M 429.497635 82.180384 
L 425.851069 76.549881 
L 432.543411 77.010931 
L 429.497635 82.180384 
z
" clip-path="url(#p0c3752177d)" style="fill: #c44e52; fill-opacity: 0.7; stroke-dasharray: 7.522402,3.252931; stroke-dashoffset: 0; stroke: #c44e52; stroke-opacity: 0.7; stroke-width: 2.033082; stroke-linecap: round"/>
   </g>
   <g id="patch_15">
    <path d="M 450.039071 510.60964 
Q 391.294557 298.369971 415.063183 83.562989 
" clip-path="url(#p0c3752177d)" style="fill: none; stroke-dasharray: 13.573926,5.869806; stroke-dashoffset: 0; stroke: #c44e52; stroke-opacity: 0.7; stroke-width: 3.668629; stroke-linecap: round"/>
    <path d="M 411.421503 89.196653 
L 415.063183 83.562989 
L 417.385106 89.856532 
L 411.421503 89.196653 
z
" clip-path="url(#p0c3752177d)" style="fill: #c44e52; fill-opacity: 0.7; stroke-dasharray: 13.573926,5.869806; stroke-dashoffset: 0; stroke: #c44e52; stroke-opacity: 0.7; stroke-width: 3.668629; stroke-linecap: round"/>
   </g>
   <g id="patch_16">
    <path d="M 637.666754 320.218239 
Q 506.314538 219.865343 421.749813 79.672127 
" clip-path="url(#p0c3752177d)" style="fill: none; stroke-dasharray: 5.217698,2.256302; stroke-dashoffset: 0; stroke: #ff7f0e; stroke-opacity: 0.7; stroke-width: 1.410189; stroke-linecap: round"/>
    <path d="M 422.280029 86.359344 
L 421.749813 79.672127 
L 427.417716 83.260284 
L 422.280029 86.359344 
z
" clip-path="url(#p0c3752177d)" style="fill: #ff7f0e; fill-opacity: 0.7; stroke-dasharray: 5.217698,2.256302; stroke-dashoffset: 0; stroke: #ff7f0e; stroke-opacity: 0.7; stroke-width: 1.410189; stroke-linecap: round"/>
   </g>
   <g id="patch_17">
    <path d="M 226.274141 86.72128 
Q 315.549901 61.770156 403.934702 69.687653 
" clip-path="url(#p0c3752177d)" style="fill: none; stroke-dasharray: 13.098749,5.664324; stroke-dashoffset: 0; stroke: #c44e52; stroke-opacity: 0.7; stroke-width: 3.540203; stroke-linecap: round"/>
    <path d="M 398.2263 66.164283 
L 403.934702 69.687653 
L 397.690964 72.140353 
L 398.2263 66.164283 
z
" clip-path="url(#p0c3752177d)" style="fill: #c44e52; fill-opacity: 0.7; stroke-dasharray: 13.098749,5.664324; stroke-dashoffset: 0; stroke: #c44e52; stroke-opacity: 0.7; stroke-width: 3.540203; stroke-linecap: round"/>
   </g>
   <g id="text_1">
    <g id="patch_18">
     <path d="M 521.232066 153.43843 
L 539.821779 167.250191 
Q 540.544206 167.786939 541.080954 167.064512 
L 544.544099 162.40335 
Q 545.080847 161.680923 544.358419 161.144174 
L 525.768706 147.332413 
Q 525.046279 146.795665 524.509531 147.518092 
L 521.046387 152.179254 
Q 520.509638 152.901682 521.232066 153.43843 
z
" clip-path="url(#p0c3752177d)" style="fill: #ffffff; opacity: 0.8"/>
    </g>
    <g clip-path="url(#p0c3752177d)">
     <!-- -0.0410 -->
     <g style="fill: #444444" transform="translate(522.512993 151.714387)rotate(-323.388436)scale(0.06 -0.06)">
      <defs>
       <path id="DejaVuSans-2d" d="M 313 2009 
L 1997 2009 
L 1997 1497 
L 313 1497 
L 313 2009 
z
" transform="scale(0.015625)"/>
       <path id="DejaVuSans-30" d="M 2034 4250 
Q 1547 4250 1301 3770 
Q 1056 3291 1056 2328 
Q 1056 1369 1301 889 
Q 1547 409 2034 409 
Q 2525 409 2770 889 
Q 3016 1369 3016 2328 
Q 3016 3291 2770 3770 
Q 2525 4250 2034 4250 
z
M 2034 4750 
Q 2819 4750 3233 4129 
Q 3647 3509 3647 2328 
Q 3647 1150 3233 529 
Q 2819 -91 2034 -91 
Q 1250 -91 836 529 
Q 422 1150 422 2328 
Q 422 3509 836 4129 
Q 1250 4750 2034 4750 
z
" transform="scale(0.015625)"/>
       <path id="DejaVuSans-2e" d="M 684 794 
L 1344 794 
L 1344 0 
L 684 0 
L 684 794 
z
" transform="scale(0.015625)"/>
       <path id="DejaVuSans-34" d="M 2419 4116 
L 825 1625 
L 2419 1625 
L 2419 4116 
z
M 2253 4666 
L 3047 4666 
L 3047 1625 
L 3713 1625 
L 3713 1100 
L 3047 1100 
L 3047 0 
L 2419 0 
L 2419 1100 
L 313 1100 
L 313 1709 
L 2253 4666 
z
" transform="scale(0.015625)"/>
       <path id="DejaVuSans-31" d="M 794 531 
L 1825 531 
L 1825 4091 
L 703 3866 
L 703 4441 
L 1819 4666 
L 2450 4666 
L 2450 531 
L 3481 531 
L 3481 0 
L 794 0 
L 794 531 
z
" transform="scale(0.015625)"/>
      </defs>
      <use xlink:href="#DejaVuSans-2d"/>
      <use xlink:href="#DejaVuSans-30" x="36.083984"/>
      <use xlink:href="#DejaVuSans-2e" x="99.707031"/>
      <use xlink:href="#DejaVuSans-30" x="131.494141"/>
      <use xlink:href="#DejaVuSans-34" x="195.117188"/>
      <use xlink:href="#DejaVuSans-31" x="258.740234"/>
      <use xlink:href="#DejaVuSans-30" x="322.363281"/>
     </g>
    </g>
   </g>
   <g id="text_2">
    <g id="patch_19">
     <path d="M 276.623509 276.032747 
L 288.714774 258.869848 
Q 289.23311 258.134098 288.49736 257.615762 
L 283.75024 254.271416 
Q 283.01449 253.75308 282.496154 254.48883 
L 270.40489 271.651729 
Q 269.886554 272.387479 270.622304 272.905815 
L 275.369424 276.250161 
Q 276.105174 276.768497 276.623509 276.032747 
z
" clip-path="url(#p0c3752177d)" style="fill: #ffffff; opacity: 0.8"/>
    </g>
    <g clip-path="url(#p0c3752177d)">
     <!-- 0.0083 -->
     <g style="fill: #444444" transform="translate(274.867673 274.79576)rotate(-54.8353)scale(0.06 -0.06)">
      <defs>
       <path id="DejaVuSans-38" d="M 2034 2216 
Q 1584 2216 1326 1975 
Q 1069 1734 1069 1313 
Q 1069 891 1326 650 
Q 1584 409 2034 409 
Q 2484 409 2743 651 
Q 3003 894 3003 1313 
Q 3003 1734 2745 1975 
Q 2488 2216 2034 2216 
z
M 1403 2484 
Q 997 2584 770 2862 
Q 544 3141 544 3541 
Q 544 4100 942 4425 
Q 1341 4750 2034 4750 
Q 2731 4750 3128 4425 
Q 3525 4100 3525 3541 
Q 3525 3141 3298 2862 
Q 3072 2584 2669 2484 
Q 3125 2378 3379 2068 
Q 3634 1759 3634 1313 
Q 3634 634 3220 271 
Q 2806 -91 2034 -91 
Q 1263 -91 848 271 
Q 434 634 434 1313 
Q 434 1759 690 2068 
Q 947 2378 1403 2484 
z
M 1172 3481 
Q 1172 3119 1398 2916 
Q 1625 2713 2034 2713 
Q 2441 2713 2670 2916 
Q 2900 3119 2900 3481 
Q 2900 3844 2670 4047 
Q 2441 4250 2034 4250 
Q 1625 4250 1398 4047 
Q 1172 3844 1172 3481 
z
" transform="scale(0.015625)"/>
       <path id="DejaVuSans-33" d="M 2597 2516 
Q 3050 2419 3304 2112 
Q 3559 1806 3559 1356 
Q 3559 666 3084 287 
Q 2609 -91 1734 -91 
Q 1441 -91 1130 -33 
Q 819 25 488 141 
L 488 750 
Q 750 597 1062 519 
Q 1375 441 1716 441 
Q 2309 441 2620 675 
Q 2931 909 2931 1356 
Q 2931 1769 2642 2001 
Q 2353 2234 1838 2234 
L 1294 2234 
L 1294 2753 
L 1863 2753 
Q 2328 2753 2575 2939 
Q 2822 3125 2822 3475 
Q 2822 3834 2567 4026 
Q 2313 4219 1838 4219 
Q 1578 4219 1281 4162 
Q 984 4106 628 3988 
L 628 4550 
Q 988 4650 1302 4700 
Q 1616 4750 1894 4750 
Q 2613 4750 3031 4423 
Q 3450 4097 3450 3541 
Q 3450 3153 3228 2886 
Q 3006 2619 2597 2516 
z
" transform="scale(0.015625)"/>
      </defs>
      <use xlink:href="#DejaVuSans-30"/>
      <use xlink:href="#DejaVuSans-2e" x="63.623047"/>
      <use xlink:href="#DejaVuSans-30" x="95.410156"/>
      <use xlink:href="#DejaVuSans-30" x="159.033203"/>
      <use xlink:href="#DejaVuSans-38" x="222.65625"/>
      <use xlink:href="#DejaVuSans-33" x="286.279297"/>
     </g>
    </g>
   </g>
   <g id="text_3">
    <g id="patch_20">
     <path d="M 234.862639 154.28333 
L 256.089264 145.021982 
Q 256.914166 144.66207 256.554255 143.837168 
L 254.232076 138.51483 
Q 253.872164 137.689928 253.047262 138.049839 
L 231.820637 147.311188 
Q 230.995735 147.671099 231.355646 148.496002 
L 233.677826 153.818339 
Q 234.037737 154.643242 234.862639 154.28333 
z
" clip-path="url(#p0c3752177d)" style="fill: #ffffff; opacity: 0.8"/>
    </g>
    <g clip-path="url(#p0c3752177d)">
     <!-- -0.0171 -->
     <g style="fill: #444444" transform="translate(234.003725 152.314735)rotate(-23.572033)scale(0.06 -0.06)">
      <defs>
       <path id="DejaVuSans-37" d="M 525 4666 
L 3525 4666 
L 3525 4397 
L 1831 0 
L 1172 0 
L 2766 4134 
L 525 4134 
L 525 4666 
z
" transform="scale(0.015625)"/>
      </defs>
      <use xlink:href="#DejaVuSans-2d"/>
      <use xlink:href="#DejaVuSans-30" x="36.083984"/>
      <use xlink:href="#DejaVuSans-2e" x="99.707031"/>
      <use xlink:href="#DejaVuSans-30" x="131.494141"/>
      <use xlink:href="#DejaVuSans-31" x="195.117188"/>
      <use xlink:href="#DejaVuSans-37" x="258.740234"/>
      <use xlink:href="#DejaVuSans-31" x="322.363281"/>
     </g>
    </g>
   </g>
   <g id="text_4">
    <g id="patch_21">
     <path d="M 495.527603 116.826686 
L 516.016333 127.622708 
Q 516.81256 128.042259 517.232111 127.246033 
L 519.939093 122.108713 
Q 520.358644 121.312487 519.562418 120.892935 
L 499.073687 110.096913 
Q 498.277461 109.677362 497.857909 110.473588 
L 495.150928 115.610908 
Q 494.731376 116.407134 495.527603 116.826686 
z
" clip-path="url(#p0c3752177d)" style="fill: #ffffff; opacity: 0.8"/>
    </g>
    <g clip-path="url(#p0c3752177d)">
     <!-- -0.0199 -->
     <g style="fill: #444444" transform="translate(496.528845 114.926524)rotate(-332.214138)scale(0.06 -0.06)">
      <defs>
       <path id="DejaVuSans-39" d="M 703 97 
L 703 672 
Q 941 559 1184 500 
Q 1428 441 1663 441 
Q 2288 441 2617 861 
Q 2947 1281 2994 2138 
Q 2813 1869 2534 1725 
Q 2256 1581 1919 1581 
Q 1219 1581 811 2004 
Q 403 2428 403 3163 
Q 403 3881 828 4315 
Q 1253 4750 1959 4750 
Q 2769 4750 3195 4129 
Q 3622 3509 3622 2328 
Q 3622 1225 3098 567 
Q 2575 -91 1691 -91 
Q 1453 -91 1209 -44 
Q 966 3 703 97 
z
M 1959 2075 
Q 2384 2075 2632 2365 
Q 2881 2656 2881 3163 
Q 2881 3666 2632 3958 
Q 2384 4250 1959 4250 
Q 1534 4250 1286 3958 
Q 1038 3666 1038 3163 
Q 1038 2656 1286 2365 
Q 1534 2075 1959 2075 
z
" transform="scale(0.015625)"/>
      </defs>
      <use xlink:href="#DejaVuSans-2d"/>
      <use xlink:href="#DejaVuSans-30" x="36.083984"/>
      <use xlink:href="#DejaVuSans-2e" x="99.707031"/>
      <use xlink:href="#DejaVuSans-30" x="131.494141"/>
      <use xlink:href="#DejaVuSans-31" x="195.117188"/>
      <use xlink:href="#DejaVuSans-39" x="258.740234"/>
      <use xlink:href="#DejaVuSans-39" x="322.363281"/>
     </g>
    </g>
   </g>
   <g id="text_5">
    <g id="patch_22">
     <path d="M 258.438555 112.185105 
L 280.975561 106.853545 
Q 281.851387 106.646351 281.644194 105.770526 
L 280.307365 100.119624 
Q 280.100171 99.243798 279.224346 99.450992 
L 256.687339 104.782552 
Q 255.811514 104.989745 256.018707 105.865571 
L 257.355536 111.516472 
Q 257.562729 112.392298 258.438555 112.185105 
z
" clip-path="url(#p0c3752177d)" style="fill: #ffffff; opacity: 0.8"/>
    </g>
    <g clip-path="url(#p0c3752177d)">
     <!-- -0.0077 -->
     <g style="fill: #444444" transform="translate(257.944097 110.094983)rotate(-13.309721)scale(0.06 -0.06)">
      <use xlink:href="#DejaVuSans-2d"/>
      <use xlink:href="#DejaVuSans-30" x="36.083984"/>
      <use xlink:href="#DejaVuSans-2e" x="99.707031"/>
      <use xlink:href="#DejaVuSans-30" x="131.494141"/>
      <use xlink:href="#DejaVuSans-30" x="195.117188"/>
      <use xlink:href="#DejaVuSans-37" x="258.740234"/>
      <use xlink:href="#DejaVuSans-37" x="322.363281"/>
     </g>
    </g>
   </g>
   <g id="text_6">
    <g id="patch_23">
     <path d="M 514.748495 232.383211 
L 526.018851 250.095999 
Q 526.501995 250.855322 527.261318 250.372177 
L 532.160533 247.254888 
Q 532.919856 246.771743 532.436711 246.01242 
L 521.166355 228.299632 
Q 520.683211 227.540309 519.923888 228.023454 
L 515.024673 231.140743 
Q 514.26535 231.623888 514.748495 232.383211 
z
" clip-path="url(#p0c3752177d)" style="fill: #ffffff; opacity: 0.8"/>
    </g>
    <g clip-path="url(#p0c3752177d)">
     <!-- 0.0014 -->
     <g style="fill: #444444" transform="translate(516.560587 231.230206)rotate(-302.467926)scale(0.06 -0.06)">
      <use xlink:href="#DejaVuSans-30"/>
      <use xlink:href="#DejaVuSans-2e" x="63.623047"/>
      <use xlink:href="#DejaVuSans-30" x="95.410156"/>
      <use xlink:href="#DejaVuSans-30" x="159.033203"/>
      <use xlink:href="#DejaVuSans-31" x="222.65625"/>
      <use xlink:href="#DejaVuSans-34" x="286.279297"/>
     </g>
    </g>
   </g>
   <g id="text_7">
    <g id="patch_24">
     <path d="M 327.770161 297.018704 
L 336.565699 275.594869 
Q 336.907508 274.762303 336.074942 274.420494 
L 330.703156 272.215111 
Q 329.87059 271.873302 329.52878 272.705868 
L 320.733243 294.129703 
Q 320.391433 294.962269 321.223999 295.304078 
L 326.595786 297.509461 
Q 327.428352 297.85127 327.770161 297.018704 
z
" clip-path="url(#p0c3752177d)" style="fill: #ffffff; opacity: 0.8"/>
    </g>
    <g clip-path="url(#p0c3752177d)">
     <!-- -0.0233 -->
     <g style="fill: #444444" transform="translate(325.783277 296.20299)rotate(-67.679439)scale(0.06 -0.06)">
      <defs>
       <path id="DejaVuSans-32" d="M 1228 531 
L 3431 531 
L 3431 0 
L 469 0 
L 469 531 
Q 828 903 1448 1529 
Q 2069 2156 2228 2338 
Q 2531 2678 2651 2914 
Q 2772 3150 2772 3378 
Q 2772 3750 2511 3984 
Q 2250 4219 1831 4219 
Q 1534 4219 1204 4116 
Q 875 4013 500 3803 
L 500 4441 
Q 881 4594 1212 4672 
Q 1544 4750 1819 4750 
Q 2544 4750 2975 4387 
Q 3406 4025 3406 3419 
Q 3406 3131 3298 2873 
Q 3191 2616 2906 2266 
Q 2828 2175 2409 1742 
Q 1991 1309 1228 531 
z
" transform="scale(0.015625)"/>
      </defs>
      <use xlink:href="#DejaVuSans-2d"/>
      <use xlink:href="#DejaVuSans-30" x="36.083984"/>
      <use xlink:href="#DejaVuSans-2e" x="99.707031"/>
      <use xlink:href="#DejaVuSans-30" x="131.494141"/>
      <use xlink:href="#DejaVuSans-32" x="195.117188"/>
      <use xlink:href="#DejaVuSans-33" x="258.740234"/>
      <use xlink:href="#DejaVuSans-33" x="322.363281"/>
     </g>
    </g>
   </g>
   <g id="text_8">
    <g id="patch_25">
     <path d="M 356.033771 85.768405 
L 378.817674 81.616784 
Q 379.703095 81.455445 379.541756 80.570024 
L 378.500784 74.857216 
Q 378.339445 73.971796 377.454024 74.133135 
L 354.670121 78.284755 
Q 353.784701 78.446094 353.94604 79.331515 
L 354.987012 85.044323 
Q 355.148351 85.929743 356.033771 85.768405 
z
" clip-path="url(#p0c3752177d)" style="fill: #ffffff; opacity: 0.8"/>
    </g>
    <g clip-path="url(#p0c3752177d)">
     <!-- -0.0181 -->
     <g style="fill: #444444" transform="translate(355.648743 83.655385)rotate(-10.326979)scale(0.06 -0.06)">
      <use xlink:href="#DejaVuSans-2d"/>
      <use xlink:href="#DejaVuSans-30" x="36.083984"/>
      <use xlink:href="#DejaVuSans-2e" x="99.707031"/>
      <use xlink:href="#DejaVuSans-30" x="131.494141"/>
      <use xlink:href="#DejaVuSans-31" x="195.117188"/>
      <use xlink:href="#DejaVuSans-38" x="258.740234"/>
      <use xlink:href="#DejaVuSans-31" x="322.363281"/>
     </g>
    </g>
   </g>
   <g id="text_9">
    <g id="patch_26">
     <path d="M 382.889523 306.072487 
L 386.532276 283.201708 
Q 386.67384 282.312912 385.785043 282.171348 
L 380.050452 281.257969 
Q 379.161655 281.116405 379.020091 282.005202 
L 375.377338 304.875981 
Q 375.235775 305.764778 376.124572 305.906341 
L 381.859163 306.819721 
Q 382.74796 306.961284 382.889523 306.072487 
z
" clip-path="url(#p0c3752177d)" style="fill: #ffffff; opacity: 0.8"/>
    </g>
    <g clip-path="url(#p0c3752177d)">
     <!-- -0.0034 -->
     <g style="fill: #444444" transform="translate(380.768446 305.734652)rotate(-80.950206)scale(0.06 -0.06)">
      <use xlink:href="#DejaVuSans-2d"/>
      <use xlink:href="#DejaVuSans-30" x="36.083984"/>
      <use xlink:href="#DejaVuSans-2e" x="99.707031"/>
      <use xlink:href="#DejaVuSans-30" x="131.494141"/>
      <use xlink:href="#DejaVuSans-30" x="195.117188"/>
      <use xlink:href="#DejaVuSans-33" x="258.740234"/>
      <use xlink:href="#DejaVuSans-34" x="322.363281"/>
     </g>
    </g>
   </g>
   <g id="text_10">
    <g id="patch_27">
     <path d="M 477.142102 262.492147 
L 484.54695 284.435493 
Q 484.834715 285.288248 485.68747 285.000483 
L 491.189518 283.143801 
Q 492.042273 282.856036 491.754508 282.003281 
L 484.34966 260.059935 
Q 484.061896 259.20718 483.20914 259.494945 
L 477.707093 261.351627 
Q 476.854338 261.639392 477.142102 262.492147 
z
" clip-path="url(#p0c3752177d)" style="fill: #ffffff; opacity: 0.8"/>
    </g>
    <g clip-path="url(#p0c3752177d)">
     <!-- -0.0078 -->
     <g style="fill: #444444" transform="translate(479.177167 261.805409)rotate(-288.647121)scale(0.06 -0.06)">
      <use xlink:href="#DejaVuSans-2d"/>
      <use xlink:href="#DejaVuSans-30" x="36.083984"/>
      <use xlink:href="#DejaVuSans-2e" x="99.707031"/>
      <use xlink:href="#DejaVuSans-30" x="131.494141"/>
      <use xlink:href="#DejaVuSans-30" x="195.117188"/>
      <use xlink:href="#DejaVuSans-37" x="258.740234"/>
      <use xlink:href="#DejaVuSans-38" x="322.363281"/>
     </g>
    </g>
   </g>
   <g id="text_11">
    <g id="patch_28">
     <path d="M 250.660109 238.745346 
L 267.199905 222.534939 
Q 267.84267 221.904975 267.212706 221.262211 
L 263.148128 217.115042 
Q 262.518165 216.472278 261.875401 217.102242 
L 245.335604 233.312649 
Q 244.69284 233.942612 245.322803 234.585377 
L 249.387381 238.732545 
Q 250.017344 239.375309 250.660109 238.745346 
z
" clip-path="url(#p0c3752177d)" style="fill: #ffffff; opacity: 0.8"/>
    </g>
    <g clip-path="url(#p0c3752177d)">
     <!-- -0.0074 -->
     <g style="fill: #444444" transform="translate(249.156727 237.211416)rotate(-44.423759)scale(0.06 -0.06)">
      <use xlink:href="#DejaVuSans-2d"/>
      <use xlink:href="#DejaVuSans-30" x="36.083984"/>
      <use xlink:href="#DejaVuSans-2e" x="99.707031"/>
      <use xlink:href="#DejaVuSans-30" x="131.494141"/>
      <use xlink:href="#DejaVuSans-30" x="195.117188"/>
      <use xlink:href="#DejaVuSans-37" x="258.740234"/>
      <use xlink:href="#DejaVuSans-34" x="322.363281"/>
     </g>
    </g>
   </g>
   <g id="text_12">
    <g id="patch_29">
     <path d="M 454.604221 89.546723 
L 476.23235 97.827195 
Q 477.072855 98.148988 477.394648 97.308482 
L 479.470884 91.885472 
Q 479.792677 91.044967 478.952172 90.723174 
L 457.324043 82.442701 
Q 456.483537 82.120908 456.161744 82.961414 
L 454.085509 88.384424 
Q 453.763716 89.22493 454.604221 89.546723 
z
" clip-path="url(#p0c3752177d)" style="fill: #ffffff; opacity: 0.8"/>
    </g>
    <g clip-path="url(#p0c3752177d)">
     <!-- -0.0141 -->
     <g style="fill: #444444" transform="translate(455.372167 87.540892)rotate(-339.050325)scale(0.06 -0.06)">
      <use xlink:href="#DejaVuSans-2d"/>
      <use xlink:href="#DejaVuSans-30" x="36.083984"/>
      <use xlink:href="#DejaVuSans-2e" x="99.707031"/>
      <use xlink:href="#DejaVuSans-30" x="131.494141"/>
      <use xlink:href="#DejaVuSans-31" x="195.117188"/>
      <use xlink:href="#DejaVuSans-34" x="258.740234"/>
      <use xlink:href="#DejaVuSans-31" x="322.363281"/>
     </g>
    </g>
   </g>
   <g id="text_13">
    <g id="patch_30">
     <path d="M 234.404316 197.594678 
L 253.637934 184.694674 
Q 254.385385 184.193359 253.884069 183.445908 
L 250.649538 178.623294 
Q 250.148222 177.875843 249.400772 178.377159 
L 230.167153 191.277163 
Q 229.419703 191.778479 229.921018 192.525929 
L 233.15555 197.348543 
Q 233.656865 198.095994 234.404316 197.594678 
z
" clip-path="url(#p0c3752177d)" style="fill: #ffffff; opacity: 0.8"/>
    </g>
    <g clip-path="url(#p0c3752177d)">
     <!-- -0.0029 -->
     <g style="fill: #444444" transform="translate(233.207947 195.810918)rotate(-33.84979)scale(0.06 -0.06)">
      <use xlink:href="#DejaVuSans-2d"/>
      <use xlink:href="#DejaVuSans-30" x="36.083984"/>
      <use xlink:href="#DejaVuSans-2e" x="99.707031"/>
      <use xlink:href="#DejaVuSans-30" x="131.494141"/>
      <use xlink:href="#DejaVuSans-30" x="195.117188"/>
      <use xlink:href="#DejaVuSans-32" x="258.740234"/>
      <use xlink:href="#DejaVuSans-39" x="322.363281"/>
     </g>
    </g>
   </g>
   <g id="text_14">
    <g id="patch_31">
     <path d="M 429.723545 283.679531 
L 431.57229 306.764685 
Q 431.644135 307.661813 432.541263 307.589968 
L 438.329606 307.126416 
Q 439.226734 307.05457 439.154888 306.157443 
L 437.306144 283.072289 
Q 437.234299 282.175161 436.337171 282.247006 
L 430.548828 282.710558 
Q 429.6517 282.782404 429.723545 283.679531 
z
" clip-path="url(#p0c3752177d)" style="fill: #ffffff; opacity: 0.8"/>
    </g>
    <g clip-path="url(#p0c3752177d)">
     <!-- -0.0365 -->
     <g style="fill: #444444" transform="translate(431.864503 283.508076)rotate(-274.578685)scale(0.06 -0.06)">
      <defs>
       <path id="DejaVuSans-36" d="M 2113 2584 
Q 1688 2584 1439 2293 
Q 1191 2003 1191 1497 
Q 1191 994 1439 701 
Q 1688 409 2113 409 
Q 2538 409 2786 701 
Q 3034 994 3034 1497 
Q 3034 2003 2786 2293 
Q 2538 2584 2113 2584 
z
M 3366 4563 
L 3366 3988 
Q 3128 4100 2886 4159 
Q 2644 4219 2406 4219 
Q 1781 4219 1451 3797 
Q 1122 3375 1075 2522 
Q 1259 2794 1537 2939 
Q 1816 3084 2150 3084 
Q 2853 3084 3261 2657 
Q 3669 2231 3669 1497 
Q 3669 778 3244 343 
Q 2819 -91 2113 -91 
Q 1303 -91 875 529 
Q 447 1150 447 2328 
Q 447 3434 972 4092 
Q 1497 4750 2381 4750 
Q 2619 4750 2861 4703 
Q 3103 4656 3366 4563 
z
" transform="scale(0.015625)"/>
       <path id="DejaVuSans-35" d="M 691 4666 
L 3169 4666 
L 3169 4134 
L 1269 4134 
L 1269 2991 
Q 1406 3038 1543 3061 
Q 1681 3084 1819 3084 
Q 2600 3084 3056 2656 
Q 3513 2228 3513 1497 
Q 3513 744 3044 326 
Q 2575 -91 1722 -91 
Q 1428 -91 1123 -41 
Q 819 9 494 109 
L 494 744 
Q 775 591 1075 516 
Q 1375 441 1709 441 
Q 2250 441 2565 725 
Q 2881 1009 2881 1497 
Q 2881 1984 2565 2268 
Q 2250 2553 1709 2553 
Q 1456 2553 1204 2497 
Q 953 2441 691 2322 
L 691 4666 
z
" transform="scale(0.015625)"/>
      </defs>
      <use xlink:href="#DejaVuSans-2d"/>
      <use xlink:href="#DejaVuSans-30" x="36.083984"/>
      <use xlink:href="#DejaVuSans-2e" x="99.707031"/>
      <use xlink:href="#DejaVuSans-30" x="131.494141"/>
      <use xlink:href="#DejaVuSans-33" x="195.117188"/>
      <use xlink:href="#DejaVuSans-36" x="258.740234"/>
      <use xlink:href="#DejaVuSans-35" x="322.363281"/>
     </g>
    </g>
   </g>
   <g id="text_15">
    <g id="patch_32">
     <path d="M 520.697066 192.882754 
L 534.706677 208.519077 
Q 535.30725 209.189384 535.977558 208.588811 
L 540.302439 204.713866 
Q 540.972746 204.113293 540.372173 203.442985 
L 526.362562 187.806663 
Q 525.761989 187.136356 525.091682 187.736928 
L 520.766801 191.611874 
Q 520.096493 192.212447 520.697066 192.882754 
z
" clip-path="url(#p0c3752177d)" style="fill: #ffffff; opacity: 0.8"/>
    </g>
    <g clip-path="url(#p0c3752177d)">
     <!-- 0.0056 -->
     <g style="fill: #444444" transform="translate(522.296727 191.449512)rotate(-311.859256)scale(0.06 -0.06)">
      <use xlink:href="#DejaVuSans-30"/>
      <use xlink:href="#DejaVuSans-2e" x="63.623047"/>
      <use xlink:href="#DejaVuSans-30" x="95.410156"/>
      <use xlink:href="#DejaVuSans-30" x="159.033203"/>
      <use xlink:href="#DejaVuSans-35" x="222.65625"/>
      <use xlink:href="#DejaVuSans-36" x="286.279297"/>
     </g>
    </g>
   </g>
   <g id="text_16">
    <g id="patch_33">
     <path d="M 306.045416 84.848922 
L 329.107408 82.730746 
Q 330.003636 82.64843 329.92132 81.752203 
L 329.390212 75.969667 
Q 329.307896 75.073439 328.411668 75.155755 
L 305.349675 77.273931 
Q 304.453448 77.356246 304.535763 78.252474 
L 305.066872 84.03501 
Q 305.149188 84.931238 306.045416 84.848922 
z
" clip-path="url(#p0c3752177d)" style="fill: #ffffff; opacity: 0.8"/>
    </g>
    <g clip-path="url(#p0c3752177d)">
     <!-- -0.0347 -->
     <g style="fill: #444444" transform="translate(305.848972 82.710112)rotate(-5.247724)scale(0.06 -0.06)">
      <use xlink:href="#DejaVuSans-2d"/>
      <use xlink:href="#DejaVuSans-30" x="36.083984"/>
      <use xlink:href="#DejaVuSans-2e" x="99.707031"/>
      <use xlink:href="#DejaVuSans-30" x="131.494141"/>
      <use xlink:href="#DejaVuSans-33" x="195.117188"/>
      <use xlink:href="#DejaVuSans-34" x="258.740234"/>
      <use xlink:href="#DejaVuSans-37" x="322.363281"/>
     </g>
    </g>
   </g>
   <g id="PathCollection_1">
    <path d="M 416.497771 90.249671 
C 421.633407 90.249671 426.559392 88.209262 430.190835 84.577819 
C 433.822278 80.946376 435.862687 76.020391 435.862687 70.884755 
C 435.862687 65.749119 433.822278 60.823134 430.190835 57.191691 
C 426.559392 53.560248 421.633407 51.519838 416.497771 51.519838 
C 411.362135 51.519838 406.43615 53.560248 402.804707 57.191691 
C 399.173264 60.823134 397.132854 65.749119 397.132854 70.884755 
C 397.132854 76.020391 399.173264 80.946376 402.804707 84.577819 
C 406.43615 88.209262 411.362135 90.249671 416.497771 90.249671 
z
" clip-path="url(#p0c3752177d)" style="fill: #d62728; fill-opacity: 0.9; stroke: #333333; stroke-opacity: 0.9"/>
    <path d="M 649.093963 253.682423 
C 651.741657 253.682423 654.281264 252.630483 656.153467 250.758281 
C 658.025669 248.886079 659.077609 246.346471 659.077609 243.698777 
C 659.077609 241.051084 658.025669 238.511476 656.153467 236.639274 
C 654.281264 234.767072 651.741657 233.715132 649.093963 233.715132 
C 646.44627 233.715132 643.906662 234.767072 642.03446 236.639274 
C 640.162258 238.511476 639.110318 241.051084 639.110318 243.698777 
C 639.110318 246.346471 640.162258 248.886079 642.03446 250.758281 
C 643.906662 252.630483 646.44627 253.682423 649.093963 253.682423 
z
" clip-path="url(#p0c3752177d)" style="fill: #a8d5ba; fill-opacity: 0.9; stroke: #333333; stroke-opacity: 0.9"/>
    <path d="M 142.621325 468.582473 
C 144.993526 468.582473 147.268886 467.639988 148.946285 465.962589 
C 150.623684 464.28519 151.56617 462.009829 151.56617 459.637629 
C 151.56617 457.265428 150.623684 454.990068 148.946285 453.312669 
C 147.268886 451.63527 144.993526 450.692784 142.621325 450.692784 
C 140.249125 450.692784 137.973764 451.63527 136.296365 453.312669 
C 134.618966 454.990068 133.676481 457.265428 133.676481 459.637629 
C 133.676481 462.009829 134.618966 464.28519 136.296365 465.962589 
C 137.973764 467.639988 140.249125 468.582473 142.621325 468.582473 
z
" clip-path="url(#p0c3752177d)" style="fill: #a8d5ba; fill-opacity: 0.9; stroke: #333333; stroke-opacity: 0.9"/>
    <path d="M 71.409595 230.684855 
C 73.858834 230.684855 76.208088 229.711762 77.939962 227.979888 
C 79.671836 226.248015 80.644929 223.89876 80.644929 221.449521 
C 80.644929 219.000282 79.671836 216.651028 77.939962 214.919154 
C 76.208088 213.187281 73.858834 212.214188 71.409595 212.214188 
C 68.960356 212.214188 66.611102 213.187281 64.879228 214.919154 
C 63.147354 216.651028 62.174261 219.000282 62.174261 221.449521 
C 62.174261 223.89876 63.147354 226.248015 64.879228 227.979888 
C 66.611102 229.711762 68.960356 230.684855 71.409595 230.684855 
z
" clip-path="url(#p0c3752177d)" style="fill: #a8d5ba; fill-opacity: 0.9; stroke: #333333; stroke-opacity: 0.9"/>
    <path d="M 598.589791 176.158354 
C 601.062753 176.158354 603.434761 175.175836 605.183409 173.427188 
C 606.932056 171.67854 607.914574 169.306532 607.914574 166.833571 
C 607.914574 164.360609 606.932056 161.988601 605.183409 160.239954 
C 603.434761 158.491306 601.062753 157.508788 598.589791 157.508788 
C 596.11683 157.508788 593.744822 158.491306 591.996174 160.239954 
C 590.247526 161.988601 589.265008 164.360609 589.265008 166.833571 
C 589.265008 169.306532 590.247526 171.67854 591.996174 173.427188 
C 593.744822 175.175836 596.11683 176.158354 598.589791 176.158354 
z
" clip-path="url(#p0c3752177d)" style="fill: #a8d5ba; fill-opacity: 0.9; stroke: #333333; stroke-opacity: 0.9"/>
    <path d="M 121.160816 149.676732 
C 123.527587 149.676732 125.797739 148.736404 127.471299 147.062845 
C 129.144858 145.389285 130.085186 143.119133 130.085186 140.752362 
C 130.085186 138.385592 129.144858 136.115439 127.471299 134.44188 
C 125.797739 132.76832 123.527587 131.827992 121.160816 131.827992 
C 118.794046 131.827992 116.523893 132.76832 114.850334 134.44188 
C 113.176774 136.115439 112.236446 138.385592 112.236446 140.752362 
C 112.236446 143.119133 113.176774 145.389285 114.850334 147.062845 
C 116.523893 148.736404 118.794046 149.676732 121.160816 149.676732 
z
" clip-path="url(#p0c3752177d)" style="fill: #a8d5ba; fill-opacity: 0.9; stroke: #333333; stroke-opacity: 0.9"/>
    <path d="M 630.686033 416.218985 
C 632.996035 416.218985 635.211736 415.301211 636.845154 413.667793 
C 638.478572 412.034375 639.396346 409.818674 639.396346 407.508672 
C 639.396346 405.19867 638.478572 402.982969 636.845154 401.349551 
C 635.211736 399.716133 632.996035 398.798359 630.686033 398.798359 
C 628.376031 398.798359 626.16033 399.716133 624.526912 401.349551 
C 622.893494 402.982969 621.97572 405.19867 621.97572 407.508672 
C 621.97572 409.818674 622.893494 412.034375 624.526912 413.667793 
C 626.16033 415.301211 628.376031 416.218985 630.686033 416.218985 
z
" clip-path="url(#p0c3752177d)" style="fill: #a8d5ba; fill-opacity: 0.9; stroke: #333333; stroke-opacity: 0.9"/>
    <path d="M 240.802771 508.271883 
C 243.305218 508.271883 245.705508 507.27765 247.475005 505.508153 
C 249.244503 503.738656 250.238735 501.338366 250.238735 498.835919 
C 250.238735 496.333472 249.244503 493.933182 247.475005 492.163685 
C 245.705508 490.394188 243.305218 489.399955 240.802771 489.399955 
C 238.300324 489.399955 235.900034 490.394188 234.130537 492.163685 
C 232.36104 493.933182 231.366807 496.333472 231.366807 498.835919 
C 231.366807 501.338366 232.36104 503.738656 234.130537 505.508153 
C 235.900034 507.27765 238.300324 508.271883 240.802771 508.271883 
z
" clip-path="url(#p0c3752177d)" style="fill: #a8d5ba; fill-opacity: 0.9; stroke: #333333; stroke-opacity: 0.9"/>
    <path d="M 316.993936 98.28479 
C 319.452029 98.28479 321.809776 97.30818 323.54791 95.570046 
C 325.286044 93.831911 326.262655 91.474165 326.262655 89.016072 
C 326.262655 86.557979 325.286044 84.200232 323.54791 82.462098 
C 321.809776 80.723964 319.452029 79.747353 316.993936 79.747353 
C 314.535843 79.747353 312.178096 80.723964 310.439962 82.462098 
C 308.701828 84.200232 307.725217 86.557979 307.725217 89.016072 
C 307.725217 91.474165 308.701828 93.831911 310.439962 95.570046 
C 312.178096 97.30818 314.535843 98.28479 316.993936 98.28479 
z
" clip-path="url(#p0c3752177d)" style="fill: #a8d5ba; fill-opacity: 0.9; stroke: #333333; stroke-opacity: 0.9"/>
    <path d="M 345.412353 525.968796 
C 347.740585 525.968796 349.973773 525.04378 351.620082 523.39747 
C 353.266391 521.751161 354.191408 519.517974 354.191408 517.189741 
C 354.191408 514.861508 353.266391 512.628321 351.620082 510.982011 
C 349.973773 509.335702 347.740585 508.410686 345.412353 508.410686 
C 343.08412 508.410686 340.850932 509.335702 339.204623 510.982011 
C 337.558314 512.628321 336.633297 514.861508 336.633297 517.189741 
C 336.633297 519.517974 337.558314 521.751161 339.204623 523.39747 
C 340.850932 525.04378 343.08412 525.968796 345.412353 525.968796 
z
" clip-path="url(#p0c3752177d)" style="fill: #a8d5ba; fill-opacity: 0.9; stroke: #333333; stroke-opacity: 0.9"/>
    <path d="M 552.398395 482.53542 
C 554.765615 482.53542 557.036199 481.594914 558.710076 479.921036 
C 560.383953 478.247159 561.32446 475.976576 561.32446 473.609356 
C 561.32446 471.242136 560.383953 468.971552 558.710076 467.297675 
C 557.036199 465.623797 554.765615 464.683291 552.398395 464.683291 
C 550.031175 464.683291 547.760592 465.623797 546.086714 467.297675 
C 544.412837 468.971552 543.472331 471.242136 543.472331 473.609356 
C 543.472331 475.976576 544.412837 478.247159 546.086714 479.921036 
C 547.760592 481.594914 550.031175 482.53542 552.398395 482.53542 
z
" clip-path="url(#p0c3752177d)" style="fill: #a8d5ba; fill-opacity: 0.9; stroke: #333333; stroke-opacity: 0.9"/>
    <path d="M 96.038323 393.875096 
C 98.402034 393.875096 100.669253 392.935984 102.340649 391.264587 
C 104.012046 389.593191 104.951158 387.325972 104.951158 384.962261 
C 104.951158 382.598549 104.012046 380.33133 102.340649 378.659934 
C 100.669253 376.988537 98.402034 376.049425 96.038323 376.049425 
C 93.674611 376.049425 91.407392 376.988537 89.735996 378.659934 
C 88.064599 380.33133 87.125487 382.598549 87.125487 384.962261 
C 87.125487 387.325972 88.064599 389.593191 89.735996 391.264587 
C 91.407392 392.935984 93.674611 393.875096 96.038323 393.875096 
z
" clip-path="url(#p0c3752177d)" style="fill: #a8d5ba; fill-opacity: 0.9; stroke: #333333; stroke-opacity: 0.9"/>
    <path d="M 517.059806 118.523235 
C 519.483136 118.523235 521.807539 117.560435 523.521093 115.846882 
C 525.234646 114.133328 526.197446 111.808925 526.197446 109.385595 
C 526.197446 106.962264 525.234646 104.637861 523.521093 102.924307 
C 521.807539 101.210754 519.483136 100.247954 517.059806 100.247954 
C 514.636475 100.247954 512.312072 101.210754 510.598518 102.924307 
C 508.884965 104.637861 507.922165 106.962264 507.922165 109.385595 
C 507.922165 111.808925 508.884965 114.133328 510.598518 115.846882 
C 512.312072 117.560435 514.636475 118.523235 517.059806 118.523235 
z
" clip-path="url(#p0c3752177d)" style="fill: #a8d5ba; fill-opacity: 0.9; stroke: #333333; stroke-opacity: 0.9"/>
    <path d="M 67.31059 313.843801 
C 69.633481 313.843801 71.861546 312.920907 73.504078 311.278375 
C 75.14661 309.635843 76.069504 307.407778 76.069504 305.084887 
C 76.069504 302.761996 75.14661 300.533932 73.504078 298.8914 
C 71.861546 297.248868 69.633481 296.325973 67.31059 296.325973 
C 64.987699 296.325973 62.759635 297.248868 61.117103 298.8914 
C 59.474571 300.533932 58.551676 302.761996 58.551676 305.084887 
C 58.551676 307.407778 59.474571 309.635843 61.117103 311.278375 
C 62.759635 312.920907 64.987699 313.843801 67.31059 313.843801 
z
" clip-path="url(#p0c3752177d)" style="fill: #a8d5ba; fill-opacity: 0.9; stroke: #333333; stroke-opacity: 0.9"/>
    <path d="M 452.380555 528.79708 
C 454.9918 528.79708 457.496447 527.759621 459.342877 525.913192 
C 461.189306 524.066763 462.226765 521.562116 462.226765 518.95087 
C 462.226765 516.339625 461.189306 513.834978 459.342877 511.988549 
C 457.496447 510.14212 454.9918 509.104661 452.380555 509.104661 
C 449.76931 509.104661 447.264663 510.14212 445.418233 511.988549 
C 443.571804 513.834978 442.534345 516.339625 442.534345 518.95087 
C 442.534345 521.562116 443.571804 524.066763 445.418233 525.913192 
C 447.264663 527.759621 449.76931 528.79708 452.380555 528.79708 
z
" clip-path="url(#p0c3752177d)" style="fill: #a8d5ba; fill-opacity: 0.9; stroke: #333333; stroke-opacity: 0.9"/>
    <path d="M 644.572033 334.294498 
C 646.919845 334.294498 649.171813 333.361702 650.831967 331.701548 
C 652.492121 330.041394 653.424916 327.789426 653.424916 325.441614 
C 653.424916 323.093802 652.492121 320.841834 650.831967 319.18168 
C 649.171813 317.521526 646.919845 316.58873 644.572033 316.58873 
C 642.22422 316.58873 639.972252 317.521526 638.312099 319.18168 
C 636.651945 320.841834 635.719149 323.093802 635.719149 325.441614 
C 635.719149 327.789426 636.651945 330.041394 638.312099 331.701548 
C 639.972252 333.361702 642.22422 334.294498 644.572033 334.294498 
z
" clip-path="url(#p0c3752177d)" style="fill: #a8d5ba; fill-opacity: 0.9; stroke: #333333; stroke-opacity: 0.9"/>
    <path d="M 217.955559 98.912694 
C 220.552541 98.912694 223.043506 97.880902 224.87985 96.044558 
C 226.716193 94.208215 227.747985 91.717249 227.747985 89.120267 
C 227.747985 86.523285 226.716193 84.032319 224.87985 82.195976 
C 223.043506 80.359632 220.552541 79.327841 217.955559 79.327841 
C 215.358577 79.327841 212.867611 80.359632 211.031268 82.195976 
C 209.194924 84.032319 208.163132 86.523285 208.163132 89.120267 
C 208.163132 91.717249 209.194924 94.208215 211.031268 96.044558 
C 212.867611 97.880902 215.358577 98.912694 217.955559 98.912694 
z
" clip-path="url(#p0c3752177d)" style="fill: #a8d5ba; fill-opacity: 0.9; stroke: #333333; stroke-opacity: 0.9"/>
   </g>
   <g id="text_17">
    <g clip-path="url(#p0c3752177d)">
     <!-- Price -->
     <g transform="translate(402.297771 73.64413)scale(0.1 -0.1)">
      <defs>
       <path id="DejaVuSans-Bold-50" d="M 588 4666 
L 2584 4666 
Q 3475 4666 3951 4270 
Q 4428 3875 4428 3144 
Q 4428 2409 3951 2014 
Q 3475 1619 2584 1619 
L 1791 1619 
L 1791 0 
L 588 0 
L 588 4666 
z
M 1791 3794 
L 1791 2491 
L 2456 2491 
Q 2806 2491 2997 2661 
Q 3188 2831 3188 3144 
Q 3188 3456 2997 3625 
Q 2806 3794 2456 3794 
L 1791 3794 
z
" transform="scale(0.015625)"/>
       <path id="DejaVuSans-Bold-72" d="M 3138 2547 
Q 2991 2616 2845 2648 
Q 2700 2681 2553 2681 
Q 2122 2681 1889 2404 
Q 1656 2128 1656 1613 
L 1656 0 
L 538 0 
L 538 3500 
L 1656 3500 
L 1656 2925 
Q 1872 3269 2151 3426 
Q 2431 3584 2822 3584 
Q 2878 3584 2943 3579 
Q 3009 3575 3134 3559 
L 3138 2547 
z
" transform="scale(0.015625)"/>
       <path id="DejaVuSans-Bold-69" d="M 538 3500 
L 1656 3500 
L 1656 0 
L 538 0 
L 538 3500 
z
M 538 4863 
L 1656 4863 
L 1656 3950 
L 538 3950 
L 538 4863 
z
" transform="scale(0.015625)"/>
       <path id="DejaVuSans-Bold-63" d="M 3366 3391 
L 3366 2478 
Q 3138 2634 2908 2709 
Q 2678 2784 2431 2784 
Q 1963 2784 1702 2511 
Q 1441 2238 1441 1747 
Q 1441 1256 1702 982 
Q 1963 709 2431 709 
Q 2694 709 2930 787 
Q 3166 866 3366 1019 
L 3366 103 
Q 3103 6 2833 -42 
Q 2563 -91 2291 -91 
Q 1344 -91 809 395 
Q 275 881 275 1747 
Q 275 2613 809 3098 
Q 1344 3584 2291 3584 
Q 2566 3584 2833 3536 
Q 3100 3488 3366 3391 
z
" transform="scale(0.015625)"/>
       <path id="DejaVuSans-Bold-65" d="M 4031 1759 
L 4031 1441 
L 1416 1441 
Q 1456 1047 1700 850 
Q 1944 653 2381 653 
Q 2734 653 3104 758 
Q 3475 863 3866 1075 
L 3866 213 
Q 3469 63 3072 -14 
Q 2675 -91 2278 -91 
Q 1328 -91 801 392 
Q 275 875 275 1747 
Q 275 2603 792 3093 
Q 1309 3584 2216 3584 
Q 3041 3584 3536 3087 
Q 4031 2591 4031 1759 
z
M 2881 2131 
Q 2881 2450 2695 2645 
Q 2509 2841 2209 2841 
Q 1884 2841 1681 2658 
Q 1478 2475 1428 2131 
L 2881 2131 
z
" transform="scale(0.015625)"/>
      </defs>
      <use xlink:href="#DejaVuSans-Bold-50"/>
      <use xlink:href="#DejaVuSans-Bold-72" x="73.291016"/>
      <use xlink:href="#DejaVuSans-Bold-69" x="122.607422"/>
      <use xlink:href="#DejaVuSans-Bold-63" x="156.884766"/>
      <use xlink:href="#DejaVuSans-Bold-65" x="216.162109"/>
     </g>
    </g>
   </g>
   <g id="text_18">
    <g clip-path="url(#p0c3752177d)">
     <!-- Gas -->
     <g transform="translate(638.640057 246.458152)scale(0.1 -0.1)">
      <defs>
       <path id="DejaVuSans-Bold-47" d="M 4781 347 
Q 4331 128 3847 18 
Q 3363 -91 2847 -91 
Q 1681 -91 1000 561 
Q 319 1213 319 2328 
Q 319 3456 1012 4103 
Q 1706 4750 2913 4750 
Q 3378 4750 3804 4662 
Q 4231 4575 4609 4403 
L 4609 3438 
Q 4219 3659 3833 3768 
Q 3447 3878 3059 3878 
Q 2341 3878 1952 3476 
Q 1563 3075 1563 2328 
Q 1563 1588 1938 1184 
Q 2313 781 3003 781 
Q 3191 781 3352 804 
Q 3513 828 3641 878 
L 3641 1784 
L 2906 1784 
L 2906 2591 
L 4781 2591 
L 4781 347 
z
" transform="scale(0.015625)"/>
       <path id="DejaVuSans-Bold-61" d="M 2106 1575 
Q 1756 1575 1579 1456 
Q 1403 1338 1403 1106 
Q 1403 894 1545 773 
Q 1688 653 1941 653 
Q 2256 653 2472 879 
Q 2688 1106 2688 1447 
L 2688 1575 
L 2106 1575 
z
M 3816 1997 
L 3816 0 
L 2688 0 
L 2688 519 
Q 2463 200 2181 54 
Q 1900 -91 1497 -91 
Q 953 -91 614 226 
Q 275 544 275 1050 
Q 275 1666 698 1953 
Q 1122 2241 2028 2241 
L 2688 2241 
L 2688 2328 
Q 2688 2594 2478 2717 
Q 2269 2841 1825 2841 
Q 1466 2841 1156 2769 
Q 847 2697 581 2553 
L 581 3406 
Q 941 3494 1303 3539 
Q 1666 3584 2028 3584 
Q 2975 3584 3395 3211 
Q 3816 2838 3816 1997 
z
" transform="scale(0.015625)"/>
       <path id="DejaVuSans-Bold-73" d="M 3272 3391 
L 3272 2541 
Q 2913 2691 2578 2766 
Q 2244 2841 1947 2841 
Q 1628 2841 1473 2761 
Q 1319 2681 1319 2516 
Q 1319 2381 1436 2309 
Q 1553 2238 1856 2203 
L 2053 2175 
Q 2913 2066 3209 1816 
Q 3506 1566 3506 1031 
Q 3506 472 3093 190 
Q 2681 -91 1863 -91 
Q 1516 -91 1145 -36 
Q 775 19 384 128 
L 384 978 
Q 719 816 1070 734 
Q 1422 653 1784 653 
Q 2113 653 2278 743 
Q 2444 834 2444 1013 
Q 2444 1163 2330 1236 
Q 2216 1309 1875 1350 
L 1678 1375 
Q 931 1469 631 1722 
Q 331 1975 331 2491 
Q 331 3047 712 3315 
Q 1094 3584 1881 3584 
Q 2191 3584 2531 3537 
Q 2872 3491 3272 3391 
z
" transform="scale(0.015625)"/>
      </defs>
      <use xlink:href="#DejaVuSans-Bold-47"/>
      <use xlink:href="#DejaVuSans-Bold-61" x="82.080078"/>
      <use xlink:href="#DejaVuSans-Bold-73" x="149.560547"/>
     </g>
    </g>
   </g>
   <g id="text_19">
    <g clip-path="url(#p0c3752177d)">
     <!-- Hydro Pumped -->
     <g transform="translate(100.973669 462.357941)scale(0.1 -0.1)">
      <defs>
       <path id="DejaVuSans-Bold-48" d="M 588 4666 
L 1791 4666 
L 1791 2888 
L 3566 2888 
L 3566 4666 
L 4769 4666 
L 4769 0 
L 3566 0 
L 3566 1978 
L 1791 1978 
L 1791 0 
L 588 0 
L 588 4666 
z
" transform="scale(0.015625)"/>
       <path id="DejaVuSans-Bold-79" d="M 78 3500 
L 1197 3500 
L 2138 1125 
L 2938 3500 
L 4056 3500 
L 2584 -331 
Q 2363 -916 2067 -1148 
Q 1772 -1381 1288 -1381 
L 641 -1381 
L 641 -647 
L 991 -647 
Q 1275 -647 1404 -556 
Q 1534 -466 1606 -231 
L 1638 -134 
L 78 3500 
z
" transform="scale(0.015625)"/>
       <path id="DejaVuSans-Bold-64" d="M 2919 2988 
L 2919 4863 
L 4044 4863 
L 4044 0 
L 2919 0 
L 2919 506 
Q 2688 197 2409 53 
Q 2131 -91 1766 -91 
Q 1119 -91 703 423 
Q 288 938 288 1747 
Q 288 2556 703 3070 
Q 1119 3584 1766 3584 
Q 2128 3584 2408 3439 
Q 2688 3294 2919 2988 
z
M 2181 722 
Q 2541 722 2730 984 
Q 2919 1247 2919 1747 
Q 2919 2247 2730 2509 
Q 2541 2772 2181 2772 
Q 1825 2772 1636 2509 
Q 1447 2247 1447 1747 
Q 1447 1247 1636 984 
Q 1825 722 2181 722 
z
" transform="scale(0.015625)"/>
       <path id="DejaVuSans-Bold-6f" d="M 2203 2784 
Q 1831 2784 1636 2517 
Q 1441 2250 1441 1747 
Q 1441 1244 1636 976 
Q 1831 709 2203 709 
Q 2569 709 2762 976 
Q 2956 1244 2956 1747 
Q 2956 2250 2762 2517 
Q 2569 2784 2203 2784 
z
M 2203 3584 
Q 3106 3584 3614 3096 
Q 4122 2609 4122 1747 
Q 4122 884 3614 396 
Q 3106 -91 2203 -91 
Q 1297 -91 786 396 
Q 275 884 275 1747 
Q 275 2609 786 3096 
Q 1297 3584 2203 3584 
z
" transform="scale(0.015625)"/>
       <path id="DejaVuSans-Bold-20" transform="scale(0.015625)"/>
       <path id="DejaVuSans-Bold-75" d="M 500 1363 
L 500 3500 
L 1625 3500 
L 1625 3150 
Q 1625 2866 1622 2436 
Q 1619 2006 1619 1863 
Q 1619 1441 1641 1255 
Q 1663 1069 1716 984 
Q 1784 875 1895 815 
Q 2006 756 2150 756 
Q 2500 756 2700 1025 
Q 2900 1294 2900 1772 
L 2900 3500 
L 4019 3500 
L 4019 0 
L 2900 0 
L 2900 506 
Q 2647 200 2364 54 
Q 2081 -91 1741 -91 
Q 1134 -91 817 281 
Q 500 653 500 1363 
z
" transform="scale(0.015625)"/>
       <path id="DejaVuSans-Bold-6d" d="M 3781 2919 
Q 3994 3244 4286 3414 
Q 4578 3584 4928 3584 
Q 5531 3584 5847 3212 
Q 6163 2841 6163 2131 
L 6163 0 
L 5038 0 
L 5038 1825 
Q 5041 1866 5042 1909 
Q 5044 1953 5044 2034 
Q 5044 2406 4934 2573 
Q 4825 2741 4581 2741 
Q 4263 2741 4089 2478 
Q 3916 2216 3909 1719 
L 3909 0 
L 2784 0 
L 2784 1825 
Q 2784 2406 2684 2573 
Q 2584 2741 2328 2741 
Q 2006 2741 1831 2477 
Q 1656 2213 1656 1722 
L 1656 0 
L 531 0 
L 531 3500 
L 1656 3500 
L 1656 2988 
Q 1863 3284 2130 3434 
Q 2397 3584 2719 3584 
Q 3081 3584 3359 3409 
Q 3638 3234 3781 2919 
z
" transform="scale(0.015625)"/>
       <path id="DejaVuSans-Bold-70" d="M 1656 506 
L 1656 -1331 
L 538 -1331 
L 538 3500 
L 1656 3500 
L 1656 2988 
Q 1888 3294 2169 3439 
Q 2450 3584 2816 3584 
Q 3463 3584 3878 3070 
Q 4294 2556 4294 1747 
Q 4294 938 3878 423 
Q 3463 -91 2816 -91 
Q 2450 -91 2169 54 
Q 1888 200 1656 506 
z
M 2400 2772 
Q 2041 2772 1848 2508 
Q 1656 2244 1656 1747 
Q 1656 1250 1848 986 
Q 2041 722 2400 722 
Q 2759 722 2948 984 
Q 3138 1247 3138 1747 
Q 3138 2247 2948 2509 
Q 2759 2772 2400 2772 
z
" transform="scale(0.015625)"/>
      </defs>
      <use xlink:href="#DejaVuSans-Bold-48"/>
      <use xlink:href="#DejaVuSans-Bold-79" x="83.691406"/>
      <use xlink:href="#DejaVuSans-Bold-64" x="148.876953"/>
      <use xlink:href="#DejaVuSans-Bold-72" x="220.458984"/>
      <use xlink:href="#DejaVuSans-Bold-6f" x="269.775391"/>
      <use xlink:href="#DejaVuSans-Bold-20" x="338.476562"/>
      <use xlink:href="#DejaVuSans-Bold-50" x="373.291016"/>
      <use xlink:href="#DejaVuSans-Bold-75" x="446.582031"/>
      <use xlink:href="#DejaVuSans-Bold-6d" x="517.773438"/>
      <use xlink:href="#DejaVuSans-Bold-70" x="621.972656"/>
      <use xlink:href="#DejaVuSans-Bold-65" x="693.554688"/>
      <use xlink:href="#DejaVuSans-Bold-64" x="761.376953"/>
     </g>
    </g>
   </g>
   <g id="text_20">
    <g clip-path="url(#p0c3752177d)">
     <!-- Nuclear -->
     <g transform="translate(49.75647 224.208896)scale(0.1 -0.1)">
      <defs>
       <path id="DejaVuSans-Bold-4e" d="M 588 4666 
L 1931 4666 
L 3628 1466 
L 3628 4666 
L 4769 4666 
L 4769 0 
L 3425 0 
L 1728 3200 
L 1728 0 
L 588 0 
L 588 4666 
z
" transform="scale(0.015625)"/>
       <path id="DejaVuSans-Bold-6c" d="M 538 4863 
L 1656 4863 
L 1656 0 
L 538 0 
L 538 4863 
z
" transform="scale(0.015625)"/>
      </defs>
      <use xlink:href="#DejaVuSans-Bold-4e"/>
      <use xlink:href="#DejaVuSans-Bold-75" x="83.691406"/>
      <use xlink:href="#DejaVuSans-Bold-63" x="154.882812"/>
      <use xlink:href="#DejaVuSans-Bold-6c" x="214.160156"/>
      <use xlink:href="#DejaVuSans-Bold-65" x="248.4375"/>
      <use xlink:href="#DejaVuSans-Bold-61" x="316.259766"/>
      <use xlink:href="#DejaVuSans-Bold-72" x="383.740234"/>
     </g>
    </g>
   </g>
   <g id="text_21">
    <g clip-path="url(#p0c3752177d)">
     <!-- Solar -->
     <g transform="translate(583.999947 169.592946)scale(0.1 -0.1)">
      <defs>
       <path id="DejaVuSans-Bold-53" d="M 3834 4519 
L 3834 3531 
Q 3450 3703 3084 3790 
Q 2719 3878 2394 3878 
Q 1963 3878 1756 3759 
Q 1550 3641 1550 3391 
Q 1550 3203 1689 3098 
Q 1828 2994 2194 2919 
L 2706 2816 
Q 3484 2659 3812 2340 
Q 4141 2022 4141 1434 
Q 4141 663 3683 286 
Q 3225 -91 2284 -91 
Q 1841 -91 1394 -6 
Q 947 78 500 244 
L 500 1259 
Q 947 1022 1364 901 
Q 1781 781 2169 781 
Q 2563 781 2772 912 
Q 2981 1044 2981 1288 
Q 2981 1506 2839 1625 
Q 2697 1744 2272 1838 
L 1806 1941 
Q 1106 2091 782 2419 
Q 459 2747 459 3303 
Q 459 4000 909 4375 
Q 1359 4750 2203 4750 
Q 2588 4750 2994 4692 
Q 3400 4634 3834 4519 
z
" transform="scale(0.015625)"/>
      </defs>
      <use xlink:href="#DejaVuSans-Bold-53"/>
      <use xlink:href="#DejaVuSans-Bold-6f" x="72.021484"/>
      <use xlink:href="#DejaVuSans-Bold-6c" x="140.722656"/>
      <use xlink:href="#DejaVuSans-Bold-61" x="175"/>
      <use xlink:href="#DejaVuSans-Bold-72" x="242.480469"/>
     </g>
    </g>
   </g>
   <g id="text_22">
    <g clip-path="url(#p0c3752177d)">
     <!-- Wind Onshore -->
     <g transform="translate(81.415504 143.511737)scale(0.1 -0.1)">
      <defs>
       <path id="DejaVuSans-Bold-57" d="M 191 4666 
L 1344 4666 
L 2150 1275 
L 2950 4666 
L 4109 4666 
L 4909 1275 
L 5716 4666 
L 6859 4666 
L 5759 0 
L 4372 0 
L 3525 3547 
L 2688 0 
L 1300 0 
L 191 4666 
z
" transform="scale(0.015625)"/>
       <path id="DejaVuSans-Bold-6e" d="M 4056 2131 
L 4056 0 
L 2931 0 
L 2931 347 
L 2931 1631 
Q 2931 2084 2911 2256 
Q 2891 2428 2841 2509 
Q 2775 2619 2662 2680 
Q 2550 2741 2406 2741 
Q 2056 2741 1856 2470 
Q 1656 2200 1656 1722 
L 1656 0 
L 538 0 
L 538 3500 
L 1656 3500 
L 1656 2988 
Q 1909 3294 2193 3439 
Q 2478 3584 2822 3584 
Q 3428 3584 3742 3212 
Q 4056 2841 4056 2131 
z
" transform="scale(0.015625)"/>
       <path id="DejaVuSans-Bold-4f" d="M 2719 3878 
Q 2169 3878 1866 3472 
Q 1563 3066 1563 2328 
Q 1563 1594 1866 1187 
Q 2169 781 2719 781 
Q 3272 781 3575 1187 
Q 3878 1594 3878 2328 
Q 3878 3066 3575 3472 
Q 3272 3878 2719 3878 
z
M 2719 4750 
Q 3844 4750 4481 4106 
Q 5119 3463 5119 2328 
Q 5119 1197 4481 553 
Q 3844 -91 2719 -91 
Q 1597 -91 958 553 
Q 319 1197 319 2328 
Q 319 3463 958 4106 
Q 1597 4750 2719 4750 
z
" transform="scale(0.015625)"/>
       <path id="DejaVuSans-Bold-68" d="M 4056 2131 
L 4056 0 
L 2931 0 
L 2931 347 
L 2931 1625 
Q 2931 2084 2911 2256 
Q 2891 2428 2841 2509 
Q 2775 2619 2662 2680 
Q 2550 2741 2406 2741 
Q 2056 2741 1856 2470 
Q 1656 2200 1656 1722 
L 1656 0 
L 538 0 
L 538 4863 
L 1656 4863 
L 1656 2988 
Q 1909 3294 2193 3439 
Q 2478 3584 2822 3584 
Q 3428 3584 3742 3212 
Q 4056 2841 4056 2131 
z
" transform="scale(0.015625)"/>
      </defs>
      <use xlink:href="#DejaVuSans-Bold-57"/>
      <use xlink:href="#DejaVuSans-Bold-69" x="110.302734"/>
      <use xlink:href="#DejaVuSans-Bold-6e" x="144.580078"/>
      <use xlink:href="#DejaVuSans-Bold-64" x="215.771484"/>
      <use xlink:href="#DejaVuSans-Bold-20" x="287.353516"/>
      <use xlink:href="#DejaVuSans-Bold-4f" x="322.167969"/>
      <use xlink:href="#DejaVuSans-Bold-6e" x="407.177734"/>
      <use xlink:href="#DejaVuSans-Bold-73" x="478.369141"/>
      <use xlink:href="#DejaVuSans-Bold-68" x="537.890625"/>
      <use xlink:href="#DejaVuSans-Bold-6f" x="609.082031"/>
      <use xlink:href="#DejaVuSans-Bold-72" x="677.783203"/>
      <use xlink:href="#DejaVuSans-Bold-65" x="727.099609"/>
     </g>
    </g>
   </g>
   <g id="text_23">
    <g clip-path="url(#p0c3752177d)">
     <!-- Wind Offshore -->
     <g transform="translate(590.150095 410.268047)scale(0.1 -0.1)">
      <defs>
       <path id="DejaVuSans-Bold-66" d="M 2841 4863 
L 2841 4128 
L 2222 4128 
Q 1984 4128 1890 4042 
Q 1797 3956 1797 3744 
L 1797 3500 
L 2753 3500 
L 2753 2700 
L 1797 2700 
L 1797 0 
L 678 0 
L 678 2700 
L 122 2700 
L 122 3500 
L 678 3500 
L 678 3744 
Q 678 4316 997 4589 
Q 1316 4863 1984 4863 
L 2841 4863 
z
" transform="scale(0.015625)"/>
      </defs>
      <use xlink:href="#DejaVuSans-Bold-57"/>
      <use xlink:href="#DejaVuSans-Bold-69" x="110.302734"/>
      <use xlink:href="#DejaVuSans-Bold-6e" x="144.580078"/>
      <use xlink:href="#DejaVuSans-Bold-64" x="215.771484"/>
      <use xlink:href="#DejaVuSans-Bold-20" x="287.353516"/>
      <use xlink:href="#DejaVuSans-Bold-4f" x="322.167969"/>
      <use xlink:href="#DejaVuSans-Bold-66" x="407.177734"/>
      <use xlink:href="#DejaVuSans-Bold-66" x="450.683594"/>
      <use xlink:href="#DejaVuSans-Bold-73" x="494.189453"/>
      <use xlink:href="#DejaVuSans-Bold-68" x="553.710938"/>
      <use xlink:href="#DejaVuSans-Bold-6f" x="624.902344"/>
      <use xlink:href="#DejaVuSans-Bold-72" x="693.603516"/>
      <use xlink:href="#DejaVuSans-Bold-65" x="742.919922"/>
     </g>
    </g>
   </g>
   <g id="text_24">
    <g clip-path="url(#p0c3752177d)">
     <!-- Load -->
     <g transform="translate(227.228553 501.595294)scale(0.1 -0.1)">
      <defs>
       <path id="DejaVuSans-Bold-4c" d="M 588 4666 
L 1791 4666 
L 1791 909 
L 3903 909 
L 3903 0 
L 588 0 
L 588 4666 
z
" transform="scale(0.015625)"/>
      </defs>
      <use xlink:href="#DejaVuSans-Bold-4c"/>
      <use xlink:href="#DejaVuSans-Bold-6f" x="63.720703"/>
      <use xlink:href="#DejaVuSans-Bold-61" x="132.421875"/>
      <use xlink:href="#DejaVuSans-Bold-64" x="199.902344"/>
     </g>
    </g>
   </g>
   <g id="text_25">
    <g clip-path="url(#p0c3752177d)">
     <!-- Temperature -->
     <g transform="translate(281.02753 91.775447)scale(0.1 -0.1)">
      <defs>
       <path id="DejaVuSans-Bold-54" d="M 31 4666 
L 4331 4666 
L 4331 3756 
L 2784 3756 
L 2784 0 
L 1581 0 
L 1581 3756 
L 31 3756 
L 31 4666 
z
" transform="scale(0.015625)"/>
       <path id="DejaVuSans-Bold-74" d="M 1759 4494 
L 1759 3500 
L 2913 3500 
L 2913 2700 
L 1759 2700 
L 1759 1216 
Q 1759 972 1856 886 
Q 1953 800 2241 800 
L 2816 800 
L 2816 0 
L 1856 0 
Q 1194 0 917 276 
Q 641 553 641 1216 
L 641 2700 
L 84 2700 
L 84 3500 
L 641 3500 
L 641 4494 
L 1759 4494 
z
" transform="scale(0.015625)"/>
      </defs>
      <use xlink:href="#DejaVuSans-Bold-54"/>
      <use xlink:href="#DejaVuSans-Bold-65" x="54.962891"/>
      <use xlink:href="#DejaVuSans-Bold-6d" x="122.785156"/>
      <use xlink:href="#DejaVuSans-Bold-70" x="226.984375"/>
      <use xlink:href="#DejaVuSans-Bold-65" x="298.566406"/>
      <use xlink:href="#DejaVuSans-Bold-72" x="366.388672"/>
      <use xlink:href="#DejaVuSans-Bold-61" x="415.705078"/>
      <use xlink:href="#DejaVuSans-Bold-74" x="483.185547"/>
      <use xlink:href="#DejaVuSans-Bold-75" x="530.988281"/>
      <use xlink:href="#DejaVuSans-Bold-72" x="602.179688"/>
      <use xlink:href="#DejaVuSans-Bold-65" x="651.496094"/>
     </g>
    </g>
   </g>
   <g id="text_26">
    <g clip-path="url(#p0c3752177d)">
     <!-- Wind 10m -->
     <g transform="translate(317.136571 519.949116)scale(0.1 -0.1)">
      <defs>
       <path id="DejaVuSans-Bold-31" d="M 750 831 
L 1813 831 
L 1813 3847 
L 722 3622 
L 722 4441 
L 1806 4666 
L 2950 4666 
L 2950 831 
L 4013 831 
L 4013 0 
L 750 0 
L 750 831 
z
" transform="scale(0.015625)"/>
       <path id="DejaVuSans-Bold-30" d="M 2944 2338 
Q 2944 3213 2780 3570 
Q 2616 3928 2228 3928 
Q 1841 3928 1675 3570 
Q 1509 3213 1509 2338 
Q 1509 1453 1675 1090 
Q 1841 728 2228 728 
Q 2613 728 2778 1090 
Q 2944 1453 2944 2338 
z
M 4147 2328 
Q 4147 1169 3647 539 
Q 3147 -91 2228 -91 
Q 1306 -91 806 539 
Q 306 1169 306 2328 
Q 306 3491 806 4120 
Q 1306 4750 2228 4750 
Q 3147 4750 3647 4120 
Q 4147 3491 4147 2328 
z
" transform="scale(0.015625)"/>
      </defs>
      <use xlink:href="#DejaVuSans-Bold-57"/>
      <use xlink:href="#DejaVuSans-Bold-69" x="110.302734"/>
      <use xlink:href="#DejaVuSans-Bold-6e" x="144.580078"/>
      <use xlink:href="#DejaVuSans-Bold-64" x="215.771484"/>
      <use xlink:href="#DejaVuSans-Bold-20" x="287.353516"/>
      <use xlink:href="#DejaVuSans-Bold-31" x="322.167969"/>
      <use xlink:href="#DejaVuSans-Bold-30" x="391.748047"/>
      <use xlink:href="#DejaVuSans-Bold-6d" x="461.328125"/>
     </g>
    </g>
   </g>
   <g id="text_27">
    <g clip-path="url(#p0c3752177d)">
     <!-- Wind 100m -->
     <g transform="translate(520.643708 476.368731)scale(0.1 -0.1)">
      <use xlink:href="#DejaVuSans-Bold-57"/>
      <use xlink:href="#DejaVuSans-Bold-69" x="110.302734"/>
      <use xlink:href="#DejaVuSans-Bold-6e" x="144.580078"/>
      <use xlink:href="#DejaVuSans-Bold-64" x="215.771484"/>
      <use xlink:href="#DejaVuSans-Bold-20" x="287.353516"/>
      <use xlink:href="#DejaVuSans-Bold-31" x="322.167969"/>
      <use xlink:href="#DejaVuSans-Bold-30" x="391.748047"/>
      <use xlink:href="#DejaVuSans-Bold-30" x="461.328125"/>
      <use xlink:href="#DejaVuSans-Bold-6d" x="530.908203"/>
     </g>
    </g>
   </g>
   <g id="text_28">
    <g clip-path="url(#p0c3752177d)">
     <!-- Radiation -->
     <g transform="translate(69.048479 387.721636)scale(0.1 -0.1)">
      <defs>
       <path id="DejaVuSans-Bold-52" d="M 2297 2597 
Q 2675 2597 2839 2737 
Q 3003 2878 3003 3200 
Q 3003 3519 2839 3656 
Q 2675 3794 2297 3794 
L 1791 3794 
L 1791 2597 
L 2297 2597 
z
M 1791 1766 
L 1791 0 
L 588 0 
L 588 4666 
L 2425 4666 
Q 3347 4666 3776 4356 
Q 4206 4047 4206 3378 
Q 4206 2916 3982 2619 
Q 3759 2322 3309 2181 
Q 3556 2125 3751 1926 
Q 3947 1728 4147 1325 
L 4800 0 
L 3519 0 
L 2950 1159 
Q 2778 1509 2601 1637 
Q 2425 1766 2131 1766 
L 1791 1766 
z
" transform="scale(0.015625)"/>
      </defs>
      <use xlink:href="#DejaVuSans-Bold-52"/>
      <use xlink:href="#DejaVuSans-Bold-61" x="77.001953"/>
      <use xlink:href="#DejaVuSans-Bold-64" x="144.482422"/>
      <use xlink:href="#DejaVuSans-Bold-69" x="216.064453"/>
      <use xlink:href="#DejaVuSans-Bold-61" x="250.341797"/>
      <use xlink:href="#DejaVuSans-Bold-74" x="317.822266"/>
      <use xlink:href="#DejaVuSans-Bold-69" x="365.625"/>
      <use xlink:href="#DejaVuSans-Bold-6f" x="399.902344"/>
      <use xlink:href="#DejaVuSans-Bold-6e" x="468.603516"/>
     </g>
    </g>
   </g>
   <g id="text_29">
    <g clip-path="url(#p0c3752177d)">
     <!-- Cloud Cover -->
     <g transform="translate(483.141056 112.14497)scale(0.1 -0.1)">
      <defs>
       <path id="DejaVuSans-Bold-43" d="M 4288 256 
Q 3956 84 3597 -3 
Q 3238 -91 2847 -91 
Q 1681 -91 1000 561 
Q 319 1213 319 2328 
Q 319 3447 1000 4098 
Q 1681 4750 2847 4750 
Q 3238 4750 3597 4662 
Q 3956 4575 4288 4403 
L 4288 3438 
Q 3953 3666 3628 3772 
Q 3303 3878 2944 3878 
Q 2300 3878 1931 3465 
Q 1563 3053 1563 2328 
Q 1563 1606 1931 1193 
Q 2300 781 2944 781 
Q 3303 781 3628 887 
Q 3953 994 4288 1222 
L 4288 256 
z
" transform="scale(0.015625)"/>
       <path id="DejaVuSans-Bold-76" d="M 97 3500 
L 1216 3500 
L 2088 1081 
L 2956 3500 
L 4078 3500 
L 2700 0 
L 1472 0 
L 97 3500 
z
" transform="scale(0.015625)"/>
      </defs>
      <use xlink:href="#DejaVuSans-Bold-43"/>
      <use xlink:href="#DejaVuSans-Bold-6c" x="73.388672"/>
      <use xlink:href="#DejaVuSans-Bold-6f" x="107.666016"/>
      <use xlink:href="#DejaVuSans-Bold-75" x="176.367188"/>
      <use xlink:href="#DejaVuSans-Bold-64" x="247.558594"/>
      <use xlink:href="#DejaVuSans-Bold-20" x="319.140625"/>
      <use xlink:href="#DejaVuSans-Bold-43" x="353.955078"/>
      <use xlink:href="#DejaVuSans-Bold-6f" x="427.34375"/>
      <use xlink:href="#DejaVuSans-Bold-76" x="496.044922"/>
      <use xlink:href="#DejaVuSans-Bold-65" x="561.230469"/>
      <use xlink:href="#DejaVuSans-Bold-72" x="629.052734"/>
     </g>
    </g>
   </g>
   <g id="text_30">
    <g clip-path="url(#p0c3752177d)">
     <!-- Precipitation -->
     <g transform="translate(30.955122 307.844262)scale(0.1 -0.1)">
      <use xlink:href="#DejaVuSans-Bold-50"/>
      <use xlink:href="#DejaVuSans-Bold-72" x="73.291016"/>
      <use xlink:href="#DejaVuSans-Bold-65" x="122.607422"/>
      <use xlink:href="#DejaVuSans-Bold-63" x="190.429688"/>
      <use xlink:href="#DejaVuSans-Bold-69" x="249.707031"/>
      <use xlink:href="#DejaVuSans-Bold-70" x="283.984375"/>
      <use xlink:href="#DejaVuSans-Bold-69" x="355.566406"/>
      <use xlink:href="#DejaVuSans-Bold-74" x="389.84375"/>
      <use xlink:href="#DejaVuSans-Bold-61" x="437.646484"/>
      <use xlink:href="#DejaVuSans-Bold-74" x="505.126953"/>
      <use xlink:href="#DejaVuSans-Bold-69" x="552.929688"/>
      <use xlink:href="#DejaVuSans-Bold-6f" x="587.207031"/>
      <use xlink:href="#DejaVuSans-Bold-6e" x="655.908203"/>
     </g>
    </g>
   </g>
   <g id="text_31">
    <g clip-path="url(#p0c3752177d)">
     <!-- Nat Gas Price -->
     <g transform="translate(414.296961 521.710245)scale(0.1 -0.1)">
      <use xlink:href="#DejaVuSans-Bold-4e"/>
      <use xlink:href="#DejaVuSans-Bold-61" x="83.691406"/>
      <use xlink:href="#DejaVuSans-Bold-74" x="151.171875"/>
      <use xlink:href="#DejaVuSans-Bold-20" x="198.974609"/>
      <use xlink:href="#DejaVuSans-Bold-47" x="233.789062"/>
      <use xlink:href="#DejaVuSans-Bold-61" x="315.869141"/>
      <use xlink:href="#DejaVuSans-Bold-73" x="383.349609"/>
      <use xlink:href="#DejaVuSans-Bold-20" x="442.871094"/>
      <use xlink:href="#DejaVuSans-Bold-50" x="477.685547"/>
      <use xlink:href="#DejaVuSans-Bold-72" x="550.976562"/>
      <use xlink:href="#DejaVuSans-Bold-69" x="600.292969"/>
      <use xlink:href="#DejaVuSans-Bold-63" x="634.570312"/>
      <use xlink:href="#DejaVuSans-Bold-65" x="693.847656"/>
     </g>
    </g>
   </g>
   <g id="text_32">
    <g clip-path="url(#p0c3752177d)">
     <!-- Brent Oil -->
     <g transform="translate(619.535314 328.200989)scale(0.1 -0.1)">
      <defs>
       <path id="DejaVuSans-Bold-42" d="M 2456 2859 
Q 2741 2859 2887 2984 
Q 3034 3109 3034 3353 
Q 3034 3594 2887 3720 
Q 2741 3847 2456 3847 
L 1791 3847 
L 1791 2859 
L 2456 2859 
z
M 2497 819 
Q 2859 819 3042 972 
Q 3225 1125 3225 1434 
Q 3225 1738 3044 1889 
Q 2863 2041 2497 2041 
L 1791 2041 
L 1791 819 
L 2497 819 
z
M 3616 2497 
Q 4003 2384 4215 2081 
Q 4428 1778 4428 1338 
Q 4428 663 3972 331 
Q 3516 0 2584 0 
L 588 0 
L 588 4666 
L 2394 4666 
Q 3366 4666 3802 4372 
Q 4238 4078 4238 3431 
Q 4238 3091 4078 2852 
Q 3919 2613 3616 2497 
z
" transform="scale(0.015625)"/>
      </defs>
      <use xlink:href="#DejaVuSans-Bold-42"/>
      <use xlink:href="#DejaVuSans-Bold-72" x="76.220703"/>
      <use xlink:href="#DejaVuSans-Bold-65" x="125.537109"/>
      <use xlink:href="#DejaVuSans-Bold-6e" x="193.359375"/>
      <use xlink:href="#DejaVuSans-Bold-74" x="264.550781"/>
      <use xlink:href="#DejaVuSans-Bold-20" x="312.353516"/>
      <use xlink:href="#DejaVuSans-Bold-4f" x="347.167969"/>
      <use xlink:href="#DejaVuSans-Bold-69" x="432.177734"/>
      <use xlink:href="#DejaVuSans-Bold-6c" x="466.455078"/>
     </g>
    </g>
   </g>
   <g id="text_33">
    <g clip-path="url(#p0c3752177d)">
     <!-- commodity wti oil -->
     <g transform="translate(167.690715 91.84058)scale(0.1 -0.1)">
      <defs>
       <path id="DejaVuSans-Bold-77" d="M 225 3500 
L 1313 3500 
L 1900 1088 
L 2491 3500 
L 3425 3500 
L 4013 1113 
L 4603 3500 
L 5691 3500 
L 4769 0 
L 3547 0 
L 2956 2406 
L 2369 0 
L 1147 0 
L 225 3500 
z
" transform="scale(0.015625)"/>
      </defs>
      <use xlink:href="#DejaVuSans-Bold-63"/>
      <use xlink:href="#DejaVuSans-Bold-6f" x="59.277344"/>
      <use xlink:href="#DejaVuSans-Bold-6d" x="127.978516"/>
      <use xlink:href="#DejaVuSans-Bold-6d" x="232.177734"/>
      <use xlink:href="#DejaVuSans-Bold-6f" x="336.376953"/>
      <use xlink:href="#DejaVuSans-Bold-64" x="405.078125"/>
      <use xlink:href="#DejaVuSans-Bold-69" x="476.660156"/>
      <use xlink:href="#DejaVuSans-Bold-74" x="510.9375"/>
      <use xlink:href="#DejaVuSans-Bold-79" x="558.740234"/>
      <use xlink:href="#DejaVuSans-Bold-20" x="623.925781"/>
      <use xlink:href="#DejaVuSans-Bold-77" x="658.740234"/>
      <use xlink:href="#DejaVuSans-Bold-74" x="751.123047"/>
      <use xlink:href="#DejaVuSans-Bold-69" x="798.925781"/>
      <use xlink:href="#DejaVuSans-Bold-20" x="833.203125"/>
      <use xlink:href="#DejaVuSans-Bold-6f" x="868.017578"/>
      <use xlink:href="#DejaVuSans-Bold-69" x="936.71875"/>
      <use xlink:href="#DejaVuSans-Bold-6c" x="970.996094"/>
     </g>
    </g>
   </g>
   <g id="text_34">
    <!-- Node size ∝ weighted degree -->
    <g style="fill: #808080" transform="translate(21.2544 555.154612)scale(0.07 -0.07)">
     <defs>
      <path id="DejaVuSans-Oblique-4e" d="M 1081 4666 
L 1931 4666 
L 3219 666 
L 4000 4666 
L 4616 4666 
L 3706 0 
L 2853 0 
L 1569 4025 
L 788 0 
L 172 0 
L 1081 4666 
z
" transform="scale(0.015625)"/>
      <path id="DejaVuSans-Oblique-6f" d="M 1625 -91 
Q 1009 -91 651 289 
Q 294 669 294 1325 
Q 294 1706 417 2101 
Q 541 2497 738 2766 
Q 1047 3184 1428 3384 
Q 1809 3584 2291 3584 
Q 2888 3584 3255 3212 
Q 3622 2841 3622 2241 
Q 3622 1825 3500 1412 
Q 3378 1000 3181 728 
Q 2875 309 2494 109 
Q 2113 -91 1625 -91 
z
M 891 1344 
Q 891 869 1089 633 
Q 1288 397 1691 397 
Q 2269 397 2648 901 
Q 3028 1406 3028 2181 
Q 3028 2634 2825 2865 
Q 2622 3097 2228 3097 
Q 1903 3097 1650 2945 
Q 1397 2794 1197 2484 
Q 1050 2253 970 1956 
Q 891 1659 891 1344 
z
" transform="scale(0.015625)"/>
      <path id="DejaVuSans-Oblique-64" d="M 2675 525 
Q 2444 222 2128 65 
Q 1813 -91 1428 -91 
Q 903 -91 598 267 
Q 294 625 294 1247 
Q 294 1766 478 2236 
Q 663 2706 1013 3078 
Q 1244 3325 1534 3454 
Q 1825 3584 2144 3584 
Q 2481 3584 2739 3421 
Q 2997 3259 3138 2956 
L 3513 4863 
L 4091 4863 
L 3144 0 
L 2566 0 
L 2675 525 
z
M 891 1350 
Q 891 897 1095 644 
Q 1300 391 1663 391 
Q 1931 391 2161 520 
Q 2391 650 2566 903 
Q 2750 1166 2856 1509 
Q 2963 1853 2963 2188 
Q 2963 2622 2758 2865 
Q 2553 3109 2194 3109 
Q 1922 3109 1687 2981 
Q 1453 2853 1288 2613 
Q 1106 2353 998 2009 
Q 891 1666 891 1350 
z
" transform="scale(0.015625)"/>
      <path id="DejaVuSans-Oblique-65" d="M 3078 2063 
Q 3088 2113 3092 2166 
Q 3097 2219 3097 2272 
Q 3097 2653 2873 2875 
Q 2650 3097 2266 3097 
Q 1838 3097 1509 2826 
Q 1181 2556 1013 2059 
L 3078 2063 
z
M 3578 1613 
L 903 1613 
Q 884 1494 878 1425 
Q 872 1356 872 1306 
Q 872 872 1139 634 
Q 1406 397 1894 397 
Q 2269 397 2603 481 
Q 2938 566 3225 728 
L 3116 159 
Q 2806 34 2476 -28 
Q 2147 -91 1806 -91 
Q 1078 -91 686 257 
Q 294 606 294 1247 
Q 294 1794 489 2264 
Q 684 2734 1063 3103 
Q 1306 3334 1642 3459 
Q 1978 3584 2356 3584 
Q 2950 3584 3301 3228 
Q 3653 2872 3653 2272 
Q 3653 2128 3634 1964 
Q 3616 1800 3578 1613 
z
" transform="scale(0.015625)"/>
      <path id="DejaVuSans-Oblique-20" transform="scale(0.015625)"/>
      <path id="DejaVuSans-Oblique-73" d="M 3200 3397 
L 3091 2853 
Q 2863 2978 2609 3040 
Q 2356 3103 2088 3103 
Q 1634 3103 1373 2948 
Q 1113 2794 1113 2528 
Q 1113 2219 1719 2053 
Q 1766 2041 1788 2034 
L 1972 1978 
Q 2547 1819 2739 1644 
Q 2931 1469 2931 1166 
Q 2931 609 2489 259 
Q 2047 -91 1331 -91 
Q 1053 -91 747 -37 
Q 441 16 72 128 
L 184 722 
Q 500 559 806 475 
Q 1113 391 1394 391 
Q 1816 391 2080 572 
Q 2344 753 2344 1031 
Q 2344 1331 1650 1516 
L 1591 1531 
L 1394 1581 
Q 956 1697 753 1886 
Q 550 2075 550 2369 
Q 550 2928 970 3256 
Q 1391 3584 2113 3584 
Q 2397 3584 2667 3537 
Q 2938 3491 3200 3397 
z
" transform="scale(0.015625)"/>
      <path id="DejaVuSans-Oblique-69" d="M 1172 4863 
L 1747 4863 
L 1606 4134 
L 1031 4134 
L 1172 4863 
z
M 909 3500 
L 1484 3500 
L 800 0 
L 225 0 
L 909 3500 
z
" transform="scale(0.015625)"/>
      <path id="DejaVuSans-Oblique-7a" d="M 744 3500 
L 3475 3500 
L 3372 2975 
L 738 459 
L 2913 459 
L 2822 0 
L -19 0 
L 84 525 
L 2719 3041 
L 653 3041 
L 744 3500 
z
" transform="scale(0.015625)"/>
      <path id="DejaVuSans-Oblique-221d" d="M 1647 1134 
Q 2163 1134 2472 1884 
Q 2075 2703 1647 2703 
Q 1334 2703 1175 2478 
Q 1006 2238 1006 1919 
Q 1006 1569 1175 1353 
Q 1350 1134 1647 1134 
z
M 3884 1128 
L 3884 716 
L 3644 716 
Q 3416 716 3247 809 
Q 3078 894 2916 1091 
Q 2819 1203 2666 1466 
Q 2456 1091 2272 925 
Q 2044 725 1681 725 
Q 1259 725 981 1041 
Q 688 1372 688 1919 
Q 688 2444 981 2800 
Q 1241 3116 1688 3116 
Q 1916 3116 2084 3022 
Q 2281 2919 2416 2741 
Q 2541 2581 2666 2366 
Q 2875 2741 3059 2906 
Q 3288 3106 3650 3106 
L 3884 3106 
L 3884 2697 
L 3684 2697 
Q 3222 2697 2859 1947 
Q 3256 1128 3684 1128 
L 3884 1128 
z
" transform="scale(0.015625)"/>
      <path id="DejaVuSans-Oblique-77" d="M 544 3500 
L 1113 3500 
L 1259 684 
L 2566 3500 
L 3231 3500 
L 3425 684 
L 4666 3500 
L 5241 3500 
L 3641 0 
L 2969 0 
L 2797 2900 
L 1459 0 
L 781 0 
L 544 3500 
z
" transform="scale(0.015625)"/>
      <path id="DejaVuSans-Oblique-67" d="M 3816 3500 
L 3219 434 
Q 3047 -456 2561 -893 
Q 2075 -1331 1253 -1331 
Q 950 -1331 690 -1286 
Q 431 -1241 206 -1147 
L 313 -588 
Q 525 -725 762 -790 
Q 1000 -856 1269 -856 
Q 1816 -856 2167 -557 
Q 2519 -259 2631 300 
L 2681 563 
Q 2441 288 2122 144 
Q 1803 0 1434 0 
Q 903 0 598 351 
Q 294 703 294 1319 
Q 294 1803 478 2267 
Q 663 2731 997 3091 
Q 1219 3328 1514 3456 
Q 1809 3584 2131 3584 
Q 2484 3584 2746 3420 
Q 3009 3256 3138 2956 
L 3238 3500 
L 3816 3500 
z
M 2950 2216 
Q 2950 2641 2750 2872 
Q 2550 3103 2181 3103 
Q 1953 3103 1747 3012 
Q 1541 2922 1394 2759 
Q 1156 2491 1023 2127 
Q 891 1763 891 1375 
Q 891 944 1092 712 
Q 1294 481 1672 481 
Q 2219 481 2584 976 
Q 2950 1472 2950 2216 
z
" transform="scale(0.015625)"/>
      <path id="DejaVuSans-Oblique-68" d="M 3566 2113 
L 3156 0 
L 2578 0 
L 2988 2091 
Q 3016 2238 3031 2350 
Q 3047 2463 3047 2528 
Q 3047 2791 2881 2937 
Q 2716 3084 2419 3084 
Q 1956 3084 1617 2771 
Q 1278 2459 1178 1941 
L 800 0 
L 225 0 
L 1172 4863 
L 1747 4863 
L 1375 2950 
Q 1594 3244 1934 3414 
Q 2275 3584 2650 3584 
Q 3113 3584 3367 3334 
Q 3622 3084 3622 2631 
Q 3622 2519 3608 2391 
Q 3594 2263 3566 2113 
z
" transform="scale(0.015625)"/>
      <path id="DejaVuSans-Oblique-74" d="M 2706 3500 
L 2619 3053 
L 1472 3053 
L 1100 1153 
Q 1081 1047 1072 975 
Q 1063 903 1063 863 
Q 1063 663 1183 572 
Q 1303 481 1569 481 
L 2150 481 
L 2053 0 
L 1503 0 
Q 991 0 739 200 
Q 488 400 488 806 
Q 488 878 497 964 
Q 506 1050 525 1153 
L 897 3053 
L 409 3053 
L 500 3500 
L 978 3500 
L 1172 4494 
L 1747 4494 
L 1556 3500 
L 2706 3500 
z
" transform="scale(0.015625)"/>
      <path id="DejaVuSans-Oblique-72" d="M 2853 2969 
Q 2766 3016 2653 3041 
Q 2541 3066 2413 3066 
Q 1953 3066 1609 2717 
Q 1266 2369 1153 1784 
L 800 0 
L 225 0 
L 909 3500 
L 1484 3500 
L 1375 2956 
Q 1603 3259 1920 3421 
Q 2238 3584 2597 3584 
Q 2691 3584 2781 3573 
Q 2872 3563 2963 3538 
L 2853 2969 
z
" transform="scale(0.015625)"/>
     </defs>
     <use xlink:href="#DejaVuSans-Oblique-4e"/>
     <use xlink:href="#DejaVuSans-Oblique-6f" x="74.804688"/>
     <use xlink:href="#DejaVuSans-Oblique-64" x="135.986328"/>
     <use xlink:href="#DejaVuSans-Oblique-65" x="199.462891"/>
     <use xlink:href="#DejaVuSans-Oblique-20" x="260.986328"/>
     <use xlink:href="#DejaVuSans-Oblique-73" x="292.773438"/>
     <use xlink:href="#DejaVuSans-Oblique-69" x="344.873047"/>
     <use xlink:href="#DejaVuSans-Oblique-7a" x="372.65625"/>
     <use xlink:href="#DejaVuSans-Oblique-65" x="425.146484"/>
     <use xlink:href="#DejaVuSans-Oblique-20" x="486.669922"/>
     <use xlink:href="#DejaVuSans-Oblique-221d" x="518.457031"/>
     <use xlink:href="#DejaVuSans-Oblique-20" x="589.892578"/>
     <use xlink:href="#DejaVuSans-Oblique-77" x="621.679688"/>
     <use xlink:href="#DejaVuSans-Oblique-65" x="703.466797"/>
     <use xlink:href="#DejaVuSans-Oblique-69" x="764.990234"/>
     <use xlink:href="#DejaVuSans-Oblique-67" x="792.773438"/>
     <use xlink:href="#DejaVuSans-Oblique-68" x="856.25"/>
     <use xlink:href="#DejaVuSans-Oblique-74" x="919.628906"/>
     <use xlink:href="#DejaVuSans-Oblique-65" x="958.837891"/>
     <use xlink:href="#DejaVuSans-Oblique-64" x="1020.361328"/>
     <use xlink:href="#DejaVuSans-Oblique-20" x="1083.837891"/>
     <use xlink:href="#DejaVuSans-Oblique-64" x="1115.625"/>
     <use xlink:href="#DejaVuSans-Oblique-65" x="1179.101562"/>
     <use xlink:href="#DejaVuSans-Oblique-67" x="1240.625"/>
     <use xlink:href="#DejaVuSans-Oblique-72" x="1304.101562"/>
     <use xlink:href="#DejaVuSans-Oblique-65" x="1345.214844"/>
     <use xlink:href="#DejaVuSans-Oblique-65" x="1406.738281"/>
    </g>
   </g>
   <g id="text_35">
    <!-- FR Regime 0 (Stable) -->
    <g transform="translate(274.949375 17.837812)scale(0.14 -0.14)">
     <defs>
      <path id="DejaVuSans-Bold-46" d="M 588 4666 
L 3834 4666 
L 3834 3756 
L 1791 3756 
L 1791 2888 
L 3713 2888 
L 3713 1978 
L 1791 1978 
L 1791 0 
L 588 0 
L 588 4666 
z
" transform="scale(0.015625)"/>
      <path id="DejaVuSans-Bold-67" d="M 2919 594 
Q 2688 288 2409 144 
Q 2131 0 1766 0 
Q 1125 0 706 504 
Q 288 1009 288 1791 
Q 288 2575 706 3076 
Q 1125 3578 1766 3578 
Q 2131 3578 2409 3434 
Q 2688 3291 2919 2981 
L 2919 3500 
L 4044 3500 
L 4044 353 
Q 4044 -491 3511 -936 
Q 2978 -1381 1966 -1381 
Q 1638 -1381 1331 -1331 
Q 1025 -1281 716 -1178 
L 716 -306 
Q 1009 -475 1290 -558 
Q 1572 -641 1856 -641 
Q 2406 -641 2662 -400 
Q 2919 -159 2919 353 
L 2919 594 
z
M 2181 2772 
Q 1834 2772 1640 2515 
Q 1447 2259 1447 1791 
Q 1447 1309 1634 1061 
Q 1822 813 2181 813 
Q 2531 813 2725 1069 
Q 2919 1325 2919 1791 
Q 2919 2259 2725 2515 
Q 2531 2772 2181 2772 
z
" transform="scale(0.015625)"/>
      <path id="DejaVuSans-Bold-28" d="M 2413 -844 
L 1484 -844 
Q 1006 -72 778 623 
Q 550 1319 550 2003 
Q 550 2688 779 3389 
Q 1009 4091 1484 4856 
L 2413 4856 
Q 2013 4116 1813 3408 
Q 1613 2700 1613 2009 
Q 1613 1319 1811 609 
Q 2009 -100 2413 -844 
z
" transform="scale(0.015625)"/>
      <path id="DejaVuSans-Bold-62" d="M 2400 722 
Q 2759 722 2948 984 
Q 3138 1247 3138 1747 
Q 3138 2247 2948 2509 
Q 2759 2772 2400 2772 
Q 2041 2772 1848 2508 
Q 1656 2244 1656 1747 
Q 1656 1250 1848 986 
Q 2041 722 2400 722 
z
M 1656 2988 
Q 1888 3294 2169 3439 
Q 2450 3584 2816 3584 
Q 3463 3584 3878 3070 
Q 4294 2556 4294 1747 
Q 4294 938 3878 423 
Q 3463 -91 2816 -91 
Q 2450 -91 2169 54 
Q 1888 200 1656 506 
L 1656 0 
L 538 0 
L 538 4863 
L 1656 4863 
L 1656 2988 
z
" transform="scale(0.015625)"/>
      <path id="DejaVuSans-Bold-29" d="M 513 -844 
Q 913 -100 1113 609 
Q 1313 1319 1313 2009 
Q 1313 2700 1113 3408 
Q 913 4116 513 4856 
L 1441 4856 
Q 1916 4091 2145 3389 
Q 2375 2688 2375 2003 
Q 2375 1319 2147 623 
Q 1919 -72 1441 -844 
L 513 -844 
z
" transform="scale(0.015625)"/>
     </defs>
     <use xlink:href="#DejaVuSans-Bold-46"/>
     <use xlink:href="#DejaVuSans-Bold-52" x="68.310547"/>
     <use xlink:href="#DejaVuSans-Bold-20" x="145.3125"/>
     <use xlink:href="#DejaVuSans-Bold-52" x="180.126953"/>
     <use xlink:href="#DejaVuSans-Bold-65" x="257.128906"/>
     <use xlink:href="#DejaVuSans-Bold-67" x="324.951172"/>
     <use xlink:href="#DejaVuSans-Bold-69" x="396.533203"/>
     <use xlink:href="#DejaVuSans-Bold-6d" x="430.810547"/>
     <use xlink:href="#DejaVuSans-Bold-65" x="535.009766"/>
     <use xlink:href="#DejaVuSans-Bold-20" x="602.832031"/>
     <use xlink:href="#DejaVuSans-Bold-30" x="637.646484"/>
     <use xlink:href="#DejaVuSans-Bold-20" x="707.226562"/>
     <use xlink:href="#DejaVuSans-Bold-28" x="742.041016"/>
     <use xlink:href="#DejaVuSans-Bold-53" x="787.744141"/>
     <use xlink:href="#DejaVuSans-Bold-74" x="859.765625"/>
     <use xlink:href="#DejaVuSans-Bold-61" x="907.568359"/>
     <use xlink:href="#DejaVuSans-Bold-62" x="975.048828"/>
     <use xlink:href="#DejaVuSans-Bold-6c" x="1046.630859"/>
     <use xlink:href="#DejaVuSans-Bold-65" x="1080.908203"/>
     <use xlink:href="#DejaVuSans-Bold-29" x="1148.730469"/>
    </g>
   </g>
   <g id="legend_1">
    <g id="patch_34">
     <path d="M 12.8 88.950312 
L 91.45625 88.950312 
Q 93.05625 88.950312 93.05625 87.350312 
L 93.05625 29.437813 
Q 93.05625 27.837813 91.45625 27.837813 
L 12.8 27.837813 
Q 11.2 27.837813 11.2 29.437813 
L 11.2 87.350312 
Q 11.2 88.950312 12.8 88.950312 
z
" style="fill: #ffffff; opacity: 0.8; stroke: #cccccc; stroke-linejoin: miter"/>
    </g>
    <g id="line2d_1">
     <path d="M 14.4 34.316562 
L 22.4 34.316562 
L 30.4 34.316562 
" style="fill: none; stroke: #1f77b4; stroke-width: 2; stroke-linecap: square"/>
    </g>
    <g id="text_36">
     <!-- Instant. (+) -->
     <g transform="translate(36.8 37.116562)scale(0.08 -0.08)">
      <defs>
       <path id="DejaVuSans-49" d="M 628 4666 
L 1259 4666 
L 1259 0 
L 628 0 
L 628 4666 
z
" transform="scale(0.015625)"/>
       <path id="DejaVuSans-6e" d="M 3513 2113 
L 3513 0 
L 2938 0 
L 2938 2094 
Q 2938 2591 2744 2837 
Q 2550 3084 2163 3084 
Q 1697 3084 1428 2787 
Q 1159 2491 1159 1978 
L 1159 0 
L 581 0 
L 581 3500 
L 1159 3500 
L 1159 2956 
Q 1366 3272 1645 3428 
Q 1925 3584 2291 3584 
Q 2894 3584 3203 3211 
Q 3513 2838 3513 2113 
z
" transform="scale(0.015625)"/>
       <path id="DejaVuSans-73" d="M 2834 3397 
L 2834 2853 
Q 2591 2978 2328 3040 
Q 2066 3103 1784 3103 
Q 1356 3103 1142 2972 
Q 928 2841 928 2578 
Q 928 2378 1081 2264 
Q 1234 2150 1697 2047 
L 1894 2003 
Q 2506 1872 2764 1633 
Q 3022 1394 3022 966 
Q 3022 478 2636 193 
Q 2250 -91 1575 -91 
Q 1294 -91 989 -36 
Q 684 19 347 128 
L 347 722 
Q 666 556 975 473 
Q 1284 391 1588 391 
Q 1994 391 2212 530 
Q 2431 669 2431 922 
Q 2431 1156 2273 1281 
Q 2116 1406 1581 1522 
L 1381 1569 
Q 847 1681 609 1914 
Q 372 2147 372 2553 
Q 372 3047 722 3315 
Q 1072 3584 1716 3584 
Q 2034 3584 2315 3537 
Q 2597 3491 2834 3397 
z
" transform="scale(0.015625)"/>
       <path id="DejaVuSans-74" d="M 1172 4494 
L 1172 3500 
L 2356 3500 
L 2356 3053 
L 1172 3053 
L 1172 1153 
Q 1172 725 1289 603 
Q 1406 481 1766 481 
L 2356 481 
L 2356 0 
L 1766 0 
Q 1100 0 847 248 
Q 594 497 594 1153 
L 594 3053 
L 172 3053 
L 172 3500 
L 594 3500 
L 594 4494 
L 1172 4494 
z
" transform="scale(0.015625)"/>
       <path id="DejaVuSans-61" d="M 2194 1759 
Q 1497 1759 1228 1600 
Q 959 1441 959 1056 
Q 959 750 1161 570 
Q 1363 391 1709 391 
Q 2188 391 2477 730 
Q 2766 1069 2766 1631 
L 2766 1759 
L 2194 1759 
z
M 3341 1997 
L 3341 0 
L 2766 0 
L 2766 531 
Q 2569 213 2275 61 
Q 1981 -91 1556 -91 
Q 1019 -91 701 211 
Q 384 513 384 1019 
Q 384 1609 779 1909 
Q 1175 2209 1959 2209 
L 2766 2209 
L 2766 2266 
Q 2766 2663 2505 2880 
Q 2244 3097 1772 3097 
Q 1472 3097 1187 3025 
Q 903 2953 641 2809 
L 641 3341 
Q 956 3463 1253 3523 
Q 1550 3584 1831 3584 
Q 2591 3584 2966 3190 
Q 3341 2797 3341 1997 
z
" transform="scale(0.015625)"/>
       <path id="DejaVuSans-20" transform="scale(0.015625)"/>
       <path id="DejaVuSans-28" d="M 1984 4856 
Q 1566 4138 1362 3434 
Q 1159 2731 1159 2009 
Q 1159 1288 1364 580 
Q 1569 -128 1984 -844 
L 1484 -844 
Q 1016 -109 783 600 
Q 550 1309 550 2009 
Q 550 2706 781 3412 
Q 1013 4119 1484 4856 
L 1984 4856 
z
" transform="scale(0.015625)"/>
       <path id="DejaVuSans-2b" d="M 2944 4013 
L 2944 2272 
L 4684 2272 
L 4684 1741 
L 2944 1741 
L 2944 0 
L 2419 0 
L 2419 1741 
L 678 1741 
L 678 2272 
L 2419 2272 
L 2419 4013 
L 2944 4013 
z
" transform="scale(0.015625)"/>
       <path id="DejaVuSans-29" d="M 513 4856 
L 1013 4856 
Q 1481 4119 1714 3412 
Q 1947 2706 1947 2009 
Q 1947 1309 1714 600 
Q 1481 -109 1013 -844 
L 513 -844 
Q 928 -128 1133 580 
Q 1338 1288 1338 2009 
Q 1338 2731 1133 3434 
Q 928 4138 513 4856 
z
" transform="scale(0.015625)"/>
      </defs>
      <use xlink:href="#DejaVuSans-49"/>
      <use xlink:href="#DejaVuSans-6e" x="29.492188"/>
      <use xlink:href="#DejaVuSans-73" x="92.871094"/>
      <use xlink:href="#DejaVuSans-74" x="144.970703"/>
      <use xlink:href="#DejaVuSans-61" x="184.179688"/>
      <use xlink:href="#DejaVuSans-6e" x="245.458984"/>
      <use xlink:href="#DejaVuSans-74" x="308.837891"/>
      <use xlink:href="#DejaVuSans-2e" x="348.046875"/>
      <use xlink:href="#DejaVuSans-20" x="379.833984"/>
      <use xlink:href="#DejaVuSans-28" x="411.621094"/>
      <use xlink:href="#DejaVuSans-2b" x="450.634766"/>
      <use xlink:href="#DejaVuSans-29" x="534.423828"/>
     </g>
    </g>
    <g id="line2d_2">
     <path d="M 14.4 46.059062 
L 22.4 46.059062 
L 30.4 46.059062 
" style="fill: none; stroke-dasharray: 7.4,3.2; stroke-dashoffset: 0; stroke: #ff7f0e; stroke-width: 2"/>
    </g>
    <g id="text_37">
     <!-- Lagged (+) -->
     <g transform="translate(36.8 48.859062)scale(0.08 -0.08)">
      <defs>
       <path id="DejaVuSans-4c" d="M 628 4666 
L 1259 4666 
L 1259 531 
L 3531 531 
L 3531 0 
L 628 0 
L 628 4666 
z
" transform="scale(0.015625)"/>
       <path id="DejaVuSans-67" d="M 2906 1791 
Q 2906 2416 2648 2759 
Q 2391 3103 1925 3103 
Q 1463 3103 1205 2759 
Q 947 2416 947 1791 
Q 947 1169 1205 825 
Q 1463 481 1925 481 
Q 2391 481 2648 825 
Q 2906 1169 2906 1791 
z
M 3481 434 
Q 3481 -459 3084 -895 
Q 2688 -1331 1869 -1331 
Q 1566 -1331 1297 -1286 
Q 1028 -1241 775 -1147 
L 775 -588 
Q 1028 -725 1275 -790 
Q 1522 -856 1778 -856 
Q 2344 -856 2625 -561 
Q 2906 -266 2906 331 
L 2906 616 
Q 2728 306 2450 153 
Q 2172 0 1784 0 
Q 1141 0 747 490 
Q 353 981 353 1791 
Q 353 2603 747 3093 
Q 1141 3584 1784 3584 
Q 2172 3584 2450 3431 
Q 2728 3278 2906 2969 
L 2906 3500 
L 3481 3500 
L 3481 434 
z
" transform="scale(0.015625)"/>
       <path id="DejaVuSans-65" d="M 3597 1894 
L 3597 1613 
L 953 1613 
Q 991 1019 1311 708 
Q 1631 397 2203 397 
Q 2534 397 2845 478 
Q 3156 559 3463 722 
L 3463 178 
Q 3153 47 2828 -22 
Q 2503 -91 2169 -91 
Q 1331 -91 842 396 
Q 353 884 353 1716 
Q 353 2575 817 3079 
Q 1281 3584 2069 3584 
Q 2775 3584 3186 3129 
Q 3597 2675 3597 1894 
z
M 3022 2063 
Q 3016 2534 2758 2815 
Q 2500 3097 2075 3097 
Q 1594 3097 1305 2825 
Q 1016 2553 972 2059 
L 3022 2063 
z
" transform="scale(0.015625)"/>
       <path id="DejaVuSans-64" d="M 2906 2969 
L 2906 4863 
L 3481 4863 
L 3481 0 
L 2906 0 
L 2906 525 
Q 2725 213 2448 61 
Q 2172 -91 1784 -91 
Q 1150 -91 751 415 
Q 353 922 353 1747 
Q 353 2572 751 3078 
Q 1150 3584 1784 3584 
Q 2172 3584 2448 3432 
Q 2725 3281 2906 2969 
z
M 947 1747 
Q 947 1113 1208 752 
Q 1469 391 1925 391 
Q 2381 391 2643 752 
Q 2906 1113 2906 1747 
Q 2906 2381 2643 2742 
Q 2381 3103 1925 3103 
Q 1469 3103 1208 2742 
Q 947 2381 947 1747 
z
" transform="scale(0.015625)"/>
      </defs>
      <use xlink:href="#DejaVuSans-4c"/>
      <use xlink:href="#DejaVuSans-61" x="55.712891"/>
      <use xlink:href="#DejaVuSans-67" x="116.992188"/>
      <use xlink:href="#DejaVuSans-67" x="180.46875"/>
      <use xlink:href="#DejaVuSans-65" x="243.945312"/>
      <use xlink:href="#DejaVuSans-64" x="305.46875"/>
      <use xlink:href="#DejaVuSans-20" x="368.945312"/>
      <use xlink:href="#DejaVuSans-28" x="400.732422"/>
      <use xlink:href="#DejaVuSans-2b" x="439.746094"/>
      <use xlink:href="#DejaVuSans-29" x="523.535156"/>
     </g>
    </g>
    <g id="line2d_3">
     <path d="M 14.4 57.801563 
L 22.4 57.801563 
L 30.4 57.801563 
" style="fill: none; stroke: #c44e52; stroke-width: 2; stroke-linecap: square"/>
    </g>
    <g id="text_38">
     <!-- Negative (-) -->
     <g transform="translate(36.8 60.601562)scale(0.08 -0.08)">
      <defs>
       <path id="DejaVuSans-4e" d="M 628 4666 
L 1478 4666 
L 3547 763 
L 3547 4666 
L 4159 4666 
L 4159 0 
L 3309 0 
L 1241 3903 
L 1241 0 
L 628 0 
L 628 4666 
z
" transform="scale(0.015625)"/>
       <path id="DejaVuSans-69" d="M 603 3500 
L 1178 3500 
L 1178 0 
L 603 0 
L 603 3500 
z
M 603 4863 
L 1178 4863 
L 1178 4134 
L 603 4134 
L 603 4863 
z
" transform="scale(0.015625)"/>
       <path id="DejaVuSans-76" d="M 191 3500 
L 800 3500 
L 1894 563 
L 2988 3500 
L 3597 3500 
L 2284 0 
L 1503 0 
L 191 3500 
z
" transform="scale(0.015625)"/>
      </defs>
      <use xlink:href="#DejaVuSans-4e"/>
      <use xlink:href="#DejaVuSans-65" x="74.804688"/>
      <use xlink:href="#DejaVuSans-67" x="136.328125"/>
      <use xlink:href="#DejaVuSans-61" x="199.804688"/>
      <use xlink:href="#DejaVuSans-74" x="261.083984"/>
      <use xlink:href="#DejaVuSans-69" x="300.292969"/>
      <use xlink:href="#DejaVuSans-76" x="328.076172"/>
      <use xlink:href="#DejaVuSans-65" x="387.255859"/>
      <use xlink:href="#DejaVuSans-20" x="448.779297"/>
      <use xlink:href="#DejaVuSans-28" x="480.566406"/>
      <use xlink:href="#DejaVuSans-2d" x="519.580078"/>
      <use xlink:href="#DejaVuSans-29" x="555.664062"/>
     </g>
    </g>
    <g id="patch_35">
     <path d="M 14.4 72.344063 
L 30.4 72.344063 
L 30.4 66.744063 
L 14.4 66.744063 
z
" style="fill: #d62728; stroke: #333333; stroke-linejoin: miter"/>
    </g>
    <g id="text_39">
     <!-- Price (Target) -->
     <g transform="translate(36.8 72.344063)scale(0.08 -0.08)">
      <defs>
       <path id="DejaVuSans-50" d="M 1259 4147 
L 1259 2394 
L 2053 2394 
Q 2494 2394 2734 2622 
Q 2975 2850 2975 3272 
Q 2975 3691 2734 3919 
Q 2494 4147 2053 4147 
L 1259 4147 
z
M 628 4666 
L 2053 4666 
Q 2838 4666 3239 4311 
Q 3641 3956 3641 3272 
Q 3641 2581 3239 2228 
Q 2838 1875 2053 1875 
L 1259 1875 
L 1259 0 
L 628 0 
L 628 4666 
z
" transform="scale(0.015625)"/>
       <path id="DejaVuSans-72" d="M 2631 2963 
Q 2534 3019 2420 3045 
Q 2306 3072 2169 3072 
Q 1681 3072 1420 2755 
Q 1159 2438 1159 1844 
L 1159 0 
L 581 0 
L 581 3500 
L 1159 3500 
L 1159 2956 
Q 1341 3275 1631 3429 
Q 1922 3584 2338 3584 
Q 2397 3584 2469 3576 
Q 2541 3569 2628 3553 
L 2631 2963 
z
" transform="scale(0.015625)"/>
       <path id="DejaVuSans-63" d="M 3122 3366 
L 3122 2828 
Q 2878 2963 2633 3030 
Q 2388 3097 2138 3097 
Q 1578 3097 1268 2742 
Q 959 2388 959 1747 
Q 959 1106 1268 751 
Q 1578 397 2138 397 
Q 2388 397 2633 464 
Q 2878 531 3122 666 
L 3122 134 
Q 2881 22 2623 -34 
Q 2366 -91 2075 -91 
Q 1284 -91 818 406 
Q 353 903 353 1747 
Q 353 2603 823 3093 
Q 1294 3584 2113 3584 
Q 2378 3584 2631 3529 
Q 2884 3475 3122 3366 
z
" transform="scale(0.015625)"/>
       <path id="DejaVuSans-54" d="M -19 4666 
L 3928 4666 
L 3928 4134 
L 2272 4134 
L 2272 0 
L 1638 0 
L 1638 4134 
L -19 4134 
L -19 4666 
z
" transform="scale(0.015625)"/>
      </defs>
      <use xlink:href="#DejaVuSans-50"/>
      <use xlink:href="#DejaVuSans-72" x="58.552734"/>
      <use xlink:href="#DejaVuSans-69" x="99.666016"/>
      <use xlink:href="#DejaVuSans-63" x="127.449219"/>
      <use xlink:href="#DejaVuSans-65" x="182.429688"/>
      <use xlink:href="#DejaVuSans-20" x="243.953125"/>
      <use xlink:href="#DejaVuSans-28" x="275.740234"/>
      <use xlink:href="#DejaVuSans-54" x="314.753906"/>
      <use xlink:href="#DejaVuSans-61" x="359.337891"/>
      <use xlink:href="#DejaVuSans-72" x="420.617188"/>
      <use xlink:href="#DejaVuSans-67" x="459.980469"/>
      <use xlink:href="#DejaVuSans-65" x="523.457031"/>
      <use xlink:href="#DejaVuSans-74" x="584.980469"/>
      <use xlink:href="#DejaVuSans-29" x="624.189453"/>
     </g>
    </g>
    <g id="patch_36">
     <path d="M 14.4 84.086563 
L 30.4 84.086563 
L 30.4 78.486563 
L 14.4 78.486563 
z
" style="fill: #a8d5ba; stroke: #333333; stroke-linejoin: miter"/>
    </g>
    <g id="text_40">
     <!-- Features -->
     <g transform="translate(36.8 84.086563)scale(0.08 -0.08)">
      <defs>
       <path id="DejaVuSans-46" d="M 628 4666 
L 3309 4666 
L 3309 4134 
L 1259 4134 
L 1259 2759 
L 3109 2759 
L 3109 2228 
L 1259 2228 
L 1259 0 
L 628 0 
L 628 4666 
z
" transform="scale(0.015625)"/>
       <path id="DejaVuSans-75" d="M 544 1381 
L 544 3500 
L 1119 3500 
L 1119 1403 
Q 1119 906 1312 657 
Q 1506 409 1894 409 
Q 2359 409 2629 706 
Q 2900 1003 2900 1516 
L 2900 3500 
L 3475 3500 
L 3475 0 
L 2900 0 
L 2900 538 
Q 2691 219 2414 64 
Q 2138 -91 1772 -91 
Q 1169 -91 856 284 
Q 544 659 544 1381 
z
M 1991 3584 
L 1991 3584 
z
" transform="scale(0.015625)"/>
      </defs>
      <use xlink:href="#DejaVuSans-46"/>
      <use xlink:href="#DejaVuSans-65" x="52.019531"/>
      <use xlink:href="#DejaVuSans-61" x="113.542969"/>
      <use xlink:href="#DejaVuSans-74" x="174.822266"/>
      <use xlink:href="#DejaVuSans-75" x="214.03125"/>
      <use xlink:href="#DejaVuSans-72" x="277.410156"/>
      <use xlink:href="#DejaVuSans-65" x="316.273438"/>
      <use xlink:href="#DejaVuSans-73" x="377.796875"/>
     </g>
    </g>
   </g>
  </g>
 </g>
 <defs>
  <clipPath id="p0c3752177d">
   <rect x="7.2" y="23.837812" width="702.72" height="542.16"/>
  </clipPath>
 </defs>
</svg>
