<?xml version="1.0" encoding="utf-8" standalone="no"?>
<!DOCTYPE svg PUBLIC "-//W3C//DTD SVG 1.1//EN"
  "http://www.w3.org/Graphics/SVG/1.1/DTD/svg11.dtd">
<svg xmlns:xlink="http://www.w3.org/1999/xlink" width="717.12pt" height="573.197812pt" viewBox="0 0 717.12 573.197812" xmlns="http://www.w3.org/2000/svg" version="1.1">
 <metadata>
  <rdf:RDF xmlns:dc="http://purl.org/dc/elements/1.1/" xmlns:cc="http://creativecommons.org/ns#" xmlns:rdf="http://www.w3.org/1999/02/22-rdf-syntax-ns#">
   <cc:Work>
    <dc:type rdf:resource="http://purl.org/dc/dcmitype/StillImage"/>
    <dc:date>2026-02-11T20:18:21.976271</dc:date>
    <dc:format>image/svg+xml</dc:format>
    <dc:creator>
     <cc:Agent>
      <dc:title>Matplotlib v3.5.1, https://matplotlib.org/</dc:title>
     </cc:Agent>
    </dc:creator>
   </cc:Work>
  </rdf:RDF>
 </metadata>
 <defs>
  <style type="text/css">*{stroke-linejoin: round; stroke-linecap: butt}</style>
 </defs>
 <g id="figure_1">
  <g id="patch_1">
   <path d="M 0 573.197812 
L 717.12 573.197812 
L 717.12 0 
L 0 0 
z
" style="fill: #ffffff"/>
  </g>
  <g id="axes_1">
   <g id="patch_2">
    <path d="M 183.321686 477.931929 
Q 320.085763 297.537091 379.671535 80.619551 
" clip-path="url(#p365ea3a446)" style="fill: none; stroke: #1f77b4; stroke-opacity: 0.7; stroke-width: 1.274241; stroke-linecap: round"/>
    <path d="M 375.189404 85.610593 
L 379.671535 80.619551 
L 380.97509 87.199881 
L 375.189404 85.610593 
z
" clip-path="url(#p365ea3a446)" style="fill: #1f77b4; fill-opacity: 0.7; stroke: #1f77b4; stroke-opacity: 0.7; stroke-width: 1.274241; stroke-linecap: round"/>
   </g>
   <g id="patch_3">
    <path d="M 85.428804 210.769044 
Q 243.165781 170.894285 374.122329 76.821016 
" clip-path="url(#p365ea3a446)" style="fill: none; stroke: #1f77b4; stroke-opacity: 0.7; stroke-width: 1.301967; stroke-linecap: round"/>
    <path d="M 367.499051 77.88506 
L 374.122329 76.821016 
L 370.999598 82.758065 
L 367.499051 77.88506 
z
" clip-path="url(#p365ea3a446)" style="fill: #1f77b4; fill-opacity: 0.7; stroke: #1f77b4; stroke-opacity: 0.7; stroke-width: 1.301967; stroke-linecap: round"/>
   </g>
   <g id="patch_4">
    <path d="M 132.15151 142.002155 
Q 259.655262 131.07949 372.975796 75.521823 
" clip-path="url(#p365ea3a446)" style="fill: none; stroke: #1f77b4; stroke-opacity: 0.7; stroke-width: 1.577553; stroke-linecap: round"/>
    <path d="M 366.267797 75.469404 
L 372.975796 75.521823 
L 368.909062 80.856771 
L 366.267797 75.469404 
z
" clip-path="url(#p365ea3a446)" style="fill: #1f77b4; fill-opacity: 0.7; stroke: #1f77b4; stroke-opacity: 0.7; stroke-width: 1.577553; stroke-linecap: round"/>
   </g>
   <g id="patch_5">
    <path d="M 369.030641 509.769039 
Q 417.759819 296.012566 383.922429 80.907296 
" clip-path="url(#p365ea3a446)" style="fill: none; stroke: #1f77b4; stroke-opacity: 0.7; stroke-width: 1.332716; stroke-linecap: round"/>
    <path d="M 381.891244 87.300597 
L 383.922429 80.907296 
L 387.818358 86.368225 
L 381.891244 87.300597 
z
" clip-path="url(#p365ea3a446)" style="fill: #1f77b4; fill-opacity: 0.7; stroke: #1f77b4; stroke-opacity: 0.7; stroke-width: 1.332716; stroke-linecap: round"/>
   </g>
   <g id="patch_6">
    <path d="M 549.257618 464.961511 
Q 505.378032 255.939821 387.947212 79.299934 
" clip-path="url(#p365ea3a446)" style="fill: none; stroke: #1f77b4; stroke-opacity: 0.7; stroke-width: 1.310835; stroke-linecap: round"/>
    <path d="M 388.770668 85.957405 
L 387.947212 79.299934 
L 393.767262 82.635651 
L 388.770668 85.957405 
z
" clip-path="url(#p365ea3a446)" style="fill: #1f77b4; fill-opacity: 0.7; stroke: #1f77b4; stroke-opacity: 0.7; stroke-width: 1.310835; stroke-linecap: round"/>
   </g>
   <g id="patch_7">
    <path d="M 469.644593 93.721123 
Q 432.114536 76.18901 392.58926 71.863443 
" clip-path="url(#p365ea3a446)" style="fill: none; stroke: #1f77b4; stroke-opacity: 0.7; stroke-width: 1.48653; stroke-linecap: round"/>
    <path d="M 398.227284 75.498368 
L 392.58926 71.863443 
L 398.880015 69.533979 
L 398.227284 75.498368 
z
" clip-path="url(#p365ea3a446)" style="fill: #1f77b4; fill-opacity: 0.7; stroke: #1f77b4; stroke-opacity: 0.7; stroke-width: 1.48653; stroke-linecap: round"/>
   </g>
   <g id="patch_8">
    <path d="M 284.92188 77.129002 
Q 329.758895 82.460929 372.517138 73.154992 
" clip-path="url(#p365ea3a446)" style="fill: none; stroke: #c44e52; stroke-opacity: 0.7; stroke-width: 1.246568; stroke-linecap: round"/>
    <path d="M 366.016396 71.499589 
L 372.517138 73.154992 
L 367.292371 77.362344 
L 366.016396 71.499589 
z
" clip-path="url(#p365ea3a446)" style="fill: #c44e52; fill-opacity: 0.7; stroke: #c44e52; stroke-opacity: 0.7; stroke-width: 1.246568; stroke-linecap: round"/>
   </g>
   <g id="patch_9">
    <path d="M 272.918769 511.117337 
Q 368.956501 305.816856 381.772798 80.91638 
" clip-path="url(#p365ea3a446)" style="fill: none; stroke: #c44e52; stroke-opacity: 0.7; stroke-width: 1.24118; stroke-linecap: round"/>
    <path d="M 378.436292 86.735978 
L 381.772798 80.91638 
L 384.426573 87.077344 
L 378.436292 86.735978 
z
" clip-path="url(#p365ea3a446)" style="fill: #c44e52; fill-opacity: 0.7; stroke: #c44e52; stroke-opacity: 0.7; stroke-width: 1.24118; stroke-linecap: round"/>
   </g>
   <g id="patch_10">
    <path d="M 641.113329 263.423832 
Q 496.985883 194.335924 389.721566 78.918667 
" clip-path="url(#p365ea3a446)" style="fill: none; stroke-dasharray: 7.497253,3.242055; stroke-dashoffset: 0; stroke: #ff7f0e; stroke-opacity: 0.7; stroke-width: 2.026284; stroke-linecap: round"/>
    <path d="M 391.608621 85.355982 
L 389.721566 78.918667 
L 396.003651 81.271412 
L 391.608621 85.355982 
z
" clip-path="url(#p365ea3a446)" style="fill: #ff7f0e; fill-opacity: 0.7; stroke-dasharray: 7.497253,3.242055; stroke-dashoffset: 0; stroke: #ff7f0e; stroke-opacity: 0.7; stroke-width: 2.026284; stroke-linecap: round"/>
   </g>
   <g id="patch_11">
    <path d="M 551.244782 138.230411 
Q 464.734853 121.569336 391.603567 76.675346 
" clip-path="url(#p365ea3a446)" style="fill: none; stroke-dasharray: 7.572068,3.274408; stroke-dashoffset: 0; stroke: #ff7f0e; stroke-opacity: 0.7; stroke-width: 2.046505; stroke-linecap: round"/>
    <path d="M 395.147438 82.371044 
L 391.603567 76.675346 
L 398.286448 77.257668 
L 395.147438 82.371044 
z
" clip-path="url(#p365ea3a446)" style="fill: #ff7f0e; fill-opacity: 0.7; stroke-dasharray: 7.572068,3.274408; stroke-dashoffset: 0; stroke: #ff7f0e; stroke-opacity: 0.7; stroke-width: 2.046505; stroke-linecap: round"/>
   </g>
   <g id="patch_12">
    <path d="M 616.164363 408.040281 
Q 469.40521 265.52137 387.433051 82.403707 
" clip-path="url(#p365ea3a446)" style="fill: none; stroke-dasharray: 13.054018,5.644981; stroke-dashoffset: 0; stroke: #ff7f0e; stroke-opacity: 0.7; stroke-width: 3.528113; stroke-linecap: round"/>
    <path d="M 387.14635 89.105782 
L 387.433051 82.403707 
L 392.62269 86.654312 
L 387.14635 89.105782 
z
" clip-path="url(#p365ea3a446)" style="fill: #ff7f0e; fill-opacity: 0.7; stroke-dasharray: 13.054018,5.644981; stroke-dashoffset: 0; stroke: #ff7f0e; stroke-opacity: 0.7; stroke-width: 3.528113; stroke-linecap: round"/>
   </g>
   <g id="patch_13">
    <path d="M 117.429838 418.801492 
Q 213.736345 222.873015 373.98229 78.355614 
" clip-path="url(#p365ea3a446)" style="fill: none; stroke-dasharray: 8.3774,3.622659; stroke-dashoffset: 0; stroke: #ff7f0e; stroke-opacity: 0.7; stroke-width: 2.264162; stroke-linecap: round"/>
    <path d="M 367.517454 80.146113 
L 373.98229 78.355614 
L 371.535788 84.601783 
L 367.517454 80.146113 
z
" clip-path="url(#p365ea3a446)" style="fill: #ff7f0e; fill-opacity: 0.7; stroke-dasharray: 8.3774,3.622659; stroke-dashoffset: 0; stroke: #ff7f0e; stroke-opacity: 0.7; stroke-width: 2.264162; stroke-linecap: round"/>
   </g>
   <g id="patch_14">
    <path d="M 217.876105 116.708976 
Q 291.708066 80.097397 369.240108 72.145659 
" clip-path="url(#p365ea3a446)" style="fill: none; stroke-dasharray: 14.8,6.4; stroke-dashoffset: 0; stroke: #ff7f0e; stroke-opacity: 0.7; stroke-width: 4; stroke-linecap: round"/>
    <path d="M 362.965341 69.773467 
L 369.240108 72.145659 
L 363.577493 75.742157 
L 362.965341 69.773467 
z
" clip-path="url(#p365ea3a446)" style="fill: #ff7f0e; fill-opacity: 0.7; stroke-dasharray: 14.8,6.4; stroke-dashoffset: 0; stroke: #ff7f0e; stroke-opacity: 0.7; stroke-width: 4; stroke-linecap: round"/>
   </g>
   <g id="patch_15">
    <path d="M 86.764098 350.676131 
Q 204.503086 185.466044 372.97702 76.862851 
" clip-path="url(#p365ea3a446)" style="fill: none; stroke-dasharray: 8.030825,3.472789; stroke-dashoffset: 0; stroke: #ff7f0e; stroke-opacity: 0.7; stroke-width: 2.170493; stroke-linecap: round"/>
    <path d="M 366.308585 77.592216 
L 372.97702 76.862851 
L 369.559451 82.635218 
L 366.308585 77.592216 
z
" clip-path="url(#p365ea3a446)" style="fill: #ff7f0e; fill-opacity: 0.7; stroke-dasharray: 8.030825,3.472789; stroke-dashoffset: 0; stroke: #ff7f0e; stroke-opacity: 0.7; stroke-width: 2.170493; stroke-linecap: round"/>
   </g>
   <g id="patch_16">
    <path d="M 74.256449 279.618867 
Q 204.695556 148.294592 371.969804 75.354578 
" clip-path="url(#p365ea3a446)" style="fill: none; stroke-dasharray: 8.638847,3.735718; stroke-dashoffset: 0; stroke: #ff7f0e; stroke-opacity: 0.7; stroke-width: 2.334824; stroke-linecap: round"/>
    <path d="M 365.270826 75.002864 
L 371.969804 75.354578 
L 367.669046 80.502732 
L 365.270826 75.002864 
z
" clip-path="url(#p365ea3a446)" style="fill: #ff7f0e; fill-opacity: 0.7; stroke-dasharray: 8.638847,3.735718; stroke-dashoffset: 0; stroke: #ff7f0e; stroke-opacity: 0.7; stroke-width: 2.334824; stroke-linecap: round"/>
   </g>
   <g id="patch_17">
    <path d="M 461.447455 508.292247 
Q 380.566085 301.542653 382.201227 81.800038 
" clip-path="url(#p365ea3a446)" style="fill: none; stroke-dasharray: 7.474609,3.232263; stroke-dashoffset: 0; stroke: #ff7f0e; stroke-opacity: 0.7; stroke-width: 2.020164; stroke-linecap: round"/>
    <path d="M 379.156664 87.777549 
L 382.201227 81.800038 
L 385.156498 87.822195 
L 379.156664 87.777549 
z
" clip-path="url(#p365ea3a446)" style="fill: #ff7f0e; fill-opacity: 0.7; stroke-dasharray: 7.474609,3.232263; stroke-dashoffset: 0; stroke: #ff7f0e; stroke-opacity: 0.7; stroke-width: 2.020164; stroke-linecap: round"/>
   </g>
   <g id="patch_18">
    <path d="M 631.216114 335.465125 
Q 484.538027 230.137423 388.882516 81.184206 
" clip-path="url(#p365ea3a446)" style="fill: none; stroke-dasharray: 11.765614,5.087833; stroke-dashoffset: 0; stroke: #ff7f0e; stroke-opacity: 0.7; stroke-width: 3.179896; stroke-linecap: round"/>
    <path d="M 389.600353 87.853892 
L 388.882516 81.184206 
L 394.648967 84.611748 
L 389.600353 87.853892 
z
" clip-path="url(#p365ea3a446)" style="fill: #ff7f0e; fill-opacity: 0.7; stroke-dasharray: 11.765614,5.087833; stroke-dashoffset: 0; stroke: #ff7f0e; stroke-opacity: 0.7; stroke-width: 3.179896; stroke-linecap: round"/>
   </g>
   <g id="patch_19">
    <path d="M 626.415921 188.890657 
Q 497.248856 154.730143 391.172293 77.405114 
" clip-path="url(#p365ea3a446)" style="fill: none; stroke-dasharray: 7.742486,3.348102; stroke-dashoffset: 0; stroke: #c44e52; stroke-opacity: 0.7; stroke-width: 2.092564; stroke-linecap: round"/>
    <path d="M 394.253645 83.363744 
L 391.172293 77.405114 
L 397.788008 78.51521 
L 394.253645 83.363744 
z
" clip-path="url(#p365ea3a446)" style="fill: #c44e52; fill-opacity: 0.7; stroke-dasharray: 7.742486,3.348102; stroke-dashoffset: 0; stroke: #c44e52; stroke-opacity: 0.7; stroke-width: 2.092564; stroke-linecap: round"/>
   </g>
   <g id="text_1">
    <g id="patch_20">
     <path d="M 504.919131 165.847812 
L 521.827382 178.292684 
Q 522.552215 178.826179 523.08571 178.101345 
L 526.527861 173.424659 
Q 527.061356 172.699826 526.336522 172.166331 
L 509.428271 159.72146 
Q 508.703438 159.187965 508.169943 159.912798 
L 504.727792 164.589484 
Q 504.194297 165.314318 504.919131 165.847812 
z
" clip-path="url(#p365ea3a446)" style="fill: #ffffff; opacity: 0.8"/>
    </g>
    <g clip-path="url(#p365ea3a446)">
     <!-- 0.0136 -->
     <g style="fill: #444444" transform="translate(506.192293 164.118028)rotate(-323.646054)scale(0.06 -0.06)">
      <defs>
       <path id="DejaVuSans-30" d="M 2034 4250 
Q 1547 4250 1301 3770 
Q 1056 3291 1056 2328 
Q 1056 1369 1301 889 
Q 1547 409 2034 409 
Q 2525 409 2770 889 
Q 3016 1369 3016 2328 
Q 3016 3291 2770 3770 
Q 2525 4250 2034 4250 
z
M 2034 4750 
Q 2819 4750 3233 4129 
Q 3647 3509 3647 2328 
Q 3647 1150 3233 529 
Q 2819 -91 2034 -91 
Q 1250 -91 836 529 
Q 422 1150 422 2328 
Q 422 3509 836 4129 
Q 1250 4750 2034 4750 
z
" transform="scale(0.015625)"/>
       <path id="DejaVuSans-2e" d="M 684 794 
L 1344 794 
L 1344 0 
L 684 0 
L 684 794 
z
" transform="scale(0.015625)"/>
       <path id="DejaVuSans-31" d="M 794 531 
L 1825 531 
L 1825 4091 
L 703 3866 
L 703 4441 
L 1819 4666 
L 2450 4666 
L 2450 531 
L 3481 531 
L 3481 0 
L 794 0 
L 794 531 
z
" transform="scale(0.015625)"/>
       <path id="DejaVuSans-33" d="M 2597 2516 
Q 3050 2419 3304 2112 
Q 3559 1806 3559 1356 
Q 3559 666 3084 287 
Q 2609 -91 1734 -91 
Q 1441 -91 1130 -33 
Q 819 25 488 141 
L 488 750 
Q 750 597 1062 519 
Q 1375 441 1716 441 
Q 2309 441 2620 675 
Q 2931 909 2931 1356 
Q 2931 1769 2642 2001 
Q 2353 2234 1838 2234 
L 1294 2234 
L 1294 2753 
L 1863 2753 
Q 2328 2753 2575 2939 
Q 2822 3125 2822 3475 
Q 2822 3834 2567 4026 
Q 2313 4219 1838 4219 
Q 1578 4219 1281 4162 
Q 984 4106 628 3988 
L 628 4550 
Q 988 4650 1302 4700 
Q 1616 4750 1894 4750 
Q 2613 4750 3031 4423 
Q 3450 4097 3450 3541 
Q 3450 3153 3228 2886 
Q 3006 2619 2597 2516 
z
" transform="scale(0.015625)"/>
       <path id="DejaVuSans-36" d="M 2113 2584 
Q 1688 2584 1439 2293 
Q 1191 2003 1191 1497 
Q 1191 994 1439 701 
Q 1688 409 2113 409 
Q 2538 409 2786 701 
Q 3034 994 3034 1497 
Q 3034 2003 2786 2293 
Q 2538 2584 2113 2584 
z
M 3366 4563 
L 3366 3988 
Q 3128 4100 2886 4159 
Q 2644 4219 2406 4219 
Q 1781 4219 1451 3797 
Q 1122 3375 1075 2522 
Q 1259 2794 1537 2939 
Q 1816 3084 2150 3084 
Q 2853 3084 3261 2657 
Q 3669 2231 3669 1497 
Q 3669 778 3244 343 
Q 2819 -91 2113 -91 
Q 1303 -91 875 529 
Q 447 1150 447 2328 
Q 447 3434 972 4092 
Q 1497 4750 2381 4750 
Q 2619 4750 2861 4703 
Q 3103 4656 3366 4563 
z
" transform="scale(0.015625)"/>
      </defs>
      <use xlink:href="#DejaVuSans-30"/>
      <use xlink:href="#DejaVuSans-2e" x="63.623047"/>
      <use xlink:href="#DejaVuSans-30" x="95.410156"/>
      <use xlink:href="#DejaVuSans-31" x="159.033203"/>
      <use xlink:href="#DejaVuSans-33" x="222.65625"/>
      <use xlink:href="#DejaVuSans-36" x="286.279297"/>
     </g>
    </g>
   </g>
   <g id="text_2">
    <g id="patch_21">
     <path d="M 278.954684 288.947508 
L 288.24468 270.120406 
Q 288.64293 269.313314 287.835838 268.915065 
L 282.628413 266.345527 
Q 281.821321 265.947277 281.423072 266.754369 
L 272.133075 285.581471 
Q 271.734826 286.388563 272.541918 286.786812 
L 277.749342 289.35635 
Q 278.556434 289.7546 278.954684 288.947508 
z
" clip-path="url(#p365ea3a446)" style="fill: #ffffff; opacity: 0.8"/>
    </g>
    <g clip-path="url(#p365ea3a446)">
     <!-- 0.0036 -->
     <g style="fill: #444444" transform="translate(277.028592 287.997102)rotate(-63.736544)scale(0.06 -0.06)">
      <use xlink:href="#DejaVuSans-30"/>
      <use xlink:href="#DejaVuSans-2e" x="63.623047"/>
      <use xlink:href="#DejaVuSans-30" x="95.410156"/>
      <use xlink:href="#DejaVuSans-30" x="159.033203"/>
      <use xlink:href="#DejaVuSans-33" x="222.65625"/>
      <use xlink:href="#DejaVuSans-36" x="286.279297"/>
     </g>
    </g>
   </g>
   <g id="text_3">
    <g id="patch_22">
     <path d="M 221.752499 149.743179 
L 240.789258 140.890744 
Q 241.605337 140.511252 241.225846 139.695172 
L 238.777333 134.429758 
Q 238.397841 133.613679 237.581762 133.99317 
L 218.545003 142.845606 
Q 217.728924 143.225097 218.108415 144.041177 
L 220.556928 149.306591 
Q 220.93642 150.122671 221.752499 149.743179 
z
" clip-path="url(#p365ea3a446)" style="fill: #ffffff; opacity: 0.8"/>
    </g>
    <g clip-path="url(#p365ea3a446)">
     <!-- 0.0040 -->
     <g style="fill: #444444" transform="translate(220.846858 147.795639)rotate(-24.939276)scale(0.06 -0.06)">
      <defs>
       <path id="DejaVuSans-34" d="M 2419 4116 
L 825 1625 
L 2419 1625 
L 2419 4116 
z
M 2253 4666 
L 3047 4666 
L 3047 1625 
L 3713 1625 
L 3713 1100 
L 3047 1100 
L 3047 0 
L 2419 0 
L 2419 1100 
L 313 1100 
L 313 1709 
L 2253 4666 
z
" transform="scale(0.015625)"/>
      </defs>
      <use xlink:href="#DejaVuSans-30"/>
      <use xlink:href="#DejaVuSans-2e" x="63.623047"/>
      <use xlink:href="#DejaVuSans-30" x="95.410156"/>
      <use xlink:href="#DejaVuSans-30" x="159.033203"/>
      <use xlink:href="#DejaVuSans-34" x="222.65625"/>
      <use xlink:href="#DejaVuSans-30" x="286.279297"/>
     </g>
    </g>
   </g>
   <g id="text_4">
    <g id="patch_23">
     <path d="M 459.876701 105.085347 
L 479.447214 112.685267 
Q 480.286175 113.011065 480.611973 112.172104 
L 482.71405 106.759058 
Q 483.039848 105.920097 482.200887 105.594299 
L 462.630374 97.994378 
Q 461.791413 97.66858 461.465614 98.507541 
L 459.363538 103.920587 
Q 459.03774 104.759548 459.876701 105.085347 
z
" clip-path="url(#p365ea3a446)" style="fill: #ffffff; opacity: 0.8"/>
    </g>
    <g clip-path="url(#p365ea3a446)">
     <!-- 0.0139 -->
     <g style="fill: #444444" transform="translate(460.654204 103.083201)rotate(-338.777053)scale(0.06 -0.06)">
      <defs>
       <path id="DejaVuSans-39" d="M 703 97 
L 703 672 
Q 941 559 1184 500 
Q 1428 441 1663 441 
Q 2288 441 2617 861 
Q 2947 1281 2994 2138 
Q 2813 1869 2534 1725 
Q 2256 1581 1919 1581 
Q 1219 1581 811 2004 
Q 403 2428 403 3163 
Q 403 3881 828 4315 
Q 1253 4750 1959 4750 
Q 2769 4750 3195 4129 
Q 3622 3509 3622 2328 
Q 3622 1225 3098 567 
Q 2575 -91 1691 -91 
Q 1453 -91 1209 -44 
Q 966 3 703 97 
z
M 1959 2075 
Q 2384 2075 2632 2365 
Q 2881 2656 2881 3163 
Q 2881 3666 2632 3958 
Q 2384 4250 1959 4250 
Q 1534 4250 1286 3958 
Q 1038 3666 1038 3163 
Q 1038 2656 1286 2365 
Q 1534 2075 1959 2075 
z
" transform="scale(0.015625)"/>
      </defs>
      <use xlink:href="#DejaVuSans-30"/>
      <use xlink:href="#DejaVuSans-2e" x="63.623047"/>
      <use xlink:href="#DejaVuSans-30" x="95.410156"/>
      <use xlink:href="#DejaVuSans-31" x="159.033203"/>
      <use xlink:href="#DejaVuSans-33" x="222.65625"/>
      <use xlink:href="#DejaVuSans-39" x="286.279297"/>
     </g>
    </g>
   </g>
   <g id="text_5">
    <g id="patch_24">
     <path d="M 243.818017 113.257962 
L 264.048165 107.645041 
Q 264.915404 107.404423 264.674785 106.537185 
L 263.122297 100.941689 
Q 262.881679 100.07445 262.01444 100.315068 
L 241.784292 105.927989 
Q 240.917053 106.168607 241.157671 107.035845 
L 242.71016 112.631342 
Q 242.950778 113.49858 243.818017 113.257962 
z
" clip-path="url(#p365ea3a446)" style="fill: #ffffff; opacity: 0.8"/>
    </g>
    <g clip-path="url(#p365ea3a446)">
     <!-- 0.0077 -->
     <g style="fill: #444444" transform="translate(243.243791 111.188333)rotate(-15.506848)scale(0.06 -0.06)">
      <defs>
       <path id="DejaVuSans-37" d="M 525 4666 
L 3525 4666 
L 3525 4397 
L 1831 0 
L 1172 0 
L 2766 4134 
L 525 4134 
L 525 4666 
z
" transform="scale(0.015625)"/>
      </defs>
      <use xlink:href="#DejaVuSans-30"/>
      <use xlink:href="#DejaVuSans-2e" x="63.623047"/>
      <use xlink:href="#DejaVuSans-30" x="95.410156"/>
      <use xlink:href="#DejaVuSans-30" x="159.033203"/>
      <use xlink:href="#DejaVuSans-37" x="222.65625"/>
      <use xlink:href="#DejaVuSans-37" x="286.279297"/>
     </g>
    </g>
   </g>
   <g id="text_6">
    <g id="patch_25">
     <path d="M 493.221189 236.04373 
L 505.256341 253.246024 
Q 505.772271 253.983462 506.50971 253.467532 
L 511.267726 250.138706 
Q 512.005164 249.622775 511.489234 248.885337 
L 499.454082 231.683043 
Q 498.938152 230.945604 498.200713 231.461535 
L 493.442697 234.790361 
Q 492.705259 235.306291 493.221189 236.04373 
z
" clip-path="url(#p365ea3a446)" style="fill: #ffffff; opacity: 0.8"/>
    </g>
    <g clip-path="url(#p365ea3a446)">
     <!-- 0.0335 -->
     <g style="fill: #444444" transform="translate(494.981056 234.812484)rotate(-304.977591)scale(0.06 -0.06)">
      <defs>
       <path id="DejaVuSans-35" d="M 691 4666 
L 3169 4666 
L 3169 4134 
L 1269 4134 
L 1269 2991 
Q 1406 3038 1543 3061 
Q 1681 3084 1819 3084 
Q 2600 3084 3056 2656 
Q 3513 2228 3513 1497 
Q 3513 744 3044 326 
Q 2575 -91 1722 -91 
Q 1428 -91 1123 -41 
Q 819 9 494 109 
L 494 744 
Q 775 591 1075 516 
Q 1375 441 1709 441 
Q 2250 441 2565 725 
Q 2881 1009 2881 1497 
Q 2881 1984 2565 2268 
Q 2250 2553 1709 2553 
Q 1456 2553 1204 2497 
Q 953 2441 691 2322 
L 691 4666 
z
" transform="scale(0.015625)"/>
      </defs>
      <use xlink:href="#DejaVuSans-30"/>
      <use xlink:href="#DejaVuSans-2e" x="63.623047"/>
      <use xlink:href="#DejaVuSans-30" x="95.410156"/>
      <use xlink:href="#DejaVuSans-33" x="159.033203"/>
      <use xlink:href="#DejaVuSans-33" x="222.65625"/>
      <use xlink:href="#DejaVuSans-35" x="286.279297"/>
     </g>
    </g>
   </g>
   <g id="text_7">
    <g id="patch_26">
     <path d="M 244.684318 259.404535 
L 257.338089 242.652046 
Q 257.880538 241.93389 257.162382 241.39144 
L 252.528779 237.891509 
Q 251.810623 237.34906 251.268173 238.067216 
L 238.614402 254.819704 
Q 238.071952 255.53786 238.790109 256.08031 
L 243.423712 259.580241 
Q 244.141868 260.122691 244.684318 259.404535 
z
" clip-path="url(#p365ea3a446)" style="fill: #ffffff; opacity: 0.8"/>
    </g>
    <g clip-path="url(#p365ea3a446)">
     <!-- 0.0168 -->
     <g style="fill: #444444" transform="translate(242.970468 258.110001)rotate(-52.934907)scale(0.06 -0.06)">
      <defs>
       <path id="DejaVuSans-38" d="M 2034 2216 
Q 1584 2216 1326 1975 
Q 1069 1734 1069 1313 
Q 1069 891 1326 650 
Q 1584 409 2034 409 
Q 2484 409 2743 651 
Q 3003 894 3003 1313 
Q 3003 1734 2745 1975 
Q 2488 2216 2034 2216 
z
M 1403 2484 
Q 997 2584 770 2862 
Q 544 3141 544 3541 
Q 544 4100 942 4425 
Q 1341 4750 2034 4750 
Q 2731 4750 3128 4425 
Q 3525 4100 3525 3541 
Q 3525 3141 3298 2862 
Q 3072 2584 2669 2484 
Q 3125 2378 3379 2068 
Q 3634 1759 3634 1313 
Q 3634 634 3220 271 
Q 2806 -91 2034 -91 
Q 1263 -91 848 271 
Q 434 634 434 1313 
Q 434 1759 690 2068 
Q 947 2378 1403 2484 
z
M 1172 3481 
Q 1172 3119 1398 2916 
Q 1625 2713 2034 2713 
Q 2441 2713 2670 2916 
Q 2900 3119 2900 3481 
Q 2900 3844 2670 4047 
Q 2441 4250 2034 4250 
Q 1625 4250 1398 4047 
Q 1172 3844 1172 3481 
z
" transform="scale(0.015625)"/>
      </defs>
      <use xlink:href="#DejaVuSans-30"/>
      <use xlink:href="#DejaVuSans-2e" x="63.623047"/>
      <use xlink:href="#DejaVuSans-30" x="95.410156"/>
      <use xlink:href="#DejaVuSans-31" x="159.033203"/>
      <use xlink:href="#DejaVuSans-36" x="222.65625"/>
      <use xlink:href="#DejaVuSans-38" x="286.279297"/>
     </g>
    </g>
   </g>
   <g id="text_8">
    <g id="patch_27">
     <path d="M 287.205689 102.323412 
L 307.375058 96.49586 
Q 308.239691 96.246041 307.989872 95.381408 
L 306.378018 89.802723 
Q 306.128199 88.93809 305.263566 89.187909 
L 285.094197 95.015461 
Q 284.229564 95.26528 284.479383 96.129913 
L 286.091237 101.708598 
Q 286.341056 102.573231 287.205689 102.323412 
z
" clip-path="url(#p365ea3a446)" style="fill: #ffffff; opacity: 0.8"/>
    </g>
    <g clip-path="url(#p365ea3a446)">
     <!-- 0.0398 -->
     <g style="fill: #444444" transform="translate(286.609506 100.260001)rotate(-16.115634)scale(0.06 -0.06)">
      <use xlink:href="#DejaVuSans-30"/>
      <use xlink:href="#DejaVuSans-2e" x="63.623047"/>
      <use xlink:href="#DejaVuSans-30" x="95.410156"/>
      <use xlink:href="#DejaVuSans-33" x="159.033203"/>
      <use xlink:href="#DejaVuSans-39" x="222.65625"/>
      <use xlink:href="#DejaVuSans-38" x="286.279297"/>
     </g>
    </g>
   </g>
   <g id="text_9">
    <g id="patch_28">
     <path d="M 378.138015 305.166206 
L 378.852825 284.184004 
Q 378.883468 283.284526 377.983989 283.253883 
L 372.180481 283.056172 
Q 371.281003 283.025529 371.25036 283.925007 
L 370.53555 304.90721 
Q 370.504908 305.806688 371.404386 305.837331 
L 377.207894 306.035042 
Q 378.107372 306.065685 378.138015 305.166206 
z
" clip-path="url(#p365ea3a446)" style="fill: #ffffff; opacity: 0.8"/>
    </g>
    <g clip-path="url(#p365ea3a446)">
     <!-- 0.0044 -->
     <g style="fill: #444444" transform="translate(375.991448 305.093078)rotate(-88.048835)scale(0.06 -0.06)">
      <use xlink:href="#DejaVuSans-30"/>
      <use xlink:href="#DejaVuSans-2e" x="63.623047"/>
      <use xlink:href="#DejaVuSans-30" x="95.410156"/>
      <use xlink:href="#DejaVuSans-30" x="159.033203"/>
      <use xlink:href="#DejaVuSans-34" x="222.65625"/>
      <use xlink:href="#DejaVuSans-34" x="286.279297"/>
     </g>
    </g>
   </g>
   <g id="text_10">
    <g id="patch_29">
     <path d="M 459.094416 263.953292 
L 467.208411 283.31632 
Q 467.556247 284.146387 468.386313 283.798551 
L 473.741971 281.554285 
Q 474.572037 281.206449 474.224201 280.376383 
L 466.110206 261.013355 
Q 465.76237 260.183288 464.932304 260.531124 
L 459.576646 262.77539 
Q 458.74658 263.123226 459.094416 263.953292 
z
" clip-path="url(#p365ea3a446)" style="fill: #ffffff; opacity: 0.8"/>
    </g>
    <g clip-path="url(#p365ea3a446)">
     <!-- 0.0041 -->
     <g style="fill: #444444" transform="translate(461.075334 263.123196)rotate(-292.735916)scale(0.06 -0.06)">
      <use xlink:href="#DejaVuSans-30"/>
      <use xlink:href="#DejaVuSans-2e" x="63.623047"/>
      <use xlink:href="#DejaVuSans-30" x="95.410156"/>
      <use xlink:href="#DejaVuSans-30" x="159.033203"/>
      <use xlink:href="#DejaVuSans-34" x="222.65625"/>
      <use xlink:href="#DejaVuSans-31" x="286.279297"/>
     </g>
    </g>
   </g>
   <g id="text_11">
    <g id="patch_30">
     <path d="M 227.072722 224.315309 
L 242.259701 209.819811 
Q 242.910746 209.198409 242.289344 208.547364 
L 238.280006 204.346768 
Q 237.658604 203.695723 237.007559 204.317125 
L 221.82058 218.812623 
Q 221.169535 219.434025 221.790937 220.08507 
L 225.800275 224.285666 
Q 226.421677 224.936711 227.072722 224.315309 
z
" clip-path="url(#p365ea3a446)" style="fill: #ffffff; opacity: 0.8"/>
    </g>
    <g clip-path="url(#p365ea3a446)">
     <!-- 0.0155 -->
     <g style="fill: #444444" transform="translate(225.589772 222.761617)rotate(-43.665482)scale(0.06 -0.06)">
      <use xlink:href="#DejaVuSans-30"/>
      <use xlink:href="#DejaVuSans-2e" x="63.623047"/>
      <use xlink:href="#DejaVuSans-30" x="95.410156"/>
      <use xlink:href="#DejaVuSans-31" x="159.033203"/>
      <use xlink:href="#DejaVuSans-35" x="222.65625"/>
      <use xlink:href="#DejaVuSans-35" x="286.279297"/>
     </g>
    </g>
   </g>
   <g id="text_12">
    <g id="patch_31">
     <path d="M 418.738154 85.033707 
L 438.954926 90.694617 
Q 439.821592 90.937293 440.064267 90.070628 
L 441.630029 84.478831 
Q 441.872705 83.612166 441.006039 83.369491 
L 420.789267 77.70858 
Q 419.922602 77.465905 419.679927 78.33257 
L 418.114164 83.924366 
Q 417.871489 84.791032 418.738154 85.033707 
z
" clip-path="url(#p365ea3a446)" style="fill: #ffffff; opacity: 0.8"/>
    </g>
    <g clip-path="url(#p365ea3a446)">
     <!-- 0.0065 -->
     <g style="fill: #444444" transform="translate(419.317289 82.965447)rotate(-344.357191)scale(0.06 -0.06)">
      <use xlink:href="#DejaVuSans-30"/>
      <use xlink:href="#DejaVuSans-2e" x="63.623047"/>
      <use xlink:href="#DejaVuSans-30" x="95.410156"/>
      <use xlink:href="#DejaVuSans-30" x="159.033203"/>
      <use xlink:href="#DejaVuSans-36" x="222.65625"/>
      <use xlink:href="#DejaVuSans-35" x="286.279297"/>
     </g>
    </g>
   </g>
   <g id="text_13">
    <g id="patch_32">
     <path d="M 218.732275 187.402204 
L 236.059827 175.548102 
Q 236.802635 175.039933 236.294466 174.297124 
L 233.015717 169.504463 
Q 232.507548 168.761655 231.764739 169.269824 
L 214.437188 181.123926 
Q 213.694379 181.632095 214.202548 182.374903 
L 217.481298 187.167564 
Q 217.989467 187.910373 218.732275 187.402204 
z
" clip-path="url(#p365ea3a446)" style="fill: #ffffff; opacity: 0.8"/>
    </g>
    <g clip-path="url(#p365ea3a446)">
     <!-- 0.0177 -->
     <g style="fill: #444444" transform="translate(217.519551 185.629523)rotate(-34.37676)scale(0.06 -0.06)">
      <use xlink:href="#DejaVuSans-30"/>
      <use xlink:href="#DejaVuSans-2e" x="63.623047"/>
      <use xlink:href="#DejaVuSans-30" x="95.410156"/>
      <use xlink:href="#DejaVuSans-31" x="159.033203"/>
      <use xlink:href="#DejaVuSans-37" x="222.65625"/>
      <use xlink:href="#DejaVuSans-37" x="286.279297"/>
     </g>
    </g>
   </g>
   <g id="text_14">
    <g id="patch_33">
     <path d="M 417.82555 283.98626 
L 421.64057 304.631099 
Q 421.804114 305.516115 422.68913 305.352571 
L 428.399327 304.297367 
Q 429.284342 304.133822 429.120798 303.248806 
L 425.305778 282.603967 
Q 425.142233 281.718951 424.257217 281.882495 
L 418.547021 282.937699 
Q 417.662005 283.101244 417.82555 283.98626 
z
" clip-path="url(#p365ea3a446)" style="fill: #ffffff; opacity: 0.8"/>
    </g>
    <g clip-path="url(#p365ea3a446)">
     <!-- 0.0135 -->
     <g style="fill: #444444" transform="translate(419.937603 283.595967)rotate(-280.469744)scale(0.06 -0.06)">
      <use xlink:href="#DejaVuSans-30"/>
      <use xlink:href="#DejaVuSans-2e" x="63.623047"/>
      <use xlink:href="#DejaVuSans-30" x="95.410156"/>
      <use xlink:href="#DejaVuSans-31" x="159.033203"/>
      <use xlink:href="#DejaVuSans-33" x="222.65625"/>
      <use xlink:href="#DejaVuSans-35" x="286.279297"/>
     </g>
    </g>
   </g>
   <g id="text_15">
    <g id="patch_34">
     <path d="M 500.308864 200.692532 
L 514.763937 215.917992 
Q 515.383606 216.570687 516.036301 215.951018 
L 520.247541 211.952861 
Q 520.900235 211.333192 520.280566 210.680497 
L 505.825493 195.455037 
Q 505.205824 194.802342 504.553129 195.422012 
L 500.34189 199.420168 
Q 499.689195 200.039837 500.308864 200.692532 
z
" clip-path="url(#p365ea3a446)" style="fill: #ffffff; opacity: 0.8"/>
    </g>
    <g clip-path="url(#p365ea3a446)">
     <!-- 0.0289 -->
     <g style="fill: #444444" transform="translate(501.866492 199.213718)rotate(-313.513166)scale(0.06 -0.06)">
      <defs>
       <path id="DejaVuSans-32" d="M 1228 531 
L 3431 531 
L 3431 0 
L 469 0 
L 469 531 
Q 828 903 1448 1529 
Q 2069 2156 2228 2338 
Q 2531 2678 2651 2914 
Q 2772 3150 2772 3378 
Q 2772 3750 2511 3984 
Q 2250 4219 1831 4219 
Q 1534 4219 1204 4116 
Q 875 4013 500 3803 
L 500 4441 
Q 881 4594 1212 4672 
Q 1544 4750 1819 4750 
Q 2544 4750 2975 4387 
Q 3406 4025 3406 3419 
Q 3406 3131 3298 2873 
Q 3191 2616 2906 2266 
Q 2828 2175 2409 1742 
Q 1991 1309 1228 531 
z
" transform="scale(0.015625)"/>
      </defs>
      <use xlink:href="#DejaVuSans-30"/>
      <use xlink:href="#DejaVuSans-2e" x="63.623047"/>
      <use xlink:href="#DejaVuSans-30" x="95.410156"/>
      <use xlink:href="#DejaVuSans-32" x="159.033203"/>
      <use xlink:href="#DejaVuSans-38" x="222.65625"/>
      <use xlink:href="#DejaVuSans-39" x="286.279297"/>
     </g>
    </g>
   </g>
   <g id="text_16">
    <g id="patch_35">
     <path d="M 317.94159 77.782879 
L 341.074012 76.672364 
Q 341.972976 76.629207 341.92982 75.730242 
L 341.65137 69.930047 
Q 341.608214 69.031083 340.709249 69.074239 
L 317.576828 70.184755 
Q 316.677863 70.227911 316.721019 71.126876 
L 316.999469 76.927071 
Q 317.042625 77.826036 317.94159 77.782879 
z
" clip-path="url(#p365ea3a446)" style="fill: #ffffff; opacity: 0.8"/>
    </g>
    <g clip-path="url(#p365ea3a446)">
     <!-- -0.0033 -->
     <g style="fill: #444444" transform="translate(317.838599 75.637538)rotate(-2.748482)scale(0.06 -0.06)">
      <defs>
       <path id="DejaVuSans-2d" d="M 313 2009 
L 1997 2009 
L 1997 1497 
L 313 1497 
L 313 2009 
z
" transform="scale(0.015625)"/>
      </defs>
      <use xlink:href="#DejaVuSans-2d"/>
      <use xlink:href="#DejaVuSans-30" x="36.083984"/>
      <use xlink:href="#DejaVuSans-2e" x="99.707031"/>
      <use xlink:href="#DejaVuSans-30" x="131.494141"/>
      <use xlink:href="#DejaVuSans-30" x="195.117188"/>
      <use xlink:href="#DejaVuSans-33" x="258.740234"/>
      <use xlink:href="#DejaVuSans-33" x="322.363281"/>
     </g>
    </g>
   </g>
   <g id="text_17">
    <g id="patch_36">
     <path d="M 496.470322 129.429461 
L 517.381703 139.382164 
Q 518.194354 139.768943 518.581133 138.956291 
L 521.076662 133.712997 
Q 521.463441 132.900346 520.650789 132.513567 
L 499.739408 122.560864 
Q 498.926756 122.174085 498.539978 122.986736 
L 496.044449 128.23003 
Q 495.65767 129.042682 496.470322 129.429461 
z
" clip-path="url(#p365ea3a446)" style="fill: #ffffff; opacity: 0.8"/>
    </g>
    <g clip-path="url(#p365ea3a446)">
     <!-- -0.0145 -->
     <g style="fill: #444444" transform="translate(497.393353 127.490102)rotate(-334.548041)scale(0.06 -0.06)">
      <use xlink:href="#DejaVuSans-2d"/>
      <use xlink:href="#DejaVuSans-30" x="36.083984"/>
      <use xlink:href="#DejaVuSans-2e" x="99.707031"/>
      <use xlink:href="#DejaVuSans-30" x="131.494141"/>
      <use xlink:href="#DejaVuSans-31" x="195.117188"/>
      <use xlink:href="#DejaVuSans-34" x="258.740234"/>
      <use xlink:href="#DejaVuSans-35" x="322.363281"/>
     </g>
    </g>
   </g>
   <g id="text_18">
    <g id="patch_37">
     <path d="M 326.621416 307.074466 
L 332.289089 284.61963 
Q 332.509344 283.746998 331.636712 283.526742 
L 326.006414 282.105637 
Q 325.133781 281.885382 324.913526 282.758014 
L 319.245853 305.21285 
Q 319.025598 306.085483 319.89823 306.305738 
L 325.528529 307.726844 
Q 326.401161 307.947099 326.621416 307.074466 
z
" clip-path="url(#p365ea3a446)" style="fill: #ffffff; opacity: 0.8"/>
    </g>
    <g clip-path="url(#p365ea3a446)">
     <!-- -0.0032 -->
     <g style="fill: #444444" transform="translate(324.538915 306.548836)rotate(-75.834236)scale(0.06 -0.06)">
      <use xlink:href="#DejaVuSans-2d"/>
      <use xlink:href="#DejaVuSans-30" x="36.083984"/>
      <use xlink:href="#DejaVuSans-2e" x="99.707031"/>
      <use xlink:href="#DejaVuSans-30" x="131.494141"/>
      <use xlink:href="#DejaVuSans-30" x="195.117188"/>
      <use xlink:href="#DejaVuSans-33" x="258.740234"/>
      <use xlink:href="#DejaVuSans-32" x="322.363281"/>
     </g>
    </g>
   </g>
   <g id="PathCollection_1">
    <path d="M 382.313738 90.249671 
C 387.449374 90.249671 392.375359 88.209262 396.006802 84.577819 
C 399.638245 80.946376 401.678655 76.020391 401.678655 70.884755 
C 401.678655 65.749119 399.638245 60.823134 396.006802 57.191691 
C 392.375359 53.560248 387.449374 51.519838 382.313738 51.519838 
C 377.178102 51.519838 372.252117 53.560248 368.620674 57.191691 
C 364.989231 60.823134 362.948821 65.749119 362.948821 70.884755 
C 362.948821 76.020391 364.989231 80.946376 368.620674 84.577819 
C 372.252117 88.209262 377.178102 90.249671 382.313738 90.249671 
z
" clip-path="url(#p365ea3a446)" style="fill: #d62728; fill-opacity: 0.9; stroke: #333333; stroke-opacity: 0.9"/>
    <path d="M 648.940165 276.257764 
C 651.36138 276.257764 653.683754 275.295805 655.395812 273.583748 
C 657.10787 271.87169 658.069828 269.549316 658.069828 267.128101 
C 658.069828 264.706886 657.10787 262.384512 655.395812 260.672454 
C 653.683754 258.960397 651.36138 257.998438 648.940165 257.998438 
C 646.51895 257.998438 644.196576 258.960397 642.484519 260.672454 
C 640.772461 262.384512 639.810502 264.706886 639.810502 267.128101 
C 639.810502 269.549316 640.772461 271.87169 642.484519 273.583748 
C 644.196576 275.295805 646.51895 276.257764 648.940165 276.257764 
z
" clip-path="url(#p365ea3a446)" style="fill: #a8d5ba; fill-opacity: 0.9; stroke: #333333; stroke-opacity: 0.9"/>
    <path d="M 178.065524 493.602212 
C 180.396167 493.602212 182.631667 492.676238 184.27968 491.028225 
C 185.927693 489.380211 186.853668 487.144712 186.853668 484.814069 
C 186.853668 482.483426 185.927693 480.247926 184.27968 478.599913 
C 182.631667 476.9519 180.396167 476.025926 178.065524 476.025926 
C 175.734882 476.025926 173.499382 476.9519 171.851369 478.599913 
C 170.203355 480.247926 169.277381 482.483426 169.277381 484.814069 
C 169.277381 487.144712 170.203355 489.380211 171.851369 491.028225 
C 173.499382 492.676238 175.734882 493.602212 178.065524 493.602212 
z
" clip-path="url(#p365ea3a446)" style="fill: #a8d5ba; fill-opacity: 0.9; stroke: #333333; stroke-opacity: 0.9"/>
    <path d="M 77.022824 221.651495 
C 79.356868 221.651495 81.59563 220.724169 83.246049 219.07375 
C 84.896467 217.423332 85.823793 215.18457 85.823793 212.850525 
C 85.823793 210.516481 84.896467 208.277719 83.246049 206.6273 
C 81.59563 204.976881 79.356868 204.049556 77.022824 204.049556 
C 74.688779 204.049556 72.450017 204.976881 70.799598 206.6273 
C 69.14918 208.277719 68.221854 210.516481 68.221854 212.850525 
C 68.221854 215.18457 69.14918 217.423332 70.799598 219.07375 
C 72.450017 220.724169 74.688779 221.651495 77.022824 221.651495 
z
" clip-path="url(#p365ea3a446)" style="fill: #a8d5ba; fill-opacity: 0.9; stroke: #333333; stroke-opacity: 0.9"/>
    <path d="M 559.763996 148.933617 
C 562.1876 148.933617 564.512265 147.970709 566.226012 146.256963 
C 567.939758 144.543216 568.902666 142.218551 568.902666 139.794947 
C 568.902666 137.371344 567.939758 135.046679 566.226012 133.332932 
C 564.512265 131.619186 562.1876 130.656278 559.763996 130.656278 
C 557.340393 130.656278 555.015728 131.619186 553.301981 133.332932 
C 551.588235 135.046679 550.625327 137.371344 550.625327 139.794947 
C 550.625327 142.218551 551.588235 144.543216 553.301981 146.256963 
C 555.015728 147.970709 557.340393 148.933617 559.763996 148.933617 
z
" clip-path="url(#p365ea3a446)" style="fill: #a8d5ba; fill-opacity: 0.9; stroke: #333333; stroke-opacity: 0.9"/>
    <path d="M 123.517203 151.616152 
C 125.884792 151.616152 128.155729 150.675499 129.829868 149.001361 
C 131.504006 147.327223 132.444659 145.056285 132.444659 142.688696 
C 132.444659 140.321107 131.504006 138.050169 129.829868 136.376031 
C 128.155729 134.701893 125.884792 133.76124 123.517203 133.76124 
C 121.149614 133.76124 118.878676 134.701893 117.204538 136.376031 
C 115.530399 138.050169 114.589746 140.321107 114.589746 142.688696 
C 114.589746 145.056285 115.530399 147.327223 117.204538 149.001361 
C 118.878676 150.675499 121.149614 151.616152 123.517203 151.616152 
z
" clip-path="url(#p365ea3a446)" style="fill: #a8d5ba; fill-opacity: 0.9; stroke: #333333; stroke-opacity: 0.9"/>
    <path d="M 622.398939 423.823573 
C 624.991575 423.823573 627.478373 422.793508 629.311643 420.960238 
C 631.144913 419.126967 632.174979 416.64017 632.174979 414.047534 
C 632.174979 411.454898 631.144913 408.968101 629.311643 407.13483 
C 627.478373 405.30156 624.991575 404.271495 622.398939 404.271495 
C 619.806303 404.271495 617.319506 405.30156 615.486236 407.13483 
C 613.652965 408.968101 612.6229 411.454898 612.6229 414.047534 
C 612.6229 416.64017 613.652965 419.126967 615.486236 420.960238 
C 617.319506 422.793508 619.806303 423.823573 622.398939 423.823573 
z
" clip-path="url(#p365ea3a446)" style="fill: #a8d5ba; fill-opacity: 0.9; stroke: #333333; stroke-opacity: 0.9"/>
    <path d="M 113.6378 435.823318 
C 116.086966 435.823318 118.436151 434.850254 120.167973 433.118432 
C 121.899795 431.386609 122.872859 429.037425 122.872859 426.588258 
C 122.872859 424.139092 121.899795 421.789907 120.167973 420.058085 
C 118.436151 418.326263 116.086966 417.353198 113.6378 417.353198 
C 111.188633 417.353198 108.839448 418.326263 107.107626 420.058085 
C 105.375804 421.789907 104.40274 424.139092 104.40274 426.588258 
C 104.40274 429.037425 105.375804 431.386609 107.107626 433.118432 
C 108.839448 434.850254 111.188633 435.823318 113.6378 435.823318 
z
" clip-path="url(#p365ea3a446)" style="fill: #a8d5ba; fill-opacity: 0.9; stroke: #333333; stroke-opacity: 0.9"/>
    <path d="M 210.153479 130.597643 
C 212.797683 130.597643 215.333943 129.547089 217.203678 127.677355 
C 219.073413 125.80762 220.123966 123.271359 220.123966 120.627155 
C 220.123966 117.982951 219.073413 115.44669 217.203678 113.576956 
C 215.333943 111.707221 212.797683 110.656667 210.153479 110.656667 
C 207.509274 110.656667 204.973014 111.707221 203.103279 113.576956 
C 201.233544 115.44669 200.182991 117.982951 200.182991 120.627155 
C 200.182991 123.271359 201.233544 125.80762 203.103279 127.677355 
C 204.973014 129.547089 207.509274 130.597643 210.153479 130.597643 
z
" clip-path="url(#p365ea3a446)" style="fill: #a8d5ba; fill-opacity: 0.9; stroke: #333333; stroke-opacity: 0.9"/>
    <path d="M 367.074629 527.021882 
C 369.41244 527.021882 371.654815 526.09306 373.307897 524.439978 
C 374.96098 522.786896 375.889802 520.544521 375.889802 518.20671 
C 375.889802 515.868898 374.96098 513.626523 373.307897 511.973441 
C 371.654815 510.320359 369.41244 509.391537 367.074629 509.391537 
C 364.736818 509.391537 362.494443 510.320359 360.84136 511.973441 
C 359.188278 513.626523 358.259456 515.868898 358.259456 518.20671 
C 358.259456 520.544521 359.188278 522.786896 360.84136 524.439978 
C 362.494443 526.09306 364.736818 527.021882 367.074629 527.021882 
z
" clip-path="url(#p365ea3a446)" style="fill: #a8d5ba; fill-opacity: 0.9; stroke: #333333; stroke-opacity: 0.9"/>
    <path d="M 551.005711 482.251973 
C 553.340842 482.251973 555.580647 481.324216 557.231834 479.673028 
C 558.883021 478.021841 559.810779 475.782036 559.810779 473.446905 
C 559.810779 471.111774 558.883021 468.871969 557.231834 467.220782 
C 555.580647 465.569594 553.340842 464.641837 551.005711 464.641837 
C 548.670579 464.641837 546.430775 465.569594 544.779587 467.220782 
C 543.1284 468.871969 542.200643 471.111774 542.200643 473.446905 
C 542.200643 475.782036 543.1284 478.021841 544.779587 479.673028 
C 546.430775 481.324216 548.670579 482.251973 551.005711 482.251973 
z
" clip-path="url(#p365ea3a446)" style="fill: #a8d5ba; fill-opacity: 0.9; stroke: #333333; stroke-opacity: 0.9"/>
    <path d="M 81.766095 366.941809 
C 84.204293 366.941809 86.542957 365.973102 88.267024 364.249036 
C 89.99109 362.524969 90.959797 360.186305 90.959797 357.748107 
C 90.959797 355.309909 89.99109 352.971244 88.267024 351.247178 
C 86.542957 349.523111 84.204293 348.554405 81.766095 348.554405 
C 79.327896 348.554405 76.989232 349.523111 75.265166 351.247178 
C 73.541099 352.971244 72.572393 355.309909 72.572393 357.748107 
C 72.572393 360.186305 73.541099 362.524969 75.265166 364.249036 
C 76.989232 365.973102 79.327896 366.941809 81.766095 366.941809 
z
" clip-path="url(#p365ea3a446)" style="fill: #a8d5ba; fill-opacity: 0.9; stroke: #333333; stroke-opacity: 0.9"/>
    <path d="M 477.430731 106.404398 
C 479.787294 106.404398 482.047655 105.468126 483.713996 103.801785 
C 485.380337 102.135443 486.316609 99.875082 486.316609 97.51852 
C 486.316609 95.161958 485.380337 92.901597 483.713996 91.235255 
C 482.047655 89.568914 479.787294 88.632642 477.430731 88.632642 
C 475.074169 88.632642 472.813808 89.568914 471.147466 91.235255 
C 469.481125 92.901597 468.544853 95.161958 468.544853 97.51852 
C 468.544853 99.875082 469.481125 102.135443 471.147466 103.801785 
C 472.813808 105.468126 475.074169 106.404398 477.430731 106.404398 
z
" clip-path="url(#p365ea3a446)" style="fill: #a8d5ba; fill-opacity: 0.9; stroke: #333333; stroke-opacity: 0.9"/>
    <path d="M 68.179835 295.055765 
C 70.637243 295.055765 72.994333 294.079426 74.731983 292.341776 
C 76.469633 290.604126 77.445972 288.247036 77.445972 285.789628 
C 77.445972 283.332219 76.469633 280.975129 74.731983 279.237479 
C 72.994333 277.499829 70.637243 276.523491 68.179835 276.523491 
C 65.722426 276.523491 63.365336 277.499829 61.627686 279.237479 
C 59.890036 280.975129 58.913698 283.332219 58.913698 285.789628 
C 58.913698 288.247036 59.890036 290.604126 61.627686 292.341776 
C 63.365336 294.079426 65.722426 295.055765 68.179835 295.055765 
z
" clip-path="url(#p365ea3a446)" style="fill: #a8d5ba; fill-opacity: 0.9; stroke: #333333; stroke-opacity: 0.9"/>
    <path d="M 464.631875 525.473271 
C 467.052367 525.473271 469.374047 524.5116 471.085593 522.800054 
C 472.797139 521.088507 473.758811 518.766827 473.758811 516.346336 
C 473.758811 513.925844 472.797139 511.604164 471.085593 509.892618 
C 469.374047 508.181072 467.052367 507.2194 464.631875 507.2194 
C 462.211384 507.2194 459.889703 508.181072 458.178157 509.892618 
C 456.466611 511.604164 455.50494 513.925844 455.50494 516.346336 
C 455.50494 518.766827 456.466611 521.088507 458.178157 522.800054 
C 459.889703 524.5116 462.211384 525.473271 464.631875 525.473271 
z
" clip-path="url(#p365ea3a446)" style="fill: #a8d5ba; fill-opacity: 0.9; stroke: #333333; stroke-opacity: 0.9"/>
    <path d="M 638.273419 350.115913 
C 640.827334 350.115913 643.27699 349.101232 645.082881 347.295342 
C 646.888771 345.489452 647.903452 343.039795 647.903452 340.48588 
C 647.903452 337.931965 646.888771 335.482309 645.082881 333.676418 
C 643.27699 331.870528 640.827334 330.855847 638.273419 330.855847 
C 635.719504 330.855847 633.269847 331.870528 631.463957 333.676418 
C 629.658067 335.482309 628.643386 337.931965 628.643386 340.48588 
C 628.643386 343.039795 629.658067 345.489452 631.463957 347.295342 
C 633.269847 349.101232 635.719504 350.115913 638.273419 350.115913 
z
" clip-path="url(#p365ea3a446)" style="fill: #a8d5ba; fill-opacity: 0.9; stroke: #333333; stroke-opacity: 0.9"/>
    <path d="M 276.337744 84.747656 
C 278.664987 84.747656 280.897225 83.823033 282.542834 82.177424 
C 284.188443 80.531814 285.113067 78.299576 285.113067 75.972333 
C 285.113067 73.64509 284.188443 71.412852 282.542834 69.767243 
C 280.897225 68.121634 278.664987 67.19701 276.337744 67.19701 
C 274.010501 67.19701 271.778263 68.121634 270.132654 69.767243 
C 268.487044 71.412852 267.562421 73.64509 267.562421 75.972333 
C 267.562421 78.299576 268.487044 80.531814 270.132654 82.177424 
C 271.778263 83.823033 274.010501 84.747656 276.337744 84.747656 
z
" clip-path="url(#p365ea3a446)" style="fill: #a8d5ba; fill-opacity: 0.9; stroke: #333333; stroke-opacity: 0.9"/>
    <path d="M 634.802986 200.215337 
C 637.232022 200.215337 639.561897 199.250271 641.279484 197.532683 
C 642.997072 195.815096 643.962138 193.48522 643.962138 191.056185 
C 643.962138 188.62715 642.997072 186.297274 641.279484 184.579687 
C 639.561897 182.8621 637.232022 181.897034 634.802986 181.897034 
C 632.373951 181.897034 630.044076 182.8621 628.326488 184.579687 
C 626.608901 186.297274 625.643835 188.62715 625.643835 191.056185 
C 625.643835 193.48522 626.608901 195.815096 628.326488 197.532683 
C 630.044076 199.250271 632.373951 200.215337 634.802986 200.215337 
z
" clip-path="url(#p365ea3a446)" style="fill: #a8d5ba; fill-opacity: 0.9; stroke: #333333; stroke-opacity: 0.9"/>
    <path d="M 269.220411 527.723695 
C 271.546991 527.723695 273.778594 526.799335 275.423735 525.154194 
C 277.068875 523.509053 277.993236 521.277451 277.993236 518.95087 
C 277.993236 516.62429 277.068875 514.392687 275.423735 512.747547 
C 273.778594 511.102406 271.546991 510.178046 269.220411 510.178046 
C 266.893831 510.178046 264.662228 511.102406 263.017087 512.747547 
C 261.371946 514.392687 260.447586 516.62429 260.447586 518.95087 
C 260.447586 521.277451 261.371946 523.509053 263.017087 525.154194 
C 264.662228 526.799335 266.893831 527.723695 269.220411 527.723695 
z
" clip-path="url(#p365ea3a446)" style="fill: #a8d5ba; fill-opacity: 0.9; stroke: #333333; stroke-opacity: 0.9"/>
   </g>
   <g id="text_19">
    <g clip-path="url(#p365ea3a446)">
     <!-- Price -->
     <g transform="translate(368.113738 73.64413)scale(0.1 -0.1)">
      <defs>
       <path id="DejaVuSans-Bold-50" d="M 588 4666 
L 2584 4666 
Q 3475 4666 3951 4270 
Q 4428 3875 4428 3144 
Q 4428 2409 3951 2014 
Q 3475 1619 2584 1619 
L 1791 1619 
L 1791 0 
L 588 0 
L 588 4666 
z
M 1791 3794 
L 1791 2491 
L 2456 2491 
Q 2806 2491 2997 2661 
Q 3188 2831 3188 3144 
Q 3188 3456 2997 3625 
Q 2806 3794 2456 3794 
L 1791 3794 
z
" transform="scale(0.015625)"/>
       <path id="DejaVuSans-Bold-72" d="M 3138 2547 
Q 2991 2616 2845 2648 
Q 2700 2681 2553 2681 
Q 2122 2681 1889 2404 
Q 1656 2128 1656 1613 
L 1656 0 
L 538 0 
L 538 3500 
L 1656 3500 
L 1656 2925 
Q 1872 3269 2151 3426 
Q 2431 3584 2822 3584 
Q 2878 3584 2943 3579 
Q 3009 3575 3134 3559 
L 3138 2547 
z
" transform="scale(0.015625)"/>
       <path id="DejaVuSans-Bold-69" d="M 538 3500 
L 1656 3500 
L 1656 0 
L 538 0 
L 538 3500 
z
M 538 4863 
L 1656 4863 
L 1656 3950 
L 538 3950 
L 538 4863 
z
" transform="scale(0.015625)"/>
       <path id="DejaVuSans-Bold-63" d="M 3366 3391 
L 3366 2478 
Q 3138 2634 2908 2709 
Q 2678 2784 2431 2784 
Q 1963 2784 1702 2511 
Q 1441 2238 1441 1747 
Q 1441 1256 1702 982 
Q 1963 709 2431 709 
Q 2694 709 2930 787 
Q 3166 866 3366 1019 
L 3366 103 
Q 3103 6 2833 -42 
Q 2563 -91 2291 -91 
Q 1344 -91 809 395 
Q 275 881 275 1747 
Q 275 2613 809 3098 
Q 1344 3584 2291 3584 
Q 2566 3584 2833 3536 
Q 3100 3488 3366 3391 
z
" transform="scale(0.015625)"/>
       <path id="DejaVuSans-Bold-65" d="M 4031 1759 
L 4031 1441 
L 1416 1441 
Q 1456 1047 1700 850 
Q 1944 653 2381 653 
Q 2734 653 3104 758 
Q 3475 863 3866 1075 
L 3866 213 
Q 3469 63 3072 -14 
Q 2675 -91 2278 -91 
Q 1328 -91 801 392 
Q 275 875 275 1747 
Q 275 2603 792 3093 
Q 1309 3584 2216 3584 
Q 3041 3584 3536 3087 
Q 4031 2591 4031 1759 
z
M 2881 2131 
Q 2881 2450 2695 2645 
Q 2509 2841 2209 2841 
Q 1884 2841 1681 2658 
Q 1478 2475 1428 2131 
L 2881 2131 
z
" transform="scale(0.015625)"/>
      </defs>
      <use xlink:href="#DejaVuSans-Bold-50"/>
      <use xlink:href="#DejaVuSans-Bold-72" x="73.291016"/>
      <use xlink:href="#DejaVuSans-Bold-69" x="122.607422"/>
      <use xlink:href="#DejaVuSans-Bold-63" x="156.884766"/>
      <use xlink:href="#DejaVuSans-Bold-65" x="216.162109"/>
     </g>
    </g>
   </g>
   <g id="text_20">
    <g clip-path="url(#p365ea3a446)">
     <!-- Lignite -->
     <g transform="translate(629.406572 269.848414)scale(0.1 -0.1)">
      <defs>
       <path id="DejaVuSans-Bold-4c" d="M 588 4666 
L 1791 4666 
L 1791 909 
L 3903 909 
L 3903 0 
L 588 0 
L 588 4666 
z
" transform="scale(0.015625)"/>
       <path id="DejaVuSans-Bold-67" d="M 2919 594 
Q 2688 288 2409 144 
Q 2131 0 1766 0 
Q 1125 0 706 504 
Q 288 1009 288 1791 
Q 288 2575 706 3076 
Q 1125 3578 1766 3578 
Q 2131 3578 2409 3434 
Q 2688 3291 2919 2981 
L 2919 3500 
L 4044 3500 
L 4044 353 
Q 4044 -491 3511 -936 
Q 2978 -1381 1966 -1381 
Q 1638 -1381 1331 -1331 
Q 1025 -1281 716 -1178 
L 716 -306 
Q 1009 -475 1290 -558 
Q 1572 -641 1856 -641 
Q 2406 -641 2662 -400 
Q 2919 -159 2919 353 
L 2919 594 
z
M 2181 2772 
Q 1834 2772 1640 2515 
Q 1447 2259 1447 1791 
Q 1447 1309 1634 1061 
Q 1822 813 2181 813 
Q 2531 813 2725 1069 
Q 2919 1325 2919 1791 
Q 2919 2259 2725 2515 
Q 2531 2772 2181 2772 
z
" transform="scale(0.015625)"/>
       <path id="DejaVuSans-Bold-6e" d="M 4056 2131 
L 4056 0 
L 2931 0 
L 2931 347 
L 2931 1631 
Q 2931 2084 2911 2256 
Q 2891 2428 2841 2509 
Q 2775 2619 2662 2680 
Q 2550 2741 2406 2741 
Q 2056 2741 1856 2470 
Q 1656 2200 1656 1722 
L 1656 0 
L 538 0 
L 538 3500 
L 1656 3500 
L 1656 2988 
Q 1909 3294 2193 3439 
Q 2478 3584 2822 3584 
Q 3428 3584 3742 3212 
Q 4056 2841 4056 2131 
z
" transform="scale(0.015625)"/>
       <path id="DejaVuSans-Bold-74" d="M 1759 4494 
L 1759 3500 
L 2913 3500 
L 2913 2700 
L 1759 2700 
L 1759 1216 
Q 1759 972 1856 886 
Q 1953 800 2241 800 
L 2816 800 
L 2816 0 
L 1856 0 
Q 1194 0 917 276 
Q 641 553 641 1216 
L 641 2700 
L 84 2700 
L 84 3500 
L 641 3500 
L 641 4494 
L 1759 4494 
z
" transform="scale(0.015625)"/>
      </defs>
      <use xlink:href="#DejaVuSans-Bold-4c"/>
      <use xlink:href="#DejaVuSans-Bold-69" x="63.720703"/>
      <use xlink:href="#DejaVuSans-Bold-67" x="97.998047"/>
      <use xlink:href="#DejaVuSans-Bold-6e" x="169.580078"/>
      <use xlink:href="#DejaVuSans-Bold-69" x="240.771484"/>
      <use xlink:href="#DejaVuSans-Bold-74" x="275.048828"/>
      <use xlink:href="#DejaVuSans-Bold-65" x="322.851562"/>
     </g>
    </g>
   </g>
   <g id="text_21">
    <g clip-path="url(#p365ea3a446)">
     <!-- Gas -->
     <g transform="translate(167.611618 487.573444)scale(0.1 -0.1)">
      <defs>
       <path id="DejaVuSans-Bold-47" d="M 4781 347 
Q 4331 128 3847 18 
Q 3363 -91 2847 -91 
Q 1681 -91 1000 561 
Q 319 1213 319 2328 
Q 319 3456 1012 4103 
Q 1706 4750 2913 4750 
Q 3378 4750 3804 4662 
Q 4231 4575 4609 4403 
L 4609 3438 
Q 4219 3659 3833 3768 
Q 3447 3878 3059 3878 
Q 2341 3878 1952 3476 
Q 1563 3075 1563 2328 
Q 1563 1588 1938 1184 
Q 2313 781 3003 781 
Q 3191 781 3352 804 
Q 3513 828 3641 878 
L 3641 1784 
L 2906 1784 
L 2906 2591 
L 4781 2591 
L 4781 347 
z
" transform="scale(0.015625)"/>
       <path id="DejaVuSans-Bold-61" d="M 2106 1575 
Q 1756 1575 1579 1456 
Q 1403 1338 1403 1106 
Q 1403 894 1545 773 
Q 1688 653 1941 653 
Q 2256 653 2472 879 
Q 2688 1106 2688 1447 
L 2688 1575 
L 2106 1575 
z
M 3816 1997 
L 3816 0 
L 2688 0 
L 2688 519 
Q 2463 200 2181 54 
Q 1900 -91 1497 -91 
Q 953 -91 614 226 
Q 275 544 275 1050 
Q 275 1666 698 1953 
Q 1122 2241 2028 2241 
L 2688 2241 
L 2688 2328 
Q 2688 2594 2478 2717 
Q 2269 2841 1825 2841 
Q 1466 2841 1156 2769 
Q 847 2697 581 2553 
L 581 3406 
Q 941 3494 1303 3539 
Q 1666 3584 2028 3584 
Q 2975 3584 3395 3211 
Q 3816 2838 3816 1997 
z
" transform="scale(0.015625)"/>
       <path id="DejaVuSans-Bold-73" d="M 3272 3391 
L 3272 2541 
Q 2913 2691 2578 2766 
Q 2244 2841 1947 2841 
Q 1628 2841 1473 2761 
Q 1319 2681 1319 2516 
Q 1319 2381 1436 2309 
Q 1553 2238 1856 2203 
L 2053 2175 
Q 2913 2066 3209 1816 
Q 3506 1566 3506 1031 
Q 3506 472 3093 190 
Q 2681 -91 1863 -91 
Q 1516 -91 1145 -36 
Q 775 19 384 128 
L 384 978 
Q 719 816 1070 734 
Q 1422 653 1784 653 
Q 2113 653 2278 743 
Q 2444 834 2444 1013 
Q 2444 1163 2330 1236 
Q 2216 1309 1875 1350 
L 1678 1375 
Q 931 1469 631 1722 
Q 331 1975 331 2491 
Q 331 3047 712 3315 
Q 1094 3584 1881 3584 
Q 2191 3584 2531 3537 
Q 2872 3491 3272 3391 
z
" transform="scale(0.015625)"/>
      </defs>
      <use xlink:href="#DejaVuSans-Bold-47"/>
      <use xlink:href="#DejaVuSans-Bold-61" x="82.080078"/>
      <use xlink:href="#DejaVuSans-Bold-73" x="149.560547"/>
     </g>
    </g>
   </g>
   <g id="text_22">
    <g clip-path="url(#p365ea3a446)">
     <!-- Hard Coal -->
     <g transform="translate(49.486105 215.6099)scale(0.1 -0.1)">
      <defs>
       <path id="DejaVuSans-Bold-48" d="M 588 4666 
L 1791 4666 
L 1791 2888 
L 3566 2888 
L 3566 4666 
L 4769 4666 
L 4769 0 
L 3566 0 
L 3566 1978 
L 1791 1978 
L 1791 0 
L 588 0 
L 588 4666 
z
" transform="scale(0.015625)"/>
       <path id="DejaVuSans-Bold-64" d="M 2919 2988 
L 2919 4863 
L 4044 4863 
L 4044 0 
L 2919 0 
L 2919 506 
Q 2688 197 2409 53 
Q 2131 -91 1766 -91 
Q 1119 -91 703 423 
Q 288 938 288 1747 
Q 288 2556 703 3070 
Q 1119 3584 1766 3584 
Q 2128 3584 2408 3439 
Q 2688 3294 2919 2988 
z
M 2181 722 
Q 2541 722 2730 984 
Q 2919 1247 2919 1747 
Q 2919 2247 2730 2509 
Q 2541 2772 2181 2772 
Q 1825 2772 1636 2509 
Q 1447 2247 1447 1747 
Q 1447 1247 1636 984 
Q 1825 722 2181 722 
z
" transform="scale(0.015625)"/>
       <path id="DejaVuSans-Bold-20" transform="scale(0.015625)"/>
       <path id="DejaVuSans-Bold-43" d="M 4288 256 
Q 3956 84 3597 -3 
Q 3238 -91 2847 -91 
Q 1681 -91 1000 561 
Q 319 1213 319 2328 
Q 319 3447 1000 4098 
Q 1681 4750 2847 4750 
Q 3238 4750 3597 4662 
Q 3956 4575 4288 4403 
L 4288 3438 
Q 3953 3666 3628 3772 
Q 3303 3878 2944 3878 
Q 2300 3878 1931 3465 
Q 1563 3053 1563 2328 
Q 1563 1606 1931 1193 
Q 2300 781 2944 781 
Q 3303 781 3628 887 
Q 3953 994 4288 1222 
L 4288 256 
z
" transform="scale(0.015625)"/>
       <path id="DejaVuSans-Bold-6f" d="M 2203 2784 
Q 1831 2784 1636 2517 
Q 1441 2250 1441 1747 
Q 1441 1244 1636 976 
Q 1831 709 2203 709 
Q 2569 709 2762 976 
Q 2956 1244 2956 1747 
Q 2956 2250 2762 2517 
Q 2569 2784 2203 2784 
z
M 2203 3584 
Q 3106 3584 3614 3096 
Q 4122 2609 4122 1747 
Q 4122 884 3614 396 
Q 3106 -91 2203 -91 
Q 1297 -91 786 396 
Q 275 884 275 1747 
Q 275 2609 786 3096 
Q 1297 3584 2203 3584 
z
" transform="scale(0.015625)"/>
       <path id="DejaVuSans-Bold-6c" d="M 538 4863 
L 1656 4863 
L 1656 0 
L 538 0 
L 538 4863 
z
" transform="scale(0.015625)"/>
      </defs>
      <use xlink:href="#DejaVuSans-Bold-48"/>
      <use xlink:href="#DejaVuSans-Bold-61" x="83.691406"/>
      <use xlink:href="#DejaVuSans-Bold-72" x="151.171875"/>
      <use xlink:href="#DejaVuSans-Bold-64" x="200.488281"/>
      <use xlink:href="#DejaVuSans-Bold-20" x="272.070312"/>
      <use xlink:href="#DejaVuSans-Bold-43" x="306.884766"/>
      <use xlink:href="#DejaVuSans-Bold-6f" x="380.273438"/>
      <use xlink:href="#DejaVuSans-Bold-61" x="448.974609"/>
      <use xlink:href="#DejaVuSans-Bold-6c" x="516.455078"/>
     </g>
    </g>
   </g>
   <g id="text_23">
    <g clip-path="url(#p365ea3a446)">
     <!-- Hydro Pumped -->
     <g transform="translate(518.11634 142.51526)scale(0.1 -0.1)">
      <defs>
       <path id="DejaVuSans-Bold-79" d="M 78 3500 
L 1197 3500 
L 2138 1125 
L 2938 3500 
L 4056 3500 
L 2584 -331 
Q 2363 -916 2067 -1148 
Q 1772 -1381 1288 -1381 
L 641 -1381 
L 641 -647 
L 991 -647 
Q 1275 -647 1404 -556 
Q 1534 -466 1606 -231 
L 1638 -134 
L 78 3500 
z
" transform="scale(0.015625)"/>
       <path id="DejaVuSans-Bold-75" d="M 500 1363 
L 500 3500 
L 1625 3500 
L 1625 3150 
Q 1625 2866 1622 2436 
Q 1619 2006 1619 1863 
Q 1619 1441 1641 1255 
Q 1663 1069 1716 984 
Q 1784 875 1895 815 
Q 2006 756 2150 756 
Q 2500 756 2700 1025 
Q 2900 1294 2900 1772 
L 2900 3500 
L 4019 3500 
L 4019 0 
L 2900 0 
L 2900 506 
Q 2647 200 2364 54 
Q 2081 -91 1741 -91 
Q 1134 -91 817 281 
Q 500 653 500 1363 
z
" transform="scale(0.015625)"/>
       <path id="DejaVuSans-Bold-6d" d="M 3781 2919 
Q 3994 3244 4286 3414 
Q 4578 3584 4928 3584 
Q 5531 3584 5847 3212 
Q 6163 2841 6163 2131 
L 6163 0 
L 5038 0 
L 5038 1825 
Q 5041 1866 5042 1909 
Q 5044 1953 5044 2034 
Q 5044 2406 4934 2573 
Q 4825 2741 4581 2741 
Q 4263 2741 4089 2478 
Q 3916 2216 3909 1719 
L 3909 0 
L 2784 0 
L 2784 1825 
Q 2784 2406 2684 2573 
Q 2584 2741 2328 2741 
Q 2006 2741 1831 2477 
Q 1656 2213 1656 1722 
L 1656 0 
L 531 0 
L 531 3500 
L 1656 3500 
L 1656 2988 
Q 1863 3284 2130 3434 
Q 2397 3584 2719 3584 
Q 3081 3584 3359 3409 
Q 3638 3234 3781 2919 
z
" transform="scale(0.015625)"/>
       <path id="DejaVuSans-Bold-70" d="M 1656 506 
L 1656 -1331 
L 538 -1331 
L 538 3500 
L 1656 3500 
L 1656 2988 
Q 1888 3294 2169 3439 
Q 2450 3584 2816 3584 
Q 3463 3584 3878 3070 
Q 4294 2556 4294 1747 
Q 4294 938 3878 423 
Q 3463 -91 2816 -91 
Q 2450 -91 2169 54 
Q 1888 200 1656 506 
z
M 2400 2772 
Q 2041 2772 1848 2508 
Q 1656 2244 1656 1747 
Q 1656 1250 1848 986 
Q 2041 722 2400 722 
Q 2759 722 2948 984 
Q 3138 1247 3138 1747 
Q 3138 2247 2948 2509 
Q 2759 2772 2400 2772 
z
" transform="scale(0.015625)"/>
      </defs>
      <use xlink:href="#DejaVuSans-Bold-48"/>
      <use xlink:href="#DejaVuSans-Bold-79" x="83.691406"/>
      <use xlink:href="#DejaVuSans-Bold-64" x="148.876953"/>
      <use xlink:href="#DejaVuSans-Bold-72" x="220.458984"/>
      <use xlink:href="#DejaVuSans-Bold-6f" x="269.775391"/>
      <use xlink:href="#DejaVuSans-Bold-20" x="338.476562"/>
      <use xlink:href="#DejaVuSans-Bold-50" x="373.291016"/>
      <use xlink:href="#DejaVuSans-Bold-75" x="446.582031"/>
      <use xlink:href="#DejaVuSans-Bold-6d" x="517.773438"/>
      <use xlink:href="#DejaVuSans-Bold-70" x="621.972656"/>
      <use xlink:href="#DejaVuSans-Bold-65" x="693.554688"/>
      <use xlink:href="#DejaVuSans-Bold-64" x="761.376953"/>
     </g>
    </g>
   </g>
   <g id="text_24">
    <g clip-path="url(#p365ea3a446)">
     <!-- Nuclear -->
     <g transform="translate(101.864078 145.448071)scale(0.1 -0.1)">
      <defs>
       <path id="DejaVuSans-Bold-4e" d="M 588 4666 
L 1931 4666 
L 3628 1466 
L 3628 4666 
L 4769 4666 
L 4769 0 
L 3425 0 
L 1728 3200 
L 1728 0 
L 588 0 
L 588 4666 
z
" transform="scale(0.015625)"/>
      </defs>
      <use xlink:href="#DejaVuSans-Bold-4e"/>
      <use xlink:href="#DejaVuSans-Bold-75" x="83.691406"/>
      <use xlink:href="#DejaVuSans-Bold-63" x="154.882812"/>
      <use xlink:href="#DejaVuSans-Bold-6c" x="214.160156"/>
      <use xlink:href="#DejaVuSans-Bold-65" x="248.4375"/>
      <use xlink:href="#DejaVuSans-Bold-61" x="316.259766"/>
      <use xlink:href="#DejaVuSans-Bold-72" x="383.740234"/>
     </g>
    </g>
   </g>
   <g id="text_25">
    <g clip-path="url(#p365ea3a446)">
     <!-- Solar -->
     <g transform="translate(607.809096 416.806909)scale(0.1 -0.1)">
      <defs>
       <path id="DejaVuSans-Bold-53" d="M 3834 4519 
L 3834 3531 
Q 3450 3703 3084 3790 
Q 2719 3878 2394 3878 
Q 1963 3878 1756 3759 
Q 1550 3641 1550 3391 
Q 1550 3203 1689 3098 
Q 1828 2994 2194 2919 
L 2706 2816 
Q 3484 2659 3812 2340 
Q 4141 2022 4141 1434 
Q 4141 663 3683 286 
Q 3225 -91 2284 -91 
Q 1841 -91 1394 -6 
Q 947 78 500 244 
L 500 1259 
Q 947 1022 1364 901 
Q 1781 781 2169 781 
Q 2563 781 2772 912 
Q 2981 1044 2981 1288 
Q 2981 1506 2839 1625 
Q 2697 1744 2272 1838 
L 1806 1941 
Q 1106 2091 782 2419 
Q 459 2747 459 3303 
Q 459 4000 909 4375 
Q 1359 4750 2203 4750 
Q 2588 4750 2994 4692 
Q 3400 4634 3834 4519 
z
" transform="scale(0.015625)"/>
      </defs>
      <use xlink:href="#DejaVuSans-Bold-53"/>
      <use xlink:href="#DejaVuSans-Bold-6f" x="72.021484"/>
      <use xlink:href="#DejaVuSans-Bold-6c" x="140.722656"/>
      <use xlink:href="#DejaVuSans-Bold-61" x="175"/>
      <use xlink:href="#DejaVuSans-Bold-72" x="242.480469"/>
     </g>
    </g>
   </g>
   <g id="text_26">
    <g clip-path="url(#p365ea3a446)">
     <!-- Wind Onshore -->
     <g transform="translate(73.892487 429.347633)scale(0.1 -0.1)">
      <defs>
       <path id="DejaVuSans-Bold-57" d="M 191 4666 
L 1344 4666 
L 2150 1275 
L 2950 4666 
L 4109 4666 
L 4909 1275 
L 5716 4666 
L 6859 4666 
L 5759 0 
L 4372 0 
L 3525 3547 
L 2688 0 
L 1300 0 
L 191 4666 
z
" transform="scale(0.015625)"/>
       <path id="DejaVuSans-Bold-4f" d="M 2719 3878 
Q 2169 3878 1866 3472 
Q 1563 3066 1563 2328 
Q 1563 1594 1866 1187 
Q 2169 781 2719 781 
Q 3272 781 3575 1187 
Q 3878 1594 3878 2328 
Q 3878 3066 3575 3472 
Q 3272 3878 2719 3878 
z
M 2719 4750 
Q 3844 4750 4481 4106 
Q 5119 3463 5119 2328 
Q 5119 1197 4481 553 
Q 3844 -91 2719 -91 
Q 1597 -91 958 553 
Q 319 1197 319 2328 
Q 319 3463 958 4106 
Q 1597 4750 2719 4750 
z
" transform="scale(0.015625)"/>
       <path id="DejaVuSans-Bold-68" d="M 4056 2131 
L 4056 0 
L 2931 0 
L 2931 347 
L 2931 1625 
Q 2931 2084 2911 2256 
Q 2891 2428 2841 2509 
Q 2775 2619 2662 2680 
Q 2550 2741 2406 2741 
Q 2056 2741 1856 2470 
Q 1656 2200 1656 1722 
L 1656 0 
L 538 0 
L 538 4863 
L 1656 4863 
L 1656 2988 
Q 1909 3294 2193 3439 
Q 2478 3584 2822 3584 
Q 3428 3584 3742 3212 
Q 4056 2841 4056 2131 
z
" transform="scale(0.015625)"/>
      </defs>
      <use xlink:href="#DejaVuSans-Bold-57"/>
      <use xlink:href="#DejaVuSans-Bold-69" x="110.302734"/>
      <use xlink:href="#DejaVuSans-Bold-6e" x="144.580078"/>
      <use xlink:href="#DejaVuSans-Bold-64" x="215.771484"/>
      <use xlink:href="#DejaVuSans-Bold-20" x="287.353516"/>
      <use xlink:href="#DejaVuSans-Bold-4f" x="322.167969"/>
      <use xlink:href="#DejaVuSans-Bold-6e" x="407.177734"/>
      <use xlink:href="#DejaVuSans-Bold-73" x="478.369141"/>
      <use xlink:href="#DejaVuSans-Bold-68" x="537.890625"/>
      <use xlink:href="#DejaVuSans-Bold-6f" x="609.082031"/>
      <use xlink:href="#DejaVuSans-Bold-72" x="677.783203"/>
      <use xlink:href="#DejaVuSans-Bold-65" x="727.099609"/>
     </g>
    </g>
   </g>
   <g id="text_27">
    <g clip-path="url(#p365ea3a446)">
     <!-- Wind Offshore -->
     <g transform="translate(169.617541 123.38653)scale(0.1 -0.1)">
      <defs>
       <path id="DejaVuSans-Bold-66" d="M 2841 4863 
L 2841 4128 
L 2222 4128 
Q 1984 4128 1890 4042 
Q 1797 3956 1797 3744 
L 1797 3500 
L 2753 3500 
L 2753 2700 
L 1797 2700 
L 1797 0 
L 678 0 
L 678 2700 
L 122 2700 
L 122 3500 
L 678 3500 
L 678 3744 
Q 678 4316 997 4589 
Q 1316 4863 1984 4863 
L 2841 4863 
z
" transform="scale(0.015625)"/>
      </defs>
      <use xlink:href="#DejaVuSans-Bold-57"/>
      <use xlink:href="#DejaVuSans-Bold-69" x="110.302734"/>
      <use xlink:href="#DejaVuSans-Bold-6e" x="144.580078"/>
      <use xlink:href="#DejaVuSans-Bold-64" x="215.771484"/>
      <use xlink:href="#DejaVuSans-Bold-20" x="287.353516"/>
      <use xlink:href="#DejaVuSans-Bold-4f" x="322.167969"/>
      <use xlink:href="#DejaVuSans-Bold-66" x="407.177734"/>
      <use xlink:href="#DejaVuSans-Bold-66" x="450.683594"/>
      <use xlink:href="#DejaVuSans-Bold-73" x="494.189453"/>
      <use xlink:href="#DejaVuSans-Bold-68" x="553.710938"/>
      <use xlink:href="#DejaVuSans-Bold-6f" x="624.902344"/>
      <use xlink:href="#DejaVuSans-Bold-72" x="693.603516"/>
      <use xlink:href="#DejaVuSans-Bold-65" x="742.919922"/>
     </g>
    </g>
   </g>
   <g id="text_28">
    <g clip-path="url(#p365ea3a446)">
     <!-- Load -->
     <g transform="translate(353.50041 520.966085)scale(0.1 -0.1)">
      <use xlink:href="#DejaVuSans-Bold-4c"/>
      <use xlink:href="#DejaVuSans-Bold-6f" x="63.720703"/>
      <use xlink:href="#DejaVuSans-Bold-61" x="132.421875"/>
      <use xlink:href="#DejaVuSans-Bold-64" x="199.902344"/>
     </g>
    </g>
   </g>
   <g id="text_29">
    <g clip-path="url(#p365ea3a446)">
     <!-- Wind 10m -->
     <g transform="translate(522.72993 476.20628)scale(0.1 -0.1)">
      <defs>
       <path id="DejaVuSans-Bold-31" d="M 750 831 
L 1813 831 
L 1813 3847 
L 722 3622 
L 722 4441 
L 1806 4666 
L 2950 4666 
L 2950 831 
L 4013 831 
L 4013 0 
L 750 0 
L 750 831 
z
" transform="scale(0.015625)"/>
       <path id="DejaVuSans-Bold-30" d="M 2944 2338 
Q 2944 3213 2780 3570 
Q 2616 3928 2228 3928 
Q 1841 3928 1675 3570 
Q 1509 3213 1509 2338 
Q 1509 1453 1675 1090 
Q 1841 728 2228 728 
Q 2613 728 2778 1090 
Q 2944 1453 2944 2338 
z
M 4147 2328 
Q 4147 1169 3647 539 
Q 3147 -91 2228 -91 
Q 1306 -91 806 539 
Q 306 1169 306 2328 
Q 306 3491 806 4120 
Q 1306 4750 2228 4750 
Q 3147 4750 3647 4120 
Q 4147 3491 4147 2328 
z
" transform="scale(0.015625)"/>
      </defs>
      <use xlink:href="#DejaVuSans-Bold-57"/>
      <use xlink:href="#DejaVuSans-Bold-69" x="110.302734"/>
      <use xlink:href="#DejaVuSans-Bold-6e" x="144.580078"/>
      <use xlink:href="#DejaVuSans-Bold-64" x="215.771484"/>
      <use xlink:href="#DejaVuSans-Bold-20" x="287.353516"/>
      <use xlink:href="#DejaVuSans-Bold-31" x="322.167969"/>
      <use xlink:href="#DejaVuSans-Bold-30" x="391.748047"/>
      <use xlink:href="#DejaVuSans-Bold-6d" x="461.328125"/>
     </g>
    </g>
   </g>
   <g id="text_30">
    <g clip-path="url(#p365ea3a446)">
     <!-- Wind 100m -->
     <g transform="translate(50.011407 360.507482)scale(0.1 -0.1)">
      <use xlink:href="#DejaVuSans-Bold-57"/>
      <use xlink:href="#DejaVuSans-Bold-69" x="110.302734"/>
      <use xlink:href="#DejaVuSans-Bold-6e" x="144.580078"/>
      <use xlink:href="#DejaVuSans-Bold-64" x="215.771484"/>
      <use xlink:href="#DejaVuSans-Bold-20" x="287.353516"/>
      <use xlink:href="#DejaVuSans-Bold-31" x="322.167969"/>
      <use xlink:href="#DejaVuSans-Bold-30" x="391.748047"/>
      <use xlink:href="#DejaVuSans-Bold-30" x="461.328125"/>
      <use xlink:href="#DejaVuSans-Bold-6d" x="530.908203"/>
     </g>
    </g>
   </g>
   <g id="text_31">
    <g clip-path="url(#p365ea3a446)">
     <!-- Radiation -->
     <g transform="translate(450.440887 100.277895)scale(0.1 -0.1)">
      <defs>
       <path id="DejaVuSans-Bold-52" d="M 2297 2597 
Q 2675 2597 2839 2737 
Q 3003 2878 3003 3200 
Q 3003 3519 2839 3656 
Q 2675 3794 2297 3794 
L 1791 3794 
L 1791 2597 
L 2297 2597 
z
M 1791 1766 
L 1791 0 
L 588 0 
L 588 4666 
L 2425 4666 
Q 3347 4666 3776 4356 
Q 4206 4047 4206 3378 
Q 4206 2916 3982 2619 
Q 3759 2322 3309 2181 
Q 3556 2125 3751 1926 
Q 3947 1728 4147 1325 
L 4800 0 
L 3519 0 
L 2950 1159 
Q 2778 1509 2601 1637 
Q 2425 1766 2131 1766 
L 1791 1766 
z
" transform="scale(0.015625)"/>
      </defs>
      <use xlink:href="#DejaVuSans-Bold-52"/>
      <use xlink:href="#DejaVuSans-Bold-61" x="77.001953"/>
      <use xlink:href="#DejaVuSans-Bold-64" x="144.482422"/>
      <use xlink:href="#DejaVuSans-Bold-69" x="216.064453"/>
      <use xlink:href="#DejaVuSans-Bold-61" x="250.341797"/>
      <use xlink:href="#DejaVuSans-Bold-74" x="317.822266"/>
      <use xlink:href="#DejaVuSans-Bold-69" x="365.625"/>
      <use xlink:href="#DejaVuSans-Bold-6f" x="399.902344"/>
      <use xlink:href="#DejaVuSans-Bold-6e" x="468.603516"/>
     </g>
    </g>
   </g>
   <g id="text_32">
    <g clip-path="url(#p365ea3a446)">
     <!-- Cloud Cover -->
     <g transform="translate(34.261085 288.549003)scale(0.1 -0.1)">
      <defs>
       <path id="DejaVuSans-Bold-76" d="M 97 3500 
L 1216 3500 
L 2088 1081 
L 2956 3500 
L 4078 3500 
L 2700 0 
L 1472 0 
L 97 3500 
z
" transform="scale(0.015625)"/>
      </defs>
      <use xlink:href="#DejaVuSans-Bold-43"/>
      <use xlink:href="#DejaVuSans-Bold-6c" x="73.388672"/>
      <use xlink:href="#DejaVuSans-Bold-6f" x="107.666016"/>
      <use xlink:href="#DejaVuSans-Bold-75" x="176.367188"/>
      <use xlink:href="#DejaVuSans-Bold-64" x="247.558594"/>
      <use xlink:href="#DejaVuSans-Bold-20" x="319.140625"/>
      <use xlink:href="#DejaVuSans-Bold-43" x="353.955078"/>
      <use xlink:href="#DejaVuSans-Bold-6f" x="427.34375"/>
      <use xlink:href="#DejaVuSans-Bold-76" x="496.044922"/>
      <use xlink:href="#DejaVuSans-Bold-65" x="561.230469"/>
      <use xlink:href="#DejaVuSans-Bold-72" x="629.052734"/>
     </g>
    </g>
   </g>
   <g id="text_33">
    <g clip-path="url(#p365ea3a446)">
     <!-- Precipitation -->
     <g transform="translate(428.276406 519.105711)scale(0.1 -0.1)">
      <use xlink:href="#DejaVuSans-Bold-50"/>
      <use xlink:href="#DejaVuSans-Bold-72" x="73.291016"/>
      <use xlink:href="#DejaVuSans-Bold-65" x="122.607422"/>
      <use xlink:href="#DejaVuSans-Bold-63" x="190.429688"/>
      <use xlink:href="#DejaVuSans-Bold-69" x="249.707031"/>
      <use xlink:href="#DejaVuSans-Bold-70" x="283.984375"/>
      <use xlink:href="#DejaVuSans-Bold-69" x="355.566406"/>
      <use xlink:href="#DejaVuSans-Bold-74" x="389.84375"/>
      <use xlink:href="#DejaVuSans-Bold-61" x="437.646484"/>
      <use xlink:href="#DejaVuSans-Bold-74" x="505.126953"/>
      <use xlink:href="#DejaVuSans-Bold-69" x="552.929688"/>
      <use xlink:href="#DejaVuSans-Bold-6f" x="587.207031"/>
      <use xlink:href="#DejaVuSans-Bold-6e" x="655.908203"/>
     </g>
    </g>
   </g>
   <g id="text_34">
    <g clip-path="url(#p365ea3a446)">
     <!-- Flow to FR -->
     <g transform="translate(608.517169 343.245255)scale(0.1 -0.1)">
      <defs>
       <path id="DejaVuSans-Bold-46" d="M 588 4666 
L 3834 4666 
L 3834 3756 
L 1791 3756 
L 1791 2888 
L 3713 2888 
L 3713 1978 
L 1791 1978 
L 1791 0 
L 588 0 
L 588 4666 
z
" transform="scale(0.015625)"/>
       <path id="DejaVuSans-Bold-77" d="M 225 3500 
L 1313 3500 
L 1900 1088 
L 2491 3500 
L 3425 3500 
L 4013 1113 
L 4603 3500 
L 5691 3500 
L 4769 0 
L 3547 0 
L 2956 2406 
L 2369 0 
L 1147 0 
L 225 3500 
z
" transform="scale(0.015625)"/>
      </defs>
      <use xlink:href="#DejaVuSans-Bold-46"/>
      <use xlink:href="#DejaVuSans-Bold-6c" x="68.310547"/>
      <use xlink:href="#DejaVuSans-Bold-6f" x="102.587891"/>
      <use xlink:href="#DejaVuSans-Bold-77" x="171.289062"/>
      <use xlink:href="#DejaVuSans-Bold-20" x="263.671875"/>
      <use xlink:href="#DejaVuSans-Bold-74" x="298.486328"/>
      <use xlink:href="#DejaVuSans-Bold-6f" x="346.289062"/>
      <use xlink:href="#DejaVuSans-Bold-20" x="414.990234"/>
      <use xlink:href="#DejaVuSans-Bold-46" x="449.804688"/>
      <use xlink:href="#DejaVuSans-Bold-52" x="518.115234"/>
     </g>
    </g>
   </g>
   <g id="text_35">
    <g clip-path="url(#p365ea3a446)">
     <!-- Flow from FR -->
     <g transform="translate(239.120556 78.731708)scale(0.1 -0.1)">
      <use xlink:href="#DejaVuSans-Bold-46"/>
      <use xlink:href="#DejaVuSans-Bold-6c" x="68.310547"/>
      <use xlink:href="#DejaVuSans-Bold-6f" x="102.587891"/>
      <use xlink:href="#DejaVuSans-Bold-77" x="171.289062"/>
      <use xlink:href="#DejaVuSans-Bold-20" x="263.671875"/>
      <use xlink:href="#DejaVuSans-Bold-66" x="298.486328"/>
      <use xlink:href="#DejaVuSans-Bold-72" x="341.992188"/>
      <use xlink:href="#DejaVuSans-Bold-6f" x="391.308594"/>
      <use xlink:href="#DejaVuSans-Bold-6d" x="460.009766"/>
      <use xlink:href="#DejaVuSans-Bold-20" x="564.208984"/>
      <use xlink:href="#DejaVuSans-Bold-46" x="599.023438"/>
      <use xlink:href="#DejaVuSans-Bold-52" x="667.333984"/>
     </g>
    </g>
   </g>
   <g id="text_36">
    <g clip-path="url(#p365ea3a446)">
     <!-- Net Flow FR -->
     <g transform="translate(600.906111 193.81556)scale(0.1 -0.1)">
      <use xlink:href="#DejaVuSans-Bold-4e"/>
      <use xlink:href="#DejaVuSans-Bold-65" x="83.691406"/>
      <use xlink:href="#DejaVuSans-Bold-74" x="151.513672"/>
      <use xlink:href="#DejaVuSans-Bold-20" x="199.316406"/>
      <use xlink:href="#DejaVuSans-Bold-46" x="234.130859"/>
      <use xlink:href="#DejaVuSans-Bold-6c" x="302.441406"/>
      <use xlink:href="#DejaVuSans-Bold-6f" x="336.71875"/>
      <use xlink:href="#DejaVuSans-Bold-77" x="405.419922"/>
      <use xlink:href="#DejaVuSans-Bold-20" x="497.802734"/>
      <use xlink:href="#DejaVuSans-Bold-46" x="532.617188"/>
      <use xlink:href="#DejaVuSans-Bold-52" x="600.927734"/>
     </g>
    </g>
   </g>
   <g id="text_37">
    <g clip-path="url(#p365ea3a446)">
     <!-- commodity wti oil -->
     <g transform="translate(218.955567 521.671183)scale(0.1 -0.1)">
      <use xlink:href="#DejaVuSans-Bold-63"/>
      <use xlink:href="#DejaVuSans-Bold-6f" x="59.277344"/>
      <use xlink:href="#DejaVuSans-Bold-6d" x="127.978516"/>
      <use xlink:href="#DejaVuSans-Bold-6d" x="232.177734"/>
      <use xlink:href="#DejaVuSans-Bold-6f" x="336.376953"/>
      <use xlink:href="#DejaVuSans-Bold-64" x="405.078125"/>
      <use xlink:href="#DejaVuSans-Bold-69" x="476.660156"/>
      <use xlink:href="#DejaVuSans-Bold-74" x="510.9375"/>
      <use xlink:href="#DejaVuSans-Bold-79" x="558.740234"/>
      <use xlink:href="#DejaVuSans-Bold-20" x="623.925781"/>
      <use xlink:href="#DejaVuSans-Bold-77" x="658.740234"/>
      <use xlink:href="#DejaVuSans-Bold-74" x="751.123047"/>
      <use xlink:href="#DejaVuSans-Bold-69" x="798.925781"/>
      <use xlink:href="#DejaVuSans-Bold-20" x="833.203125"/>
      <use xlink:href="#DejaVuSans-Bold-6f" x="868.017578"/>
      <use xlink:href="#DejaVuSans-Bold-69" x="936.71875"/>
      <use xlink:href="#DejaVuSans-Bold-6c" x="970.996094"/>
     </g>
    </g>
   </g>
   <g id="text_38">
    <!-- Node size ∝ weighted degree -->
    <g style="fill: #808080" transform="translate(21.2544 555.154612)scale(0.07 -0.07)">
     <defs>
      <path id="DejaVuSans-Oblique-4e" d="M 1081 4666 
L 1931 4666 
L 3219 666 
L 4000 4666 
L 4616 4666 
L 3706 0 
L 2853 0 
L 1569 4025 
L 788 0 
L 172 0 
L 1081 4666 
z
" transform="scale(0.015625)"/>
      <path id="DejaVuSans-Oblique-6f" d="M 1625 -91 
Q 1009 -91 651 289 
Q 294 669 294 1325 
Q 294 1706 417 2101 
Q 541 2497 738 2766 
Q 1047 3184 1428 3384 
Q 1809 3584 2291 3584 
Q 2888 3584 3255 3212 
Q 3622 2841 3622 2241 
Q 3622 1825 3500 1412 
Q 3378 1000 3181 728 
Q 2875 309 2494 109 
Q 2113 -91 1625 -91 
z
M 891 1344 
Q 891 869 1089 633 
Q 1288 397 1691 397 
Q 2269 397 2648 901 
Q 3028 1406 3028 2181 
Q 3028 2634 2825 2865 
Q 2622 3097 2228 3097 
Q 1903 3097 1650 2945 
Q 1397 2794 1197 2484 
Q 1050 2253 970 1956 
Q 891 1659 891 1344 
z
" transform="scale(0.015625)"/>
      <path id="DejaVuSans-Oblique-64" d="M 2675 525 
Q 2444 222 2128 65 
Q 1813 -91 1428 -91 
Q 903 -91 598 267 
Q 294 625 294 1247 
Q 294 1766 478 2236 
Q 663 2706 1013 3078 
Q 1244 3325 1534 3454 
Q 1825 3584 2144 3584 
Q 2481 3584 2739 3421 
Q 2997 3259 3138 2956 
L 3513 4863 
L 4091 4863 
L 3144 0 
L 2566 0 
L 2675 525 
z
M 891 1350 
Q 891 897 1095 644 
Q 1300 391 1663 391 
Q 1931 391 2161 520 
Q 2391 650 2566 903 
Q 2750 1166 2856 1509 
Q 2963 1853 2963 2188 
Q 2963 2622 2758 2865 
Q 2553 3109 2194 3109 
Q 1922 3109 1687 2981 
Q 1453 2853 1288 2613 
Q 1106 2353 998 2009 
Q 891 1666 891 1350 
z
" transform="scale(0.015625)"/>
      <path id="DejaVuSans-Oblique-65" d="M 3078 2063 
Q 3088 2113 3092 2166 
Q 3097 2219 3097 2272 
Q 3097 2653 2873 2875 
Q 2650 3097 2266 3097 
Q 1838 3097 1509 2826 
Q 1181 2556 1013 2059 
L 3078 2063 
z
M 3578 1613 
L 903 1613 
Q 884 1494 878 1425 
Q 872 1356 872 1306 
Q 872 872 1139 634 
Q 1406 397 1894 397 
Q 2269 397 2603 481 
Q 2938 566 3225 728 
L 3116 159 
Q 2806 34 2476 -28 
Q 2147 -91 1806 -91 
Q 1078 -91 686 257 
Q 294 606 294 1247 
Q 294 1794 489 2264 
Q 684 2734 1063 3103 
Q 1306 3334 1642 3459 
Q 1978 3584 2356 3584 
Q 2950 3584 3301 3228 
Q 3653 2872 3653 2272 
Q 3653 2128 3634 1964 
Q 3616 1800 3578 1613 
z
" transform="scale(0.015625)"/>
      <path id="DejaVuSans-Oblique-20" transform="scale(0.015625)"/>
      <path id="DejaVuSans-Oblique-73" d="M 3200 3397 
L 3091 2853 
Q 2863 2978 2609 3040 
Q 2356 3103 2088 3103 
Q 1634 3103 1373 2948 
Q 1113 2794 1113 2528 
Q 1113 2219 1719 2053 
Q 1766 2041 1788 2034 
L 1972 1978 
Q 2547 1819 2739 1644 
Q 2931 1469 2931 1166 
Q 2931 609 2489 259 
Q 2047 -91 1331 -91 
Q 1053 -91 747 -37 
Q 441 16 72 128 
L 184 722 
Q 500 559 806 475 
Q 1113 391 1394 391 
Q 1816 391 2080 572 
Q 2344 753 2344 1031 
Q 2344 1331 1650 1516 
L 1591 1531 
L 1394 1581 
Q 956 1697 753 1886 
Q 550 2075 550 2369 
Q 550 2928 970 3256 
Q 1391 3584 2113 3584 
Q 2397 3584 2667 3537 
Q 2938 3491 3200 3397 
z
" transform="scale(0.015625)"/>
      <path id="DejaVuSans-Oblique-69" d="M 1172 4863 
L 1747 4863 
L 1606 4134 
L 1031 4134 
L 1172 4863 
z
M 909 3500 
L 1484 3500 
L 800 0 
L 225 0 
L 909 3500 
z
" transform="scale(0.015625)"/>
      <path id="DejaVuSans-Oblique-7a" d="M 744 3500 
L 3475 3500 
L 3372 2975 
L 738 459 
L 2913 459 
L 2822 0 
L -19 0 
L 84 525 
L 2719 3041 
L 653 3041 
L 744 3500 
z
" transform="scale(0.015625)"/>
      <path id="DejaVuSans-Oblique-221d" d="M 1647 1134 
Q 2163 1134 2472 1884 
Q 2075 2703 1647 2703 
Q 1334 2703 1175 2478 
Q 1006 2238 1006 1919 
Q 1006 1569 1175 1353 
Q 1350 1134 1647 1134 
z
M 3884 1128 
L 3884 716 
L 3644 716 
Q 3416 716 3247 809 
Q 3078 894 2916 1091 
Q 2819 1203 2666 1466 
Q 2456 1091 2272 925 
Q 2044 725 1681 725 
Q 1259 725 981 1041 
Q 688 1372 688 1919 
Q 688 2444 981 2800 
Q 1241 3116 1688 3116 
Q 1916 3116 2084 3022 
Q 2281 2919 2416 2741 
Q 2541 2581 2666 2366 
Q 2875 2741 3059 2906 
Q 3288 3106 3650 3106 
L 3884 3106 
L 3884 2697 
L 3684 2697 
Q 3222 2697 2859 1947 
Q 3256 1128 3684 1128 
L 3884 1128 
z
" transform="scale(0.015625)"/>
      <path id="DejaVuSans-Oblique-77" d="M 544 3500 
L 1113 3500 
L 1259 684 
L 2566 3500 
L 3231 3500 
L 3425 684 
L 4666 3500 
L 5241 3500 
L 3641 0 
L 2969 0 
L 2797 2900 
L 1459 0 
L 781 0 
L 544 3500 
z
" transform="scale(0.015625)"/>
      <path id="DejaVuSans-Oblique-67" d="M 3816 3500 
L 3219 434 
Q 3047 -456 2561 -893 
Q 2075 -1331 1253 -1331 
Q 950 -1331 690 -1286 
Q 431 -1241 206 -1147 
L 313 -588 
Q 525 -725 762 -790 
Q 1000 -856 1269 -856 
Q 1816 -856 2167 -557 
Q 2519 -259 2631 300 
L 2681 563 
Q 2441 288 2122 144 
Q 1803 0 1434 0 
Q 903 0 598 351 
Q 294 703 294 1319 
Q 294 1803 478 2267 
Q 663 2731 997 3091 
Q 1219 3328 1514 3456 
Q 1809 3584 2131 3584 
Q 2484 3584 2746 3420 
Q 3009 3256 3138 2956 
L 3238 3500 
L 3816 3500 
z
M 2950 2216 
Q 2950 2641 2750 2872 
Q 2550 3103 2181 3103 
Q 1953 3103 1747 3012 
Q 1541 2922 1394 2759 
Q 1156 2491 1023 2127 
Q 891 1763 891 1375 
Q 891 944 1092 712 
Q 1294 481 1672 481 
Q 2219 481 2584 976 
Q 2950 1472 2950 2216 
z
" transform="scale(0.015625)"/>
      <path id="DejaVuSans-Oblique-68" d="M 3566 2113 
L 3156 0 
L 2578 0 
L 2988 2091 
Q 3016 2238 3031 2350 
Q 3047 2463 3047 2528 
Q 3047 2791 2881 2937 
Q 2716 3084 2419 3084 
Q 1956 3084 1617 2771 
Q 1278 2459 1178 1941 
L 800 0 
L 225 0 
L 1172 4863 
L 1747 4863 
L 1375 2950 
Q 1594 3244 1934 3414 
Q 2275 3584 2650 3584 
Q 3113 3584 3367 3334 
Q 3622 3084 3622 2631 
Q 3622 2519 3608 2391 
Q 3594 2263 3566 2113 
z
" transform="scale(0.015625)"/>
      <path id="DejaVuSans-Oblique-74" d="M 2706 3500 
L 2619 3053 
L 1472 3053 
L 1100 1153 
Q 1081 1047 1072 975 
Q 1063 903 1063 863 
Q 1063 663 1183 572 
Q 1303 481 1569 481 
L 2150 481 
L 2053 0 
L 1503 0 
Q 991 0 739 200 
Q 488 400 488 806 
Q 488 878 497 964 
Q 506 1050 525 1153 
L 897 3053 
L 409 3053 
L 500 3500 
L 978 3500 
L 1172 4494 
L 1747 4494 
L 1556 3500 
L 2706 3500 
z
" transform="scale(0.015625)"/>
      <path id="DejaVuSans-Oblique-72" d="M 2853 2969 
Q 2766 3016 2653 3041 
Q 2541 3066 2413 3066 
Q 1953 3066 1609 2717 
Q 1266 2369 1153 1784 
L 800 0 
L 225 0 
L 909 3500 
L 1484 3500 
L 1375 2956 
Q 1603 3259 1920 3421 
Q 2238 3584 2597 3584 
Q 2691 3584 2781 3573 
Q 2872 3563 2963 3538 
L 2853 2969 
z
" transform="scale(0.015625)"/>
     </defs>
     <use xlink:href="#DejaVuSans-Oblique-4e"/>
     <use xlink:href="#DejaVuSans-Oblique-6f" x="74.804688"/>
     <use xlink:href="#DejaVuSans-Oblique-64" x="135.986328"/>
     <use xlink:href="#DejaVuSans-Oblique-65" x="199.462891"/>
     <use xlink:href="#DejaVuSans-Oblique-20" x="260.986328"/>
     <use xlink:href="#DejaVuSans-Oblique-73" x="292.773438"/>
     <use xlink:href="#DejaVuSans-Oblique-69" x="344.873047"/>
     <use xlink:href="#DejaVuSans-Oblique-7a" x="372.65625"/>
     <use xlink:href="#DejaVuSans-Oblique-65" x="425.146484"/>
     <use xlink:href="#DejaVuSans-Oblique-20" x="486.669922"/>
     <use xlink:href="#DejaVuSans-Oblique-221d" x="518.457031"/>
     <use xlink:href="#DejaVuSans-Oblique-20" x="589.892578"/>
     <use xlink:href="#DejaVuSans-Oblique-77" x="621.679688"/>
     <use xlink:href="#DejaVuSans-Oblique-65" x="703.466797"/>
     <use xlink:href="#DejaVuSans-Oblique-69" x="764.990234"/>
     <use xlink:href="#DejaVuSans-Oblique-67" x="792.773438"/>
     <use xlink:href="#DejaVuSans-Oblique-68" x="856.25"/>
     <use xlink:href="#DejaVuSans-Oblique-74" x="919.628906"/>
     <use xlink:href="#DejaVuSans-Oblique-65" x="958.837891"/>
     <use xlink:href="#DejaVuSans-Oblique-64" x="1020.361328"/>
     <use xlink:href="#DejaVuSans-Oblique-20" x="1083.837891"/>
     <use xlink:href="#DejaVuSans-Oblique-64" x="1115.625"/>
     <use xlink:href="#DejaVuSans-Oblique-65" x="1179.101562"/>
     <use xlink:href="#DejaVuSans-Oblique-67" x="1240.625"/>
     <use xlink:href="#DejaVuSans-Oblique-72" x="1304.101562"/>
     <use xlink:href="#DejaVuSans-Oblique-65" x="1345.214844"/>
     <use xlink:href="#DejaVuSans-Oblique-65" x="1406.738281"/>
    </g>
   </g>
   <g id="text_39">
    <!-- DE Regime 0 (Stable) -->
    <g transform="translate(274.528281 17.837812)scale(0.14 -0.14)">
     <defs>
      <path id="DejaVuSans-Bold-44" d="M 1791 3756 
L 1791 909 
L 2222 909 
Q 2959 909 3348 1275 
Q 3738 1641 3738 2338 
Q 3738 3031 3350 3393 
Q 2963 3756 2222 3756 
L 1791 3756 
z
M 588 4666 
L 1856 4666 
Q 2919 4666 3439 4514 
Q 3959 4363 4331 4000 
Q 4659 3684 4818 3271 
Q 4978 2859 4978 2338 
Q 4978 1809 4818 1395 
Q 4659 981 4331 666 
Q 3956 303 3431 151 
Q 2906 0 1856 0 
L 588 0 
L 588 4666 
z
" transform="scale(0.015625)"/>
      <path id="DejaVuSans-Bold-45" d="M 588 4666 
L 3834 4666 
L 3834 3756 
L 1791 3756 
L 1791 2888 
L 3713 2888 
L 3713 1978 
L 1791 1978 
L 1791 909 
L 3903 909 
L 3903 0 
L 588 0 
L 588 4666 
z
" transform="scale(0.015625)"/>
      <path id="DejaVuSans-Bold-28" d="M 2413 -844 
L 1484 -844 
Q 1006 -72 778 623 
Q 550 1319 550 2003 
Q 550 2688 779 3389 
Q 1009 4091 1484 4856 
L 2413 4856 
Q 2013 4116 1813 3408 
Q 1613 2700 1613 2009 
Q 1613 1319 1811 609 
Q 2009 -100 2413 -844 
z
" transform="scale(0.015625)"/>
      <path id="DejaVuSans-Bold-62" d="M 2400 722 
Q 2759 722 2948 984 
Q 3138 1247 3138 1747 
Q 3138 2247 2948 2509 
Q 2759 2772 2400 2772 
Q 2041 2772 1848 2508 
Q 1656 2244 1656 1747 
Q 1656 1250 1848 986 
Q 2041 722 2400 722 
z
M 1656 2988 
Q 1888 3294 2169 3439 
Q 2450 3584 2816 3584 
Q 3463 3584 3878 3070 
Q 4294 2556 4294 1747 
Q 4294 938 3878 423 
Q 3463 -91 2816 -91 
Q 2450 -91 2169 54 
Q 1888 200 1656 506 
L 1656 0 
L 538 0 
L 538 4863 
L 1656 4863 
L 1656 2988 
z
" transform="scale(0.015625)"/>
      <path id="DejaVuSans-Bold-29" d="M 513 -844 
Q 913 -100 1113 609 
Q 1313 1319 1313 2009 
Q 1313 2700 1113 3408 
Q 913 4116 513 4856 
L 1441 4856 
Q 1916 4091 2145 3389 
Q 2375 2688 2375 2003 
Q 2375 1319 2147 623 
Q 1919 -72 1441 -844 
L 513 -844 
z
" transform="scale(0.015625)"/>
     </defs>
     <use xlink:href="#DejaVuSans-Bold-44"/>
     <use xlink:href="#DejaVuSans-Bold-45" x="83.007812"/>
     <use xlink:href="#DejaVuSans-Bold-20" x="151.318359"/>
     <use xlink:href="#DejaVuSans-Bold-52" x="186.132812"/>
     <use xlink:href="#DejaVuSans-Bold-65" x="263.134766"/>
     <use xlink:href="#DejaVuSans-Bold-67" x="330.957031"/>
     <use xlink:href="#DejaVuSans-Bold-69" x="402.539062"/>
     <use xlink:href="#DejaVuSans-Bold-6d" x="436.816406"/>
     <use xlink:href="#DejaVuSans-Bold-65" x="541.015625"/>
     <use xlink:href="#DejaVuSans-Bold-20" x="608.837891"/>
     <use xlink:href="#DejaVuSans-Bold-30" x="643.652344"/>
     <use xlink:href="#DejaVuSans-Bold-20" x="713.232422"/>
     <use xlink:href="#DejaVuSans-Bold-28" x="748.046875"/>
     <use xlink:href="#DejaVuSans-Bold-53" x="793.75"/>
     <use xlink:href="#DejaVuSans-Bold-74" x="865.771484"/>
     <use xlink:href="#DejaVuSans-Bold-61" x="913.574219"/>
     <use xlink:href="#DejaVuSans-Bold-62" x="981.054688"/>
     <use xlink:href="#DejaVuSans-Bold-6c" x="1052.636719"/>
     <use xlink:href="#DejaVuSans-Bold-65" x="1086.914062"/>
     <use xlink:href="#DejaVuSans-Bold-29" x="1154.736328"/>
    </g>
   </g>
   <g id="legend_1">
    <g id="patch_38">
     <path d="M 12.8 88.950312 
L 91.45625 88.950312 
Q 93.05625 88.950312 93.05625 87.350312 
L 93.05625 29.437813 
Q 93.05625 27.837813 91.45625 27.837813 
L 12.8 27.837813 
Q 11.2 27.837813 11.2 29.437813 
L 11.2 87.350312 
Q 11.2 88.950312 12.8 88.950312 
z
" style="fill: #ffffff; opacity: 0.8; stroke: #cccccc; stroke-linejoin: miter"/>
    </g>
    <g id="line2d_1">
     <path d="M 14.4 34.316562 
L 22.4 34.316562 
L 30.4 34.316562 
" style="fill: none; stroke: #1f77b4; stroke-width: 2; stroke-linecap: square"/>
    </g>
    <g id="text_40">
     <!-- Instant. (+) -->
     <g transform="translate(36.8 37.116562)scale(0.08 -0.08)">
      <defs>
       <path id="DejaVuSans-49" d="M 628 4666 
L 1259 4666 
L 1259 0 
L 628 0 
L 628 4666 
z
" transform="scale(0.015625)"/>
       <path id="DejaVuSans-6e" d="M 3513 2113 
L 3513 0 
L 2938 0 
L 2938 2094 
Q 2938 2591 2744 2837 
Q 2550 3084 2163 3084 
Q 1697 3084 1428 2787 
Q 1159 2491 1159 1978 
L 1159 0 
L 581 0 
L 581 3500 
L 1159 3500 
L 1159 2956 
Q 1366 3272 1645 3428 
Q 1925 3584 2291 3584 
Q 2894 3584 3203 3211 
Q 3513 2838 3513 2113 
z
" transform="scale(0.015625)"/>
       <path id="DejaVuSans-73" d="M 2834 3397 
L 2834 2853 
Q 2591 2978 2328 3040 
Q 2066 3103 1784 3103 
Q 1356 3103 1142 2972 
Q 928 2841 928 2578 
Q 928 2378 1081 2264 
Q 1234 2150 1697 2047 
L 1894 2003 
Q 2506 1872 2764 1633 
Q 3022 1394 3022 966 
Q 3022 478 2636 193 
Q 2250 -91 1575 -91 
Q 1294 -91 989 -36 
Q 684 19 347 128 
L 347 722 
Q 666 556 975 473 
Q 1284 391 1588 391 
Q 1994 391 2212 530 
Q 2431 669 2431 922 
Q 2431 1156 2273 1281 
Q 2116 1406 1581 1522 
L 1381 1569 
Q 847 1681 609 1914 
Q 372 2147 372 2553 
Q 372 3047 722 3315 
Q 1072 3584 1716 3584 
Q 2034 3584 2315 3537 
Q 2597 3491 2834 3397 
z
" transform="scale(0.015625)"/>
       <path id="DejaVuSans-74" d="M 1172 4494 
L 1172 3500 
L 2356 3500 
L 2356 3053 
L 1172 3053 
L 1172 1153 
Q 1172 725 1289 603 
Q 1406 481 1766 481 
L 2356 481 
L 2356 0 
L 1766 0 
Q 1100 0 847 248 
Q 594 497 594 1153 
L 594 3053 
L 172 3053 
L 172 3500 
L 594 3500 
L 594 4494 
L 1172 4494 
z
" transform="scale(0.015625)"/>
       <path id="DejaVuSans-61" d="M 2194 1759 
Q 1497 1759 1228 1600 
Q 959 1441 959 1056 
Q 959 750 1161 570 
Q 1363 391 1709 391 
Q 2188 391 2477 730 
Q 2766 1069 2766 1631 
L 2766 1759 
L 2194 1759 
z
M 3341 1997 
L 3341 0 
L 2766 0 
L 2766 531 
Q 2569 213 2275 61 
Q 1981 -91 1556 -91 
Q 1019 -91 701 211 
Q 384 513 384 1019 
Q 384 1609 779 1909 
Q 1175 2209 1959 2209 
L 2766 2209 
L 2766 2266 
Q 2766 2663 2505 2880 
Q 2244 3097 1772 3097 
Q 1472 3097 1187 3025 
Q 903 2953 641 2809 
L 641 3341 
Q 956 3463 1253 3523 
Q 1550 3584 1831 3584 
Q 2591 3584 2966 3190 
Q 3341 2797 3341 1997 
z
" transform="scale(0.015625)"/>
       <path id="DejaVuSans-20" transform="scale(0.015625)"/>
       <path id="DejaVuSans-28" d="M 1984 4856 
Q 1566 4138 1362 3434 
Q 1159 2731 1159 2009 
Q 1159 1288 1364 580 
Q 1569 -128 1984 -844 
L 1484 -844 
Q 1016 -109 783 600 
Q 550 1309 550 2009 
Q 550 2706 781 3412 
Q 1013 4119 1484 4856 
L 1984 4856 
z
" transform="scale(0.015625)"/>
       <path id="DejaVuSans-2b" d="M 2944 4013 
L 2944 2272 
L 4684 2272 
L 4684 1741 
L 2944 1741 
L 2944 0 
L 2419 0 
L 2419 1741 
L 678 1741 
L 678 2272 
L 2419 2272 
L 2419 4013 
L 2944 4013 
z
" transform="scale(0.015625)"/>
       <path id="DejaVuSans-29" d="M 513 4856 
L 1013 4856 
Q 1481 4119 1714 3412 
Q 1947 2706 1947 2009 
Q 1947 1309 1714 600 
Q 1481 -109 1013 -844 
L 513 -844 
Q 928 -128 1133 580 
Q 1338 1288 1338 2009 
Q 1338 2731 1133 3434 
Q 928 4138 513 4856 
z
" transform="scale(0.015625)"/>
      </defs>
      <use xlink:href="#DejaVuSans-49"/>
      <use xlink:href="#DejaVuSans-6e" x="29.492188"/>
      <use xlink:href="#DejaVuSans-73" x="92.871094"/>
      <use xlink:href="#DejaVuSans-74" x="144.970703"/>
      <use xlink:href="#DejaVuSans-61" x="184.179688"/>
      <use xlink:href="#DejaVuSans-6e" x="245.458984"/>
      <use xlink:href="#DejaVuSans-74" x="308.837891"/>
      <use xlink:href="#DejaVuSans-2e" x="348.046875"/>
      <use xlink:href="#DejaVuSans-20" x="379.833984"/>
      <use xlink:href="#DejaVuSans-28" x="411.621094"/>
      <use xlink:href="#DejaVuSans-2b" x="450.634766"/>
      <use xlink:href="#DejaVuSans-29" x="534.423828"/>
     </g>
    </g>
    <g id="line2d_2">
     <path d="M 14.4 46.059062 
L 22.4 46.059062 
L 30.4 46.059062 
" style="fill: none; stroke-dasharray: 7.4,3.2; stroke-dashoffset: 0; stroke: #ff7f0e; stroke-width: 2"/>
    </g>
    <g id="text_41">
     <!-- Lagged (+) -->
     <g transform="translate(36.8 48.859062)scale(0.08 -0.08)">
      <defs>
       <path id="DejaVuSans-4c" d="M 628 4666 
L 1259 4666 
L 1259 531 
L 3531 531 
L 3531 0 
L 628 0 
L 628 4666 
z
" transform="scale(0.015625)"/>
       <path id="DejaVuSans-67" d="M 2906 1791 
Q 2906 2416 2648 2759 
Q 2391 3103 1925 3103 
Q 1463 3103 1205 2759 
Q 947 2416 947 1791 
Q 947 1169 1205 825 
Q 1463 481 1925 481 
Q 2391 481 2648 825 
Q 2906 1169 2906 1791 
z
M 3481 434 
Q 3481 -459 3084 -895 
Q 2688 -1331 1869 -1331 
Q 1566 -1331 1297 -1286 
Q 1028 -1241 775 -1147 
L 775 -588 
Q 1028 -725 1275 -790 
Q 1522 -856 1778 -856 
Q 2344 -856 2625 -561 
Q 2906 -266 2906 331 
L 2906 616 
Q 2728 306 2450 153 
Q 2172 0 1784 0 
Q 1141 0 747 490 
Q 353 981 353 1791 
Q 353 2603 747 3093 
Q 1141 3584 1784 3584 
Q 2172 3584 2450 3431 
Q 2728 3278 2906 2969 
L 2906 3500 
L 3481 3500 
L 3481 434 
z
" transform="scale(0.015625)"/>
       <path id="DejaVuSans-65" d="M 3597 1894 
L 3597 1613 
L 953 1613 
Q 991 1019 1311 708 
Q 1631 397 2203 397 
Q 2534 397 2845 478 
Q 3156 559 3463 722 
L 3463 178 
Q 3153 47 2828 -22 
Q 2503 -91 2169 -91 
Q 1331 -91 842 396 
Q 353 884 353 1716 
Q 353 2575 817 3079 
Q 1281 3584 2069 3584 
Q 2775 3584 3186 3129 
Q 3597 2675 3597 1894 
z
M 3022 2063 
Q 3016 2534 2758 2815 
Q 2500 3097 2075 3097 
Q 1594 3097 1305 2825 
Q 1016 2553 972 2059 
L 3022 2063 
z
" transform="scale(0.015625)"/>
       <path id="DejaVuSans-64" d="M 2906 2969 
L 2906 4863 
L 3481 4863 
L 3481 0 
L 2906 0 
L 2906 525 
Q 2725 213 2448 61 
Q 2172 -91 1784 -91 
Q 1150 -91 751 415 
Q 353 922 353 1747 
Q 353 2572 751 3078 
Q 1150 3584 1784 3584 
Q 2172 3584 2448 3432 
Q 2725 3281 2906 2969 
z
M 947 1747 
Q 947 1113 1208 752 
Q 1469 391 1925 391 
Q 2381 391 2643 752 
Q 2906 1113 2906 1747 
Q 2906 2381 2643 2742 
Q 2381 3103 1925 3103 
Q 1469 3103 1208 2742 
Q 947 2381 947 1747 
z
" transform="scale(0.015625)"/>
      </defs>
      <use xlink:href="#DejaVuSans-4c"/>
      <use xlink:href="#DejaVuSans-61" x="55.712891"/>
      <use xlink:href="#DejaVuSans-67" x="116.992188"/>
      <use xlink:href="#DejaVuSans-67" x="180.46875"/>
      <use xlink:href="#DejaVuSans-65" x="243.945312"/>
      <use xlink:href="#DejaVuSans-64" x="305.46875"/>
      <use xlink:href="#DejaVuSans-20" x="368.945312"/>
      <use xlink:href="#DejaVuSans-28" x="400.732422"/>
      <use xlink:href="#DejaVuSans-2b" x="439.746094"/>
      <use xlink:href="#DejaVuSans-29" x="523.535156"/>
     </g>
    </g>
    <g id="line2d_3">
     <path d="M 14.4 57.801563 
L 22.4 57.801563 
L 30.4 57.801563 
" style="fill: none; stroke: #c44e52; stroke-width: 2; stroke-linecap: square"/>
    </g>
    <g id="text_42">
     <!-- Negative (-) -->
     <g transform="translate(36.8 60.601562)scale(0.08 -0.08)">
      <defs>
       <path id="DejaVuSans-4e" d="M 628 4666 
L 1478 4666 
L 3547 763 
L 3547 4666 
L 4159 4666 
L 4159 0 
L 3309 0 
L 1241 3903 
L 1241 0 
L 628 0 
L 628 4666 
z
" transform="scale(0.015625)"/>
       <path id="DejaVuSans-69" d="M 603 3500 
L 1178 3500 
L 1178 0 
L 603 0 
L 603 3500 
z
M 603 4863 
L 1178 4863 
L 1178 4134 
L 603 4134 
L 603 4863 
z
" transform="scale(0.015625)"/>
       <path id="DejaVuSans-76" d="M 191 3500 
L 800 3500 
L 1894 563 
L 2988 3500 
L 3597 3500 
L 2284 0 
L 1503 0 
L 191 3500 
z
" transform="scale(0.015625)"/>
      </defs>
      <use xlink:href="#DejaVuSans-4e"/>
      <use xlink:href="#DejaVuSans-65" x="74.804688"/>
      <use xlink:href="#DejaVuSans-67" x="136.328125"/>
      <use xlink:href="#DejaVuSans-61" x="199.804688"/>
      <use xlink:href="#DejaVuSans-74" x="261.083984"/>
      <use xlink:href="#DejaVuSans-69" x="300.292969"/>
      <use xlink:href="#DejaVuSans-76" x="328.076172"/>
      <use xlink:href="#DejaVuSans-65" x="387.255859"/>
      <use xlink:href="#DejaVuSans-20" x="448.779297"/>
      <use xlink:href="#DejaVuSans-28" x="480.566406"/>
      <use xlink:href="#DejaVuSans-2d" x="519.580078"/>
      <use xlink:href="#DejaVuSans-29" x="555.664062"/>
     </g>
    </g>
    <g id="patch_39">
     <path d="M 14.4 72.344063 
L 30.4 72.344063 
L 30.4 66.744063 
L 14.4 66.744063 
z
" style="fill: #d62728; stroke: #333333; stroke-linejoin: miter"/>
    </g>
    <g id="text_43">
     <!-- Price (Target) -->
     <g transform="translate(36.8 72.344063)scale(0.08 -0.08)">
      <defs>
       <path id="DejaVuSans-50" d="M 1259 4147 
L 1259 2394 
L 2053 2394 
Q 2494 2394 2734 2622 
Q 2975 2850 2975 3272 
Q 2975 3691 2734 3919 
Q 2494 4147 2053 4147 
L 1259 4147 
z
M 628 4666 
L 2053 4666 
Q 2838 4666 3239 4311 
Q 3641 3956 3641 3272 
Q 3641 2581 3239 2228 
Q 2838 1875 2053 1875 
L 1259 1875 
L 1259 0 
L 628 0 
L 628 4666 
z
" transform="scale(0.015625)"/>
       <path id="DejaVuSans-72" d="M 2631 2963 
Q 2534 3019 2420 3045 
Q 2306 3072 2169 3072 
Q 1681 3072 1420 2755 
Q 1159 2438 1159 1844 
L 1159 0 
L 581 0 
L 581 3500 
L 1159 3500 
L 1159 2956 
Q 1341 3275 1631 3429 
Q 1922 3584 2338 3584 
Q 2397 3584 2469 3576 
Q 2541 3569 2628 3553 
L 2631 2963 
z
" transform="scale(0.015625)"/>
       <path id="DejaVuSans-63" d="M 3122 3366 
L 3122 2828 
Q 2878 2963 2633 3030 
Q 2388 3097 2138 3097 
Q 1578 3097 1268 2742 
Q 959 2388 959 1747 
Q 959 1106 1268 751 
Q 1578 397 2138 397 
Q 2388 397 2633 464 
Q 2878 531 3122 666 
L 3122 134 
Q 2881 22 2623 -34 
Q 2366 -91 2075 -91 
Q 1284 -91 818 406 
Q 353 903 353 1747 
Q 353 2603 823 3093 
Q 1294 3584 2113 3584 
Q 2378 3584 2631 3529 
Q 2884 3475 3122 3366 
z
" transform="scale(0.015625)"/>
       <path id="DejaVuSans-54" d="M -19 4666 
L 3928 4666 
L 3928 4134 
L 2272 4134 
L 2272 0 
L 1638 0 
L 1638 4134 
L -19 4134 
L -19 4666 
z
" transform="scale(0.015625)"/>
      </defs>
      <use xlink:href="#DejaVuSans-50"/>
      <use xlink:href="#DejaVuSans-72" x="58.552734"/>
      <use xlink:href="#DejaVuSans-69" x="99.666016"/>
      <use xlink:href="#DejaVuSans-63" x="127.449219"/>
      <use xlink:href="#DejaVuSans-65" x="182.429688"/>
      <use xlink:href="#DejaVuSans-20" x="243.953125"/>
      <use xlink:href="#DejaVuSans-28" x="275.740234"/>
      <use xlink:href="#DejaVuSans-54" x="314.753906"/>
      <use xlink:href="#DejaVuSans-61" x="359.337891"/>
      <use xlink:href="#DejaVuSans-72" x="420.617188"/>
      <use xlink:href="#DejaVuSans-67" x="459.980469"/>
      <use xlink:href="#DejaVuSans-65" x="523.457031"/>
      <use xlink:href="#DejaVuSans-74" x="584.980469"/>
      <use xlink:href="#DejaVuSans-29" x="624.189453"/>
     </g>
    </g>
    <g id="patch_40">
     <path d="M 14.4 84.086563 
L 30.4 84.086563 
L 30.4 78.486563 
L 14.4 78.486563 
z
" style="fill: #a8d5ba; stroke: #333333; stroke-linejoin: miter"/>
    </g>
    <g id="text_44">
     <!-- Features -->
     <g transform="translate(36.8 84.086563)scale(0.08 -0.08)">
      <defs>
       <path id="DejaVuSans-46" d="M 628 4666 
L 3309 4666 
L 3309 4134 
L 1259 4134 
L 1259 2759 
L 3109 2759 
L 3109 2228 
L 1259 2228 
L 1259 0 
L 628 0 
L 628 4666 
z
" transform="scale(0.015625)"/>
       <path id="DejaVuSans-75" d="M 544 1381 
L 544 3500 
L 1119 3500 
L 1119 1403 
Q 1119 906 1312 657 
Q 1506 409 1894 409 
Q 2359 409 2629 706 
Q 2900 1003 2900 1516 
L 2900 3500 
L 3475 3500 
L 3475 0 
L 2900 0 
L 2900 538 
Q 2691 219 2414 64 
Q 2138 -91 1772 -91 
Q 1169 -91 856 284 
Q 544 659 544 1381 
z
M 1991 3584 
L 1991 3584 
z
" transform="scale(0.015625)"/>
      </defs>
      <use xlink:href="#DejaVuSans-46"/>
      <use xlink:href="#DejaVuSans-65" x="52.019531"/>
      <use xlink:href="#DejaVuSans-61" x="113.542969"/>
      <use xlink:href="#DejaVuSans-74" x="174.822266"/>
      <use xlink:href="#DejaVuSans-75" x="214.03125"/>
      <use xlink:href="#DejaVuSans-72" x="277.410156"/>
      <use xlink:href="#DejaVuSans-65" x="316.273438"/>
      <use xlink:href="#DejaVuSans-73" x="377.796875"/>
     </g>
    </g>
   </g>
  </g>
 </g>
 <defs>
  <clipPath id="p365ea3a446">
   <rect x="7.2" y="23.837812" width="702.72" height="542.16"/>
  </clipPath>
 </defs>
</svg>
