<?xml version="1.0" encoding="utf-8" standalone="no"?>
<!DOCTYPE svg PUBLIC "-//W3C//DTD SVG 1.1//EN"
  "http://www.w3.org/Graphics/SVG/1.1/DTD/svg11.dtd">
<svg xmlns:xlink="http://www.w3.org/1999/xlink" width="717.12pt" height="573.197812pt" viewBox="0 0 717.12 573.197812" xmlns="http://www.w3.org/2000/svg" version="1.1">
 <metadata>
  <rdf:RDF xmlns:dc="http://purl.org/dc/elements/1.1/" xmlns:cc="http://creativecommons.org/ns#" xmlns:rdf="http://www.w3.org/1999/02/22-rdf-syntax-ns#">
   <cc:Work>
    <dc:type rdf:resource="http://purl.org/dc/dcmitype/StillImage"/>
    <dc:date>2026-02-11T20:18:22.630156</dc:date>
    <dc:format>image/svg+xml</dc:format>
    <dc:creator>
     <cc:Agent>
      <dc:title>Matplotlib v3.5.1, https://matplotlib.org/</dc:title>
     </cc:Agent>
    </dc:creator>
   </cc:Work>
  </rdf:RDF>
 </metadata>
 <defs>
  <style type="text/css">*{stroke-linejoin: round; stroke-linecap: butt}</style>
 </defs>
 <g id="figure_1">
  <g id="patch_1">
   <path d="M 0 573.197812 
L 717.12 573.197812 
L 717.12 0 
L 0 0 
z
" style="fill: #ffffff"/>
  </g>
  <g id="axes_1">
   <g id="patch_2">
    <path d="M 228.003626 493.03584 
Q 341.118103 300.358121 374.349325 81.112716 
" clip-path="url(#pc46290863e)" style="fill: none; stroke: #c44e52; stroke-opacity: 0.7; stroke-width: 1.50011; stroke-linecap: round"/>
    <path d="M 370.484048 86.595382 
L 374.349325 81.112716 
L 376.416292 87.494538 
L 370.484048 86.595382 
z
" clip-path="url(#pc46290863e)" style="fill: #c44e52; fill-opacity: 0.7; stroke: #c44e52; stroke-opacity: 0.7; stroke-width: 1.50011; stroke-linecap: round"/>
   </g>
   <g id="patch_3">
    <path d="M 77.02208 229.392205 
Q 237.625079 180.622463 367.821572 77.321306 
" clip-path="url(#pc46290863e)" style="fill: none; stroke: #1f77b4; stroke-opacity: 0.7; stroke-width: 1.471534; stroke-linecap: round"/>
    <path d="M 361.256674 78.700477 
L 367.821572 77.321306 
L 364.98597 83.400727 
L 361.256674 78.700477 
z
" clip-path="url(#pc46290863e)" style="fill: #1f77b4; fill-opacity: 0.7; stroke: #1f77b4; stroke-opacity: 0.7; stroke-width: 1.471534; stroke-linecap: round"/>
   </g>
   <g id="patch_4">
    <path d="M 552.40747 135.690393 
Q 474.189987 88.680424 385.889819 72.632494 
" clip-path="url(#pc46290863e)" style="fill: none; stroke: #1f77b4; stroke-opacity: 0.7; stroke-width: 1.351308; stroke-linecap: round"/>
    <path d="M 391.256675 76.657025 
L 385.889819 72.632494 
L 392.329558 70.753727 
L 391.256675 76.657025 
z
" clip-path="url(#pc46290863e)" style="fill: #1f77b4; fill-opacity: 0.7; stroke: #1f77b4; stroke-opacity: 0.7; stroke-width: 1.351308; stroke-linecap: round"/>
   </g>
   <g id="patch_5">
    <path d="M 93.842849 381.41238 
Q 261.710639 256.494123 370.607909 79.497642 
" clip-path="url(#pc46290863e)" style="fill: none; stroke: #1f77b4; stroke-opacity: 0.7; stroke-width: 1.282111; stroke-linecap: round"/>
    <path d="M 364.908692 83.035852 
L 370.607909 79.497642 
L 370.018947 86.179942 
L 364.908692 83.035852 
z
" clip-path="url(#pc46290863e)" style="fill: #1f77b4; fill-opacity: 0.7; stroke: #1f77b4; stroke-opacity: 0.7; stroke-width: 1.282111; stroke-linecap: round"/>
   </g>
   <g id="patch_6">
    <path d="M 204.916738 124.137867 
Q 291.033101 114.363172 366.306309 75.860855 
" clip-path="url(#pc46290863e)" style="fill: none; stroke: #1f77b4; stroke-opacity: 0.7; stroke-width: 1.896842; stroke-linecap: round"/>
    <path d="M 359.598386 75.92229 
L 366.306309 75.860855 
L 362.330703 81.264054 
L 359.598386 75.92229 
z
" clip-path="url(#pc46290863e)" style="fill: #1f77b4; fill-opacity: 0.7; stroke: #1f77b4; stroke-opacity: 0.7; stroke-width: 1.896842; stroke-linecap: round"/>
   </g>
   <g id="patch_7">
    <path d="M 628.562703 343.324872 
Q 531.2391 186.199338 384.027549 76.896519 
" clip-path="url(#pc46290863e)" style="fill: none; stroke: #c44e52; stroke-opacity: 0.7; stroke-width: 1.316539; stroke-linecap: round"/>
    <path d="M 387.056464 82.881975 
L 384.027549 76.896519 
L 390.633262 78.06466 
L 387.056464 82.881975 
z
" clip-path="url(#pc46290863e)" style="fill: #c44e52; fill-opacity: 0.7; stroke: #c44e52; stroke-opacity: 0.7; stroke-width: 1.316539; stroke-linecap: round"/>
   </g>
   <g id="patch_8">
    <path d="M 628.824861 188.326243 
Q 517.390339 107.66178 385.987691 73.467122 
" clip-path="url(#pc46290863e)" style="fill: none; stroke: #1f77b4; stroke-opacity: 0.7; stroke-width: 1.598523; stroke-linecap: round"/>
    <path d="M 391.038782 77.881471 
L 385.987691 73.467122 
L 392.549825 72.074859 
L 391.038782 77.881471 
z
" clip-path="url(#pc46290863e)" style="fill: #1f77b4; fill-opacity: 0.7; stroke: #1f77b4; stroke-opacity: 0.7; stroke-width: 1.598523; stroke-linecap: round"/>
   </g>
   <g id="patch_9">
    <path d="M 641.126359 269.521561 
Q 493.156506 198.044225 383.121666 78.806605 
" clip-path="url(#pc46290863e)" style="fill: none; stroke-dasharray: 6.878113,2.974319; stroke-dashoffset: 0; stroke: #ff7f0e; stroke-opacity: 0.7; stroke-width: 1.85895; stroke-linecap: round"/>
    <path d="M 384.986041 85.250524 
L 383.121666 78.806605 
L 389.395427 81.181456 
L 384.986041 85.250524 
z
" clip-path="url(#pc46290863e)" style="fill: #ff7f0e; fill-opacity: 0.7; stroke-dasharray: 6.878113,2.974319; stroke-dashoffset: 0; stroke: #ff7f0e; stroke-opacity: 0.7; stroke-width: 1.85895; stroke-linecap: round"/>
   </g>
   <g id="patch_10">
    <path d="M 117.912712 150.921149 
Q 235.167697 87.988767 364.742541 72.189899 
" clip-path="url(#pc46290863e)" style="fill: none; stroke-dasharray: 8.411351,3.637341; stroke-dashoffset: 0; stroke: #ff7f0e; stroke-opacity: 0.7; stroke-width: 2.273338; stroke-linecap: round"/>
    <path d="M 358.423553 69.938146 
L 364.742541 72.189899 
L 359.149746 75.894038 
L 358.423553 69.938146 
z
" clip-path="url(#pc46290863e)" style="fill: #ff7f0e; fill-opacity: 0.7; stroke-dasharray: 8.411351,3.637341; stroke-dashoffset: 0; stroke: #ff7f0e; stroke-opacity: 0.7; stroke-width: 2.273338; stroke-linecap: round"/>
   </g>
   <g id="patch_11">
    <path d="M 602.237582 419.358913 
Q 458.005111 270.548989 379.95579 80.904951 
" clip-path="url(#pc46290863e)" style="fill: none; stroke-dasharray: 7.150104,3.091937; stroke-dashoffset: 0; stroke: #c44e52; stroke-opacity: 0.7; stroke-width: 1.93246; stroke-linecap: round"/>
    <path d="M 379.465066 87.595182 
L 379.95579 80.904951 
L 385.01354 85.311669 
L 379.465066 87.595182 
z
" clip-path="url(#pc46290863e)" style="fill: #c44e52; fill-opacity: 0.7; stroke-dasharray: 7.150104,3.091937; stroke-dashoffset: 0; stroke: #c44e52; stroke-opacity: 0.7; stroke-width: 1.93246; stroke-linecap: round"/>
   </g>
   <g id="patch_12">
    <path d="M 327.017248 504.545068 
Q 309.24023 287.399198 372.604831 81.385901 
" clip-path="url(#pc46290863e)" style="fill: none; stroke-dasharray: 7.725272,3.340658; stroke-dashoffset: 0; stroke: #ff7f0e; stroke-opacity: 0.7; stroke-width: 2.087911; stroke-linecap: round"/>
    <path d="M 367.973497 86.238812 
L 372.604831 81.385901 
L 373.70836 88.002714 
L 367.973497 86.238812 
z
" clip-path="url(#pc46290863e)" style="fill: #ff7f0e; fill-opacity: 0.7; stroke-dasharray: 7.725272,3.340658; stroke-dashoffset: 0; stroke: #ff7f0e; stroke-opacity: 0.7; stroke-width: 2.087911; stroke-linecap: round"/>
   </g>
   <g id="patch_13">
    <path d="M 525.310506 473.873573 
Q 413.386188 290.877071 377.674424 81.659397 
" clip-path="url(#pc46290863e)" style="fill: none; stroke-dasharray: 7.502117,3.244159; stroke-dashoffset: 0; stroke: #ff7f0e; stroke-opacity: 0.7; stroke-width: 2.027599; stroke-linecap: round"/>
    <path d="M 375.726745 88.07863 
L 377.674424 81.659397 
L 381.641203 87.06908 
L 375.726745 88.07863 
z
" clip-path="url(#pc46290863e)" style="fill: #ff7f0e; fill-opacity: 0.7; stroke-dasharray: 7.502117,3.244159; stroke-dashoffset: 0; stroke: #ff7f0e; stroke-opacity: 0.7; stroke-width: 2.027599; stroke-linecap: round"/>
   </g>
   <g id="patch_14">
    <path d="M 151.808068 437.112932 
Q 226.336251 236.225245 367.035723 80.605421 
" clip-path="url(#pc46290863e)" style="fill: none; stroke-dasharray: 14.8,6.4; stroke-dashoffset: 0; stroke: #ff7f0e; stroke-opacity: 0.7; stroke-width: 4; stroke-linecap: round"/>
    <path d="M 360.786492 83.044091 
L 367.035723 80.605421 
L 365.237121 87.068008 
L 360.786492 83.044091 
z
" clip-path="url(#pc46290863e)" style="fill: #ff7f0e; fill-opacity: 0.7; stroke-dasharray: 14.8,6.4; stroke-dashoffset: 0; stroke: #ff7f0e; stroke-opacity: 0.7; stroke-width: 4; stroke-linecap: round"/>
   </g>
   <g id="patch_15">
    <path d="M 465.631302 96.113959 
Q 422.877117 92.158552 386.718596 75.913837 
" clip-path="url(#pc46290863e)" style="fill: none; stroke-dasharray: 10.909891,4.717791; stroke-dashoffset: 0; stroke: #ff7f0e; stroke-opacity: 0.7; stroke-width: 2.948619; stroke-linecap: round"/>
    <path d="M 390.962214 81.109192 
L 386.718596 75.913837 
L 393.421051 75.636156 
L 390.962214 81.109192 
z
" clip-path="url(#pc46290863e)" style="fill: #ff7f0e; fill-opacity: 0.7; stroke-dasharray: 10.909891,4.717791; stroke-dashoffset: 0; stroke: #ff7f0e; stroke-opacity: 0.7; stroke-width: 2.948619; stroke-linecap: round"/>
   </g>
   <g id="patch_16">
    <path d="M 73.871535 303.32175 
Q 199.147218 160.910389 366.308903 75.715761 
" clip-path="url(#pc46290863e)" style="fill: none; stroke-dasharray: 6.787598,2.935177; stroke-dashoffset: 0; stroke: #ff7f0e; stroke-opacity: 0.7; stroke-width: 1.834486; stroke-linecap: round"/>
    <path d="M 359.600898 75.767369 
L 366.308903 75.715761 
L 362.325386 81.11313 
L 359.600898 75.767369 
z
" clip-path="url(#pc46290863e)" style="fill: #ff7f0e; fill-opacity: 0.7; stroke-dasharray: 6.787598,2.935177; stroke-dashoffset: 0; stroke: #ff7f0e; stroke-opacity: 0.7; stroke-width: 1.834486; stroke-linecap: round"/>
   </g>
   <g id="patch_17">
    <path d="M 429.801129 510.726749 
Q 361.042851 300.371824 375.111176 82.138429 
" clip-path="url(#pc46290863e)" style="fill: none; stroke-dasharray: 8.673975,3.750908; stroke-dashoffset: 0; stroke: #ff7f0e; stroke-opacity: 0.7; stroke-width: 2.344318; stroke-linecap: round"/>
    <path d="M 371.731404 87.933008 
L 375.111176 82.138429 
L 377.718976 88.318994 
L 371.731404 87.933008 
z
" clip-path="url(#pc46290863e)" style="fill: #ff7f0e; fill-opacity: 0.7; stroke-dasharray: 8.673975,3.750908; stroke-dashoffset: 0; stroke: #ff7f0e; stroke-opacity: 0.7; stroke-width: 2.344318; stroke-linecap: round"/>
   </g>
   <g id="patch_18">
    <path d="M 277.147054 75.122276 
Q 321.763893 64.888974 364.723933 69.543278 
" clip-path="url(#pc46290863e)" style="fill: none; stroke-dasharray: 8.48507,3.66922; stroke-dashoffset: 0; stroke: #ff7f0e; stroke-opacity: 0.7; stroke-width: 2.293262; stroke-linecap: round"/>
    <path d="M 359.081969 65.914471 
L 364.723933 69.543278 
L 358.435709 71.879565 
L 359.081969 65.914471 
z
" clip-path="url(#pc46290863e)" style="fill: #ff7f0e; fill-opacity: 0.7; stroke-dasharray: 8.48507,3.66922; stroke-dashoffset: 0; stroke: #ff7f0e; stroke-opacity: 0.7; stroke-width: 2.293262; stroke-linecap: round"/>
   </g>
   <g id="text_1">
    <g id="patch_19">
     <path d="M 501.706531 168.873565 
L 518.574072 181.373558 
Q 519.297161 181.909416 519.833018 181.186327 
L 523.290415 176.520901 
Q 523.826273 175.797813 523.103185 175.261955 
L 506.235643 162.761963 
Q 505.512555 162.226105 504.976697 162.949193 
L 501.5193 167.61462 
Q 500.983442 168.337708 501.706531 168.873565 
z
" clip-path="url(#pc46290863e)" style="fill: #ffffff; opacity: 0.8"/>
    </g>
    <g clip-path="url(#pc46290863e)">
     <!-- 0.0132 -->
     <g style="fill: #444444" transform="translate(502.985332 167.147945)rotate(-323.459045)scale(0.06 -0.06)">
      <defs>
       <path id="DejaVuSans-30" d="M 2034 4250 
Q 1547 4250 1301 3770 
Q 1056 3291 1056 2328 
Q 1056 1369 1301 889 
Q 1547 409 2034 409 
Q 2525 409 2770 889 
Q 3016 1369 3016 2328 
Q 3016 3291 2770 3770 
Q 2525 4250 2034 4250 
z
M 2034 4750 
Q 2819 4750 3233 4129 
Q 3647 3509 3647 2328 
Q 3647 1150 3233 529 
Q 2819 -91 2034 -91 
Q 1250 -91 836 529 
Q 422 1150 422 2328 
Q 422 3509 836 4129 
Q 1250 4750 2034 4750 
z
" transform="scale(0.015625)"/>
       <path id="DejaVuSans-2e" d="M 684 794 
L 1344 794 
L 1344 0 
L 684 0 
L 684 794 
z
" transform="scale(0.015625)"/>
       <path id="DejaVuSans-31" d="M 794 531 
L 1825 531 
L 1825 4091 
L 703 3866 
L 703 4441 
L 1819 4666 
L 2450 4666 
L 2450 531 
L 3481 531 
L 3481 0 
L 794 0 
L 794 531 
z
" transform="scale(0.015625)"/>
       <path id="DejaVuSans-33" d="M 2597 2516 
Q 3050 2419 3304 2112 
Q 3559 1806 3559 1356 
Q 3559 666 3084 287 
Q 2609 -91 1734 -91 
Q 1441 -91 1130 -33 
Q 819 25 488 141 
L 488 750 
Q 750 597 1062 519 
Q 1375 441 1716 441 
Q 2309 441 2620 675 
Q 2931 909 2931 1356 
Q 2931 1769 2642 2001 
Q 2353 2234 1838 2234 
L 1294 2234 
L 1294 2753 
L 1863 2753 
Q 2328 2753 2575 2939 
Q 2822 3125 2822 3475 
Q 2822 3834 2567 4026 
Q 2313 4219 1838 4219 
Q 1578 4219 1281 4162 
Q 984 4106 628 3988 
L 628 4550 
Q 988 4650 1302 4700 
Q 1616 4750 1894 4750 
Q 2613 4750 3031 4423 
Q 3450 4097 3450 3541 
Q 3450 3153 3228 2886 
Q 3006 2619 2597 2516 
z
" transform="scale(0.015625)"/>
       <path id="DejaVuSans-32" d="M 1228 531 
L 3431 531 
L 3431 0 
L 469 0 
L 469 531 
Q 828 903 1448 1529 
Q 2069 2156 2228 2338 
Q 2531 2678 2651 2914 
Q 2772 3150 2772 3378 
Q 2772 3750 2511 3984 
Q 2250 4219 1831 4219 
Q 1534 4219 1204 4116 
Q 875 4013 500 3803 
L 500 4441 
Q 881 4594 1212 4672 
Q 1544 4750 1819 4750 
Q 2544 4750 2975 4387 
Q 3406 4025 3406 3419 
Q 3406 3131 3298 2873 
Q 3191 2616 2906 2266 
Q 2828 2175 2409 1742 
Q 1991 1309 1228 531 
z
" transform="scale(0.015625)"/>
      </defs>
      <use xlink:href="#DejaVuSans-30"/>
      <use xlink:href="#DejaVuSans-2e" x="63.623047"/>
      <use xlink:href="#DejaVuSans-30" x="95.410156"/>
      <use xlink:href="#DejaVuSans-31" x="159.033203"/>
      <use xlink:href="#DejaVuSans-33" x="222.65625"/>
      <use xlink:href="#DejaVuSans-32" x="286.279297"/>
     </g>
    </g>
   </g>
   <g id="text_2">
    <g id="patch_20">
     <path d="M 299.447435 297.869815 
L 307.184611 276.041433 
Q 307.485291 275.193145 306.637003 274.892465 
L 301.163781 272.952455 
Q 300.315494 272.651776 300.014814 273.500063 
L 292.277638 295.328446 
Q 291.976958 296.176733 292.825246 296.477413 
L 298.298467 298.417423 
Q 299.146755 298.718103 299.447435 297.869815 
z
" clip-path="url(#pc46290863e)" style="fill: #ffffff; opacity: 0.8"/>
    </g>
    <g clip-path="url(#pc46290863e)">
     <!-- -0.0077 -->
     <g style="fill: #444444" transform="translate(297.423032 297.152256)rotate(-70.482881)scale(0.06 -0.06)">
      <defs>
       <path id="DejaVuSans-2d" d="M 313 2009 
L 1997 2009 
L 1997 1497 
L 313 1497 
L 313 2009 
z
" transform="scale(0.015625)"/>
       <path id="DejaVuSans-37" d="M 525 4666 
L 3525 4666 
L 3525 4397 
L 1831 0 
L 1172 0 
L 2766 4134 
L 525 4134 
L 525 4666 
z
" transform="scale(0.015625)"/>
      </defs>
      <use xlink:href="#DejaVuSans-2d"/>
      <use xlink:href="#DejaVuSans-30" x="36.083984"/>
      <use xlink:href="#DejaVuSans-2e" x="99.707031"/>
      <use xlink:href="#DejaVuSans-30" x="131.494141"/>
      <use xlink:href="#DejaVuSans-30" x="195.117188"/>
      <use xlink:href="#DejaVuSans-37" x="258.740234"/>
      <use xlink:href="#DejaVuSans-37" x="322.363281"/>
     </g>
    </g>
   </g>
   <g id="text_3">
    <g id="patch_21">
     <path d="M 214.763544 159.619144 
L 233.358552 149.87289 
Q 234.155695 149.455081 233.737886 148.657939 
L 231.042151 143.514709 
Q 230.624342 142.717567 229.8272 143.135375 
L 211.232192 152.881629 
Q 210.43505 153.299438 210.852858 154.09658 
L 213.548593 159.23981 
Q 213.966402 160.036952 214.763544 159.619144 
z
" clip-path="url(#pc46290863e)" style="fill: #ffffff; opacity: 0.8"/>
    </g>
    <g clip-path="url(#pc46290863e)">
     <!-- 0.0073 -->
     <g style="fill: #444444" transform="translate(213.766462 157.716796)rotate(-27.660509)scale(0.06 -0.06)">
      <use xlink:href="#DejaVuSans-30"/>
      <use xlink:href="#DejaVuSans-2e" x="63.623047"/>
      <use xlink:href="#DejaVuSans-30" x="95.410156"/>
      <use xlink:href="#DejaVuSans-30" x="159.033203"/>
      <use xlink:href="#DejaVuSans-37" x="222.65625"/>
      <use xlink:href="#DejaVuSans-33" x="286.279297"/>
     </g>
    </g>
   </g>
   <g id="text_4">
    <g id="patch_22">
     <path d="M 456.668896 105.406865 
L 476.313953 112.811965 
Q 477.15611 113.129411 477.473556 112.287255 
L 479.521747 106.85359 
Q 479.839194 106.011433 478.997037 105.693987 
L 459.35198 98.288887 
Q 458.509823 97.97144 458.192377 98.813597 
L 456.144186 104.247261 
Q 455.826739 105.089418 456.668896 105.406865 
z
" clip-path="url(#pc46290863e)" style="fill: #ffffff; opacity: 0.8"/>
    </g>
    <g clip-path="url(#pc46290863e)">
     <!-- 0.0054 -->
     <g style="fill: #444444" transform="translate(457.426469 103.397093)rotate(-339.346331)scale(0.06 -0.06)">
      <defs>
       <path id="DejaVuSans-35" d="M 691 4666 
L 3169 4666 
L 3169 4134 
L 1269 4134 
L 1269 2991 
Q 1406 3038 1543 3061 
Q 1681 3084 1819 3084 
Q 2600 3084 3056 2656 
Q 3513 2228 3513 1497 
Q 3513 744 3044 326 
Q 2575 -91 1722 -91 
Q 1428 -91 1123 -41 
Q 819 9 494 109 
L 494 744 
Q 775 591 1075 516 
Q 1375 441 1709 441 
Q 2250 441 2565 725 
Q 2881 1009 2881 1497 
Q 2881 1984 2565 2268 
Q 2250 2553 1709 2553 
Q 1456 2553 1204 2497 
Q 953 2441 691 2322 
L 691 4666 
z
" transform="scale(0.015625)"/>
       <path id="DejaVuSans-34" d="M 2419 4116 
L 825 1625 
L 2419 1625 
L 2419 4116 
z
M 2253 4666 
L 3047 4666 
L 3047 1625 
L 3713 1625 
L 3713 1100 
L 3047 1100 
L 3047 0 
L 2419 0 
L 2419 1100 
L 313 1100 
L 313 1709 
L 2253 4666 
z
" transform="scale(0.015625)"/>
      </defs>
      <use xlink:href="#DejaVuSans-30"/>
      <use xlink:href="#DejaVuSans-2e" x="63.623047"/>
      <use xlink:href="#DejaVuSans-30" x="95.410156"/>
      <use xlink:href="#DejaVuSans-30" x="159.033203"/>
      <use xlink:href="#DejaVuSans-35" x="222.65625"/>
      <use xlink:href="#DejaVuSans-34" x="286.279297"/>
     </g>
    </g>
   </g>
   <g id="text_5">
    <g id="patch_23">
     <path d="M 234.226804 119.772066 
L 254.239826 113.42835 
Q 255.097756 113.156404 254.82581 112.298473 
L 253.071189 106.763033 
Q 252.799243 105.905102 251.941312 106.177048 
L 231.92829 112.520764 
Q 231.070359 112.79271 231.342306 113.650641 
L 233.096926 119.186082 
Q 233.368873 120.044012 234.226804 119.772066 
z
" clip-path="url(#pc46290863e)" style="fill: #ffffff; opacity: 0.8"/>
    </g>
    <g clip-path="url(#pc46290863e)">
     <!-- 0.0196 -->
     <g style="fill: #444444" transform="translate(233.577815 117.72465)rotate(-17.587542)scale(0.06 -0.06)">
      <defs>
       <path id="DejaVuSans-39" d="M 703 97 
L 703 672 
Q 941 559 1184 500 
Q 1428 441 1663 441 
Q 2288 441 2617 861 
Q 2947 1281 2994 2138 
Q 2813 1869 2534 1725 
Q 2256 1581 1919 1581 
Q 1219 1581 811 2004 
Q 403 2428 403 3163 
Q 403 3881 828 4315 
Q 1253 4750 1959 4750 
Q 2769 4750 3195 4129 
Q 3622 3509 3622 2328 
Q 3622 1225 3098 567 
Q 2575 -91 1691 -91 
Q 1453 -91 1209 -44 
Q 966 3 703 97 
z
M 1959 2075 
Q 2384 2075 2632 2365 
Q 2881 2656 2881 3163 
Q 2881 3666 2632 3958 
Q 2384 4250 1959 4250 
Q 1534 4250 1286 3958 
Q 1038 3666 1038 3163 
Q 1038 2656 1286 2365 
Q 1534 2075 1959 2075 
z
" transform="scale(0.015625)"/>
       <path id="DejaVuSans-36" d="M 2113 2584 
Q 1688 2584 1439 2293 
Q 1191 2003 1191 1497 
Q 1191 994 1439 701 
Q 1688 409 2113 409 
Q 2538 409 2786 701 
Q 3034 994 3034 1497 
Q 3034 2003 2786 2293 
Q 2538 2584 2113 2584 
z
M 3366 4563 
L 3366 3988 
Q 3128 4100 2886 4159 
Q 2644 4219 2406 4219 
Q 1781 4219 1451 3797 
Q 1122 3375 1075 2522 
Q 1259 2794 1537 2939 
Q 1816 3084 2150 3084 
Q 2853 3084 3261 2657 
Q 3669 2231 3669 1497 
Q 3669 778 3244 343 
Q 2819 -91 2113 -91 
Q 1303 -91 875 529 
Q 447 1150 447 2328 
Q 447 3434 972 4092 
Q 1497 4750 2381 4750 
Q 2619 4750 2861 4703 
Q 3103 4656 3366 4563 
z
" transform="scale(0.015625)"/>
      </defs>
      <use xlink:href="#DejaVuSans-30"/>
      <use xlink:href="#DejaVuSans-2e" x="63.623047"/>
      <use xlink:href="#DejaVuSans-30" x="95.410156"/>
      <use xlink:href="#DejaVuSans-31" x="159.033203"/>
      <use xlink:href="#DejaVuSans-39" x="222.65625"/>
      <use xlink:href="#DejaVuSans-36" x="286.279297"/>
     </g>
    </g>
   </g>
   <g id="text_6">
    <g id="patch_24">
     <path d="M 482.550652 240.619325 
L 495.244383 259.989698 
Q 495.737683 260.742463 496.490448 260.249163 
L 501.347352 257.066353 
Q 502.100117 256.573053 501.606817 255.820288 
L 488.913086 236.449915 
Q 488.419786 235.697149 487.667021 236.190449 
L 482.810118 239.37326 
Q 482.057352 239.866559 482.550652 240.619325 
z
" clip-path="url(#pc46290863e)" style="fill: #ffffff; opacity: 0.8"/>
    </g>
    <g clip-path="url(#pc46290863e)">
     <!-- -0.0144 -->
     <g style="fill: #444444" transform="translate(484.347095 239.442085)rotate(-303.237499)scale(0.06 -0.06)">
      <use xlink:href="#DejaVuSans-2d"/>
      <use xlink:href="#DejaVuSans-30" x="36.083984"/>
      <use xlink:href="#DejaVuSans-2e" x="99.707031"/>
      <use xlink:href="#DejaVuSans-30" x="131.494141"/>
      <use xlink:href="#DejaVuSans-31" x="195.117188"/>
      <use xlink:href="#DejaVuSans-34" x="258.740234"/>
      <use xlink:href="#DejaVuSans-34" x="322.363281"/>
     </g>
    </g>
   </g>
   <g id="text_7">
    <g id="patch_25">
     <path d="M 227.08941 239.030471 
L 241.265899 223.545287 
Q 241.873626 222.881459 241.209798 222.273732 
L 236.92672 218.352629 
Q 236.262892 217.744903 235.655165 218.408731 
L 221.478675 233.893915 
Q 220.870949 234.557743 221.534777 235.16547 
L 225.817854 239.086573 
Q 226.481683 239.6943 227.08941 239.030471 
z
" clip-path="url(#pc46290863e)" style="fill: #ffffff; opacity: 0.8"/>
    </g>
    <g clip-path="url(#pc46290863e)">
     <!-- 0.0043 -->
     <g style="fill: #444444" transform="translate(225.50521 237.580157)rotate(-47.526291)scale(0.06 -0.06)">
      <use xlink:href="#DejaVuSans-30"/>
      <use xlink:href="#DejaVuSans-2e" x="63.623047"/>
      <use xlink:href="#DejaVuSans-30" x="95.410156"/>
      <use xlink:href="#DejaVuSans-30" x="159.033203"/>
      <use xlink:href="#DejaVuSans-34" x="222.65625"/>
      <use xlink:href="#DejaVuSans-33" x="286.279297"/>
     </g>
    </g>
   </g>
   <g id="text_8">
    <g id="patch_26">
     <path d="M 277.133813 104.634182 
L 297.233987 98.57227 
Q 298.095654 98.312404 297.835788 97.450737 
L 296.159112 91.891191 
Q 295.899246 91.029524 295.037579 91.28939 
L 274.937405 97.351303 
Q 274.075738 97.611168 274.335604 98.472835 
L 276.01228 104.032381 
Q 276.272146 104.894048 277.133813 104.634182 
z
" clip-path="url(#pc46290863e)" style="fill: #ffffff; opacity: 0.8"/>
    </g>
    <g clip-path="url(#pc46290863e)">
     <!-- 0.0138 -->
     <g style="fill: #444444" transform="translate(276.513654 102.57785)rotate(-16.782527)scale(0.06 -0.06)">
      <defs>
       <path id="DejaVuSans-38" d="M 2034 2216 
Q 1584 2216 1326 1975 
Q 1069 1734 1069 1313 
Q 1069 891 1326 650 
Q 1584 409 2034 409 
Q 2484 409 2743 651 
Q 3003 894 3003 1313 
Q 3003 1734 2745 1975 
Q 2488 2216 2034 2216 
z
M 1403 2484 
Q 997 2584 770 2862 
Q 544 3141 544 3541 
Q 544 4100 942 4425 
Q 1341 4750 2034 4750 
Q 2731 4750 3128 4425 
Q 3525 4100 3525 3541 
Q 3525 3141 3298 2862 
Q 3072 2584 2669 2484 
Q 3125 2378 3379 2068 
Q 3634 1759 3634 1313 
Q 3634 634 3220 271 
Q 2806 -91 2034 -91 
Q 1263 -91 848 271 
Q 434 634 434 1313 
Q 434 1759 690 2068 
Q 947 2378 1403 2484 
z
M 1172 3481 
Q 1172 3119 1398 2916 
Q 1625 2713 2034 2713 
Q 2441 2713 2670 2916 
Q 2900 3119 2900 3481 
Q 2900 3844 2670 4047 
Q 2441 4250 2034 4250 
Q 1625 4250 1398 4047 
Q 1172 3844 1172 3481 
z
" transform="scale(0.015625)"/>
      </defs>
      <use xlink:href="#DejaVuSans-30"/>
      <use xlink:href="#DejaVuSans-2e" x="63.623047"/>
      <use xlink:href="#DejaVuSans-30" x="95.410156"/>
      <use xlink:href="#DejaVuSans-31" x="159.033203"/>
      <use xlink:href="#DejaVuSans-33" x="222.65625"/>
      <use xlink:href="#DejaVuSans-38" x="286.279297"/>
     </g>
    </g>
   </g>
   <g id="text_9">
    <g id="patch_27">
     <path d="M 354.457442 302.877271 
L 356.727851 282.006022 
Q 356.82518 281.1113 355.930458 281.013971 
L 350.157639 280.385994 
Q 349.262917 280.288665 349.165588 281.183387 
L 346.895179 302.054636 
Q 346.79785 302.949357 347.692572 303.046687 
L 353.465391 303.674663 
Q 354.360113 303.771993 354.457442 302.877271 
z
" clip-path="url(#pc46290863e)" style="fill: #ffffff; opacity: 0.8"/>
    </g>
    <g clip-path="url(#pc46290863e)">
     <!-- 0.0167 -->
     <g style="fill: #444444" transform="translate(352.322226 302.644999)rotate(-83.791683)scale(0.06 -0.06)">
      <use xlink:href="#DejaVuSans-30"/>
      <use xlink:href="#DejaVuSans-2e" x="63.623047"/>
      <use xlink:href="#DejaVuSans-30" x="95.410156"/>
      <use xlink:href="#DejaVuSans-31" x="159.033203"/>
      <use xlink:href="#DejaVuSans-36" x="222.65625"/>
      <use xlink:href="#DejaVuSans-37" x="286.279297"/>
     </g>
    </g>
   </g>
   <g id="text_10">
    <g id="patch_28">
     <path d="M 445.614138 267.575155 
L 452.990097 287.231172 
Q 453.306294 288.073799 454.14892 287.757601 
L 459.585616 285.717471 
Q 460.428243 285.401273 460.112046 284.558647 
L 452.736087 264.90263 
Q 452.41989 264.060003 451.577263 264.3762 
L 446.140567 266.416331 
Q 445.297941 266.732528 445.614138 267.575155 
z
" clip-path="url(#pc46290863e)" style="fill: #ffffff; opacity: 0.8"/>
    </g>
    <g clip-path="url(#pc46290863e)">
     <!-- 0.0158 -->
     <g style="fill: #444444" transform="translate(447.625031 266.820563)rotate(-290.568699)scale(0.06 -0.06)">
      <use xlink:href="#DejaVuSans-30"/>
      <use xlink:href="#DejaVuSans-2e" x="63.623047"/>
      <use xlink:href="#DejaVuSans-30" x="95.410156"/>
      <use xlink:href="#DejaVuSans-31" x="159.033203"/>
      <use xlink:href="#DejaVuSans-35" x="222.65625"/>
      <use xlink:href="#DejaVuSans-38" x="286.279297"/>
     </g>
    </g>
   </g>
   <g id="text_11">
    <g id="patch_29">
     <path d="M 260.155539 269.012946 
L 271.042467 251.061941 
Q 271.509175 250.292406 270.73964 249.825698 
L 265.774536 246.814462 
Q 265.005002 246.347754 264.538294 247.117289 
L 253.651365 265.068294 
Q 253.184658 265.837829 253.954193 266.304536 
L 258.919296 269.315773 
Q 259.688831 269.782481 260.155539 269.012946 
z
" clip-path="url(#pc46290863e)" style="fill: #ffffff; opacity: 0.8"/>
    </g>
    <g clip-path="url(#pc46290863e)">
     <!-- 0.0462 -->
     <g style="fill: #444444" transform="translate(258.319076 267.899167)rotate(-58.764019)scale(0.06 -0.06)">
      <use xlink:href="#DejaVuSans-30"/>
      <use xlink:href="#DejaVuSans-2e" x="63.623047"/>
      <use xlink:href="#DejaVuSans-30" x="95.410156"/>
      <use xlink:href="#DejaVuSans-34" x="159.033203"/>
      <use xlink:href="#DejaVuSans-36" x="222.65625"/>
      <use xlink:href="#DejaVuSans-32" x="286.279297"/>
     </g>
    </g>
   </g>
   <g id="text_12">
    <g id="patch_30">
     <path d="M 413.947944 84.835816 
L 434.251438 90.177343 
Q 435.121821 90.406326 435.350805 89.535944 
L 436.828228 83.920161 
Q 437.057212 83.049778 436.186829 82.820794 
L 415.883335 77.479268 
Q 415.012952 77.250284 414.783968 78.120667 
L 413.306545 83.73645 
Q 413.077561 84.606833 413.947944 84.835816 
z
" clip-path="url(#pc46290863e)" style="fill: #ffffff; opacity: 0.8"/>
    </g>
    <g clip-path="url(#pc46290863e)">
     <!-- 0.0300 -->
     <g style="fill: #444444" transform="translate(414.494405 82.758684)rotate(-345.260393)scale(0.06 -0.06)">
      <use xlink:href="#DejaVuSans-30"/>
      <use xlink:href="#DejaVuSans-2e" x="63.623047"/>
      <use xlink:href="#DejaVuSans-30" x="95.410156"/>
      <use xlink:href="#DejaVuSans-33" x="159.033203"/>
      <use xlink:href="#DejaVuSans-30" x="222.65625"/>
      <use xlink:href="#DejaVuSans-30" x="286.279297"/>
     </g>
    </g>
   </g>
   <g id="text_13">
    <g id="patch_31">
     <path d="M 216.066602 199.808414 
L 232.647714 186.930894 
Q 233.358523 186.378853 232.806481 185.668043 
L 229.244663 181.081841 
Q 228.692622 180.371032 227.981812 180.923073 
L 211.4007 193.800593 
Q 210.689891 194.352634 211.241932 195.063444 
L 214.803751 199.649646 
Q 215.355792 200.360455 216.066602 199.808414 
z
" clip-path="url(#pc46290863e)" style="fill: #ffffff; opacity: 0.8"/>
    </g>
    <g clip-path="url(#pc46290863e)">
     <!-- 0.0128 -->
     <g style="fill: #444444" transform="translate(214.749177 198.112097)rotate(-37.834267)scale(0.06 -0.06)">
      <use xlink:href="#DejaVuSans-30"/>
      <use xlink:href="#DejaVuSans-2e" x="63.623047"/>
      <use xlink:href="#DejaVuSans-30" x="95.410156"/>
      <use xlink:href="#DejaVuSans-31" x="159.033203"/>
      <use xlink:href="#DejaVuSans-32" x="222.65625"/>
      <use xlink:href="#DejaVuSans-38" x="286.279297"/>
     </g>
    </g>
   </g>
   <g id="text_14">
    <g id="patch_32">
     <path d="M 399.105235 284.98213 
L 401.738833 305.810666 
Q 401.851732 306.703557 402.744623 306.590658 
L 408.505628 305.862226 
Q 409.398519 305.749328 409.28562 304.856437 
L 406.652022 284.0279 
Q 406.539123 283.135009 405.646233 283.247908 
L 399.885227 283.97634 
Q 398.992336 284.089239 399.105235 284.98213 
z
" clip-path="url(#pc46290863e)" style="fill: #ffffff; opacity: 0.8"/>
    </g>
    <g clip-path="url(#pc46290863e)">
     <!-- 0.0207 -->
     <g style="fill: #444444" transform="translate(401.236082 284.712701)rotate(-277.206341)scale(0.06 -0.06)">
      <use xlink:href="#DejaVuSans-30"/>
      <use xlink:href="#DejaVuSans-2e" x="63.623047"/>
      <use xlink:href="#DejaVuSans-30" x="95.410156"/>
      <use xlink:href="#DejaVuSans-32" x="159.033203"/>
      <use xlink:href="#DejaVuSans-30" x="222.65625"/>
      <use xlink:href="#DejaVuSans-37" x="286.279297"/>
     </g>
    </g>
   </g>
   <g id="text_15">
    <g id="patch_33">
     <path d="M 493.843359 204.845174 
L 509.516315 221.895119 
Q 510.125392 222.557708 510.787982 221.948631 
L 515.063064 218.018813 
Q 515.725653 217.409736 515.116576 216.747146 
L 499.44362 199.697201 
Q 498.834542 199.034612 498.171953 199.643689 
L 493.896871 203.573507 
Q 493.234281 204.182585 493.843359 204.845174 
z
" clip-path="url(#pc46290863e)" style="fill: #ffffff; opacity: 0.8"/>
    </g>
    <g clip-path="url(#pc46290863e)">
     <!-- -0.0049 -->
     <g style="fill: #444444" transform="translate(495.424601 203.391636)rotate(-312.5904)scale(0.06 -0.06)">
      <use xlink:href="#DejaVuSans-2d"/>
      <use xlink:href="#DejaVuSans-30" x="36.083984"/>
      <use xlink:href="#DejaVuSans-2e" x="99.707031"/>
      <use xlink:href="#DejaVuSans-30" x="131.494141"/>
      <use xlink:href="#DejaVuSans-30" x="195.117188"/>
      <use xlink:href="#DejaVuSans-34" x="258.740234"/>
      <use xlink:href="#DejaVuSans-39" x="322.363281"/>
     </g>
    </g>
   </g>
   <g id="text_16">
    <g id="patch_34">
     <path d="M 312.04646 78.450006 
L 333.004587 77.216839 
Q 333.903033 77.163975 333.850169 76.265529 
L 333.509085 70.46868 
Q 333.456221 69.570234 332.557775 69.623098 
L 311.599648 70.856264 
Q 310.701202 70.909129 310.754066 71.807575 
L 311.09515 77.604424 
Q 311.148014 78.50287 312.04646 78.450006 
z
" clip-path="url(#pc46290863e)" style="fill: #ffffff; opacity: 0.8"/>
    </g>
    <g clip-path="url(#pc46290863e)">
     <!-- 0.0199 -->
     <g style="fill: #444444" transform="translate(311.920302 76.305902)rotate(-3.367375)scale(0.06 -0.06)">
      <use xlink:href="#DejaVuSans-30"/>
      <use xlink:href="#DejaVuSans-2e" x="63.623047"/>
      <use xlink:href="#DejaVuSans-30" x="95.410156"/>
      <use xlink:href="#DejaVuSans-31" x="159.033203"/>
      <use xlink:href="#DejaVuSans-39" x="222.65625"/>
      <use xlink:href="#DejaVuSans-39" x="286.279297"/>
     </g>
    </g>
   </g>
   <g id="text_17">
    <g id="patch_35">
     <path d="M 494.724474 131.129058 
L 513.713992 140.082381 
Q 514.528046 140.466197 514.911863 139.652143 
L 517.38828 134.399795 
Q 517.772097 133.58574 516.958042 133.201924 
L 497.968524 124.248601 
Q 497.154469 123.864785 496.770653 124.678839 
L 494.294236 129.931187 
Q 493.910419 130.745241 494.724474 131.129058 
z
" clip-path="url(#pc46290863e)" style="fill: #ffffff; opacity: 0.8"/>
    </g>
    <g clip-path="url(#pc46290863e)">
     <!-- 0.0092 -->
     <g style="fill: #444444" transform="translate(495.640436 129.186351)rotate(-334.756703)scale(0.06 -0.06)">
      <use xlink:href="#DejaVuSans-30"/>
      <use xlink:href="#DejaVuSans-2e" x="63.623047"/>
      <use xlink:href="#DejaVuSans-30" x="95.410156"/>
      <use xlink:href="#DejaVuSans-30" x="159.033203"/>
      <use xlink:href="#DejaVuSans-39" x="222.65625"/>
      <use xlink:href="#DejaVuSans-32" x="286.279297"/>
     </g>
    </g>
   </g>
   <g id="PathCollection_1">
    <path d="M 375.868094 90.249671 
C 381.00373 90.249671 385.929715 88.209262 389.561158 84.577819 
C 393.192601 80.946376 395.233011 76.020391 395.233011 70.884755 
C 395.233011 65.749119 393.192601 60.823134 389.561158 57.191691 
C 385.929715 53.560248 381.00373 51.519838 375.868094 51.519838 
C 370.732458 51.519838 365.806473 53.560248 362.17503 57.191691 
C 358.543587 60.823134 356.503177 65.749119 356.503177 70.884755 
C 356.503177 76.020391 358.543587 80.946376 362.17503 84.577819 
C 365.806473 88.209262 370.732458 90.249671 375.868094 90.249671 
z
" clip-path="url(#pc46290863e)" style="fill: #d62728; fill-opacity: 0.9; stroke: #333333; stroke-opacity: 0.9"/>
    <path d="M 648.940165 282.336545 
C 651.350028 282.336545 653.661514 281.379097 655.365544 279.675066 
C 657.069575 277.971036 658.027023 275.65955 658.027023 273.249687 
C 658.027023 270.839824 657.069575 268.528339 655.365544 266.824308 
C 653.661514 265.120278 651.350028 264.162829 648.940165 264.162829 
C 646.530302 264.162829 644.218817 265.120278 642.514786 266.824308 
C 640.810756 268.528339 639.853307 270.839824 639.853307 273.249687 
C 639.853307 275.65955 640.810756 277.971036 642.514786 279.675066 
C 644.218817 281.379097 646.530302 282.336545 648.940165 282.336545 
z
" clip-path="url(#pc46290863e)" style="fill: #a8d5ba; fill-opacity: 0.9; stroke: #333333; stroke-opacity: 0.9"/>
    <path d="M 223.59386 509.397076 
C 225.957117 509.397076 228.2239 508.458144 229.894975 506.787068 
C 231.56605 505.115993 232.504982 502.849211 232.504982 500.485954 
C 232.504982 498.122696 231.56605 495.855914 229.894975 494.184839 
C 228.2239 492.513764 225.957117 491.574832 223.59386 491.574832 
C 221.230603 491.574832 218.963821 492.513764 217.292745 494.184839 
C 215.62167 495.855914 214.682738 498.122696 214.682738 500.485954 
C 214.682738 502.849211 215.62167 505.115993 217.292745 506.787068 
C 218.963821 508.458144 221.230603 509.397076 223.59386 509.397076 
z
" clip-path="url(#pc46290863e)" style="fill: #a8d5ba; fill-opacity: 0.9; stroke: #333333; stroke-opacity: 0.9"/>
    <path d="M 68.723054 240.766531 
C 71.08256 240.766531 73.345744 239.829089 75.014167 238.160666 
C 76.68259 236.492243 77.620032 234.229059 77.620032 231.869553 
C 77.620032 229.510046 76.68259 227.246862 75.014167 225.578439 
C 73.345744 223.910016 71.08256 222.972575 68.723054 222.972575 
C 66.363548 222.972575 64.100363 223.910016 62.43194 225.578439 
C 60.763517 227.246862 59.826076 229.510046 59.826076 231.869553 
C 59.826076 234.229059 60.763517 236.492243 62.43194 238.160666 
C 64.100363 239.829089 66.363548 240.766531 68.723054 240.766531 
z
" clip-path="url(#pc46290863e)" style="fill: #a8d5ba; fill-opacity: 0.9; stroke: #333333; stroke-opacity: 0.9"/>
    <path d="M 559.795261 149.052348 
C 562.13892 149.052348 564.386904 148.121203 566.044121 146.463985 
C 567.701338 144.806768 568.632484 142.558784 568.632484 140.215125 
C 568.632484 137.871466 567.701338 135.623482 566.044121 133.966265 
C 564.386904 132.309048 562.13892 131.377902 559.795261 131.377902 
C 557.451602 131.377902 555.203618 132.309048 553.546401 133.966265 
C 551.889183 135.623482 550.958038 137.871466 550.958038 140.215125 
C 550.958038 142.558784 551.889183 144.806768 553.546401 146.463985 
C 555.203618 148.121203 557.451602 149.052348 559.795261 149.052348 
z
" clip-path="url(#pc46290863e)" style="fill: #a8d5ba; fill-opacity: 0.9; stroke: #333333; stroke-opacity: 0.9"/>
    <path d="M 110.302592 164.349206 
C 112.765178 164.349206 115.127235 163.370811 116.868546 161.629499 
C 118.609857 159.888188 119.588253 157.526131 119.588253 155.063545 
C 119.588253 152.600959 118.609857 150.238902 116.868546 148.497591 
C 115.127235 146.756279 112.765178 145.777883 110.302592 145.777883 
C 107.840005 145.777883 105.477949 146.756279 103.736637 148.497591 
C 101.995326 150.238902 101.01693 152.600959 101.01693 155.063545 
C 101.01693 157.526131 101.995326 159.888188 103.736637 161.629499 
C 105.477949 163.370811 107.840005 164.349206 110.302592 164.349206 
z
" clip-path="url(#pc46290863e)" style="fill: #a8d5ba; fill-opacity: 0.9; stroke: #333333; stroke-opacity: 0.9"/>
    <path d="M 608.289053 434.676808 
C 610.708353 434.676808 613.02889 433.71561 614.739593 432.004907 
C 616.450296 430.294204 617.411494 427.973666 617.411494 425.554367 
C 617.411494 423.135067 616.450296 420.81453 614.739593 419.103827 
C 613.02889 417.393124 610.708353 416.431926 608.289053 416.431926 
C 605.869754 416.431926 603.549216 417.393124 601.838513 419.103827 
C 600.12781 420.81453 599.166612 423.135067 599.166612 425.554367 
C 599.166612 427.973666 600.12781 430.294204 601.838513 432.004907 
C 603.549216 433.71561 605.869754 434.676808 608.289053 434.676808 
z
" clip-path="url(#pc46290863e)" style="fill: #a8d5ba; fill-opacity: 0.9; stroke: #333333; stroke-opacity: 0.9"/>
    <path d="M 86.874735 395.359001 
C 89.209224 395.359001 91.448413 394.431499 93.099146 392.780766 
C 94.749879 391.130033 95.677382 388.890844 95.677382 386.556354 
C 95.677382 384.221865 94.749879 381.982676 93.099146 380.331943 
C 91.448413 378.68121 89.209224 377.753707 86.874735 377.753707 
C 84.540246 377.753707 82.301057 378.68121 80.650323 380.331943 
C 78.99959 381.982676 78.072088 384.221865 78.072088 386.556354 
C 78.072088 388.890844 78.99959 391.130033 80.650323 392.780766 
C 82.301057 394.431499 84.540246 395.359001 86.874735 395.359001 
z
" clip-path="url(#pc46290863e)" style="fill: #a8d5ba; fill-opacity: 0.9; stroke: #333333; stroke-opacity: 0.9"/>
    <path d="M 196.301775 134.144494 
C 198.716507 134.144494 201.032663 133.185111 202.740136 131.477638 
C 204.44761 129.770165 205.406993 127.454009 205.406993 125.039277 
C 205.406993 122.624545 204.44761 120.308389 202.740136 118.600916 
C 201.032663 116.893443 198.716507 115.93406 196.301775 115.93406 
C 193.887044 115.93406 191.570888 116.893443 189.863415 118.600916 
C 188.155941 120.308389 187.196558 122.624545 187.196558 125.039277 
C 187.196558 127.454009 188.155941 129.770165 189.863415 131.477638 
C 191.570888 133.185111 193.887044 134.144494 196.301775 134.144494 
z
" clip-path="url(#pc46290863e)" style="fill: #a8d5ba; fill-opacity: 0.9; stroke: #333333; stroke-opacity: 0.9"/>
    <path d="M 327.755427 522.368619 
C 330.194562 522.368619 332.534125 521.399541 334.258854 519.674812 
C 335.983582 517.950083 336.952661 515.61052 336.952661 513.171385 
C 336.952661 510.73225 335.983582 508.392688 334.258854 506.667959 
C 332.534125 504.94323 330.194562 503.974151 327.755427 503.974151 
C 325.316292 503.974151 322.976729 504.94323 321.252 506.667959 
C 319.527271 508.392688 318.558193 510.73225 318.558193 513.171385 
C 318.558193 515.61052 319.527271 517.950083 321.252 519.674812 
C 322.976729 521.399541 325.316292 522.368619 327.755427 522.368619 
z
" clip-path="url(#pc46290863e)" style="fill: #a8d5ba; fill-opacity: 0.9; stroke: #333333; stroke-opacity: 0.9"/>
    <path d="M 529.855982 490.411718 
C 532.28744 490.411718 534.61964 489.445689 536.33894 487.726389 
C 538.058241 486.007088 539.02427 483.674888 539.02427 481.24343 
C 539.02427 478.811972 538.058241 476.479772 536.33894 474.760471 
C 534.61964 473.04117 532.28744 472.075142 529.855982 472.075142 
C 527.424523 472.075142 525.092324 473.04117 523.373023 474.760471 
C 521.653722 476.479772 520.687694 478.811972 520.687694 481.24343 
C 520.687694 483.674888 521.653722 486.007088 523.373023 487.726389 
C 525.092324 489.445689 527.424523 490.411718 529.855982 490.411718 
z
" clip-path="url(#pc46290863e)" style="fill: #a8d5ba; fill-opacity: 0.9; stroke: #333333; stroke-opacity: 0.9"/>
    <path d="M 148.825173 455.31829 
C 151.496267 455.31829 154.058318 454.257053 155.947067 452.368305 
C 157.835815 450.479557 158.897051 447.917505 158.897051 445.246411 
C 158.897051 442.575318 157.835815 440.013266 155.947067 438.124518 
C 154.058318 436.23577 151.496267 435.174533 148.825173 435.174533 
C 146.15408 435.174533 143.592028 436.23577 141.70328 438.124518 
C 139.814532 440.013266 138.753295 442.575318 138.753295 445.246411 
C 138.753295 447.917505 139.814532 450.479557 141.70328 452.368305 
C 143.592028 454.257053 146.15408 455.31829 148.825173 455.31829 
z
" clip-path="url(#pc46290863e)" style="fill: #a8d5ba; fill-opacity: 0.9; stroke: #333333; stroke-opacity: 0.9"/>
    <path d="M 474.265211 106.372282 
C 476.811376 106.372282 479.2536 105.36068 481.054011 103.560269 
C 482.854422 101.759858 483.866024 99.317635 483.866024 96.771469 
C 483.866024 94.225304 482.854422 91.78308 481.054011 89.98267 
C 479.2536 88.182259 476.811376 87.170657 474.265211 87.170657 
C 471.719046 87.170657 469.276822 88.182259 467.476411 89.98267 
C 465.676001 91.78308 464.664399 94.225304 464.664399 96.771469 
C 464.664399 99.317635 465.676001 101.759858 467.476411 103.560269 
C 469.276822 105.36068 471.719046 106.372282 474.265211 106.372282 
z
" clip-path="url(#pc46290863e)" style="fill: #a8d5ba; fill-opacity: 0.9; stroke: #333333; stroke-opacity: 0.9"/>
    <path d="M 68.179835 318.922095 
C 70.586549 318.922095 72.895014 317.965897 74.596818 316.264093 
C 76.298622 314.562289 77.25482 312.253823 77.25482 309.847109 
C 77.25482 307.440395 76.298622 305.131929 74.596818 303.430125 
C 72.895014 301.728321 70.586549 300.772124 68.179835 300.772124 
C 65.77312 300.772124 63.464655 301.728321 61.762851 303.430125 
C 60.061047 305.131929 59.104849 307.440395 59.104849 309.847109 
C 59.104849 312.253823 60.061047 314.562289 61.762851 316.264093 
C 63.464655 317.965897 65.77312 318.922095 68.179835 318.922095 
z
" clip-path="url(#pc46290863e)" style="fill: #a8d5ba; fill-opacity: 0.9; stroke: #333333; stroke-opacity: 0.9"/>
    <path d="M 432.522389 528.270159 
C 434.993893 528.270159 437.364504 527.28822 439.112121 525.540603 
C 440.859739 523.792985 441.841678 521.422375 441.841678 518.95087 
C 441.841678 516.479366 440.859739 514.108756 439.112121 512.361138 
C 437.364504 510.613521 434.993893 509.631582 432.522389 509.631582 
C 430.050885 509.631582 427.680274 510.613521 425.932657 512.361138 
C 424.185039 514.108756 423.2031 516.479366 423.2031 518.95087 
C 423.2031 521.422375 424.185039 523.792985 425.932657 525.540603 
C 427.680274 527.28822 430.050885 528.270159 432.522389 528.270159 
z
" clip-path="url(#pc46290863e)" style="fill: #a8d5ba; fill-opacity: 0.9; stroke: #333333; stroke-opacity: 0.9"/>
    <path d="M 633.091185 359.526719 
C 635.430241 359.526719 637.67381 358.597402 639.327773 356.94344 
C 640.981735 355.289478 641.911052 353.045908 641.911052 350.706852 
C 641.911052 348.367796 640.981735 346.124227 639.327773 344.470265 
C 637.67381 342.816302 635.430241 341.886985 633.091185 341.886985 
C 630.752129 341.886985 628.50856 342.816302 626.854597 344.470265 
C 625.200635 346.124227 624.271318 348.367796 624.271318 350.706852 
C 624.271318 353.045908 625.200635 355.289478 626.854597 356.94344 
C 628.50856 358.597402 630.752129 359.526719 633.091185 359.526719 
z
" clip-path="url(#pc46290863e)" style="fill: #a8d5ba; fill-opacity: 0.9; stroke: #333333; stroke-opacity: 0.9"/>
    <path d="M 268.735393 86.483506 
C 271.200486 86.483506 273.564947 85.504114 275.308031 83.761031 
C 277.051114 82.017947 278.030506 79.653486 278.030506 77.188393 
C 278.030506 74.7233 277.051114 72.358839 275.308031 70.615756 
C 273.564947 68.872672 271.200486 67.89328 268.735393 67.89328 
C 266.2703 67.89328 263.905839 68.872672 262.162756 70.615756 
C 260.419672 72.358839 259.44028 74.7233 259.44028 77.188393 
C 259.44028 79.653486 260.419672 82.017947 262.162756 83.761031 
C 263.905839 85.504114 266.2703 86.483506 268.735393 86.483506 
z
" clip-path="url(#pc46290863e)" style="fill: #a8d5ba; fill-opacity: 0.9; stroke: #333333; stroke-opacity: 0.9"/>
    <path d="M 635.811991 202.404742 
C 638.188121 202.404742 640.467251 201.460696 642.147428 199.780518 
C 643.827606 198.100341 644.771652 195.821211 644.771652 193.445081 
C 644.771652 191.068951 643.827606 188.789822 642.147428 187.109644 
C 640.467251 185.429466 638.188121 184.48542 635.811991 184.48542 
C 633.435861 184.48542 631.156731 185.429466 629.476554 187.109644 
C 627.796376 188.789822 626.85233 191.068951 626.85233 193.445081 
C 626.85233 195.821211 627.796376 198.100341 629.476554 199.780518 
C 631.156731 201.460696 633.435861 202.404742 635.811991 202.404742 
z
" clip-path="url(#pc46290863e)" style="fill: #a8d5ba; fill-opacity: 0.9; stroke: #333333; stroke-opacity: 0.9"/>
   </g>
   <g id="text_18">
    <g clip-path="url(#pc46290863e)">
     <!-- Price -->
     <g transform="translate(361.668094 73.64413)scale(0.1 -0.1)">
      <defs>
       <path id="DejaVuSans-Bold-50" d="M 588 4666 
L 2584 4666 
Q 3475 4666 3951 4270 
Q 4428 3875 4428 3144 
Q 4428 2409 3951 2014 
Q 3475 1619 2584 1619 
L 1791 1619 
L 1791 0 
L 588 0 
L 588 4666 
z
M 1791 3794 
L 1791 2491 
L 2456 2491 
Q 2806 2491 2997 2661 
Q 3188 2831 3188 3144 
Q 3188 3456 2997 3625 
Q 2806 3794 2456 3794 
L 1791 3794 
z
" transform="scale(0.015625)"/>
       <path id="DejaVuSans-Bold-72" d="M 3138 2547 
Q 2991 2616 2845 2648 
Q 2700 2681 2553 2681 
Q 2122 2681 1889 2404 
Q 1656 2128 1656 1613 
L 1656 0 
L 538 0 
L 538 3500 
L 1656 3500 
L 1656 2925 
Q 1872 3269 2151 3426 
Q 2431 3584 2822 3584 
Q 2878 3584 2943 3579 
Q 3009 3575 3134 3559 
L 3138 2547 
z
" transform="scale(0.015625)"/>
       <path id="DejaVuSans-Bold-69" d="M 538 3500 
L 1656 3500 
L 1656 0 
L 538 0 
L 538 3500 
z
M 538 4863 
L 1656 4863 
L 1656 3950 
L 538 3950 
L 538 4863 
z
" transform="scale(0.015625)"/>
       <path id="DejaVuSans-Bold-63" d="M 3366 3391 
L 3366 2478 
Q 3138 2634 2908 2709 
Q 2678 2784 2431 2784 
Q 1963 2784 1702 2511 
Q 1441 2238 1441 1747 
Q 1441 1256 1702 982 
Q 1963 709 2431 709 
Q 2694 709 2930 787 
Q 3166 866 3366 1019 
L 3366 103 
Q 3103 6 2833 -42 
Q 2563 -91 2291 -91 
Q 1344 -91 809 395 
Q 275 881 275 1747 
Q 275 2613 809 3098 
Q 1344 3584 2291 3584 
Q 2566 3584 2833 3536 
Q 3100 3488 3366 3391 
z
" transform="scale(0.015625)"/>
       <path id="DejaVuSans-Bold-65" d="M 4031 1759 
L 4031 1441 
L 1416 1441 
Q 1456 1047 1700 850 
Q 1944 653 2381 653 
Q 2734 653 3104 758 
Q 3475 863 3866 1075 
L 3866 213 
Q 3469 63 3072 -14 
Q 2675 -91 2278 -91 
Q 1328 -91 801 392 
Q 275 875 275 1747 
Q 275 2603 792 3093 
Q 1309 3584 2216 3584 
Q 3041 3584 3536 3087 
Q 4031 2591 4031 1759 
z
M 2881 2131 
Q 2881 2450 2695 2645 
Q 2509 2841 2209 2841 
Q 1884 2841 1681 2658 
Q 1478 2475 1428 2131 
L 2881 2131 
z
" transform="scale(0.015625)"/>
      </defs>
      <use xlink:href="#DejaVuSans-Bold-50"/>
      <use xlink:href="#DejaVuSans-Bold-72" x="73.291016"/>
      <use xlink:href="#DejaVuSans-Bold-69" x="122.607422"/>
      <use xlink:href="#DejaVuSans-Bold-63" x="156.884766"/>
      <use xlink:href="#DejaVuSans-Bold-65" x="216.162109"/>
     </g>
    </g>
   </g>
   <g id="text_19">
    <g clip-path="url(#pc46290863e)">
     <!-- Gas -->
     <g transform="translate(638.486259 276.009062)scale(0.1 -0.1)">
      <defs>
       <path id="DejaVuSans-Bold-47" d="M 4781 347 
Q 4331 128 3847 18 
Q 3363 -91 2847 -91 
Q 1681 -91 1000 561 
Q 319 1213 319 2328 
Q 319 3456 1012 4103 
Q 1706 4750 2913 4750 
Q 3378 4750 3804 4662 
Q 4231 4575 4609 4403 
L 4609 3438 
Q 4219 3659 3833 3768 
Q 3447 3878 3059 3878 
Q 2341 3878 1952 3476 
Q 1563 3075 1563 2328 
Q 1563 1588 1938 1184 
Q 2313 781 3003 781 
Q 3191 781 3352 804 
Q 3513 828 3641 878 
L 3641 1784 
L 2906 1784 
L 2906 2591 
L 4781 2591 
L 4781 347 
z
" transform="scale(0.015625)"/>
       <path id="DejaVuSans-Bold-61" d="M 2106 1575 
Q 1756 1575 1579 1456 
Q 1403 1338 1403 1106 
Q 1403 894 1545 773 
Q 1688 653 1941 653 
Q 2256 653 2472 879 
Q 2688 1106 2688 1447 
L 2688 1575 
L 2106 1575 
z
M 3816 1997 
L 3816 0 
L 2688 0 
L 2688 519 
Q 2463 200 2181 54 
Q 1900 -91 1497 -91 
Q 953 -91 614 226 
Q 275 544 275 1050 
Q 275 1666 698 1953 
Q 1122 2241 2028 2241 
L 2688 2241 
L 2688 2328 
Q 2688 2594 2478 2717 
Q 2269 2841 1825 2841 
Q 1466 2841 1156 2769 
Q 847 2697 581 2553 
L 581 3406 
Q 941 3494 1303 3539 
Q 1666 3584 2028 3584 
Q 2975 3584 3395 3211 
Q 3816 2838 3816 1997 
z
" transform="scale(0.015625)"/>
       <path id="DejaVuSans-Bold-73" d="M 3272 3391 
L 3272 2541 
Q 2913 2691 2578 2766 
Q 2244 2841 1947 2841 
Q 1628 2841 1473 2761 
Q 1319 2681 1319 2516 
Q 1319 2381 1436 2309 
Q 1553 2238 1856 2203 
L 2053 2175 
Q 2913 2066 3209 1816 
Q 3506 1566 3506 1031 
Q 3506 472 3093 190 
Q 2681 -91 1863 -91 
Q 1516 -91 1145 -36 
Q 775 19 384 128 
L 384 978 
Q 719 816 1070 734 
Q 1422 653 1784 653 
Q 2113 653 2278 743 
Q 2444 834 2444 1013 
Q 2444 1163 2330 1236 
Q 2216 1309 1875 1350 
L 1678 1375 
Q 931 1469 631 1722 
Q 331 1975 331 2491 
Q 331 3047 712 3315 
Q 1094 3584 1881 3584 
Q 2191 3584 2531 3537 
Q 2872 3491 3272 3391 
z
" transform="scale(0.015625)"/>
      </defs>
      <use xlink:href="#DejaVuSans-Bold-47"/>
      <use xlink:href="#DejaVuSans-Bold-61" x="82.080078"/>
      <use xlink:href="#DejaVuSans-Bold-73" x="149.560547"/>
     </g>
    </g>
   </g>
   <g id="text_20">
    <g clip-path="url(#pc46290863e)">
     <!-- Hard Coal -->
     <g transform="translate(196.057141 503.245329)scale(0.1 -0.1)">
      <defs>
       <path id="DejaVuSans-Bold-48" d="M 588 4666 
L 1791 4666 
L 1791 2888 
L 3566 2888 
L 3566 4666 
L 4769 4666 
L 4769 0 
L 3566 0 
L 3566 1978 
L 1791 1978 
L 1791 0 
L 588 0 
L 588 4666 
z
" transform="scale(0.015625)"/>
       <path id="DejaVuSans-Bold-64" d="M 2919 2988 
L 2919 4863 
L 4044 4863 
L 4044 0 
L 2919 0 
L 2919 506 
Q 2688 197 2409 53 
Q 2131 -91 1766 -91 
Q 1119 -91 703 423 
Q 288 938 288 1747 
Q 288 2556 703 3070 
Q 1119 3584 1766 3584 
Q 2128 3584 2408 3439 
Q 2688 3294 2919 2988 
z
M 2181 722 
Q 2541 722 2730 984 
Q 2919 1247 2919 1747 
Q 2919 2247 2730 2509 
Q 2541 2772 2181 2772 
Q 1825 2772 1636 2509 
Q 1447 2247 1447 1747 
Q 1447 1247 1636 984 
Q 1825 722 2181 722 
z
" transform="scale(0.015625)"/>
       <path id="DejaVuSans-Bold-20" transform="scale(0.015625)"/>
       <path id="DejaVuSans-Bold-43" d="M 4288 256 
Q 3956 84 3597 -3 
Q 3238 -91 2847 -91 
Q 1681 -91 1000 561 
Q 319 1213 319 2328 
Q 319 3447 1000 4098 
Q 1681 4750 2847 4750 
Q 3238 4750 3597 4662 
Q 3956 4575 4288 4403 
L 4288 3438 
Q 3953 3666 3628 3772 
Q 3303 3878 2944 3878 
Q 2300 3878 1931 3465 
Q 1563 3053 1563 2328 
Q 1563 1606 1931 1193 
Q 2300 781 2944 781 
Q 3303 781 3628 887 
Q 3953 994 4288 1222 
L 4288 256 
z
" transform="scale(0.015625)"/>
       <path id="DejaVuSans-Bold-6f" d="M 2203 2784 
Q 1831 2784 1636 2517 
Q 1441 2250 1441 1747 
Q 1441 1244 1636 976 
Q 1831 709 2203 709 
Q 2569 709 2762 976 
Q 2956 1244 2956 1747 
Q 2956 2250 2762 2517 
Q 2569 2784 2203 2784 
z
M 2203 3584 
Q 3106 3584 3614 3096 
Q 4122 2609 4122 1747 
Q 4122 884 3614 396 
Q 3106 -91 2203 -91 
Q 1297 -91 786 396 
Q 275 884 275 1747 
Q 275 2609 786 3096 
Q 1297 3584 2203 3584 
z
" transform="scale(0.015625)"/>
       <path id="DejaVuSans-Bold-6c" d="M 538 4863 
L 1656 4863 
L 1656 0 
L 538 0 
L 538 4863 
z
" transform="scale(0.015625)"/>
      </defs>
      <use xlink:href="#DejaVuSans-Bold-48"/>
      <use xlink:href="#DejaVuSans-Bold-61" x="83.691406"/>
      <use xlink:href="#DejaVuSans-Bold-72" x="151.171875"/>
      <use xlink:href="#DejaVuSans-Bold-64" x="200.488281"/>
      <use xlink:href="#DejaVuSans-Bold-20" x="272.070312"/>
      <use xlink:href="#DejaVuSans-Bold-43" x="306.884766"/>
      <use xlink:href="#DejaVuSans-Bold-6f" x="380.273438"/>
      <use xlink:href="#DejaVuSans-Bold-61" x="448.974609"/>
      <use xlink:href="#DejaVuSans-Bold-6c" x="516.455078"/>
     </g>
    </g>
   </g>
   <g id="text_21">
    <g clip-path="url(#pc46290863e)">
     <!-- Hydro Pumped -->
     <g transform="translate(27.075397 234.589865)scale(0.1 -0.1)">
      <defs>
       <path id="DejaVuSans-Bold-79" d="M 78 3500 
L 1197 3500 
L 2138 1125 
L 2938 3500 
L 4056 3500 
L 2584 -331 
Q 2363 -916 2067 -1148 
Q 1772 -1381 1288 -1381 
L 641 -1381 
L 641 -647 
L 991 -647 
Q 1275 -647 1404 -556 
Q 1534 -466 1606 -231 
L 1638 -134 
L 78 3500 
z
" transform="scale(0.015625)"/>
       <path id="DejaVuSans-Bold-75" d="M 500 1363 
L 500 3500 
L 1625 3500 
L 1625 3150 
Q 1625 2866 1622 2436 
Q 1619 2006 1619 1863 
Q 1619 1441 1641 1255 
Q 1663 1069 1716 984 
Q 1784 875 1895 815 
Q 2006 756 2150 756 
Q 2500 756 2700 1025 
Q 2900 1294 2900 1772 
L 2900 3500 
L 4019 3500 
L 4019 0 
L 2900 0 
L 2900 506 
Q 2647 200 2364 54 
Q 2081 -91 1741 -91 
Q 1134 -91 817 281 
Q 500 653 500 1363 
z
" transform="scale(0.015625)"/>
       <path id="DejaVuSans-Bold-6d" d="M 3781 2919 
Q 3994 3244 4286 3414 
Q 4578 3584 4928 3584 
Q 5531 3584 5847 3212 
Q 6163 2841 6163 2131 
L 6163 0 
L 5038 0 
L 5038 1825 
Q 5041 1866 5042 1909 
Q 5044 1953 5044 2034 
Q 5044 2406 4934 2573 
Q 4825 2741 4581 2741 
Q 4263 2741 4089 2478 
Q 3916 2216 3909 1719 
L 3909 0 
L 2784 0 
L 2784 1825 
Q 2784 2406 2684 2573 
Q 2584 2741 2328 2741 
Q 2006 2741 1831 2477 
Q 1656 2213 1656 1722 
L 1656 0 
L 531 0 
L 531 3500 
L 1656 3500 
L 1656 2988 
Q 1863 3284 2130 3434 
Q 2397 3584 2719 3584 
Q 3081 3584 3359 3409 
Q 3638 3234 3781 2919 
z
" transform="scale(0.015625)"/>
       <path id="DejaVuSans-Bold-70" d="M 1656 506 
L 1656 -1331 
L 538 -1331 
L 538 3500 
L 1656 3500 
L 1656 2988 
Q 1888 3294 2169 3439 
Q 2450 3584 2816 3584 
Q 3463 3584 3878 3070 
Q 4294 2556 4294 1747 
Q 4294 938 3878 423 
Q 3463 -91 2816 -91 
Q 2450 -91 2169 54 
Q 1888 200 1656 506 
z
M 2400 2772 
Q 2041 2772 1848 2508 
Q 1656 2244 1656 1747 
Q 1656 1250 1848 986 
Q 2041 722 2400 722 
Q 2759 722 2948 984 
Q 3138 1247 3138 1747 
Q 3138 2247 2948 2509 
Q 2759 2772 2400 2772 
z
" transform="scale(0.015625)"/>
      </defs>
      <use xlink:href="#DejaVuSans-Bold-48"/>
      <use xlink:href="#DejaVuSans-Bold-79" x="83.691406"/>
      <use xlink:href="#DejaVuSans-Bold-64" x="148.876953"/>
      <use xlink:href="#DejaVuSans-Bold-72" x="220.458984"/>
      <use xlink:href="#DejaVuSans-Bold-6f" x="269.775391"/>
      <use xlink:href="#DejaVuSans-Bold-20" x="338.476562"/>
      <use xlink:href="#DejaVuSans-Bold-50" x="373.291016"/>
      <use xlink:href="#DejaVuSans-Bold-75" x="446.582031"/>
      <use xlink:href="#DejaVuSans-Bold-6d" x="517.773438"/>
      <use xlink:href="#DejaVuSans-Bold-70" x="621.972656"/>
      <use xlink:href="#DejaVuSans-Bold-65" x="693.554688"/>
      <use xlink:href="#DejaVuSans-Bold-64" x="761.376953"/>
     </g>
    </g>
   </g>
   <g id="text_22">
    <g clip-path="url(#pc46290863e)">
     <!-- Nuclear -->
     <g transform="translate(538.142136 142.9745)scale(0.1 -0.1)">
      <defs>
       <path id="DejaVuSans-Bold-4e" d="M 588 4666 
L 1931 4666 
L 3628 1466 
L 3628 4666 
L 4769 4666 
L 4769 0 
L 3425 0 
L 1728 3200 
L 1728 0 
L 588 0 
L 588 4666 
z
" transform="scale(0.015625)"/>
      </defs>
      <use xlink:href="#DejaVuSans-Bold-4e"/>
      <use xlink:href="#DejaVuSans-Bold-75" x="83.691406"/>
      <use xlink:href="#DejaVuSans-Bold-63" x="154.882812"/>
      <use xlink:href="#DejaVuSans-Bold-6c" x="214.160156"/>
      <use xlink:href="#DejaVuSans-Bold-65" x="248.4375"/>
      <use xlink:href="#DejaVuSans-Bold-61" x="316.259766"/>
      <use xlink:href="#DejaVuSans-Bold-72" x="383.740234"/>
     </g>
    </g>
   </g>
   <g id="text_23">
    <g clip-path="url(#pc46290863e)">
     <!-- Solar -->
     <g transform="translate(95.712748 157.82292)scale(0.1 -0.1)">
      <defs>
       <path id="DejaVuSans-Bold-53" d="M 3834 4519 
L 3834 3531 
Q 3450 3703 3084 3790 
Q 2719 3878 2394 3878 
Q 1963 3878 1756 3759 
Q 1550 3641 1550 3391 
Q 1550 3203 1689 3098 
Q 1828 2994 2194 2919 
L 2706 2816 
Q 3484 2659 3812 2340 
Q 4141 2022 4141 1434 
Q 4141 663 3683 286 
Q 3225 -91 2284 -91 
Q 1841 -91 1394 -6 
Q 947 78 500 244 
L 500 1259 
Q 947 1022 1364 901 
Q 1781 781 2169 781 
Q 2563 781 2772 912 
Q 2981 1044 2981 1288 
Q 2981 1506 2839 1625 
Q 2697 1744 2272 1838 
L 1806 1941 
Q 1106 2091 782 2419 
Q 459 2747 459 3303 
Q 459 4000 909 4375 
Q 1359 4750 2203 4750 
Q 2588 4750 2994 4692 
Q 3400 4634 3834 4519 
z
" transform="scale(0.015625)"/>
      </defs>
      <use xlink:href="#DejaVuSans-Bold-53"/>
      <use xlink:href="#DejaVuSans-Bold-6f" x="72.021484"/>
      <use xlink:href="#DejaVuSans-Bold-6c" x="140.722656"/>
      <use xlink:href="#DejaVuSans-Bold-61" x="175"/>
      <use xlink:href="#DejaVuSans-Bold-72" x="242.480469"/>
     </g>
    </g>
   </g>
   <g id="text_24">
    <g clip-path="url(#pc46290863e)">
     <!-- Wind Onshore -->
     <g transform="translate(568.543741 428.313742)scale(0.1 -0.1)">
      <defs>
       <path id="DejaVuSans-Bold-57" d="M 191 4666 
L 1344 4666 
L 2150 1275 
L 2950 4666 
L 4109 4666 
L 4909 1275 
L 5716 4666 
L 6859 4666 
L 5759 0 
L 4372 0 
L 3525 3547 
L 2688 0 
L 1300 0 
L 191 4666 
z
" transform="scale(0.015625)"/>
       <path id="DejaVuSans-Bold-6e" d="M 4056 2131 
L 4056 0 
L 2931 0 
L 2931 347 
L 2931 1631 
Q 2931 2084 2911 2256 
Q 2891 2428 2841 2509 
Q 2775 2619 2662 2680 
Q 2550 2741 2406 2741 
Q 2056 2741 1856 2470 
Q 1656 2200 1656 1722 
L 1656 0 
L 538 0 
L 538 3500 
L 1656 3500 
L 1656 2988 
Q 1909 3294 2193 3439 
Q 2478 3584 2822 3584 
Q 3428 3584 3742 3212 
Q 4056 2841 4056 2131 
z
" transform="scale(0.015625)"/>
       <path id="DejaVuSans-Bold-4f" d="M 2719 3878 
Q 2169 3878 1866 3472 
Q 1563 3066 1563 2328 
Q 1563 1594 1866 1187 
Q 2169 781 2719 781 
Q 3272 781 3575 1187 
Q 3878 1594 3878 2328 
Q 3878 3066 3575 3472 
Q 3272 3878 2719 3878 
z
M 2719 4750 
Q 3844 4750 4481 4106 
Q 5119 3463 5119 2328 
Q 5119 1197 4481 553 
Q 3844 -91 2719 -91 
Q 1597 -91 958 553 
Q 319 1197 319 2328 
Q 319 3463 958 4106 
Q 1597 4750 2719 4750 
z
" transform="scale(0.015625)"/>
       <path id="DejaVuSans-Bold-68" d="M 4056 2131 
L 4056 0 
L 2931 0 
L 2931 347 
L 2931 1625 
Q 2931 2084 2911 2256 
Q 2891 2428 2841 2509 
Q 2775 2619 2662 2680 
Q 2550 2741 2406 2741 
Q 2056 2741 1856 2470 
Q 1656 2200 1656 1722 
L 1656 0 
L 538 0 
L 538 4863 
L 1656 4863 
L 1656 2988 
Q 1909 3294 2193 3439 
Q 2478 3584 2822 3584 
Q 3428 3584 3742 3212 
Q 4056 2841 4056 2131 
z
" transform="scale(0.015625)"/>
      </defs>
      <use xlink:href="#DejaVuSans-Bold-57"/>
      <use xlink:href="#DejaVuSans-Bold-69" x="110.302734"/>
      <use xlink:href="#DejaVuSans-Bold-6e" x="144.580078"/>
      <use xlink:href="#DejaVuSans-Bold-64" x="215.771484"/>
      <use xlink:href="#DejaVuSans-Bold-20" x="287.353516"/>
      <use xlink:href="#DejaVuSans-Bold-4f" x="322.167969"/>
      <use xlink:href="#DejaVuSans-Bold-6e" x="407.177734"/>
      <use xlink:href="#DejaVuSans-Bold-73" x="478.369141"/>
      <use xlink:href="#DejaVuSans-Bold-68" x="537.890625"/>
      <use xlink:href="#DejaVuSans-Bold-6f" x="609.082031"/>
      <use xlink:href="#DejaVuSans-Bold-72" x="677.783203"/>
      <use xlink:href="#DejaVuSans-Bold-65" x="727.099609"/>
     </g>
    </g>
   </g>
   <g id="text_25">
    <g clip-path="url(#pc46290863e)">
     <!-- Wind Offshore -->
     <g transform="translate(46.338797 389.315729)scale(0.1 -0.1)">
      <defs>
       <path id="DejaVuSans-Bold-66" d="M 2841 4863 
L 2841 4128 
L 2222 4128 
Q 1984 4128 1890 4042 
Q 1797 3956 1797 3744 
L 1797 3500 
L 2753 3500 
L 2753 2700 
L 1797 2700 
L 1797 0 
L 678 0 
L 678 2700 
L 122 2700 
L 122 3500 
L 678 3500 
L 678 3744 
Q 678 4316 997 4589 
Q 1316 4863 1984 4863 
L 2841 4863 
z
" transform="scale(0.015625)"/>
      </defs>
      <use xlink:href="#DejaVuSans-Bold-57"/>
      <use xlink:href="#DejaVuSans-Bold-69" x="110.302734"/>
      <use xlink:href="#DejaVuSans-Bold-6e" x="144.580078"/>
      <use xlink:href="#DejaVuSans-Bold-64" x="215.771484"/>
      <use xlink:href="#DejaVuSans-Bold-20" x="287.353516"/>
      <use xlink:href="#DejaVuSans-Bold-4f" x="322.167969"/>
      <use xlink:href="#DejaVuSans-Bold-66" x="407.177734"/>
      <use xlink:href="#DejaVuSans-Bold-66" x="450.683594"/>
      <use xlink:href="#DejaVuSans-Bold-73" x="494.189453"/>
      <use xlink:href="#DejaVuSans-Bold-68" x="553.710938"/>
      <use xlink:href="#DejaVuSans-Bold-6f" x="624.902344"/>
      <use xlink:href="#DejaVuSans-Bold-72" x="693.603516"/>
      <use xlink:href="#DejaVuSans-Bold-65" x="742.919922"/>
     </g>
    </g>
   </g>
   <g id="text_26">
    <g clip-path="url(#pc46290863e)">
     <!-- Load -->
     <g transform="translate(182.727557 127.798652)scale(0.1 -0.1)">
      <defs>
       <path id="DejaVuSans-Bold-4c" d="M 588 4666 
L 1791 4666 
L 1791 909 
L 3903 909 
L 3903 0 
L 588 0 
L 588 4666 
z
" transform="scale(0.015625)"/>
      </defs>
      <use xlink:href="#DejaVuSans-Bold-4c"/>
      <use xlink:href="#DejaVuSans-Bold-6f" x="63.720703"/>
      <use xlink:href="#DejaVuSans-Bold-61" x="132.421875"/>
      <use xlink:href="#DejaVuSans-Bold-64" x="199.902344"/>
     </g>
    </g>
   </g>
   <g id="text_27">
    <g clip-path="url(#pc46290863e)">
     <!-- Temperature -->
     <g transform="translate(291.789021 515.93076)scale(0.1 -0.1)">
      <defs>
       <path id="DejaVuSans-Bold-54" d="M 31 4666 
L 4331 4666 
L 4331 3756 
L 2784 3756 
L 2784 0 
L 1581 0 
L 1581 3756 
L 31 3756 
L 31 4666 
z
" transform="scale(0.015625)"/>
       <path id="DejaVuSans-Bold-74" d="M 1759 4494 
L 1759 3500 
L 2913 3500 
L 2913 2700 
L 1759 2700 
L 1759 1216 
Q 1759 972 1856 886 
Q 1953 800 2241 800 
L 2816 800 
L 2816 0 
L 1856 0 
Q 1194 0 917 276 
Q 641 553 641 1216 
L 641 2700 
L 84 2700 
L 84 3500 
L 641 3500 
L 641 4494 
L 1759 4494 
z
" transform="scale(0.015625)"/>
      </defs>
      <use xlink:href="#DejaVuSans-Bold-54"/>
      <use xlink:href="#DejaVuSans-Bold-65" x="54.962891"/>
      <use xlink:href="#DejaVuSans-Bold-6d" x="122.785156"/>
      <use xlink:href="#DejaVuSans-Bold-70" x="226.984375"/>
      <use xlink:href="#DejaVuSans-Bold-65" x="298.566406"/>
      <use xlink:href="#DejaVuSans-Bold-72" x="366.388672"/>
      <use xlink:href="#DejaVuSans-Bold-61" x="415.705078"/>
      <use xlink:href="#DejaVuSans-Bold-74" x="483.185547"/>
      <use xlink:href="#DejaVuSans-Bold-75" x="530.988281"/>
      <use xlink:href="#DejaVuSans-Bold-72" x="602.179688"/>
      <use xlink:href="#DejaVuSans-Bold-65" x="651.496094"/>
     </g>
    </g>
   </g>
   <g id="text_28">
    <g clip-path="url(#pc46290863e)">
     <!-- Wind 10m -->
     <g transform="translate(501.5802 484.002805)scale(0.1 -0.1)">
      <defs>
       <path id="DejaVuSans-Bold-31" d="M 750 831 
L 1813 831 
L 1813 3847 
L 722 3622 
L 722 4441 
L 1806 4666 
L 2950 4666 
L 2950 831 
L 4013 831 
L 4013 0 
L 750 0 
L 750 831 
z
" transform="scale(0.015625)"/>
       <path id="DejaVuSans-Bold-30" d="M 2944 2338 
Q 2944 3213 2780 3570 
Q 2616 3928 2228 3928 
Q 1841 3928 1675 3570 
Q 1509 3213 1509 2338 
Q 1509 1453 1675 1090 
Q 1841 728 2228 728 
Q 2613 728 2778 1090 
Q 2944 1453 2944 2338 
z
M 4147 2328 
Q 4147 1169 3647 539 
Q 3147 -91 2228 -91 
Q 1306 -91 806 539 
Q 306 1169 306 2328 
Q 306 3491 806 4120 
Q 1306 4750 2228 4750 
Q 3147 4750 3647 4120 
Q 4147 3491 4147 2328 
z
" transform="scale(0.015625)"/>
      </defs>
      <use xlink:href="#DejaVuSans-Bold-57"/>
      <use xlink:href="#DejaVuSans-Bold-69" x="110.302734"/>
      <use xlink:href="#DejaVuSans-Bold-6e" x="144.580078"/>
      <use xlink:href="#DejaVuSans-Bold-64" x="215.771484"/>
      <use xlink:href="#DejaVuSans-Bold-20" x="287.353516"/>
      <use xlink:href="#DejaVuSans-Bold-31" x="322.167969"/>
      <use xlink:href="#DejaVuSans-Bold-30" x="391.748047"/>
      <use xlink:href="#DejaVuSans-Bold-6d" x="461.328125"/>
     </g>
    </g>
   </g>
   <g id="text_29">
    <g clip-path="url(#pc46290863e)">
     <!-- Wind 100m -->
     <g transform="translate(117.070486 448.005786)scale(0.1 -0.1)">
      <use xlink:href="#DejaVuSans-Bold-57"/>
      <use xlink:href="#DejaVuSans-Bold-69" x="110.302734"/>
      <use xlink:href="#DejaVuSans-Bold-6e" x="144.580078"/>
      <use xlink:href="#DejaVuSans-Bold-64" x="215.771484"/>
      <use xlink:href="#DejaVuSans-Bold-20" x="287.353516"/>
      <use xlink:href="#DejaVuSans-Bold-31" x="322.167969"/>
      <use xlink:href="#DejaVuSans-Bold-30" x="391.748047"/>
      <use xlink:href="#DejaVuSans-Bold-30" x="461.328125"/>
      <use xlink:href="#DejaVuSans-Bold-6d" x="530.908203"/>
     </g>
    </g>
   </g>
   <g id="text_30">
    <g clip-path="url(#pc46290863e)">
     <!-- Radiation -->
     <g transform="translate(447.275367 99.530844)scale(0.1 -0.1)">
      <defs>
       <path id="DejaVuSans-Bold-52" d="M 2297 2597 
Q 2675 2597 2839 2737 
Q 3003 2878 3003 3200 
Q 3003 3519 2839 3656 
Q 2675 3794 2297 3794 
L 1791 3794 
L 1791 2597 
L 2297 2597 
z
M 1791 1766 
L 1791 0 
L 588 0 
L 588 4666 
L 2425 4666 
Q 3347 4666 3776 4356 
Q 4206 4047 4206 3378 
Q 4206 2916 3982 2619 
Q 3759 2322 3309 2181 
Q 3556 2125 3751 1926 
Q 3947 1728 4147 1325 
L 4800 0 
L 3519 0 
L 2950 1159 
Q 2778 1509 2601 1637 
Q 2425 1766 2131 1766 
L 1791 1766 
z
" transform="scale(0.015625)"/>
      </defs>
      <use xlink:href="#DejaVuSans-Bold-52"/>
      <use xlink:href="#DejaVuSans-Bold-61" x="77.001953"/>
      <use xlink:href="#DejaVuSans-Bold-64" x="144.482422"/>
      <use xlink:href="#DejaVuSans-Bold-69" x="216.064453"/>
      <use xlink:href="#DejaVuSans-Bold-61" x="250.341797"/>
      <use xlink:href="#DejaVuSans-Bold-74" x="317.822266"/>
      <use xlink:href="#DejaVuSans-Bold-69" x="365.625"/>
      <use xlink:href="#DejaVuSans-Bold-6f" x="399.902344"/>
      <use xlink:href="#DejaVuSans-Bold-6e" x="468.603516"/>
     </g>
    </g>
   </g>
   <g id="text_31">
    <g clip-path="url(#pc46290863e)">
     <!-- Cloud Cover -->
     <g transform="translate(34.261085 312.606484)scale(0.1 -0.1)">
      <defs>
       <path id="DejaVuSans-Bold-76" d="M 97 3500 
L 1216 3500 
L 2088 1081 
L 2956 3500 
L 4078 3500 
L 2700 0 
L 1472 0 
L 97 3500 
z
" transform="scale(0.015625)"/>
      </defs>
      <use xlink:href="#DejaVuSans-Bold-43"/>
      <use xlink:href="#DejaVuSans-Bold-6c" x="73.388672"/>
      <use xlink:href="#DejaVuSans-Bold-6f" x="107.666016"/>
      <use xlink:href="#DejaVuSans-Bold-75" x="176.367188"/>
      <use xlink:href="#DejaVuSans-Bold-64" x="247.558594"/>
      <use xlink:href="#DejaVuSans-Bold-20" x="319.140625"/>
      <use xlink:href="#DejaVuSans-Bold-43" x="353.955078"/>
      <use xlink:href="#DejaVuSans-Bold-6f" x="427.34375"/>
      <use xlink:href="#DejaVuSans-Bold-76" x="496.044922"/>
      <use xlink:href="#DejaVuSans-Bold-65" x="561.230469"/>
      <use xlink:href="#DejaVuSans-Bold-72" x="629.052734"/>
     </g>
    </g>
   </g>
   <g id="text_32">
    <g clip-path="url(#pc46290863e)">
     <!-- Precipitation -->
     <g transform="translate(396.16692 521.710245)scale(0.1 -0.1)">
      <use xlink:href="#DejaVuSans-Bold-50"/>
      <use xlink:href="#DejaVuSans-Bold-72" x="73.291016"/>
      <use xlink:href="#DejaVuSans-Bold-65" x="122.607422"/>
      <use xlink:href="#DejaVuSans-Bold-63" x="190.429688"/>
      <use xlink:href="#DejaVuSans-Bold-69" x="249.707031"/>
      <use xlink:href="#DejaVuSans-Bold-70" x="283.984375"/>
      <use xlink:href="#DejaVuSans-Bold-69" x="355.566406"/>
      <use xlink:href="#DejaVuSans-Bold-74" x="389.84375"/>
      <use xlink:href="#DejaVuSans-Bold-61" x="437.646484"/>
      <use xlink:href="#DejaVuSans-Bold-74" x="505.126953"/>
      <use xlink:href="#DejaVuSans-Bold-69" x="552.929688"/>
      <use xlink:href="#DejaVuSans-Bold-6f" x="587.207031"/>
      <use xlink:href="#DejaVuSans-Bold-6e" x="655.908203"/>
     </g>
    </g>
   </g>
   <g id="text_33">
    <g clip-path="url(#pc46290863e)">
     <!-- Nat Gas Price -->
     <g transform="translate(595.007591 353.466227)scale(0.1 -0.1)">
      <use xlink:href="#DejaVuSans-Bold-4e"/>
      <use xlink:href="#DejaVuSans-Bold-61" x="83.691406"/>
      <use xlink:href="#DejaVuSans-Bold-74" x="151.171875"/>
      <use xlink:href="#DejaVuSans-Bold-20" x="198.974609"/>
      <use xlink:href="#DejaVuSans-Bold-47" x="233.789062"/>
      <use xlink:href="#DejaVuSans-Bold-61" x="315.869141"/>
      <use xlink:href="#DejaVuSans-Bold-73" x="383.349609"/>
      <use xlink:href="#DejaVuSans-Bold-20" x="442.871094"/>
      <use xlink:href="#DejaVuSans-Bold-50" x="477.685547"/>
      <use xlink:href="#DejaVuSans-Bold-72" x="550.976562"/>
      <use xlink:href="#DejaVuSans-Bold-69" x="600.292969"/>
      <use xlink:href="#DejaVuSans-Bold-63" x="634.570312"/>
      <use xlink:href="#DejaVuSans-Bold-65" x="693.847656"/>
     </g>
    </g>
   </g>
   <g id="text_34">
    <g clip-path="url(#pc46290863e)">
     <!-- Brent Oil -->
     <g transform="translate(243.698674 79.947768)scale(0.1 -0.1)">
      <defs>
       <path id="DejaVuSans-Bold-42" d="M 2456 2859 
Q 2741 2859 2887 2984 
Q 3034 3109 3034 3353 
Q 3034 3594 2887 3720 
Q 2741 3847 2456 3847 
L 1791 3847 
L 1791 2859 
L 2456 2859 
z
M 2497 819 
Q 2859 819 3042 972 
Q 3225 1125 3225 1434 
Q 3225 1738 3044 1889 
Q 2863 2041 2497 2041 
L 1791 2041 
L 1791 819 
L 2497 819 
z
M 3616 2497 
Q 4003 2384 4215 2081 
Q 4428 1778 4428 1338 
Q 4428 663 3972 331 
Q 3516 0 2584 0 
L 588 0 
L 588 4666 
L 2394 4666 
Q 3366 4666 3802 4372 
Q 4238 4078 4238 3431 
Q 4238 3091 4078 2852 
Q 3919 2613 3616 2497 
z
" transform="scale(0.015625)"/>
      </defs>
      <use xlink:href="#DejaVuSans-Bold-42"/>
      <use xlink:href="#DejaVuSans-Bold-72" x="76.220703"/>
      <use xlink:href="#DejaVuSans-Bold-65" x="125.537109"/>
      <use xlink:href="#DejaVuSans-Bold-6e" x="193.359375"/>
      <use xlink:href="#DejaVuSans-Bold-74" x="264.550781"/>
      <use xlink:href="#DejaVuSans-Bold-20" x="312.353516"/>
      <use xlink:href="#DejaVuSans-Bold-4f" x="347.167969"/>
      <use xlink:href="#DejaVuSans-Bold-69" x="432.177734"/>
      <use xlink:href="#DejaVuSans-Bold-6c" x="466.455078"/>
     </g>
    </g>
   </g>
   <g id="text_35">
    <g clip-path="url(#pc46290863e)">
     <!-- commodity wti oil -->
     <g transform="translate(585.547147 196.165394)scale(0.1 -0.1)">
      <defs>
       <path id="DejaVuSans-Bold-77" d="M 225 3500 
L 1313 3500 
L 1900 1088 
L 2491 3500 
L 3425 3500 
L 4013 1113 
L 4603 3500 
L 5691 3500 
L 4769 0 
L 3547 0 
L 2956 2406 
L 2369 0 
L 1147 0 
L 225 3500 
z
" transform="scale(0.015625)"/>
      </defs>
      <use xlink:href="#DejaVuSans-Bold-63"/>
      <use xlink:href="#DejaVuSans-Bold-6f" x="59.277344"/>
      <use xlink:href="#DejaVuSans-Bold-6d" x="127.978516"/>
      <use xlink:href="#DejaVuSans-Bold-6d" x="232.177734"/>
      <use xlink:href="#DejaVuSans-Bold-6f" x="336.376953"/>
      <use xlink:href="#DejaVuSans-Bold-64" x="405.078125"/>
      <use xlink:href="#DejaVuSans-Bold-69" x="476.660156"/>
      <use xlink:href="#DejaVuSans-Bold-74" x="510.9375"/>
      <use xlink:href="#DejaVuSans-Bold-79" x="558.740234"/>
      <use xlink:href="#DejaVuSans-Bold-20" x="623.925781"/>
      <use xlink:href="#DejaVuSans-Bold-77" x="658.740234"/>
      <use xlink:href="#DejaVuSans-Bold-74" x="751.123047"/>
      <use xlink:href="#DejaVuSans-Bold-69" x="798.925781"/>
      <use xlink:href="#DejaVuSans-Bold-20" x="833.203125"/>
      <use xlink:href="#DejaVuSans-Bold-6f" x="868.017578"/>
      <use xlink:href="#DejaVuSans-Bold-69" x="936.71875"/>
      <use xlink:href="#DejaVuSans-Bold-6c" x="970.996094"/>
     </g>
    </g>
   </g>
   <g id="text_36">
    <!-- Node size ∝ weighted degree -->
    <g style="fill: #808080" transform="translate(21.2544 555.154612)scale(0.07 -0.07)">
     <defs>
      <path id="DejaVuSans-Oblique-4e" d="M 1081 4666 
L 1931 4666 
L 3219 666 
L 4000 4666 
L 4616 4666 
L 3706 0 
L 2853 0 
L 1569 4025 
L 788 0 
L 172 0 
L 1081 4666 
z
" transform="scale(0.015625)"/>
      <path id="DejaVuSans-Oblique-6f" d="M 1625 -91 
Q 1009 -91 651 289 
Q 294 669 294 1325 
Q 294 1706 417 2101 
Q 541 2497 738 2766 
Q 1047 3184 1428 3384 
Q 1809 3584 2291 3584 
Q 2888 3584 3255 3212 
Q 3622 2841 3622 2241 
Q 3622 1825 3500 1412 
Q 3378 1000 3181 728 
Q 2875 309 2494 109 
Q 2113 -91 1625 -91 
z
M 891 1344 
Q 891 869 1089 633 
Q 1288 397 1691 397 
Q 2269 397 2648 901 
Q 3028 1406 3028 2181 
Q 3028 2634 2825 2865 
Q 2622 3097 2228 3097 
Q 1903 3097 1650 2945 
Q 1397 2794 1197 2484 
Q 1050 2253 970 1956 
Q 891 1659 891 1344 
z
" transform="scale(0.015625)"/>
      <path id="DejaVuSans-Oblique-64" d="M 2675 525 
Q 2444 222 2128 65 
Q 1813 -91 1428 -91 
Q 903 -91 598 267 
Q 294 625 294 1247 
Q 294 1766 478 2236 
Q 663 2706 1013 3078 
Q 1244 3325 1534 3454 
Q 1825 3584 2144 3584 
Q 2481 3584 2739 3421 
Q 2997 3259 3138 2956 
L 3513 4863 
L 4091 4863 
L 3144 0 
L 2566 0 
L 2675 525 
z
M 891 1350 
Q 891 897 1095 644 
Q 1300 391 1663 391 
Q 1931 391 2161 520 
Q 2391 650 2566 903 
Q 2750 1166 2856 1509 
Q 2963 1853 2963 2188 
Q 2963 2622 2758 2865 
Q 2553 3109 2194 3109 
Q 1922 3109 1687 2981 
Q 1453 2853 1288 2613 
Q 1106 2353 998 2009 
Q 891 1666 891 1350 
z
" transform="scale(0.015625)"/>
      <path id="DejaVuSans-Oblique-65" d="M 3078 2063 
Q 3088 2113 3092 2166 
Q 3097 2219 3097 2272 
Q 3097 2653 2873 2875 
Q 2650 3097 2266 3097 
Q 1838 3097 1509 2826 
Q 1181 2556 1013 2059 
L 3078 2063 
z
M 3578 1613 
L 903 1613 
Q 884 1494 878 1425 
Q 872 1356 872 1306 
Q 872 872 1139 634 
Q 1406 397 1894 397 
Q 2269 397 2603 481 
Q 2938 566 3225 728 
L 3116 159 
Q 2806 34 2476 -28 
Q 2147 -91 1806 -91 
Q 1078 -91 686 257 
Q 294 606 294 1247 
Q 294 1794 489 2264 
Q 684 2734 1063 3103 
Q 1306 3334 1642 3459 
Q 1978 3584 2356 3584 
Q 2950 3584 3301 3228 
Q 3653 2872 3653 2272 
Q 3653 2128 3634 1964 
Q 3616 1800 3578 1613 
z
" transform="scale(0.015625)"/>
      <path id="DejaVuSans-Oblique-20" transform="scale(0.015625)"/>
      <path id="DejaVuSans-Oblique-73" d="M 3200 3397 
L 3091 2853 
Q 2863 2978 2609 3040 
Q 2356 3103 2088 3103 
Q 1634 3103 1373 2948 
Q 1113 2794 1113 2528 
Q 1113 2219 1719 2053 
Q 1766 2041 1788 2034 
L 1972 1978 
Q 2547 1819 2739 1644 
Q 2931 1469 2931 1166 
Q 2931 609 2489 259 
Q 2047 -91 1331 -91 
Q 1053 -91 747 -37 
Q 441 16 72 128 
L 184 722 
Q 500 559 806 475 
Q 1113 391 1394 391 
Q 1816 391 2080 572 
Q 2344 753 2344 1031 
Q 2344 1331 1650 1516 
L 1591 1531 
L 1394 1581 
Q 956 1697 753 1886 
Q 550 2075 550 2369 
Q 550 2928 970 3256 
Q 1391 3584 2113 3584 
Q 2397 3584 2667 3537 
Q 2938 3491 3200 3397 
z
" transform="scale(0.015625)"/>
      <path id="DejaVuSans-Oblique-69" d="M 1172 4863 
L 1747 4863 
L 1606 4134 
L 1031 4134 
L 1172 4863 
z
M 909 3500 
L 1484 3500 
L 800 0 
L 225 0 
L 909 3500 
z
" transform="scale(0.015625)"/>
      <path id="DejaVuSans-Oblique-7a" d="M 744 3500 
L 3475 3500 
L 3372 2975 
L 738 459 
L 2913 459 
L 2822 0 
L -19 0 
L 84 525 
L 2719 3041 
L 653 3041 
L 744 3500 
z
" transform="scale(0.015625)"/>
      <path id="DejaVuSans-Oblique-221d" d="M 1647 1134 
Q 2163 1134 2472 1884 
Q 2075 2703 1647 2703 
Q 1334 2703 1175 2478 
Q 1006 2238 1006 1919 
Q 1006 1569 1175 1353 
Q 1350 1134 1647 1134 
z
M 3884 1128 
L 3884 716 
L 3644 716 
Q 3416 716 3247 809 
Q 3078 894 2916 1091 
Q 2819 1203 2666 1466 
Q 2456 1091 2272 925 
Q 2044 725 1681 725 
Q 1259 725 981 1041 
Q 688 1372 688 1919 
Q 688 2444 981 2800 
Q 1241 3116 1688 3116 
Q 1916 3116 2084 3022 
Q 2281 2919 2416 2741 
Q 2541 2581 2666 2366 
Q 2875 2741 3059 2906 
Q 3288 3106 3650 3106 
L 3884 3106 
L 3884 2697 
L 3684 2697 
Q 3222 2697 2859 1947 
Q 3256 1128 3684 1128 
L 3884 1128 
z
" transform="scale(0.015625)"/>
      <path id="DejaVuSans-Oblique-77" d="M 544 3500 
L 1113 3500 
L 1259 684 
L 2566 3500 
L 3231 3500 
L 3425 684 
L 4666 3500 
L 5241 3500 
L 3641 0 
L 2969 0 
L 2797 2900 
L 1459 0 
L 781 0 
L 544 3500 
z
" transform="scale(0.015625)"/>
      <path id="DejaVuSans-Oblique-67" d="M 3816 3500 
L 3219 434 
Q 3047 -456 2561 -893 
Q 2075 -1331 1253 -1331 
Q 950 -1331 690 -1286 
Q 431 -1241 206 -1147 
L 313 -588 
Q 525 -725 762 -790 
Q 1000 -856 1269 -856 
Q 1816 -856 2167 -557 
Q 2519 -259 2631 300 
L 2681 563 
Q 2441 288 2122 144 
Q 1803 0 1434 0 
Q 903 0 598 351 
Q 294 703 294 1319 
Q 294 1803 478 2267 
Q 663 2731 997 3091 
Q 1219 3328 1514 3456 
Q 1809 3584 2131 3584 
Q 2484 3584 2746 3420 
Q 3009 3256 3138 2956 
L 3238 3500 
L 3816 3500 
z
M 2950 2216 
Q 2950 2641 2750 2872 
Q 2550 3103 2181 3103 
Q 1953 3103 1747 3012 
Q 1541 2922 1394 2759 
Q 1156 2491 1023 2127 
Q 891 1763 891 1375 
Q 891 944 1092 712 
Q 1294 481 1672 481 
Q 2219 481 2584 976 
Q 2950 1472 2950 2216 
z
" transform="scale(0.015625)"/>
      <path id="DejaVuSans-Oblique-68" d="M 3566 2113 
L 3156 0 
L 2578 0 
L 2988 2091 
Q 3016 2238 3031 2350 
Q 3047 2463 3047 2528 
Q 3047 2791 2881 2937 
Q 2716 3084 2419 3084 
Q 1956 3084 1617 2771 
Q 1278 2459 1178 1941 
L 800 0 
L 225 0 
L 1172 4863 
L 1747 4863 
L 1375 2950 
Q 1594 3244 1934 3414 
Q 2275 3584 2650 3584 
Q 3113 3584 3367 3334 
Q 3622 3084 3622 2631 
Q 3622 2519 3608 2391 
Q 3594 2263 3566 2113 
z
" transform="scale(0.015625)"/>
      <path id="DejaVuSans-Oblique-74" d="M 2706 3500 
L 2619 3053 
L 1472 3053 
L 1100 1153 
Q 1081 1047 1072 975 
Q 1063 903 1063 863 
Q 1063 663 1183 572 
Q 1303 481 1569 481 
L 2150 481 
L 2053 0 
L 1503 0 
Q 991 0 739 200 
Q 488 400 488 806 
Q 488 878 497 964 
Q 506 1050 525 1153 
L 897 3053 
L 409 3053 
L 500 3500 
L 978 3500 
L 1172 4494 
L 1747 4494 
L 1556 3500 
L 2706 3500 
z
" transform="scale(0.015625)"/>
      <path id="DejaVuSans-Oblique-72" d="M 2853 2969 
Q 2766 3016 2653 3041 
Q 2541 3066 2413 3066 
Q 1953 3066 1609 2717 
Q 1266 2369 1153 1784 
L 800 0 
L 225 0 
L 909 3500 
L 1484 3500 
L 1375 2956 
Q 1603 3259 1920 3421 
Q 2238 3584 2597 3584 
Q 2691 3584 2781 3573 
Q 2872 3563 2963 3538 
L 2853 2969 
z
" transform="scale(0.015625)"/>
     </defs>
     <use xlink:href="#DejaVuSans-Oblique-4e"/>
     <use xlink:href="#DejaVuSans-Oblique-6f" x="74.804688"/>
     <use xlink:href="#DejaVuSans-Oblique-64" x="135.986328"/>
     <use xlink:href="#DejaVuSans-Oblique-65" x="199.462891"/>
     <use xlink:href="#DejaVuSans-Oblique-20" x="260.986328"/>
     <use xlink:href="#DejaVuSans-Oblique-73" x="292.773438"/>
     <use xlink:href="#DejaVuSans-Oblique-69" x="344.873047"/>
     <use xlink:href="#DejaVuSans-Oblique-7a" x="372.65625"/>
     <use xlink:href="#DejaVuSans-Oblique-65" x="425.146484"/>
     <use xlink:href="#DejaVuSans-Oblique-20" x="486.669922"/>
     <use xlink:href="#DejaVuSans-Oblique-221d" x="518.457031"/>
     <use xlink:href="#DejaVuSans-Oblique-20" x="589.892578"/>
     <use xlink:href="#DejaVuSans-Oblique-77" x="621.679688"/>
     <use xlink:href="#DejaVuSans-Oblique-65" x="703.466797"/>
     <use xlink:href="#DejaVuSans-Oblique-69" x="764.990234"/>
     <use xlink:href="#DejaVuSans-Oblique-67" x="792.773438"/>
     <use xlink:href="#DejaVuSans-Oblique-68" x="856.25"/>
     <use xlink:href="#DejaVuSans-Oblique-74" x="919.628906"/>
     <use xlink:href="#DejaVuSans-Oblique-65" x="958.837891"/>
     <use xlink:href="#DejaVuSans-Oblique-64" x="1020.361328"/>
     <use xlink:href="#DejaVuSans-Oblique-20" x="1083.837891"/>
     <use xlink:href="#DejaVuSans-Oblique-64" x="1115.625"/>
     <use xlink:href="#DejaVuSans-Oblique-65" x="1179.101562"/>
     <use xlink:href="#DejaVuSans-Oblique-67" x="1240.625"/>
     <use xlink:href="#DejaVuSans-Oblique-72" x="1304.101562"/>
     <use xlink:href="#DejaVuSans-Oblique-65" x="1345.214844"/>
     <use xlink:href="#DejaVuSans-Oblique-65" x="1406.738281"/>
    </g>
   </g>
   <g id="text_37">
    <!-- FR Regime 1 (Crisis) -->
    <g transform="translate(278.4975 17.837812)scale(0.14 -0.14)">
     <defs>
      <path id="DejaVuSans-Bold-46" d="M 588 4666 
L 3834 4666 
L 3834 3756 
L 1791 3756 
L 1791 2888 
L 3713 2888 
L 3713 1978 
L 1791 1978 
L 1791 0 
L 588 0 
L 588 4666 
z
" transform="scale(0.015625)"/>
      <path id="DejaVuSans-Bold-67" d="M 2919 594 
Q 2688 288 2409 144 
Q 2131 0 1766 0 
Q 1125 0 706 504 
Q 288 1009 288 1791 
Q 288 2575 706 3076 
Q 1125 3578 1766 3578 
Q 2131 3578 2409 3434 
Q 2688 3291 2919 2981 
L 2919 3500 
L 4044 3500 
L 4044 353 
Q 4044 -491 3511 -936 
Q 2978 -1381 1966 -1381 
Q 1638 -1381 1331 -1331 
Q 1025 -1281 716 -1178 
L 716 -306 
Q 1009 -475 1290 -558 
Q 1572 -641 1856 -641 
Q 2406 -641 2662 -400 
Q 2919 -159 2919 353 
L 2919 594 
z
M 2181 2772 
Q 1834 2772 1640 2515 
Q 1447 2259 1447 1791 
Q 1447 1309 1634 1061 
Q 1822 813 2181 813 
Q 2531 813 2725 1069 
Q 2919 1325 2919 1791 
Q 2919 2259 2725 2515 
Q 2531 2772 2181 2772 
z
" transform="scale(0.015625)"/>
      <path id="DejaVuSans-Bold-28" d="M 2413 -844 
L 1484 -844 
Q 1006 -72 778 623 
Q 550 1319 550 2003 
Q 550 2688 779 3389 
Q 1009 4091 1484 4856 
L 2413 4856 
Q 2013 4116 1813 3408 
Q 1613 2700 1613 2009 
Q 1613 1319 1811 609 
Q 2009 -100 2413 -844 
z
" transform="scale(0.015625)"/>
      <path id="DejaVuSans-Bold-29" d="M 513 -844 
Q 913 -100 1113 609 
Q 1313 1319 1313 2009 
Q 1313 2700 1113 3408 
Q 913 4116 513 4856 
L 1441 4856 
Q 1916 4091 2145 3389 
Q 2375 2688 2375 2003 
Q 2375 1319 2147 623 
Q 1919 -72 1441 -844 
L 513 -844 
z
" transform="scale(0.015625)"/>
     </defs>
     <use xlink:href="#DejaVuSans-Bold-46"/>
     <use xlink:href="#DejaVuSans-Bold-52" x="68.310547"/>
     <use xlink:href="#DejaVuSans-Bold-20" x="145.3125"/>
     <use xlink:href="#DejaVuSans-Bold-52" x="180.126953"/>
     <use xlink:href="#DejaVuSans-Bold-65" x="257.128906"/>
     <use xlink:href="#DejaVuSans-Bold-67" x="324.951172"/>
     <use xlink:href="#DejaVuSans-Bold-69" x="396.533203"/>
     <use xlink:href="#DejaVuSans-Bold-6d" x="430.810547"/>
     <use xlink:href="#DejaVuSans-Bold-65" x="535.009766"/>
     <use xlink:href="#DejaVuSans-Bold-20" x="602.832031"/>
     <use xlink:href="#DejaVuSans-Bold-31" x="637.646484"/>
     <use xlink:href="#DejaVuSans-Bold-20" x="707.226562"/>
     <use xlink:href="#DejaVuSans-Bold-28" x="742.041016"/>
     <use xlink:href="#DejaVuSans-Bold-43" x="787.744141"/>
     <use xlink:href="#DejaVuSans-Bold-72" x="861.132812"/>
     <use xlink:href="#DejaVuSans-Bold-69" x="910.449219"/>
     <use xlink:href="#DejaVuSans-Bold-73" x="944.726562"/>
     <use xlink:href="#DejaVuSans-Bold-69" x="1004.248047"/>
     <use xlink:href="#DejaVuSans-Bold-73" x="1038.525391"/>
     <use xlink:href="#DejaVuSans-Bold-29" x="1098.046875"/>
    </g>
   </g>
   <g id="legend_1">
    <g id="patch_36">
     <path d="M 12.8 88.950312 
L 91.45625 88.950312 
Q 93.05625 88.950312 93.05625 87.350312 
L 93.05625 29.437813 
Q 93.05625 27.837813 91.45625 27.837813 
L 12.8 27.837813 
Q 11.2 27.837813 11.2 29.437813 
L 11.2 87.350312 
Q 11.2 88.950312 12.8 88.950312 
z
" style="fill: #ffffff; opacity: 0.8; stroke: #cccccc; stroke-linejoin: miter"/>
    </g>
    <g id="line2d_1">
     <path d="M 14.4 34.316562 
L 22.4 34.316562 
L 30.4 34.316562 
" style="fill: none; stroke: #1f77b4; stroke-width: 2; stroke-linecap: square"/>
    </g>
    <g id="text_38">
     <!-- Instant. (+) -->
     <g transform="translate(36.8 37.116562)scale(0.08 -0.08)">
      <defs>
       <path id="DejaVuSans-49" d="M 628 4666 
L 1259 4666 
L 1259 0 
L 628 0 
L 628 4666 
z
" transform="scale(0.015625)"/>
       <path id="DejaVuSans-6e" d="M 3513 2113 
L 3513 0 
L 2938 0 
L 2938 2094 
Q 2938 2591 2744 2837 
Q 2550 3084 2163 3084 
Q 1697 3084 1428 2787 
Q 1159 2491 1159 1978 
L 1159 0 
L 581 0 
L 581 3500 
L 1159 3500 
L 1159 2956 
Q 1366 3272 1645 3428 
Q 1925 3584 2291 3584 
Q 2894 3584 3203 3211 
Q 3513 2838 3513 2113 
z
" transform="scale(0.015625)"/>
       <path id="DejaVuSans-73" d="M 2834 3397 
L 2834 2853 
Q 2591 2978 2328 3040 
Q 2066 3103 1784 3103 
Q 1356 3103 1142 2972 
Q 928 2841 928 2578 
Q 928 2378 1081 2264 
Q 1234 2150 1697 2047 
L 1894 2003 
Q 2506 1872 2764 1633 
Q 3022 1394 3022 966 
Q 3022 478 2636 193 
Q 2250 -91 1575 -91 
Q 1294 -91 989 -36 
Q 684 19 347 128 
L 347 722 
Q 666 556 975 473 
Q 1284 391 1588 391 
Q 1994 391 2212 530 
Q 2431 669 2431 922 
Q 2431 1156 2273 1281 
Q 2116 1406 1581 1522 
L 1381 1569 
Q 847 1681 609 1914 
Q 372 2147 372 2553 
Q 372 3047 722 3315 
Q 1072 3584 1716 3584 
Q 2034 3584 2315 3537 
Q 2597 3491 2834 3397 
z
" transform="scale(0.015625)"/>
       <path id="DejaVuSans-74" d="M 1172 4494 
L 1172 3500 
L 2356 3500 
L 2356 3053 
L 1172 3053 
L 1172 1153 
Q 1172 725 1289 603 
Q 1406 481 1766 481 
L 2356 481 
L 2356 0 
L 1766 0 
Q 1100 0 847 248 
Q 594 497 594 1153 
L 594 3053 
L 172 3053 
L 172 3500 
L 594 3500 
L 594 4494 
L 1172 4494 
z
" transform="scale(0.015625)"/>
       <path id="DejaVuSans-61" d="M 2194 1759 
Q 1497 1759 1228 1600 
Q 959 1441 959 1056 
Q 959 750 1161 570 
Q 1363 391 1709 391 
Q 2188 391 2477 730 
Q 2766 1069 2766 1631 
L 2766 1759 
L 2194 1759 
z
M 3341 1997 
L 3341 0 
L 2766 0 
L 2766 531 
Q 2569 213 2275 61 
Q 1981 -91 1556 -91 
Q 1019 -91 701 211 
Q 384 513 384 1019 
Q 384 1609 779 1909 
Q 1175 2209 1959 2209 
L 2766 2209 
L 2766 2266 
Q 2766 2663 2505 2880 
Q 2244 3097 1772 3097 
Q 1472 3097 1187 3025 
Q 903 2953 641 2809 
L 641 3341 
Q 956 3463 1253 3523 
Q 1550 3584 1831 3584 
Q 2591 3584 2966 3190 
Q 3341 2797 3341 1997 
z
" transform="scale(0.015625)"/>
       <path id="DejaVuSans-20" transform="scale(0.015625)"/>
       <path id="DejaVuSans-28" d="M 1984 4856 
Q 1566 4138 1362 3434 
Q 1159 2731 1159 2009 
Q 1159 1288 1364 580 
Q 1569 -128 1984 -844 
L 1484 -844 
Q 1016 -109 783 600 
Q 550 1309 550 2009 
Q 550 2706 781 3412 
Q 1013 4119 1484 4856 
L 1984 4856 
z
" transform="scale(0.015625)"/>
       <path id="DejaVuSans-2b" d="M 2944 4013 
L 2944 2272 
L 4684 2272 
L 4684 1741 
L 2944 1741 
L 2944 0 
L 2419 0 
L 2419 1741 
L 678 1741 
L 678 2272 
L 2419 2272 
L 2419 4013 
L 2944 4013 
z
" transform="scale(0.015625)"/>
       <path id="DejaVuSans-29" d="M 513 4856 
L 1013 4856 
Q 1481 4119 1714 3412 
Q 1947 2706 1947 2009 
Q 1947 1309 1714 600 
Q 1481 -109 1013 -844 
L 513 -844 
Q 928 -128 1133 580 
Q 1338 1288 1338 2009 
Q 1338 2731 1133 3434 
Q 928 4138 513 4856 
z
" transform="scale(0.015625)"/>
      </defs>
      <use xlink:href="#DejaVuSans-49"/>
      <use xlink:href="#DejaVuSans-6e" x="29.492188"/>
      <use xlink:href="#DejaVuSans-73" x="92.871094"/>
      <use xlink:href="#DejaVuSans-74" x="144.970703"/>
      <use xlink:href="#DejaVuSans-61" x="184.179688"/>
      <use xlink:href="#DejaVuSans-6e" x="245.458984"/>
      <use xlink:href="#DejaVuSans-74" x="308.837891"/>
      <use xlink:href="#DejaVuSans-2e" x="348.046875"/>
      <use xlink:href="#DejaVuSans-20" x="379.833984"/>
      <use xlink:href="#DejaVuSans-28" x="411.621094"/>
      <use xlink:href="#DejaVuSans-2b" x="450.634766"/>
      <use xlink:href="#DejaVuSans-29" x="534.423828"/>
     </g>
    </g>
    <g id="line2d_2">
     <path d="M 14.4 46.059062 
L 22.4 46.059062 
L 30.4 46.059062 
" style="fill: none; stroke-dasharray: 7.4,3.2; stroke-dashoffset: 0; stroke: #ff7f0e; stroke-width: 2"/>
    </g>
    <g id="text_39">
     <!-- Lagged (+) -->
     <g transform="translate(36.8 48.859062)scale(0.08 -0.08)">
      <defs>
       <path id="DejaVuSans-4c" d="M 628 4666 
L 1259 4666 
L 1259 531 
L 3531 531 
L 3531 0 
L 628 0 
L 628 4666 
z
" transform="scale(0.015625)"/>
       <path id="DejaVuSans-67" d="M 2906 1791 
Q 2906 2416 2648 2759 
Q 2391 3103 1925 3103 
Q 1463 3103 1205 2759 
Q 947 2416 947 1791 
Q 947 1169 1205 825 
Q 1463 481 1925 481 
Q 2391 481 2648 825 
Q 2906 1169 2906 1791 
z
M 3481 434 
Q 3481 -459 3084 -895 
Q 2688 -1331 1869 -1331 
Q 1566 -1331 1297 -1286 
Q 1028 -1241 775 -1147 
L 775 -588 
Q 1028 -725 1275 -790 
Q 1522 -856 1778 -856 
Q 2344 -856 2625 -561 
Q 2906 -266 2906 331 
L 2906 616 
Q 2728 306 2450 153 
Q 2172 0 1784 0 
Q 1141 0 747 490 
Q 353 981 353 1791 
Q 353 2603 747 3093 
Q 1141 3584 1784 3584 
Q 2172 3584 2450 3431 
Q 2728 3278 2906 2969 
L 2906 3500 
L 3481 3500 
L 3481 434 
z
" transform="scale(0.015625)"/>
       <path id="DejaVuSans-65" d="M 3597 1894 
L 3597 1613 
L 953 1613 
Q 991 1019 1311 708 
Q 1631 397 2203 397 
Q 2534 397 2845 478 
Q 3156 559 3463 722 
L 3463 178 
Q 3153 47 2828 -22 
Q 2503 -91 2169 -91 
Q 1331 -91 842 396 
Q 353 884 353 1716 
Q 353 2575 817 3079 
Q 1281 3584 2069 3584 
Q 2775 3584 3186 3129 
Q 3597 2675 3597 1894 
z
M 3022 2063 
Q 3016 2534 2758 2815 
Q 2500 3097 2075 3097 
Q 1594 3097 1305 2825 
Q 1016 2553 972 2059 
L 3022 2063 
z
" transform="scale(0.015625)"/>
       <path id="DejaVuSans-64" d="M 2906 2969 
L 2906 4863 
L 3481 4863 
L 3481 0 
L 2906 0 
L 2906 525 
Q 2725 213 2448 61 
Q 2172 -91 1784 -91 
Q 1150 -91 751 415 
Q 353 922 353 1747 
Q 353 2572 751 3078 
Q 1150 3584 1784 3584 
Q 2172 3584 2448 3432 
Q 2725 3281 2906 2969 
z
M 947 1747 
Q 947 1113 1208 752 
Q 1469 391 1925 391 
Q 2381 391 2643 752 
Q 2906 1113 2906 1747 
Q 2906 2381 2643 2742 
Q 2381 3103 1925 3103 
Q 1469 3103 1208 2742 
Q 947 2381 947 1747 
z
" transform="scale(0.015625)"/>
      </defs>
      <use xlink:href="#DejaVuSans-4c"/>
      <use xlink:href="#DejaVuSans-61" x="55.712891"/>
      <use xlink:href="#DejaVuSans-67" x="116.992188"/>
      <use xlink:href="#DejaVuSans-67" x="180.46875"/>
      <use xlink:href="#DejaVuSans-65" x="243.945312"/>
      <use xlink:href="#DejaVuSans-64" x="305.46875"/>
      <use xlink:href="#DejaVuSans-20" x="368.945312"/>
      <use xlink:href="#DejaVuSans-28" x="400.732422"/>
      <use xlink:href="#DejaVuSans-2b" x="439.746094"/>
      <use xlink:href="#DejaVuSans-29" x="523.535156"/>
     </g>
    </g>
    <g id="line2d_3">
     <path d="M 14.4 57.801563 
L 22.4 57.801563 
L 30.4 57.801563 
" style="fill: none; stroke: #c44e52; stroke-width: 2; stroke-linecap: square"/>
    </g>
    <g id="text_40">
     <!-- Negative (-) -->
     <g transform="translate(36.8 60.601562)scale(0.08 -0.08)">
      <defs>
       <path id="DejaVuSans-4e" d="M 628 4666 
L 1478 4666 
L 3547 763 
L 3547 4666 
L 4159 4666 
L 4159 0 
L 3309 0 
L 1241 3903 
L 1241 0 
L 628 0 
L 628 4666 
z
" transform="scale(0.015625)"/>
       <path id="DejaVuSans-69" d="M 603 3500 
L 1178 3500 
L 1178 0 
L 603 0 
L 603 3500 
z
M 603 4863 
L 1178 4863 
L 1178 4134 
L 603 4134 
L 603 4863 
z
" transform="scale(0.015625)"/>
       <path id="DejaVuSans-76" d="M 191 3500 
L 800 3500 
L 1894 563 
L 2988 3500 
L 3597 3500 
L 2284 0 
L 1503 0 
L 191 3500 
z
" transform="scale(0.015625)"/>
      </defs>
      <use xlink:href="#DejaVuSans-4e"/>
      <use xlink:href="#DejaVuSans-65" x="74.804688"/>
      <use xlink:href="#DejaVuSans-67" x="136.328125"/>
      <use xlink:href="#DejaVuSans-61" x="199.804688"/>
      <use xlink:href="#DejaVuSans-74" x="261.083984"/>
      <use xlink:href="#DejaVuSans-69" x="300.292969"/>
      <use xlink:href="#DejaVuSans-76" x="328.076172"/>
      <use xlink:href="#DejaVuSans-65" x="387.255859"/>
      <use xlink:href="#DejaVuSans-20" x="448.779297"/>
      <use xlink:href="#DejaVuSans-28" x="480.566406"/>
      <use xlink:href="#DejaVuSans-2d" x="519.580078"/>
      <use xlink:href="#DejaVuSans-29" x="555.664062"/>
     </g>
    </g>
    <g id="patch_37">
     <path d="M 14.4 72.344063 
L 30.4 72.344063 
L 30.4 66.744063 
L 14.4 66.744063 
z
" style="fill: #d62728; stroke: #333333; stroke-linejoin: miter"/>
    </g>
    <g id="text_41">
     <!-- Price (Target) -->
     <g transform="translate(36.8 72.344063)scale(0.08 -0.08)">
      <defs>
       <path id="DejaVuSans-50" d="M 1259 4147 
L 1259 2394 
L 2053 2394 
Q 2494 2394 2734 2622 
Q 2975 2850 2975 3272 
Q 2975 3691 2734 3919 
Q 2494 4147 2053 4147 
L 1259 4147 
z
M 628 4666 
L 2053 4666 
Q 2838 4666 3239 4311 
Q 3641 3956 3641 3272 
Q 3641 2581 3239 2228 
Q 2838 1875 2053 1875 
L 1259 1875 
L 1259 0 
L 628 0 
L 628 4666 
z
" transform="scale(0.015625)"/>
       <path id="DejaVuSans-72" d="M 2631 2963 
Q 2534 3019 2420 3045 
Q 2306 3072 2169 3072 
Q 1681 3072 1420 2755 
Q 1159 2438 1159 1844 
L 1159 0 
L 581 0 
L 581 3500 
L 1159 3500 
L 1159 2956 
Q 1341 3275 1631 3429 
Q 1922 3584 2338 3584 
Q 2397 3584 2469 3576 
Q 2541 3569 2628 3553 
L 2631 2963 
z
" transform="scale(0.015625)"/>
       <path id="DejaVuSans-63" d="M 3122 3366 
L 3122 2828 
Q 2878 2963 2633 3030 
Q 2388 3097 2138 3097 
Q 1578 3097 1268 2742 
Q 959 2388 959 1747 
Q 959 1106 1268 751 
Q 1578 397 2138 397 
Q 2388 397 2633 464 
Q 2878 531 3122 666 
L 3122 134 
Q 2881 22 2623 -34 
Q 2366 -91 2075 -91 
Q 1284 -91 818 406 
Q 353 903 353 1747 
Q 353 2603 823 3093 
Q 1294 3584 2113 3584 
Q 2378 3584 2631 3529 
Q 2884 3475 3122 3366 
z
" transform="scale(0.015625)"/>
       <path id="DejaVuSans-54" d="M -19 4666 
L 3928 4666 
L 3928 4134 
L 2272 4134 
L 2272 0 
L 1638 0 
L 1638 4134 
L -19 4134 
L -19 4666 
z
" transform="scale(0.015625)"/>
      </defs>
      <use xlink:href="#DejaVuSans-50"/>
      <use xlink:href="#DejaVuSans-72" x="58.552734"/>
      <use xlink:href="#DejaVuSans-69" x="99.666016"/>
      <use xlink:href="#DejaVuSans-63" x="127.449219"/>
      <use xlink:href="#DejaVuSans-65" x="182.429688"/>
      <use xlink:href="#DejaVuSans-20" x="243.953125"/>
      <use xlink:href="#DejaVuSans-28" x="275.740234"/>
      <use xlink:href="#DejaVuSans-54" x="314.753906"/>
      <use xlink:href="#DejaVuSans-61" x="359.337891"/>
      <use xlink:href="#DejaVuSans-72" x="420.617188"/>
      <use xlink:href="#DejaVuSans-67" x="459.980469"/>
      <use xlink:href="#DejaVuSans-65" x="523.457031"/>
      <use xlink:href="#DejaVuSans-74" x="584.980469"/>
      <use xlink:href="#DejaVuSans-29" x="624.189453"/>
     </g>
    </g>
    <g id="patch_38">
     <path d="M 14.4 84.086563 
L 30.4 84.086563 
L 30.4 78.486563 
L 14.4 78.486563 
z
" style="fill: #a8d5ba; stroke: #333333; stroke-linejoin: miter"/>
    </g>
    <g id="text_42">
     <!-- Features -->
     <g transform="translate(36.8 84.086563)scale(0.08 -0.08)">
      <defs>
       <path id="DejaVuSans-46" d="M 628 4666 
L 3309 4666 
L 3309 4134 
L 1259 4134 
L 1259 2759 
L 3109 2759 
L 3109 2228 
L 1259 2228 
L 1259 0 
L 628 0 
L 628 4666 
z
" transform="scale(0.015625)"/>
       <path id="DejaVuSans-75" d="M 544 1381 
L 544 3500 
L 1119 3500 
L 1119 1403 
Q 1119 906 1312 657 
Q 1506 409 1894 409 
Q 2359 409 2629 706 
Q 2900 1003 2900 1516 
L 2900 3500 
L 3475 3500 
L 3475 0 
L 2900 0 
L 2900 538 
Q 2691 219 2414 64 
Q 2138 -91 1772 -91 
Q 1169 -91 856 284 
Q 544 659 544 1381 
z
M 1991 3584 
L 1991 3584 
z
" transform="scale(0.015625)"/>
      </defs>
      <use xlink:href="#DejaVuSans-46"/>
      <use xlink:href="#DejaVuSans-65" x="52.019531"/>
      <use xlink:href="#DejaVuSans-61" x="113.542969"/>
      <use xlink:href="#DejaVuSans-74" x="174.822266"/>
      <use xlink:href="#DejaVuSans-75" x="214.03125"/>
      <use xlink:href="#DejaVuSans-72" x="277.410156"/>
      <use xlink:href="#DejaVuSans-65" x="316.273438"/>
      <use xlink:href="#DejaVuSans-73" x="377.796875"/>
     </g>
    </g>
   </g>
  </g>
 </g>
 <defs>
  <clipPath id="pc46290863e">
   <rect x="7.2" y="23.837812" width="702.72" height="542.16"/>
  </clipPath>
 </defs>
</svg>
