<?xml version="1.0" encoding="utf-8" standalone="no"?>
<!DOCTYPE svg PUBLIC "-//W3C//DTD SVG 1.1//EN"
  "http://www.w3.org/Graphics/SVG/1.1/DTD/svg11.dtd">
<svg xmlns:xlink="http://www.w3.org/1999/xlink" width="1000.628125pt" height="279.175781pt" viewBox="0 0 1000.628125 279.175781" xmlns="http://www.w3.org/2000/svg" version="1.1">
 <metadata>
  <rdf:RDF xmlns:dc="http://purl.org/dc/elements/1.1/" xmlns:cc="http://creativecommons.org/ns#" xmlns:rdf="http://www.w3.org/1999/02/22-rdf-syntax-ns#">
   <cc:Work>
    <dc:type rdf:resource="http://purl.org/dc/dcmitype/StillImage"/>
    <dc:date>2026-01-16T17:31:20.750971</dc:date>
    <dc:format>image/svg+xml</dc:format>
    <dc:creator>
     <cc:Agent>
      <dc:title>Matplotlib v3.5.1, https://matplotlib.org/</dc:title>
     </cc:Agent>
    </dc:creator>
   </cc:Work>
  </rdf:RDF>
 </metadata>
 <defs>
  <style type="text/css">*{stroke-linejoin: round; stroke-linecap: butt}</style>
 </defs>
 <g id="figure_1">
  <g id="patch_1">
   <path d="M 0 279.175781 
L 1000.628125 279.175781 
L 1000.628125 0 
L 0 0 
z
" style="fill: #ffffff"/>
  </g>
  <g id="axes_1">
   <g id="patch_2">
    <path d="M 43.588125 240.651719 
L 993.428125 240.651719 
L 993.428125 23.077969 
L 43.588125 23.077969 
z
" style="fill: #ffffff"/>
   </g>
   <g id="matplotlib.axis_1">
    <g id="xtick_1">
     <g id="line2d_1">
      <path d="M 86.76267 240.651719 
L 86.76267 23.077969 
" clip-path="url(#pc08521af22)" style="fill: none; stroke: #b0b0b0; stroke-opacity: 0.3; stroke-width: 0.8; stroke-linecap: square"/>
     </g>
     <g id="line2d_2">
      <defs>
       <path id="m68ffa69f6e" d="M 0 0 
L 0 3.5 
" style="stroke: #000000; stroke-width: 0.8"/>
      </defs>
      <g>
       <use xlink:href="#m68ffa69f6e" x="86.76267" y="240.651719" style="stroke: #000000; stroke-width: 0.8"/>
      </g>
     </g>
     <g id="text_1">
      <!-- 0 -->
      <g transform="translate(83.58142 255.250156)scale(0.1 -0.1)">
       <defs>
        <path id="DejaVuSans-30" d="M 2034 4250 
Q 1547 4250 1301 3770 
Q 1056 3291 1056 2328 
Q 1056 1369 1301 889 
Q 1547 409 2034 409 
Q 2525 409 2770 889 
Q 3016 1369 3016 2328 
Q 3016 3291 2770 3770 
Q 2525 4250 2034 4250 
z
M 2034 4750 
Q 2819 4750 3233 4129 
Q 3647 3509 3647 2328 
Q 3647 1150 3233 529 
Q 2819 -91 2034 -91 
Q 1250 -91 836 529 
Q 422 1150 422 2328 
Q 422 3509 836 4129 
Q 1250 4750 2034 4750 
z
" transform="scale(0.015625)"/>
       </defs>
       <use xlink:href="#DejaVuSans-30"/>
      </g>
     </g>
    </g>
    <g id="xtick_2">
     <g id="line2d_3">
      <path d="M 216.610927 240.651719 
L 216.610927 23.077969 
" clip-path="url(#pc08521af22)" style="fill: none; stroke: #b0b0b0; stroke-opacity: 0.3; stroke-width: 0.8; stroke-linecap: square"/>
     </g>
     <g id="line2d_4">
      <g>
       <use xlink:href="#m68ffa69f6e" x="216.610927" y="240.651719" style="stroke: #000000; stroke-width: 0.8"/>
      </g>
     </g>
     <g id="text_2">
      <!-- 100 -->
      <g transform="translate(207.067177 255.250156)scale(0.1 -0.1)">
       <defs>
        <path id="DejaVuSans-31" d="M 794 531 
L 1825 531 
L 1825 4091 
L 703 3866 
L 703 4441 
L 1819 4666 
L 2450 4666 
L 2450 531 
L 3481 531 
L 3481 0 
L 794 0 
L 794 531 
z
" transform="scale(0.015625)"/>
       </defs>
       <use xlink:href="#DejaVuSans-31"/>
       <use xlink:href="#DejaVuSans-30" x="63.623047"/>
       <use xlink:href="#DejaVuSans-30" x="127.246094"/>
      </g>
     </g>
    </g>
    <g id="xtick_3">
     <g id="line2d_5">
      <path d="M 346.459184 240.651719 
L 346.459184 23.077969 
" clip-path="url(#pc08521af22)" style="fill: none; stroke: #b0b0b0; stroke-opacity: 0.3; stroke-width: 0.8; stroke-linecap: square"/>
     </g>
     <g id="line2d_6">
      <g>
       <use xlink:href="#m68ffa69f6e" x="346.459184" y="240.651719" style="stroke: #000000; stroke-width: 0.8"/>
      </g>
     </g>
     <g id="text_3">
      <!-- 200 -->
      <g transform="translate(336.915434 255.250156)scale(0.1 -0.1)">
       <defs>
        <path id="DejaVuSans-32" d="M 1228 531 
L 3431 531 
L 3431 0 
L 469 0 
L 469 531 
Q 828 903 1448 1529 
Q 2069 2156 2228 2338 
Q 2531 2678 2651 2914 
Q 2772 3150 2772 3378 
Q 2772 3750 2511 3984 
Q 2250 4219 1831 4219 
Q 1534 4219 1204 4116 
Q 875 4013 500 3803 
L 500 4441 
Q 881 4594 1212 4672 
Q 1544 4750 1819 4750 
Q 2544 4750 2975 4387 
Q 3406 4025 3406 3419 
Q 3406 3131 3298 2873 
Q 3191 2616 2906 2266 
Q 2828 2175 2409 1742 
Q 1991 1309 1228 531 
z
" transform="scale(0.015625)"/>
       </defs>
       <use xlink:href="#DejaVuSans-32"/>
       <use xlink:href="#DejaVuSans-30" x="63.623047"/>
       <use xlink:href="#DejaVuSans-30" x="127.246094"/>
      </g>
     </g>
    </g>
    <g id="xtick_4">
     <g id="line2d_7">
      <path d="M 476.307441 240.651719 
L 476.307441 23.077969 
" clip-path="url(#pc08521af22)" style="fill: none; stroke: #b0b0b0; stroke-opacity: 0.3; stroke-width: 0.8; stroke-linecap: square"/>
     </g>
     <g id="line2d_8">
      <g>
       <use xlink:href="#m68ffa69f6e" x="476.307441" y="240.651719" style="stroke: #000000; stroke-width: 0.8"/>
      </g>
     </g>
     <g id="text_4">
      <!-- 300 -->
      <g transform="translate(466.763691 255.250156)scale(0.1 -0.1)">
       <defs>
        <path id="DejaVuSans-33" d="M 2597 2516 
Q 3050 2419 3304 2112 
Q 3559 1806 3559 1356 
Q 3559 666 3084 287 
Q 2609 -91 1734 -91 
Q 1441 -91 1130 -33 
Q 819 25 488 141 
L 488 750 
Q 750 597 1062 519 
Q 1375 441 1716 441 
Q 2309 441 2620 675 
Q 2931 909 2931 1356 
Q 2931 1769 2642 2001 
Q 2353 2234 1838 2234 
L 1294 2234 
L 1294 2753 
L 1863 2753 
Q 2328 2753 2575 2939 
Q 2822 3125 2822 3475 
Q 2822 3834 2567 4026 
Q 2313 4219 1838 4219 
Q 1578 4219 1281 4162 
Q 984 4106 628 3988 
L 628 4550 
Q 988 4650 1302 4700 
Q 1616 4750 1894 4750 
Q 2613 4750 3031 4423 
Q 3450 4097 3450 3541 
Q 3450 3153 3228 2886 
Q 3006 2619 2597 2516 
z
" transform="scale(0.015625)"/>
       </defs>
       <use xlink:href="#DejaVuSans-33"/>
       <use xlink:href="#DejaVuSans-30" x="63.623047"/>
       <use xlink:href="#DejaVuSans-30" x="127.246094"/>
      </g>
     </g>
    </g>
    <g id="xtick_5">
     <g id="line2d_9">
      <path d="M 606.155698 240.651719 
L 606.155698 23.077969 
" clip-path="url(#pc08521af22)" style="fill: none; stroke: #b0b0b0; stroke-opacity: 0.3; stroke-width: 0.8; stroke-linecap: square"/>
     </g>
     <g id="line2d_10">
      <g>
       <use xlink:href="#m68ffa69f6e" x="606.155698" y="240.651719" style="stroke: #000000; stroke-width: 0.8"/>
      </g>
     </g>
     <g id="text_5">
      <!-- 400 -->
      <g transform="translate(596.611948 255.250156)scale(0.1 -0.1)">
       <defs>
        <path id="DejaVuSans-34" d="M 2419 4116 
L 825 1625 
L 2419 1625 
L 2419 4116 
z
M 2253 4666 
L 3047 4666 
L 3047 1625 
L 3713 1625 
L 3713 1100 
L 3047 1100 
L 3047 0 
L 2419 0 
L 2419 1100 
L 313 1100 
L 313 1709 
L 2253 4666 
z
" transform="scale(0.015625)"/>
       </defs>
       <use xlink:href="#DejaVuSans-34"/>
       <use xlink:href="#DejaVuSans-30" x="63.623047"/>
       <use xlink:href="#DejaVuSans-30" x="127.246094"/>
      </g>
     </g>
    </g>
    <g id="xtick_6">
     <g id="line2d_11">
      <path d="M 736.003955 240.651719 
L 736.003955 23.077969 
" clip-path="url(#pc08521af22)" style="fill: none; stroke: #b0b0b0; stroke-opacity: 0.3; stroke-width: 0.8; stroke-linecap: square"/>
     </g>
     <g id="line2d_12">
      <g>
       <use xlink:href="#m68ffa69f6e" x="736.003955" y="240.651719" style="stroke: #000000; stroke-width: 0.8"/>
      </g>
     </g>
     <g id="text_6">
      <!-- 500 -->
      <g transform="translate(726.460205 255.250156)scale(0.1 -0.1)">
       <defs>
        <path id="DejaVuSans-35" d="M 691 4666 
L 3169 4666 
L 3169 4134 
L 1269 4134 
L 1269 2991 
Q 1406 3038 1543 3061 
Q 1681 3084 1819 3084 
Q 2600 3084 3056 2656 
Q 3513 2228 3513 1497 
Q 3513 744 3044 326 
Q 2575 -91 1722 -91 
Q 1428 -91 1123 -41 
Q 819 9 494 109 
L 494 744 
Q 775 591 1075 516 
Q 1375 441 1709 441 
Q 2250 441 2565 725 
Q 2881 1009 2881 1497 
Q 2881 1984 2565 2268 
Q 2250 2553 1709 2553 
Q 1456 2553 1204 2497 
Q 953 2441 691 2322 
L 691 4666 
z
" transform="scale(0.015625)"/>
       </defs>
       <use xlink:href="#DejaVuSans-35"/>
       <use xlink:href="#DejaVuSans-30" x="63.623047"/>
       <use xlink:href="#DejaVuSans-30" x="127.246094"/>
      </g>
     </g>
    </g>
    <g id="xtick_7">
     <g id="line2d_13">
      <path d="M 865.852212 240.651719 
L 865.852212 23.077969 
" clip-path="url(#pc08521af22)" style="fill: none; stroke: #b0b0b0; stroke-opacity: 0.3; stroke-width: 0.8; stroke-linecap: square"/>
     </g>
     <g id="line2d_14">
      <g>
       <use xlink:href="#m68ffa69f6e" x="865.852212" y="240.651719" style="stroke: #000000; stroke-width: 0.8"/>
      </g>
     </g>
     <g id="text_7">
      <!-- 600 -->
      <g transform="translate(856.308462 255.250156)scale(0.1 -0.1)">
       <defs>
        <path id="DejaVuSans-36" d="M 2113 2584 
Q 1688 2584 1439 2293 
Q 1191 2003 1191 1497 
Q 1191 994 1439 701 
Q 1688 409 2113 409 
Q 2538 409 2786 701 
Q 3034 994 3034 1497 
Q 3034 2003 2786 2293 
Q 2538 2584 2113 2584 
z
M 3366 4563 
L 3366 3988 
Q 3128 4100 2886 4159 
Q 2644 4219 2406 4219 
Q 1781 4219 1451 3797 
Q 1122 3375 1075 2522 
Q 1259 2794 1537 2939 
Q 1816 3084 2150 3084 
Q 2853 3084 3261 2657 
Q 3669 2231 3669 1497 
Q 3669 778 3244 343 
Q 2819 -91 2113 -91 
Q 1303 -91 875 529 
Q 447 1150 447 2328 
Q 447 3434 972 4092 
Q 1497 4750 2381 4750 
Q 2619 4750 2861 4703 
Q 3103 4656 3366 4563 
z
" transform="scale(0.015625)"/>
       </defs>
       <use xlink:href="#DejaVuSans-36"/>
       <use xlink:href="#DejaVuSans-30" x="63.623047"/>
       <use xlink:href="#DejaVuSans-30" x="127.246094"/>
      </g>
     </g>
    </g>
    <g id="text_8">
     <!-- DAY_ID -->
     <g transform="translate(499.066484 269.382187)scale(0.11 -0.11)">
      <defs>
       <path id="DejaVuSans-44" d="M 1259 4147 
L 1259 519 
L 2022 519 
Q 2988 519 3436 956 
Q 3884 1394 3884 2338 
Q 3884 3275 3436 3711 
Q 2988 4147 2022 4147 
L 1259 4147 
z
M 628 4666 
L 1925 4666 
Q 3281 4666 3915 4102 
Q 4550 3538 4550 2338 
Q 4550 1131 3912 565 
Q 3275 0 1925 0 
L 628 0 
L 628 4666 
z
" transform="scale(0.015625)"/>
       <path id="DejaVuSans-41" d="M 2188 4044 
L 1331 1722 
L 3047 1722 
L 2188 4044 
z
M 1831 4666 
L 2547 4666 
L 4325 0 
L 3669 0 
L 3244 1197 
L 1141 1197 
L 716 0 
L 50 0 
L 1831 4666 
z
" transform="scale(0.015625)"/>
       <path id="DejaVuSans-59" d="M -13 4666 
L 666 4666 
L 1959 2747 
L 3244 4666 
L 3922 4666 
L 2272 2222 
L 2272 0 
L 1638 0 
L 1638 2222 
L -13 4666 
z
" transform="scale(0.015625)"/>
       <path id="DejaVuSans-5f" d="M 3263 -1063 
L 3263 -1509 
L -63 -1509 
L -63 -1063 
L 3263 -1063 
z
" transform="scale(0.015625)"/>
       <path id="DejaVuSans-49" d="M 628 4666 
L 1259 4666 
L 1259 0 
L 628 0 
L 628 4666 
z
" transform="scale(0.015625)"/>
      </defs>
      <use xlink:href="#DejaVuSans-44"/>
      <use xlink:href="#DejaVuSans-41" x="75.251953"/>
      <use xlink:href="#DejaVuSans-59" x="135.910156"/>
      <use xlink:href="#DejaVuSans-5f" x="196.994141"/>
      <use xlink:href="#DejaVuSans-49" x="246.994141"/>
      <use xlink:href="#DejaVuSans-44" x="276.486328"/>
     </g>
    </g>
   </g>
   <g id="matplotlib.axis_2">
    <g id="ytick_1">
     <g id="line2d_15">
      <path d="M 43.588125 223.582538 
L 993.428125 223.582538 
" clip-path="url(#pc08521af22)" style="fill: none; stroke: #b0b0b0; stroke-opacity: 0.3; stroke-width: 0.8; stroke-linecap: square"/>
     </g>
     <g id="line2d_16">
      <defs>
       <path id="m9c04a7cad4" d="M 0 0 
L -3.5 0 
" style="stroke: #000000; stroke-width: 0.8"/>
      </defs>
      <g>
       <use xlink:href="#m9c04a7cad4" x="43.588125" y="223.582538" style="stroke: #000000; stroke-width: 0.8"/>
      </g>
     </g>
     <g id="text_9">
      <!-- −6 -->
      <g transform="translate(21.845938 227.381757)scale(0.1 -0.1)">
       <defs>
        <path id="DejaVuSans-2212" d="M 678 2272 
L 4684 2272 
L 4684 1741 
L 678 1741 
L 678 2272 
z
" transform="scale(0.015625)"/>
       </defs>
       <use xlink:href="#DejaVuSans-2212"/>
       <use xlink:href="#DejaVuSans-36" x="83.789062"/>
      </g>
     </g>
    </g>
    <g id="ytick_2">
     <g id="line2d_17">
      <path d="M 43.588125 195.930302 
L 993.428125 195.930302 
" clip-path="url(#pc08521af22)" style="fill: none; stroke: #b0b0b0; stroke-opacity: 0.3; stroke-width: 0.8; stroke-linecap: square"/>
     </g>
     <g id="line2d_18">
      <g>
       <use xlink:href="#m9c04a7cad4" x="43.588125" y="195.930302" style="stroke: #000000; stroke-width: 0.8"/>
      </g>
     </g>
     <g id="text_10">
      <!-- −4 -->
      <g transform="translate(21.845938 199.729521)scale(0.1 -0.1)">
       <use xlink:href="#DejaVuSans-2212"/>
       <use xlink:href="#DejaVuSans-34" x="83.789062"/>
      </g>
     </g>
    </g>
    <g id="ytick_3">
     <g id="line2d_19">
      <path d="M 43.588125 168.278066 
L 993.428125 168.278066 
" clip-path="url(#pc08521af22)" style="fill: none; stroke: #b0b0b0; stroke-opacity: 0.3; stroke-width: 0.8; stroke-linecap: square"/>
     </g>
     <g id="line2d_20">
      <g>
       <use xlink:href="#m9c04a7cad4" x="43.588125" y="168.278066" style="stroke: #000000; stroke-width: 0.8"/>
      </g>
     </g>
     <g id="text_11">
      <!-- −2 -->
      <g transform="translate(21.845938 172.077285)scale(0.1 -0.1)">
       <use xlink:href="#DejaVuSans-2212"/>
       <use xlink:href="#DejaVuSans-32" x="83.789062"/>
      </g>
     </g>
    </g>
    <g id="ytick_4">
     <g id="line2d_21">
      <path d="M 43.588125 140.62583 
L 993.428125 140.62583 
" clip-path="url(#pc08521af22)" style="fill: none; stroke: #b0b0b0; stroke-opacity: 0.3; stroke-width: 0.8; stroke-linecap: square"/>
     </g>
     <g id="line2d_22">
      <g>
       <use xlink:href="#m9c04a7cad4" x="43.588125" y="140.62583" style="stroke: #000000; stroke-width: 0.8"/>
      </g>
     </g>
     <g id="text_12">
      <!-- 0 -->
      <g transform="translate(30.225625 144.425048)scale(0.1 -0.1)">
       <use xlink:href="#DejaVuSans-30"/>
      </g>
     </g>
    </g>
    <g id="ytick_5">
     <g id="line2d_23">
      <path d="M 43.588125 112.973594 
L 993.428125 112.973594 
" clip-path="url(#pc08521af22)" style="fill: none; stroke: #b0b0b0; stroke-opacity: 0.3; stroke-width: 0.8; stroke-linecap: square"/>
     </g>
     <g id="line2d_24">
      <g>
       <use xlink:href="#m9c04a7cad4" x="43.588125" y="112.973594" style="stroke: #000000; stroke-width: 0.8"/>
      </g>
     </g>
     <g id="text_13">
      <!-- 2 -->
      <g transform="translate(30.225625 116.772812)scale(0.1 -0.1)">
       <use xlink:href="#DejaVuSans-32"/>
      </g>
     </g>
    </g>
    <g id="ytick_6">
     <g id="line2d_25">
      <path d="M 43.588125 85.321357 
L 993.428125 85.321357 
" clip-path="url(#pc08521af22)" style="fill: none; stroke: #b0b0b0; stroke-opacity: 0.3; stroke-width: 0.8; stroke-linecap: square"/>
     </g>
     <g id="line2d_26">
      <g>
       <use xlink:href="#m9c04a7cad4" x="43.588125" y="85.321357" style="stroke: #000000; stroke-width: 0.8"/>
      </g>
     </g>
     <g id="text_14">
      <!-- 4 -->
      <g transform="translate(30.225625 89.120576)scale(0.1 -0.1)">
       <use xlink:href="#DejaVuSans-34"/>
      </g>
     </g>
    </g>
    <g id="ytick_7">
     <g id="line2d_27">
      <path d="M 43.588125 57.669121 
L 993.428125 57.669121 
" clip-path="url(#pc08521af22)" style="fill: none; stroke: #b0b0b0; stroke-opacity: 0.3; stroke-width: 0.8; stroke-linecap: square"/>
     </g>
     <g id="line2d_28">
      <g>
       <use xlink:href="#m9c04a7cad4" x="43.588125" y="57.669121" style="stroke: #000000; stroke-width: 0.8"/>
      </g>
     </g>
     <g id="text_15">
      <!-- 6 -->
      <g transform="translate(30.225625 61.46834)scale(0.1 -0.1)">
       <use xlink:href="#DejaVuSans-36"/>
      </g>
     </g>
    </g>
    <g id="ytick_8">
     <g id="line2d_29">
      <path d="M 43.588125 30.016885 
L 993.428125 30.016885 
" clip-path="url(#pc08521af22)" style="fill: none; stroke: #b0b0b0; stroke-opacity: 0.3; stroke-width: 0.8; stroke-linecap: square"/>
     </g>
     <g id="line2d_30">
      <g>
       <use xlink:href="#m9c04a7cad4" x="43.588125" y="30.016885" style="stroke: #000000; stroke-width: 0.8"/>
      </g>
     </g>
     <g id="text_16">
      <!-- 8 -->
      <g transform="translate(30.225625 33.816104)scale(0.1 -0.1)">
       <defs>
        <path id="DejaVuSans-38" d="M 2034 2216 
Q 1584 2216 1326 1975 
Q 1069 1734 1069 1313 
Q 1069 891 1326 650 
Q 1584 409 2034 409 
Q 2484 409 2743 651 
Q 3003 894 3003 1313 
Q 3003 1734 2745 1975 
Q 2488 2216 2034 2216 
z
M 1403 2484 
Q 997 2584 770 2862 
Q 544 3141 544 3541 
Q 544 4100 942 4425 
Q 1341 4750 2034 4750 
Q 2731 4750 3128 4425 
Q 3525 4100 3525 3541 
Q 3525 3141 3298 2862 
Q 3072 2584 2669 2484 
Q 3125 2378 3379 2068 
Q 3634 1759 3634 1313 
Q 3634 634 3220 271 
Q 2806 -91 2034 -91 
Q 1263 -91 848 271 
Q 434 634 434 1313 
Q 434 1759 690 2068 
Q 947 2378 1403 2484 
z
M 1172 3481 
Q 1172 3119 1398 2916 
Q 1625 2713 2034 2713 
Q 2441 2713 2670 2916 
Q 2900 3119 2900 3481 
Q 2900 3844 2670 4047 
Q 2441 4250 2034 4250 
Q 1625 4250 1398 4047 
Q 1172 3844 1172 3481 
z
" transform="scale(0.015625)"/>
       </defs>
       <use xlink:href="#DejaVuSans-38"/>
      </g>
     </g>
    </g>
    <g id="text_17">
     <!-- TARGET -->
     <g transform="translate(15.558281 153.478125)rotate(-90)scale(0.11 -0.11)">
      <defs>
       <path id="DejaVuSans-54" d="M -19 4666 
L 3928 4666 
L 3928 4134 
L 2272 4134 
L 2272 0 
L 1638 0 
L 1638 4134 
L -19 4134 
L -19 4666 
z
" transform="scale(0.015625)"/>
       <path id="DejaVuSans-52" d="M 2841 2188 
Q 3044 2119 3236 1894 
Q 3428 1669 3622 1275 
L 4263 0 
L 3584 0 
L 2988 1197 
Q 2756 1666 2539 1819 
Q 2322 1972 1947 1972 
L 1259 1972 
L 1259 0 
L 628 0 
L 628 4666 
L 2053 4666 
Q 2853 4666 3247 4331 
Q 3641 3997 3641 3322 
Q 3641 2881 3436 2590 
Q 3231 2300 2841 2188 
z
M 1259 4147 
L 1259 2491 
L 2053 2491 
Q 2509 2491 2742 2702 
Q 2975 2913 2975 3322 
Q 2975 3731 2742 3939 
Q 2509 4147 2053 4147 
L 1259 4147 
z
" transform="scale(0.015625)"/>
       <path id="DejaVuSans-47" d="M 3809 666 
L 3809 1919 
L 2778 1919 
L 2778 2438 
L 4434 2438 
L 4434 434 
Q 4069 175 3628 42 
Q 3188 -91 2688 -91 
Q 1594 -91 976 548 
Q 359 1188 359 2328 
Q 359 3472 976 4111 
Q 1594 4750 2688 4750 
Q 3144 4750 3555 4637 
Q 3966 4525 4313 4306 
L 4313 3634 
Q 3963 3931 3569 4081 
Q 3175 4231 2741 4231 
Q 1884 4231 1454 3753 
Q 1025 3275 1025 2328 
Q 1025 1384 1454 906 
Q 1884 428 2741 428 
Q 3075 428 3337 486 
Q 3600 544 3809 666 
z
" transform="scale(0.015625)"/>
       <path id="DejaVuSans-45" d="M 628 4666 
L 3578 4666 
L 3578 4134 
L 1259 4134 
L 1259 2753 
L 3481 2753 
L 3481 2222 
L 1259 2222 
L 1259 531 
L 3634 531 
L 3634 0 
L 628 0 
L 628 4666 
z
" transform="scale(0.015625)"/>
      </defs>
      <use xlink:href="#DejaVuSans-54"/>
      <use xlink:href="#DejaVuSans-41" x="53.333984"/>
      <use xlink:href="#DejaVuSans-52" x="121.742188"/>
      <use xlink:href="#DejaVuSans-47" x="191.224609"/>
      <use xlink:href="#DejaVuSans-45" x="268.714844"/>
      <use xlink:href="#DejaVuSans-54" x="331.898438"/>
     </g>
    </g>
   </g>
   <g id="line2d_31">
    <path d="M 86.76267 139.119426 
L 88.061153 141.501984 
L 89.359636 105.010076 
L 89.359636 128.717809 
L 90.658118 139.673146 
L 90.658118 41.926647 
L 93.255083 126.36684 
L 93.255083 140.261176 
L 95.852048 142.269968 
L 95.852048 140.919319 
L 97.150531 140.031368 
L 97.150531 142.803245 
L 101.045979 136.558645 
L 101.045979 141.161122 
L 102.344461 135.184457 
L 102.344461 175.751199 
L 104.941426 150.372461 
L 104.941426 142.849389 
L 106.239909 142.336666 
L 107.538392 135.328374 
L 107.538392 142.787462 
L 110.135357 166.266071 
L 112.732322 148.315869 
L 112.732322 136.740844 
L 114.030804 137.784928 
L 114.030804 176.120927 
L 115.329287 139.310427 
L 115.329287 135.566303 
L 116.62777 139.752725 
L 116.62777 139.172558 
L 119.224735 138.130427 
L 119.224735 137.788961 
L 120.523217 136.36924 
L 120.523217 134.425437 
L 121.8217 136.665086 
L 121.8217 137.224669 
L 123.120182 142.595294 
L 124.418665 137.890676 
L 127.01563 148.600666 
L 127.01563 125.533153 
L 130.911078 142.66601 
L 130.911078 141.945997 
L 133.508043 98.507819 
L 133.508043 146.596299 
L 134.806526 138.626914 
L 134.806526 105.228505 
L 136.105008 141.934968 
L 136.105008 140.476863 
L 138.701973 146.147692 
L 140.000456 149.55116 
L 140.000456 143.463045 
L 141.298938 141.44306 
L 141.298938 146.342572 
L 146.492869 156.366202 
L 147.791351 134.583775 
L 149.089834 139.354828 
L 150.388316 142.029208 
L 150.388316 140.96946 
L 151.686799 132.93261 
L 154.283764 140.608083 
L 155.582247 141.049281 
L 155.582247 142.484199 
L 158.179212 143.020001 
L 158.179212 117.092144 
L 160.776177 140.675872 
L 160.776177 145.309758 
L 162.07466 140.205775 
L 163.373142 147.606263 
L 164.671625 141.075721 
L 164.671625 133.072602 
L 165.970107 142.218219 
L 165.970107 138.470838 
L 167.26859 143.63818 
L 167.26859 147.946302 
L 169.865555 135.946744 
L 171.164038 142.008528 
L 172.46252 146.570523 
L 172.46252 136.702039 
L 175.059485 137.81899 
L 175.059485 145.917489 
L 177.65645 134.665142 
L 177.65645 140.964937 
L 178.954933 139.204428 
L 178.954933 118.729479 
L 180.253415 143.530998 
L 181.551898 151.901844 
L 181.551898 142.328734 
L 182.850381 140.181026 
L 182.850381 152.439837 
L 184.148863 139.618975 
L 185.447346 136.298137 
L 186.745828 133.317757 
L 186.745828 133.752053 
L 188.044311 140.836832 
L 188.044311 139.915048 
L 191.939759 141.34651 
L 191.939759 144.564021 
L 193.238241 141.349741 
L 193.238241 151.504554 
L 194.536724 150.491652 
L 194.536724 139.572934 
L 198.432171 143.533701 
L 198.432171 141.606374 
L 199.730654 139.102106 
L 199.730654 141.080304 
L 201.029137 143.92305 
L 201.029137 139.552479 
L 202.327619 141.146637 
L 203.626102 136.171779 
L 204.924584 136.480305 
L 206.223067 140.093785 
L 206.223067 139.335539 
L 207.521549 137.993079 
L 207.521549 142.539244 
L 208.820032 137.842626 
L 208.820032 133.597664 
L 211.416997 138.647371 
L 211.416997 139.182385 
L 212.71548 140.783459 
L 212.71548 143.659185 
L 214.013962 141.336916 
L 214.013962 166.964355 
L 215.312445 140.972612 
L 215.312445 152.312657 
L 217.90941 142.436034 
L 217.90941 143.458274 
L 219.207893 141.786982 
L 219.207893 121.024827 
L 221.804858 143.667817 
L 221.804858 140.62583 
L 223.10334 143.246956 
L 223.10334 129.38999 
L 224.401823 103.046423 
L 224.401823 138.542644 
L 225.700305 141.081053 
L 225.700305 131.257997 
L 226.998788 139.760698 
L 226.998788 142.444549 
L 228.297271 147.655878 
L 228.297271 138.579933 
L 229.595753 153.155724 
L 232.192718 131.116118 
L 232.192718 148.127784 
L 234.789683 143.757386 
L 237.386649 142.469973 
L 237.386649 142.534684 
L 238.685131 135.911035 
L 238.685131 85.905092 
L 239.983614 141.313405 
L 239.983614 102.030436 
L 241.282096 143.444978 
L 242.580579 137.151605 
L 242.580579 142.566157 
L 243.879061 153.807174 
L 243.879061 143.177479 
L 245.177544 144.043623 
L 245.177544 143.025397 
L 247.774509 85.46794 
L 247.774509 141.251108 
L 249.072992 141.833306 
L 250.371474 132.311905 
L 251.669957 145.136824 
L 251.669957 138.120361 
L 255.565405 135.853284 
L 255.565405 138.967479 
L 256.863887 138.719195 
L 256.863887 156.428588 
L 260.759335 145.501662 
L 260.759335 108.382764 
L 262.057817 139.96439 
L 262.057817 132.896096 
L 264.654783 137.682326 
L 264.654783 132.248444 
L 265.953265 139.914182 
L 268.55023 153.80266 
L 269.848713 141.052617 
L 272.445678 142.917624 
L 272.445678 120.74628 
L 273.744161 143.087082 
L 273.744161 137.961817 
L 275.042643 32.967685 
L 276.341126 141.384802 
L 276.341126 132.80878 
L 277.639608 140.20251 
L 277.639608 159.714741 
L 280.236573 140.272445 
L 280.236573 153.900839 
L 281.535056 142.364311 
L 281.535056 134.40026 
L 282.833539 151.18975 
L 284.132021 141.02569 
L 284.132021 136.86729 
L 286.728986 142.640407 
L 286.728986 140.110086 
L 288.027469 143.363377 
L 288.027469 141.267626 
L 290.624434 140.119315 
L 291.922917 126.17982 
L 291.922917 138.755837 
L 293.221399 141.929515 
L 297.116847 135.059181 
L 297.116847 123.448741 
L 298.415329 137.074889 
L 298.415329 138.706139 
L 301.012295 140.722461 
L 301.012295 139.555823 
L 302.310777 142.039283 
L 302.310777 155.109828 
L 304.907742 152.473678 
L 304.907742 140.52055 
L 306.206225 131.000416 
L 306.206225 114.193314 
L 307.504707 95.4551 
L 307.504707 144.585281 
L 310.101673 132.705485 
L 310.101673 146.28507 
L 313.99712 140.017689 
L 313.99712 142.141614 
L 317.892568 56.365358 
L 317.892568 139.943541 
L 319.19105 129.829285 
L 319.19105 137.335235 
L 320.489533 137.471137 
L 320.489533 136.31523 
L 321.788016 142.783199 
L 321.788016 155.466588 
L 323.086498 137.818293 
L 324.384981 137.21399 
L 324.384981 137.324969 
L 325.683463 138.868651 
L 325.683463 147.558346 
L 326.981946 174.338713 
L 328.280428 148.952115 
L 329.578911 141.268255 
L 329.578911 144.967455 
L 330.877394 138.785026 
L 330.877394 142.73625 
L 332.175876 116.037864 
L 332.175876 139.314457 
L 334.772841 131.450367 
L 334.772841 139.120949 
L 336.071324 142.26724 
L 336.071324 139.190576 
L 338.668289 140.62583 
L 338.668289 138.08997 
L 339.966772 139.782766 
L 339.966772 141.877815 
L 342.563737 144.777419 
L 343.862219 154.134983 
L 343.862219 230.762003 
L 345.160702 139.302031 
L 345.160702 144.457392 
L 347.757667 135.568776 
L 347.757667 114.880381 
L 350.354632 140.804088 
L 350.354632 136.009897 
L 351.653115 139.454503 
L 351.653115 138.617075 
L 352.951597 127.717647 
L 352.951597 153.960571 
L 354.25008 140.234366 
L 355.548562 141.508354 
L 355.548562 141.451888 
L 358.145528 137.084409 
L 358.145528 135.465466 
L 362.040975 140.287125 
L 364.63794 138.01988 
L 364.63794 137.790206 
L 365.936423 140.873598 
L 368.533388 146.24023 
L 368.533388 142.483962 
L 371.130353 147.719416 
L 371.130353 140.729723 
L 372.428836 136.027966 
L 373.727318 48.243112 
L 373.727318 131.136022 
L 375.025801 136.551451 
L 375.025801 138.460318 
L 376.324284 139.559669 
L 376.324284 134.805436 
L 377.622766 140.009143 
L 378.921249 140.204637 
L 378.921249 143.069664 
L 381.518214 150.085867 
L 382.816696 138.455449 
L 384.115179 140.590237 
L 384.115179 138.473251 
L 385.413662 141.659966 
L 385.413662 154.595948 
L 386.712144 142.631369 
L 386.712144 140.467274 
L 388.010627 151.105516 
L 388.010627 145.021432 
L 393.204557 118.273232 
L 393.204557 138.920779 
L 394.50304 131.883814 
L 394.50304 126.833773 
L 395.801522 137.737987 
L 397.100005 136.024345 
L 397.100005 141.630758 
L 398.398487 142.321559 
L 398.398487 135.751732 
L 400.995452 146.151654 
L 402.293935 146.132175 
L 402.293935 136.973116 
L 406.189383 134.473989 
L 406.189383 172.962059 
L 407.487865 141.225709 
L 408.786348 141.240222 
L 410.08483 142.905118 
L 411.383313 139.150109 
L 411.383313 135.396661 
L 412.681796 138.602218 
L 412.681796 135.903628 
L 415.278761 137.595075 
L 415.278761 150.78663 
L 420.472691 143.457911 
L 420.472691 142.90936 
L 421.771174 145.5422 
L 421.771174 145.962659 
L 426.965104 139.605952 
L 426.965104 119.026768 
L 428.263586 138.951986 
L 428.263586 140.764716 
L 429.562069 83.667268 
L 432.159034 114.896872 
L 432.159034 153.435061 
L 433.457517 144.035013 
L 433.457517 144.555398 
L 434.755999 142.827307 
L 434.755999 136.093491 
L 436.054482 134.525902 
L 436.054482 133.168714 
L 437.352964 135.999985 
L 437.352964 149.380896 
L 439.94993 137.543893 
L 439.94993 142.068527 
L 441.248412 146.223751 
L 442.546895 140.877203 
L 442.546895 141.824061 
L 445.14386 140.741287 
L 445.14386 153.61128 
L 446.442342 142.677427 
L 446.442342 146.02065 
L 447.740825 137.817385 
L 447.740825 141.490101 
L 449.039308 150.620362 
L 449.039308 141.187528 
L 450.33779 165.650925 
L 450.33779 141.515929 
L 451.636273 137.93784 
L 451.636273 140.933001 
L 452.934755 138.94603 
L 452.934755 140.175708 
L 454.233238 138.754817 
L 455.53172 133.854881 
L 455.53172 190.112212 
L 456.830203 141.576691 
L 458.128685 139.952441 
L 458.128685 153.761872 
L 459.427168 154.577988 
L 459.427168 133.157979 
L 462.024133 143.465108 
L 462.024133 140.381838 
L 463.322616 159.211852 
L 463.322616 140.342276 
L 465.919581 129.227392 
L 465.919581 126.699324 
L 467.218063 146.411405 
L 468.516546 132.140453 
L 468.516546 139.941857 
L 471.113511 148.994488 
L 471.113511 144.105085 
L 472.411994 141.542032 
L 472.411994 152.099703 
L 473.710476 158.549086 
L 473.710476 127.817369 
L 478.904407 144.786575 
L 478.904407 155.92012 
L 480.202889 143.846199 
L 481.501372 118.382676 
L 481.501372 140.689186 
L 482.799854 138.643924 
L 482.799854 129.245977 
L 485.396819 139.089318 
L 485.396819 140.62583 
L 486.695302 137.294586 
L 487.993785 139.88774 
L 487.993785 134.261969 
L 489.292267 126.079134 
L 490.59075 123.855067 
L 490.59075 134.363175 
L 491.889232 132.165995 
L 493.187715 138.461011 
L 494.486197 139.869883 
L 495.78468 143.221976 
L 495.78468 140.67489 
L 499.680128 125.658114 
L 499.680128 127.730068 
L 500.97861 141.620415 
L 502.277093 140.861414 
L 502.277093 149.163314 
L 503.575575 143.221679 
L 504.874058 140.205574 
L 506.172541 139.262439 
L 508.769506 141.691731 
L 508.769506 139.222624 
L 511.366471 149.111832 
L 511.366471 146.846853 
L 512.664953 136.186126 
L 512.664953 137.368847 
L 513.963436 153.272346 
L 513.963436 141.827763 
L 515.261919 102.500825 
L 515.261919 116.947936 
L 516.560401 146.35119 
L 516.560401 141.588728 
L 519.157366 140.023193 
L 519.157366 145.911655 
L 521.754331 140.677204 
L 523.052814 143.181174 
L 523.052814 167.632783 
L 524.351297 98.60167 
L 524.351297 154.765663 
L 528.246744 149.696415 
L 528.246744 140.928621 
L 529.545227 142.159369 
L 529.545227 139.187779 
L 532.142192 138.826259 
L 533.440675 138.878506 
L 533.440675 138.543853 
L 536.03764 143.953383 
L 536.03764 139.820166 
L 537.336122 152.166685 
L 537.336122 143.671099 
L 538.634605 141.76747 
L 538.634605 163.76907 
L 539.933087 140.943705 
L 542.530053 46.110212 
L 542.530053 126.149082 
L 545.127018 149.685367 
L 545.127018 140.962337 
L 546.4255 143.226288 
L 547.723983 142.609366 
L 547.723983 146.842329 
L 549.022465 138.981272 
L 549.022465 151.675033 
L 550.320948 135.706251 
L 550.320948 145.124573 
L 552.917913 129.900066 
L 552.917913 141.066871 
L 555.514878 140.889555 
L 555.514878 144.07908 
L 556.813361 160.180221 
L 558.111843 135.306729 
L 558.111843 127.863913 
L 559.410326 141.556889 
L 559.410326 143.458336 
L 560.708809 136.143526 
L 560.708809 135.288522 
L 562.007291 150.232235 
L 563.305774 139.353466 
L 564.604256 143.21472 
L 568.499704 147.082079 
L 568.499704 196.505335 
L 572.395152 137.609612 
L 572.395152 142.609762 
L 576.290599 120.265673 
L 576.290599 142.429697 
L 577.589082 151.881413 
L 577.589082 139.229928 
L 578.887565 140.514902 
L 580.186047 128.05858 
L 580.186047 135.439012 
L 581.48453 139.321127 
L 584.081495 136.83546 
L 585.379977 141.944095 
L 585.379977 141.764433 
L 586.67846 142.592202 
L 589.275425 139.726368 
L 589.275425 152.911777 
L 591.87239 127.473154 
L 591.87239 140.545671 
L 594.469355 142.90462 
L 594.469355 143.375244 
L 597.06632 135.687106 
L 597.06632 136.089591 
L 600.961768 150.895575 
L 600.961768 141.072623 
L 603.558733 140.71158 
L 603.558733 145.39853 
L 604.857216 124.578097 
L 604.857216 142.502387 
L 606.155698 157.908196 
L 606.155698 137.714334 
L 607.454181 139.706504 
L 610.051146 139.96021 
L 610.051146 147.918119 
L 613.946594 138.924715 
L 613.946594 137.911603 
L 616.543559 140.726119 
L 617.842042 137.766999 
L 617.842042 147.873277 
L 621.737489 120.116491 
L 621.737489 152.787258 
L 623.035972 160.20763 
L 623.035972 141.44051 
L 624.334454 143.071187 
L 624.334454 135.570654 
L 626.93142 137.541382 
L 626.93142 137.760105 
L 628.229902 144.019034 
L 628.229902 141.002275 
L 629.528385 147.062033 
L 630.826867 138.120121 
L 632.12535 150.157075 
L 632.12535 163.514721 
L 634.722315 142.321377 
L 636.020798 138.209435 
L 636.020798 135.130249 
L 637.31928 139.197599 
L 637.31928 137.570163 
L 638.617763 140.37088 
L 638.617763 140.168233 
L 639.916245 141.052774 
L 639.916245 122.328207 
L 641.214728 135.922068 
L 641.214728 135.048741 
L 643.811693 119.20818 
L 643.811693 138.784389 
L 645.110176 139.594942 
L 645.110176 141.860689 
L 646.408658 143.852655 
L 646.408658 148.441563 
L 650.304106 135.46499 
L 650.304106 138.477378 
L 652.901071 140.669611 
L 652.901071 131.301278 
L 654.199554 148.006324 
L 654.199554 136.543977 
L 656.796519 174.248536 
L 660.691966 139.219304 
L 660.691966 133.118175 
L 661.990449 137.194048 
L 663.288932 143.219886 
L 663.288932 147.977272 
L 664.587414 141.815859 
L 664.587414 133.475096 
L 665.885897 140.405053 
L 669.781344 137.959601 
L 669.781344 130.433366 
L 671.079827 134.716214 
L 674.975275 139.50346 
L 674.975275 140.77899 
L 676.273757 145.024501 
L 676.273757 142.50499 
L 678.870722 136.010253 
L 678.870722 141.937234 
L 680.169205 141.327238 
L 680.169205 145.322399 
L 684.064653 147.586196 
L 684.064653 137.104617 
L 685.363135 143.338489 
L 685.363135 146.203783 
L 686.661618 139.251792 
L 687.9601 149.715436 
L 687.9601 152.51791 
L 690.557066 111.131515 
L 691.855548 145.340088 
L 691.855548 160.67389 
L 693.154031 127.73843 
L 693.154031 137.83574 
L 695.750996 150.59235 
L 695.750996 140.500181 
L 697.049478 141.777128 
L 697.049478 142.32577 
L 698.347961 138.217714 
L 700.944926 140.650355 
L 700.944926 144.835471 
L 702.243409 151.355482 
L 702.243409 137.699059 
L 704.840374 109.215316 
L 704.840374 119.444645 
L 707.437339 144.2294 
L 708.735822 150.115787 
L 708.735822 145.024733 
L 710.034304 139.603147 
L 710.034304 143.078364 
L 711.332787 145.270446 
L 711.332787 150.340195 
L 712.631269 136.76096 
L 712.631269 140.196887 
L 717.8252 140.747354 
L 719.123682 140.337323 
L 723.01913 140.286613 
L 723.01913 139.298594 
L 724.317612 139.485656 
L 725.616095 126.553674 
L 725.616095 139.871579 
L 726.914577 155.875818 
L 728.21306 139.207314 
L 729.511543 115.282907 
L 729.511543 141.36441 
L 730.810025 142.835966 
L 732.108508 139.732976 
L 732.108508 143.894513 
L 733.40699 138.927297 
L 736.003955 134.690856 
L 736.003955 151.293112 
L 737.302438 142.181494 
L 737.302438 139.461386 
L 739.899403 141.275282 
L 739.899403 143.290307 
L 741.197886 78.016888 
L 742.496368 140.928195 
L 742.496368 140.099546 
L 743.794851 146.197311 
L 746.391816 138.992598 
L 746.391816 140.707432 
L 747.690299 155.914415 
L 748.988781 139.128774 
L 748.988781 135.57232 
L 750.287264 139.175252 
L 751.585746 135.176469 
L 751.585746 141.494079 
L 754.182711 138.83161 
L 754.182711 147.862006 
L 755.481194 154.584772 
L 755.481194 129.698192 
L 756.779677 140.62583 
L 756.779677 164.825813 
L 758.078159 82.559526 
L 758.078159 140.555905 
L 760.675124 134.366966 
L 760.675124 139.662858 
L 763.272089 134.662412 
L 763.272089 143.337996 
L 764.570572 136.694546 
L 764.570572 140.567726 
L 765.869055 141.028174 
L 765.869055 138.256669 
L 768.46602 143.492822 
L 768.46602 140.313121 
L 769.764502 137.474541 
L 769.764502 142.811982 
L 773.65995 144.682055 
L 774.958433 140.62583 
L 774.958433 141.994994 
L 778.85388 140.749548 
L 778.85388 144.134993 
L 780.152363 142.487929 
L 781.450845 138.879996 
L 781.450845 144.277727 
L 782.749328 140.696803 
L 782.749328 156.951019 
L 784.047811 146.756151 
L 784.047811 142.169914 
L 785.346293 142.21648 
L 785.346293 169.694872 
L 786.644776 121.286557 
L 786.644776 148.226816 
L 787.943258 141.822786 
L 787.943258 139.974689 
L 790.540223 135.540189 
L 790.540223 178.037548 
L 791.838706 135.36838 
L 793.137189 157.603538 
L 793.137189 141.704402 
L 794.435671 166.601273 
L 794.435671 165.5325 
L 797.032636 141.455544 
L 797.032636 137.561835 
L 799.629601 142.92846 
L 799.629601 142.3554 
L 800.928084 140.458355 
L 800.928084 144.223732 
L 803.525049 136.088413 
L 803.525049 148.693368 
L 804.823532 144.273911 
L 804.823532 149.151003 
L 806.122014 145.536695 
L 806.122014 118.606511 
L 807.420497 138.794203 
L 808.718979 153.822498 
L 808.718979 142.408808 
L 810.017462 135.590761 
L 810.017462 142.640006 
L 811.315945 175.393971 
L 811.315945 117.477146 
L 813.91291 136.880247 
L 813.91291 135.569939 
L 815.211392 132.535572 
L 815.211392 137.106491 
L 816.509875 143.126117 
L 816.509875 135.471143 
L 819.10684 140.167648 
L 819.10684 139.681965 
L 820.405323 166.358126 
L 820.405323 149.602281 
L 821.703805 144.068529 
L 821.703805 145.180201 
L 823.002288 131.626197 
L 823.002288 161.518664 
L 824.30077 120.231873 
L 824.30077 137.709567 
L 830.793183 118.87503 
L 830.793183 144.106798 
L 832.091666 88.927733 
L 832.091666 134.735485 
L 833.390148 141.759602 
L 837.285596 145.287709 
L 838.584079 145.540402 
L 838.584079 152.873014 
L 839.882561 140.688687 
L 839.882561 140.917304 
L 841.181044 143.831261 
L 842.479526 142.332515 
L 842.479526 157.981243 
L 843.778009 137.980481 
L 845.076491 139.811727 
L 845.076491 130.976844 
L 846.374974 142.591832 
L 847.673457 134.843201 
L 847.673457 133.869632 
L 848.971939 136.551345 
L 848.971939 138.384272 
L 851.568904 140.906543 
L 851.568904 132.955639 
L 854.165869 144.104345 
L 854.165869 141.231969 
L 855.464352 157.761352 
L 855.464352 100.185659 
L 856.762835 143.37351 
L 858.061317 142.127411 
L 859.3598 154.293842 
L 859.3598 141.116676 
L 860.658282 141.860748 
L 863.255247 142.953506 
L 863.255247 149.779042 
L 865.852212 146.141923 
L 865.852212 139.173075 
L 867.150695 140.620726 
L 867.150695 140.197396 
L 868.449178 138.253435 
L 868.449178 148.739931 
L 871.046143 137.843689 
L 871.046143 132.413833 
L 872.344625 57.532181 
L 872.344625 156.38264 
L 873.643108 142.662871 
L 873.643108 146.337373 
L 876.240073 138.23469 
L 876.240073 144.368751 
L 877.538556 137.370118 
L 877.538556 161.867163 
L 878.837038 142.887243 
L 878.837038 144.568022 
L 881.434003 132.227168 
L 881.434003 121.76541 
L 885.329451 144.411171 
L 885.329451 139.77785 
L 886.627934 154.673733 
L 886.627934 139.963695 
L 887.926416 141.903073 
L 887.926416 139.148202 
L 890.523381 144.389235 
L 891.821864 136.603149 
L 891.821864 134.959089 
L 894.418829 132.366665 
L 894.418829 120.386463 
L 895.717312 139.096607 
L 895.717312 151.732555 
L 897.015794 138.519743 
L 897.015794 143.257547 
L 899.612759 139.376598 
L 899.612759 146.314445 
L 900.911242 139.074816 
L 900.911242 143.514407 
L 903.508207 141.591466 
L 903.508207 147.168633 
L 904.80669 139.198879 
L 906.105172 133.675471 
L 906.105172 145.044311 
L 911.299102 141.207969 
L 911.299102 144.681271 
L 913.896068 138.837423 
L 915.19455 145.375304 
L 915.19455 143.384829 
L 916.493033 128.5931 
L 917.791515 147.987833 
L 917.791515 139.304345 
L 919.089998 133.765015 
L 919.089998 137.760056 
L 920.38848 144.816702 
L 920.38848 137.990354 
L 921.686963 153.126594 
L 921.686963 141.605288 
L 922.985446 140.868245 
L 922.985446 139.70368 
L 924.283928 148.279693 
L 924.283928 139.396757 
L 926.880893 162.522233 
L 926.880893 139.609829 
L 928.179376 141.469665 
L 928.179376 149.904117 
L 929.477858 140.708344 
L 929.477858 142.890475 
L 930.776341 139.072226 
L 930.776341 145.167531 
L 933.373306 140.292626 
L 933.373306 139.897628 
L 934.671789 138.41513 
L 934.671789 123.597722 
L 935.970271 89.573584 
L 935.970271 140.458073 
L 937.268754 135.932677 
L 937.268754 148.932238 
L 938.567236 144.393342 
L 938.567236 140.297483 
L 939.865719 149.442166 
L 942.462684 144.853327 
L 942.462684 143.342939 
L 943.761167 142.046473 
L 943.761167 144.879934 
L 946.358132 135.689892 
L 946.358132 104.401141 
L 947.656614 144.287715 
L 948.955097 190.177745 
L 948.955097 164.124298 
L 950.25358 141.759869 
L 950.25358 141.759869 
" clip-path="url(#pc08521af22)" style="fill: none; stroke: #000000; stroke-linecap: square"/>
   </g>
   <g id="line2d_32">
    <path d="M 146.492869 240.651719 
L 146.492869 23.077969 
" clip-path="url(#pc08521af22)" style="fill: none; stroke-dasharray: 5.55,2.4; stroke-dashoffset: 0; stroke: #ff0000; stroke-opacity: 0.7; stroke-width: 1.5"/>
   </g>
   <g id="line2d_33">
    <path d="M 146.492869 240.651719 
L 146.492869 23.077969 
" clip-path="url(#pc08521af22)" style="fill: none; stroke-dasharray: 5.55,2.4; stroke-dashoffset: 0; stroke: #ff0000; stroke-opacity: 0.7; stroke-width: 1.5"/>
   </g>
   <g id="line2d_34">
    <path d="M 147.791351 240.651719 
L 147.791351 23.077969 
" clip-path="url(#pc08521af22)" style="fill: none; stroke-dasharray: 5.55,2.4; stroke-dashoffset: 0; stroke: #ff0000; stroke-opacity: 0.7; stroke-width: 1.5"/>
   </g>
   <g id="line2d_35">
    <path d="M 150.388316 240.651719 
L 150.388316 23.077969 
" clip-path="url(#pc08521af22)" style="fill: none; stroke-dasharray: 5.55,2.4; stroke-dashoffset: 0; stroke: #ff0000; stroke-opacity: 0.7; stroke-width: 1.5"/>
   </g>
   <g id="line2d_36">
    <path d="M 150.388316 240.651719 
L 150.388316 23.077969 
" clip-path="url(#pc08521af22)" style="fill: none; stroke-dasharray: 5.55,2.4; stroke-dashoffset: 0; stroke: #ff0000; stroke-opacity: 0.7; stroke-width: 1.5"/>
   </g>
   <g id="line2d_37">
    <path d="M 151.686799 240.651719 
L 151.686799 23.077969 
" clip-path="url(#pc08521af22)" style="fill: none; stroke-dasharray: 5.55,2.4; stroke-dashoffset: 0; stroke: #ff0000; stroke-opacity: 0.7; stroke-width: 1.5"/>
   </g>
   <g id="line2d_38">
    <path d="M 158.179212 240.651719 
L 158.179212 23.077969 
" clip-path="url(#pc08521af22)" style="fill: none; stroke-dasharray: 5.55,2.4; stroke-dashoffset: 0; stroke: #ff0000; stroke-opacity: 0.7; stroke-width: 1.5"/>
   </g>
   <g id="line2d_39">
    <path d="M 217.90941 240.651719 
L 217.90941 23.077969 
" clip-path="url(#pc08521af22)" style="fill: none; stroke-dasharray: 5.55,2.4; stroke-dashoffset: 0; stroke: #ff0000; stroke-opacity: 0.7; stroke-width: 1.5"/>
   </g>
   <g id="line2d_40">
    <path d="M 224.401823 240.651719 
L 224.401823 23.077969 
" clip-path="url(#pc08521af22)" style="fill: none; stroke-dasharray: 5.55,2.4; stroke-dashoffset: 0; stroke: #ff0000; stroke-opacity: 0.7; stroke-width: 1.5"/>
   </g>
   <g id="line2d_41">
    <path d="M 225.700305 240.651719 
L 225.700305 23.077969 
" clip-path="url(#pc08521af22)" style="fill: none; stroke-dasharray: 5.55,2.4; stroke-dashoffset: 0; stroke: #ff0000; stroke-opacity: 0.7; stroke-width: 1.5"/>
   </g>
   <g id="line2d_42">
    <path d="M 228.297271 240.651719 
L 228.297271 23.077969 
" clip-path="url(#pc08521af22)" style="fill: none; stroke-dasharray: 5.55,2.4; stroke-dashoffset: 0; stroke: #ff0000; stroke-opacity: 0.7; stroke-width: 1.5"/>
   </g>
   <g id="line2d_43">
    <path d="M 228.297271 240.651719 
L 228.297271 23.077969 
" clip-path="url(#pc08521af22)" style="fill: none; stroke-dasharray: 5.55,2.4; stroke-dashoffset: 0; stroke: #ff0000; stroke-opacity: 0.7; stroke-width: 1.5"/>
   </g>
   <g id="line2d_44">
    <path d="M 232.192718 240.651719 
L 232.192718 23.077969 
" clip-path="url(#pc08521af22)" style="fill: none; stroke-dasharray: 5.55,2.4; stroke-dashoffset: 0; stroke: #ff0000; stroke-opacity: 0.7; stroke-width: 1.5"/>
   </g>
   <g id="line2d_45">
    <path d="M 234.789683 240.651719 
L 234.789683 23.077969 
" clip-path="url(#pc08521af22)" style="fill: none; stroke-dasharray: 5.55,2.4; stroke-dashoffset: 0; stroke: #ff0000; stroke-opacity: 0.7; stroke-width: 1.5"/>
   </g>
   <g id="line2d_46">
    <path d="M 237.386649 240.651719 
L 237.386649 23.077969 
" clip-path="url(#pc08521af22)" style="fill: none; stroke-dasharray: 5.55,2.4; stroke-dashoffset: 0; stroke: #ff0000; stroke-opacity: 0.7; stroke-width: 1.5"/>
   </g>
   <g id="line2d_47">
    <path d="M 238.685131 240.651719 
L 238.685131 23.077969 
" clip-path="url(#pc08521af22)" style="fill: none; stroke-dasharray: 5.55,2.4; stroke-dashoffset: 0; stroke: #ff0000; stroke-opacity: 0.7; stroke-width: 1.5"/>
   </g>
   <g id="line2d_48">
    <path d="M 242.580579 240.651719 
L 242.580579 23.077969 
" clip-path="url(#pc08521af22)" style="fill: none; stroke-dasharray: 5.55,2.4; stroke-dashoffset: 0; stroke: #ff0000; stroke-opacity: 0.7; stroke-width: 1.5"/>
   </g>
   <g id="line2d_49">
    <path d="M 243.879061 240.651719 
L 243.879061 23.077969 
" clip-path="url(#pc08521af22)" style="fill: none; stroke-dasharray: 5.55,2.4; stroke-dashoffset: 0; stroke: #ff0000; stroke-opacity: 0.7; stroke-width: 1.5"/>
   </g>
   <g id="line2d_50">
    <path d="M 245.177544 240.651719 
L 245.177544 23.077969 
" clip-path="url(#pc08521af22)" style="fill: none; stroke-dasharray: 5.55,2.4; stroke-dashoffset: 0; stroke: #ff0000; stroke-opacity: 0.7; stroke-width: 1.5"/>
   </g>
   <g id="line2d_51">
    <path d="M 247.774509 240.651719 
L 247.774509 23.077969 
" clip-path="url(#pc08521af22)" style="fill: none; stroke-dasharray: 5.55,2.4; stroke-dashoffset: 0; stroke: #ff0000; stroke-opacity: 0.7; stroke-width: 1.5"/>
   </g>
   <g id="line2d_52">
    <path d="M 247.774509 240.651719 
L 247.774509 23.077969 
" clip-path="url(#pc08521af22)" style="fill: none; stroke-dasharray: 5.55,2.4; stroke-dashoffset: 0; stroke: #ff0000; stroke-opacity: 0.7; stroke-width: 1.5"/>
   </g>
   <g id="line2d_53">
    <path d="M 249.072992 240.651719 
L 249.072992 23.077969 
" clip-path="url(#pc08521af22)" style="fill: none; stroke-dasharray: 5.55,2.4; stroke-dashoffset: 0; stroke: #ff0000; stroke-opacity: 0.7; stroke-width: 1.5"/>
   </g>
   <g id="line2d_54">
    <path d="M 250.371474 240.651719 
L 250.371474 23.077969 
" clip-path="url(#pc08521af22)" style="fill: none; stroke-dasharray: 5.55,2.4; stroke-dashoffset: 0; stroke: #ff0000; stroke-opacity: 0.7; stroke-width: 1.5"/>
   </g>
   <g id="line2d_55">
    <path d="M 251.669957 240.651719 
L 251.669957 23.077969 
" clip-path="url(#pc08521af22)" style="fill: none; stroke-dasharray: 5.55,2.4; stroke-dashoffset: 0; stroke: #ff0000; stroke-opacity: 0.7; stroke-width: 1.5"/>
   </g>
   <g id="line2d_56">
    <path d="M 251.669957 240.651719 
L 251.669957 23.077969 
" clip-path="url(#pc08521af22)" style="fill: none; stroke-dasharray: 5.55,2.4; stroke-dashoffset: 0; stroke: #ff0000; stroke-opacity: 0.7; stroke-width: 1.5"/>
   </g>
   <g id="line2d_57">
    <path d="M 255.565405 240.651719 
L 255.565405 23.077969 
" clip-path="url(#pc08521af22)" style="fill: none; stroke-dasharray: 5.55,2.4; stroke-dashoffset: 0; stroke: #ff0000; stroke-opacity: 0.7; stroke-width: 1.5"/>
   </g>
   <g id="line2d_58">
    <path d="M 256.863887 240.651719 
L 256.863887 23.077969 
" clip-path="url(#pc08521af22)" style="fill: none; stroke-dasharray: 5.55,2.4; stroke-dashoffset: 0; stroke: #ff0000; stroke-opacity: 0.7; stroke-width: 1.5"/>
   </g>
   <g id="line2d_59">
    <path d="M 260.759335 240.651719 
L 260.759335 23.077969 
" clip-path="url(#pc08521af22)" style="fill: none; stroke-dasharray: 5.55,2.4; stroke-dashoffset: 0; stroke: #ff0000; stroke-opacity: 0.7; stroke-width: 1.5"/>
   </g>
   <g id="line2d_60">
    <path d="M 265.953265 240.651719 
L 265.953265 23.077969 
" clip-path="url(#pc08521af22)" style="fill: none; stroke-dasharray: 5.55,2.4; stroke-dashoffset: 0; stroke: #ff0000; stroke-opacity: 0.7; stroke-width: 1.5"/>
   </g>
   <g id="line2d_61">
    <path d="M 269.848713 240.651719 
L 269.848713 23.077969 
" clip-path="url(#pc08521af22)" style="fill: none; stroke-dasharray: 5.55,2.4; stroke-dashoffset: 0; stroke: #ff0000; stroke-opacity: 0.7; stroke-width: 1.5"/>
   </g>
   <g id="line2d_62">
    <path d="M 272.445678 240.651719 
L 272.445678 23.077969 
" clip-path="url(#pc08521af22)" style="fill: none; stroke-dasharray: 5.55,2.4; stroke-dashoffset: 0; stroke: #ff0000; stroke-opacity: 0.7; stroke-width: 1.5"/>
   </g>
   <g id="line2d_63">
    <path d="M 272.445678 240.651719 
L 272.445678 23.077969 
" clip-path="url(#pc08521af22)" style="fill: none; stroke-dasharray: 5.55,2.4; stroke-dashoffset: 0; stroke: #ff0000; stroke-opacity: 0.7; stroke-width: 1.5"/>
   </g>
   <g id="line2d_64">
    <path d="M 280.236573 240.651719 
L 280.236573 23.077969 
" clip-path="url(#pc08521af22)" style="fill: none; stroke-dasharray: 5.55,2.4; stroke-dashoffset: 0; stroke: #ff0000; stroke-opacity: 0.7; stroke-width: 1.5"/>
   </g>
   <g id="line2d_65">
    <path d="M 281.535056 240.651719 
L 281.535056 23.077969 
" clip-path="url(#pc08521af22)" style="fill: none; stroke-dasharray: 5.55,2.4; stroke-dashoffset: 0; stroke: #ff0000; stroke-opacity: 0.7; stroke-width: 1.5"/>
   </g>
   <g id="line2d_66">
    <path d="M 288.027469 240.651719 
L 288.027469 23.077969 
" clip-path="url(#pc08521af22)" style="fill: none; stroke-dasharray: 5.55,2.4; stroke-dashoffset: 0; stroke: #ff0000; stroke-opacity: 0.7; stroke-width: 1.5"/>
   </g>
   <g id="line2d_67">
    <path d="M 290.624434 240.651719 
L 290.624434 23.077969 
" clip-path="url(#pc08521af22)" style="fill: none; stroke-dasharray: 5.55,2.4; stroke-dashoffset: 0; stroke: #ff0000; stroke-opacity: 0.7; stroke-width: 1.5"/>
   </g>
   <g id="line2d_68">
    <path d="M 302.310777 240.651719 
L 302.310777 23.077969 
" clip-path="url(#pc08521af22)" style="fill: none; stroke-dasharray: 5.55,2.4; stroke-dashoffset: 0; stroke: #ff0000; stroke-opacity: 0.7; stroke-width: 1.5"/>
   </g>
   <g id="line2d_69">
    <path d="M 304.907742 240.651719 
L 304.907742 23.077969 
" clip-path="url(#pc08521af22)" style="fill: none; stroke-dasharray: 5.55,2.4; stroke-dashoffset: 0; stroke: #ff0000; stroke-opacity: 0.7; stroke-width: 1.5"/>
   </g>
   <g id="line2d_70">
    <path d="M 313.99712 240.651719 
L 313.99712 23.077969 
" clip-path="url(#pc08521af22)" style="fill: none; stroke-dasharray: 5.55,2.4; stroke-dashoffset: 0; stroke: #ff0000; stroke-opacity: 0.7; stroke-width: 1.5"/>
   </g>
   <g id="line2d_71">
    <path d="M 317.892568 240.651719 
L 317.892568 23.077969 
" clip-path="url(#pc08521af22)" style="fill: none; stroke-dasharray: 5.55,2.4; stroke-dashoffset: 0; stroke: #ff0000; stroke-opacity: 0.7; stroke-width: 1.5"/>
   </g>
   <g id="line2d_72">
    <path d="M 330.877394 240.651719 
L 330.877394 23.077969 
" clip-path="url(#pc08521af22)" style="fill: none; stroke-dasharray: 5.55,2.4; stroke-dashoffset: 0; stroke: #ff0000; stroke-opacity: 0.7; stroke-width: 1.5"/>
   </g>
   <g id="line2d_73">
    <path d="M 332.175876 240.651719 
L 332.175876 23.077969 
" clip-path="url(#pc08521af22)" style="fill: none; stroke-dasharray: 5.55,2.4; stroke-dashoffset: 0; stroke: #ff0000; stroke-opacity: 0.7; stroke-width: 1.5"/>
   </g>
   <g id="line2d_74">
    <path d="M 336.071324 240.651719 
L 336.071324 23.077969 
" clip-path="url(#pc08521af22)" style="fill: none; stroke-dasharray: 5.55,2.4; stroke-dashoffset: 0; stroke: #ff0000; stroke-opacity: 0.7; stroke-width: 1.5"/>
   </g>
   <g id="line2d_75">
    <path d="M 336.071324 240.651719 
L 336.071324 23.077969 
" clip-path="url(#pc08521af22)" style="fill: none; stroke-dasharray: 5.55,2.4; stroke-dashoffset: 0; stroke: #ff0000; stroke-opacity: 0.7; stroke-width: 1.5"/>
   </g>
   <g id="line2d_76">
    <path d="M 343.862219 240.651719 
L 343.862219 23.077969 
" clip-path="url(#pc08521af22)" style="fill: none; stroke-dasharray: 5.55,2.4; stroke-dashoffset: 0; stroke: #ff0000; stroke-opacity: 0.7; stroke-width: 1.5"/>
   </g>
   <g id="line2d_77">
    <path d="M 343.862219 240.651719 
L 343.862219 23.077969 
" clip-path="url(#pc08521af22)" style="fill: none; stroke-dasharray: 5.55,2.4; stroke-dashoffset: 0; stroke: #ff0000; stroke-opacity: 0.7; stroke-width: 1.5"/>
   </g>
   <g id="line2d_78">
    <path d="M 352.951597 240.651719 
L 352.951597 23.077969 
" clip-path="url(#pc08521af22)" style="fill: none; stroke-dasharray: 5.55,2.4; stroke-dashoffset: 0; stroke: #ff0000; stroke-opacity: 0.7; stroke-width: 1.5"/>
   </g>
   <g id="line2d_79">
    <path d="M 354.25008 240.651719 
L 354.25008 23.077969 
" clip-path="url(#pc08521af22)" style="fill: none; stroke-dasharray: 5.55,2.4; stroke-dashoffset: 0; stroke: #ff0000; stroke-opacity: 0.7; stroke-width: 1.5"/>
   </g>
   <g id="line2d_80">
    <path d="M 358.145528 240.651719 
L 358.145528 23.077969 
" clip-path="url(#pc08521af22)" style="fill: none; stroke-dasharray: 5.55,2.4; stroke-dashoffset: 0; stroke: #ff0000; stroke-opacity: 0.7; stroke-width: 1.5"/>
   </g>
   <g id="line2d_81">
    <path d="M 358.145528 240.651719 
L 358.145528 23.077969 
" clip-path="url(#pc08521af22)" style="fill: none; stroke-dasharray: 5.55,2.4; stroke-dashoffset: 0; stroke: #ff0000; stroke-opacity: 0.7; stroke-width: 1.5"/>
   </g>
   <g id="line2d_82">
    <path d="M 365.936423 240.651719 
L 365.936423 23.077969 
" clip-path="url(#pc08521af22)" style="fill: none; stroke-dasharray: 5.55,2.4; stroke-dashoffset: 0; stroke: #ff0000; stroke-opacity: 0.7; stroke-width: 1.5"/>
   </g>
   <g id="line2d_83">
    <path d="M 368.533388 240.651719 
L 368.533388 23.077969 
" clip-path="url(#pc08521af22)" style="fill: none; stroke-dasharray: 5.55,2.4; stroke-dashoffset: 0; stroke: #ff0000; stroke-opacity: 0.7; stroke-width: 1.5"/>
   </g>
   <g id="line2d_84">
    <path d="M 372.428836 240.651719 
L 372.428836 23.077969 
" clip-path="url(#pc08521af22)" style="fill: none; stroke-dasharray: 5.55,2.4; stroke-dashoffset: 0; stroke: #ff0000; stroke-opacity: 0.7; stroke-width: 1.5"/>
   </g>
   <g id="line2d_85">
    <path d="M 373.727318 240.651719 
L 373.727318 23.077969 
" clip-path="url(#pc08521af22)" style="fill: none; stroke-dasharray: 5.55,2.4; stroke-dashoffset: 0; stroke: #ff0000; stroke-opacity: 0.7; stroke-width: 1.5"/>
   </g>
   <g id="line2d_86">
    <path d="M 384.115179 240.651719 
L 384.115179 23.077969 
" clip-path="url(#pc08521af22)" style="fill: none; stroke-dasharray: 5.55,2.4; stroke-dashoffset: 0; stroke: #ff0000; stroke-opacity: 0.7; stroke-width: 1.5"/>
   </g>
   <g id="line2d_87">
    <path d="M 385.413662 240.651719 
L 385.413662 23.077969 
" clip-path="url(#pc08521af22)" style="fill: none; stroke-dasharray: 5.55,2.4; stroke-dashoffset: 0; stroke: #ff0000; stroke-opacity: 0.7; stroke-width: 1.5"/>
   </g>
   <g id="line2d_88">
    <path d="M 408.786348 240.651719 
L 408.786348 23.077969 
" clip-path="url(#pc08521af22)" style="fill: none; stroke-dasharray: 5.55,2.4; stroke-dashoffset: 0; stroke: #ff0000; stroke-opacity: 0.7; stroke-width: 1.5"/>
   </g>
   <g id="line2d_89">
    <path d="M 410.08483 240.651719 
L 410.08483 23.077969 
" clip-path="url(#pc08521af22)" style="fill: none; stroke-dasharray: 5.55,2.4; stroke-dashoffset: 0; stroke: #ff0000; stroke-opacity: 0.7; stroke-width: 1.5"/>
   </g>
   <g id="line2d_90">
    <path d="M 428.263586 240.651719 
L 428.263586 23.077969 
" clip-path="url(#pc08521af22)" style="fill: none; stroke-dasharray: 5.55,2.4; stroke-dashoffset: 0; stroke: #ff0000; stroke-opacity: 0.7; stroke-width: 1.5"/>
   </g>
   <g id="line2d_91">
    <path d="M 428.263586 240.651719 
L 428.263586 23.077969 
" clip-path="url(#pc08521af22)" style="fill: none; stroke-dasharray: 5.55,2.4; stroke-dashoffset: 0; stroke: #ff0000; stroke-opacity: 0.7; stroke-width: 1.5"/>
   </g>
   <g id="line2d_92">
    <path d="M 445.14386 240.651719 
L 445.14386 23.077969 
" clip-path="url(#pc08521af22)" style="fill: none; stroke-dasharray: 5.55,2.4; stroke-dashoffset: 0; stroke: #ff0000; stroke-opacity: 0.7; stroke-width: 1.5"/>
   </g>
   <g id="line2d_93">
    <path d="M 446.442342 240.651719 
L 446.442342 23.077969 
" clip-path="url(#pc08521af22)" style="fill: none; stroke-dasharray: 5.55,2.4; stroke-dashoffset: 0; stroke: #ff0000; stroke-opacity: 0.7; stroke-width: 1.5"/>
   </g>
   <g id="line2d_94">
    <path d="M 458.128685 240.651719 
L 458.128685 23.077969 
" clip-path="url(#pc08521af22)" style="fill: none; stroke-dasharray: 5.55,2.4; stroke-dashoffset: 0; stroke: #ff0000; stroke-opacity: 0.7; stroke-width: 1.5"/>
   </g>
   <g id="line2d_95">
    <path d="M 458.128685 240.651719 
L 458.128685 23.077969 
" clip-path="url(#pc08521af22)" style="fill: none; stroke-dasharray: 5.55,2.4; stroke-dashoffset: 0; stroke: #ff0000; stroke-opacity: 0.7; stroke-width: 1.5"/>
   </g>
   <g id="line2d_96">
    <path d="M 489.292267 240.651719 
L 489.292267 23.077969 
" clip-path="url(#pc08521af22)" style="fill: none; stroke-dasharray: 5.55,2.4; stroke-dashoffset: 0; stroke: #ff0000; stroke-opacity: 0.7; stroke-width: 1.5"/>
   </g>
   <g id="line2d_97">
    <path d="M 490.59075 240.651719 
L 490.59075 23.077969 
" clip-path="url(#pc08521af22)" style="fill: none; stroke-dasharray: 5.55,2.4; stroke-dashoffset: 0; stroke: #ff0000; stroke-opacity: 0.7; stroke-width: 1.5"/>
   </g>
   <g id="patch_3">
    <path d="M 43.588125 240.651719 
L 43.588125 23.077969 
" style="fill: none; stroke: #000000; stroke-width: 0.8; stroke-linejoin: miter; stroke-linecap: square"/>
   </g>
   <g id="patch_4">
    <path d="M 993.428125 240.651719 
L 993.428125 23.077969 
" style="fill: none; stroke: #000000; stroke-width: 0.8; stroke-linejoin: miter; stroke-linecap: square"/>
   </g>
   <g id="patch_5">
    <path d="M 43.588125 240.651719 
L 993.428125 240.651719 
" style="fill: none; stroke: #000000; stroke-width: 0.8; stroke-linejoin: miter; stroke-linecap: square"/>
   </g>
   <g id="patch_6">
    <path d="M 43.588125 23.077969 
L 993.428125 23.077969 
" style="fill: none; stroke: #000000; stroke-width: 0.8; stroke-linejoin: miter; stroke-linecap: square"/>
   </g>
   <g id="text_18">
    <!-- 0→1 -->
    <g style="fill: #ff0000" transform="translate(138.050994 33.169005)scale(0.08 -0.08)">
     <defs>
      <path id="DejaVuSans-2192" d="M 5050 2147 
L 5050 1866 
L 3822 638 
L 3447 1013 
L 4175 1741 
L 366 1741 
L 366 2272 
L 4175 2272 
L 3447 3000 
L 3822 3375 
L 5050 2147 
z
" transform="scale(0.015625)"/>
     </defs>
     <use xlink:href="#DejaVuSans-30"/>
     <use xlink:href="#DejaVuSans-2192" x="63.623047"/>
     <use xlink:href="#DejaVuSans-31" x="147.412109"/>
    </g>
   </g>
   <g id="text_19">
    <!-- 1→0 -->
    <g style="fill: #ff0000" transform="translate(138.050994 33.169005)scale(0.08 -0.08)">
     <use xlink:href="#DejaVuSans-31"/>
     <use xlink:href="#DejaVuSans-2192" x="63.623047"/>
     <use xlink:href="#DejaVuSans-30" x="147.412109"/>
    </g>
   </g>
   <g id="text_20">
    <!-- 0→1 -->
    <g style="fill: #ff0000" transform="translate(139.349476 33.169005)scale(0.08 -0.08)">
     <use xlink:href="#DejaVuSans-30"/>
     <use xlink:href="#DejaVuSans-2192" x="63.623047"/>
     <use xlink:href="#DejaVuSans-31" x="147.412109"/>
    </g>
   </g>
   <g id="text_21">
    <!-- 1→0 -->
    <g style="fill: #ff0000" transform="translate(141.946441 33.169005)scale(0.08 -0.08)">
     <use xlink:href="#DejaVuSans-31"/>
     <use xlink:href="#DejaVuSans-2192" x="63.623047"/>
     <use xlink:href="#DejaVuSans-30" x="147.412109"/>
    </g>
   </g>
   <g id="text_22">
    <!-- 0→1 -->
    <g style="fill: #ff0000" transform="translate(141.946441 33.169005)scale(0.08 -0.08)">
     <use xlink:href="#DejaVuSans-30"/>
     <use xlink:href="#DejaVuSans-2192" x="63.623047"/>
     <use xlink:href="#DejaVuSans-31" x="147.412109"/>
    </g>
   </g>
   <g id="text_23">
    <!-- 1→0 -->
    <g style="fill: #ff0000" transform="translate(143.244924 33.169005)scale(0.08 -0.08)">
     <use xlink:href="#DejaVuSans-31"/>
     <use xlink:href="#DejaVuSans-2192" x="63.623047"/>
     <use xlink:href="#DejaVuSans-30" x="147.412109"/>
    </g>
   </g>
   <g id="text_24">
    <!-- 0→1 -->
    <g style="fill: #ff0000" transform="translate(149.737337 33.169005)scale(0.08 -0.08)">
     <use xlink:href="#DejaVuSans-30"/>
     <use xlink:href="#DejaVuSans-2192" x="63.623047"/>
     <use xlink:href="#DejaVuSans-31" x="147.412109"/>
    </g>
   </g>
   <g id="text_25">
    <!-- 1→0 -->
    <g style="fill: #ff0000" transform="translate(209.467535 33.169005)scale(0.08 -0.08)">
     <use xlink:href="#DejaVuSans-31"/>
     <use xlink:href="#DejaVuSans-2192" x="63.623047"/>
     <use xlink:href="#DejaVuSans-30" x="147.412109"/>
    </g>
   </g>
   <g id="text_26">
    <!-- 0→1 -->
    <g style="fill: #ff0000" transform="translate(215.959948 33.169005)scale(0.08 -0.08)">
     <use xlink:href="#DejaVuSans-30"/>
     <use xlink:href="#DejaVuSans-2192" x="63.623047"/>
     <use xlink:href="#DejaVuSans-31" x="147.412109"/>
    </g>
   </g>
   <g id="text_27">
    <!-- 1→0 -->
    <g style="fill: #ff0000" transform="translate(217.25843 33.169005)scale(0.08 -0.08)">
     <use xlink:href="#DejaVuSans-31"/>
     <use xlink:href="#DejaVuSans-2192" x="63.623047"/>
     <use xlink:href="#DejaVuSans-30" x="147.412109"/>
    </g>
   </g>
   <g id="text_28">
    <!-- 0→1 -->
    <g style="fill: #ff0000" transform="translate(219.855396 33.169005)scale(0.08 -0.08)">
     <use xlink:href="#DejaVuSans-30"/>
     <use xlink:href="#DejaVuSans-2192" x="63.623047"/>
     <use xlink:href="#DejaVuSans-31" x="147.412109"/>
    </g>
   </g>
   <g id="text_29">
    <!-- 1→0 -->
    <g style="fill: #ff0000" transform="translate(219.855396 33.169005)scale(0.08 -0.08)">
     <use xlink:href="#DejaVuSans-31"/>
     <use xlink:href="#DejaVuSans-2192" x="63.623047"/>
     <use xlink:href="#DejaVuSans-30" x="147.412109"/>
    </g>
   </g>
   <g id="text_30">
    <!-- 0→1 -->
    <g style="fill: #ff0000" transform="translate(223.750843 33.169005)scale(0.08 -0.08)">
     <use xlink:href="#DejaVuSans-30"/>
     <use xlink:href="#DejaVuSans-2192" x="63.623047"/>
     <use xlink:href="#DejaVuSans-31" x="147.412109"/>
    </g>
   </g>
   <g id="text_31">
    <!-- 1→0 -->
    <g style="fill: #ff0000" transform="translate(226.347808 33.169005)scale(0.08 -0.08)">
     <use xlink:href="#DejaVuSans-31"/>
     <use xlink:href="#DejaVuSans-2192" x="63.623047"/>
     <use xlink:href="#DejaVuSans-30" x="147.412109"/>
    </g>
   </g>
   <g id="text_32">
    <!-- 0→1 -->
    <g style="fill: #ff0000" transform="translate(228.944774 33.169005)scale(0.08 -0.08)">
     <use xlink:href="#DejaVuSans-30"/>
     <use xlink:href="#DejaVuSans-2192" x="63.623047"/>
     <use xlink:href="#DejaVuSans-31" x="147.412109"/>
    </g>
   </g>
   <g id="text_33">
    <!-- 1→0 -->
    <g style="fill: #ff0000" transform="translate(230.243256 33.169005)scale(0.08 -0.08)">
     <use xlink:href="#DejaVuSans-31"/>
     <use xlink:href="#DejaVuSans-2192" x="63.623047"/>
     <use xlink:href="#DejaVuSans-30" x="147.412109"/>
    </g>
   </g>
   <g id="text_34">
    <!-- 0→1 -->
    <g style="fill: #ff0000" transform="translate(234.138704 33.169005)scale(0.08 -0.08)">
     <use xlink:href="#DejaVuSans-30"/>
     <use xlink:href="#DejaVuSans-2192" x="63.623047"/>
     <use xlink:href="#DejaVuSans-31" x="147.412109"/>
    </g>
   </g>
   <g id="text_35">
    <!-- 1→0 -->
    <g style="fill: #ff0000" transform="translate(235.437186 33.169005)scale(0.08 -0.08)">
     <use xlink:href="#DejaVuSans-31"/>
     <use xlink:href="#DejaVuSans-2192" x="63.623047"/>
     <use xlink:href="#DejaVuSans-30" x="147.412109"/>
    </g>
   </g>
   <g id="text_36">
    <!-- 0→1 -->
    <g style="fill: #ff0000" transform="translate(236.735669 33.169005)scale(0.08 -0.08)">
     <use xlink:href="#DejaVuSans-30"/>
     <use xlink:href="#DejaVuSans-2192" x="63.623047"/>
     <use xlink:href="#DejaVuSans-31" x="147.412109"/>
    </g>
   </g>
   <g id="text_37">
    <!-- 1→0 -->
    <g style="fill: #ff0000" transform="translate(239.332634 33.169005)scale(0.08 -0.08)">
     <use xlink:href="#DejaVuSans-31"/>
     <use xlink:href="#DejaVuSans-2192" x="63.623047"/>
     <use xlink:href="#DejaVuSans-30" x="147.412109"/>
    </g>
   </g>
   <g id="text_38">
    <!-- 0→1 -->
    <g style="fill: #ff0000" transform="translate(239.332634 33.169005)scale(0.08 -0.08)">
     <use xlink:href="#DejaVuSans-30"/>
     <use xlink:href="#DejaVuSans-2192" x="63.623047"/>
     <use xlink:href="#DejaVuSans-31" x="147.412109"/>
    </g>
   </g>
   <g id="text_39">
    <!-- 1→0 -->
    <g style="fill: #ff0000" transform="translate(240.631117 33.169005)scale(0.08 -0.08)">
     <use xlink:href="#DejaVuSans-31"/>
     <use xlink:href="#DejaVuSans-2192" x="63.623047"/>
     <use xlink:href="#DejaVuSans-30" x="147.412109"/>
    </g>
   </g>
   <g id="text_40">
    <!-- 0→1 -->
    <g style="fill: #ff0000" transform="translate(241.929599 33.169005)scale(0.08 -0.08)">
     <use xlink:href="#DejaVuSans-30"/>
     <use xlink:href="#DejaVuSans-2192" x="63.623047"/>
     <use xlink:href="#DejaVuSans-31" x="147.412109"/>
    </g>
   </g>
   <g id="text_41">
    <!-- 1→0 -->
    <g style="fill: #ff0000" transform="translate(243.228082 33.169005)scale(0.08 -0.08)">
     <use xlink:href="#DejaVuSans-31"/>
     <use xlink:href="#DejaVuSans-2192" x="63.623047"/>
     <use xlink:href="#DejaVuSans-30" x="147.412109"/>
    </g>
   </g>
   <g id="text_42">
    <!-- 0→1 -->
    <g style="fill: #ff0000" transform="translate(243.228082 33.169005)scale(0.08 -0.08)">
     <use xlink:href="#DejaVuSans-30"/>
     <use xlink:href="#DejaVuSans-2192" x="63.623047"/>
     <use xlink:href="#DejaVuSans-31" x="147.412109"/>
    </g>
   </g>
   <g id="text_43">
    <!-- 1→0 -->
    <g style="fill: #ff0000" transform="translate(247.12353 33.169005)scale(0.08 -0.08)">
     <use xlink:href="#DejaVuSans-31"/>
     <use xlink:href="#DejaVuSans-2192" x="63.623047"/>
     <use xlink:href="#DejaVuSans-30" x="147.412109"/>
    </g>
   </g>
   <g id="text_44">
    <!-- 0→1 -->
    <g style="fill: #ff0000" transform="translate(248.422012 33.169005)scale(0.08 -0.08)">
     <use xlink:href="#DejaVuSans-30"/>
     <use xlink:href="#DejaVuSans-2192" x="63.623047"/>
     <use xlink:href="#DejaVuSans-31" x="147.412109"/>
    </g>
   </g>
   <g id="text_45">
    <!-- 1→0 -->
    <g style="fill: #ff0000" transform="translate(252.31746 33.169005)scale(0.08 -0.08)">
     <use xlink:href="#DejaVuSans-31"/>
     <use xlink:href="#DejaVuSans-2192" x="63.623047"/>
     <use xlink:href="#DejaVuSans-30" x="147.412109"/>
    </g>
   </g>
   <g id="text_46">
    <!-- 0→1 -->
    <g style="fill: #ff0000" transform="translate(257.51139 33.169005)scale(0.08 -0.08)">
     <use xlink:href="#DejaVuSans-30"/>
     <use xlink:href="#DejaVuSans-2192" x="63.623047"/>
     <use xlink:href="#DejaVuSans-31" x="147.412109"/>
    </g>
   </g>
   <g id="text_47">
    <!-- 1→0 -->
    <g style="fill: #ff0000" transform="translate(261.406838 33.169005)scale(0.08 -0.08)">
     <use xlink:href="#DejaVuSans-31"/>
     <use xlink:href="#DejaVuSans-2192" x="63.623047"/>
     <use xlink:href="#DejaVuSans-30" x="147.412109"/>
    </g>
   </g>
   <g id="text_48">
    <!-- 0→1 -->
    <g style="fill: #ff0000" transform="translate(264.003803 33.169005)scale(0.08 -0.08)">
     <use xlink:href="#DejaVuSans-30"/>
     <use xlink:href="#DejaVuSans-2192" x="63.623047"/>
     <use xlink:href="#DejaVuSans-31" x="147.412109"/>
    </g>
   </g>
   <g id="text_49">
    <!-- 1→0 -->
    <g style="fill: #ff0000" transform="translate(264.003803 33.169005)scale(0.08 -0.08)">
     <use xlink:href="#DejaVuSans-31"/>
     <use xlink:href="#DejaVuSans-2192" x="63.623047"/>
     <use xlink:href="#DejaVuSans-30" x="147.412109"/>
    </g>
   </g>
   <g id="text_50">
    <!-- 0→1 -->
    <g style="fill: #ff0000" transform="translate(271.794698 33.169005)scale(0.08 -0.08)">
     <use xlink:href="#DejaVuSans-30"/>
     <use xlink:href="#DejaVuSans-2192" x="63.623047"/>
     <use xlink:href="#DejaVuSans-31" x="147.412109"/>
    </g>
   </g>
   <g id="text_51">
    <!-- 1→0 -->
    <g style="fill: #ff0000" transform="translate(273.093181 33.169005)scale(0.08 -0.08)">
     <use xlink:href="#DejaVuSans-31"/>
     <use xlink:href="#DejaVuSans-2192" x="63.623047"/>
     <use xlink:href="#DejaVuSans-30" x="147.412109"/>
    </g>
   </g>
   <g id="text_52">
    <!-- 0→1 -->
    <g style="fill: #ff0000" transform="translate(279.585594 33.169005)scale(0.08 -0.08)">
     <use xlink:href="#DejaVuSans-30"/>
     <use xlink:href="#DejaVuSans-2192" x="63.623047"/>
     <use xlink:href="#DejaVuSans-31" x="147.412109"/>
    </g>
   </g>
   <g id="text_53">
    <!-- 1→0 -->
    <g style="fill: #ff0000" transform="translate(282.182559 33.169005)scale(0.08 -0.08)">
     <use xlink:href="#DejaVuSans-31"/>
     <use xlink:href="#DejaVuSans-2192" x="63.623047"/>
     <use xlink:href="#DejaVuSans-30" x="147.412109"/>
    </g>
   </g>
   <g id="text_54">
    <!-- 0→1 -->
    <g style="fill: #ff0000" transform="translate(293.868902 33.169005)scale(0.08 -0.08)">
     <use xlink:href="#DejaVuSans-30"/>
     <use xlink:href="#DejaVuSans-2192" x="63.623047"/>
     <use xlink:href="#DejaVuSans-31" x="147.412109"/>
    </g>
   </g>
   <g id="text_55">
    <!-- 1→0 -->
    <g style="fill: #ff0000" transform="translate(296.465867 33.169005)scale(0.08 -0.08)">
     <use xlink:href="#DejaVuSans-31"/>
     <use xlink:href="#DejaVuSans-2192" x="63.623047"/>
     <use xlink:href="#DejaVuSans-30" x="147.412109"/>
    </g>
   </g>
   <g id="text_56">
    <!-- 0→1 -->
    <g style="fill: #ff0000" transform="translate(305.555245 33.169005)scale(0.08 -0.08)">
     <use xlink:href="#DejaVuSans-30"/>
     <use xlink:href="#DejaVuSans-2192" x="63.623047"/>
     <use xlink:href="#DejaVuSans-31" x="147.412109"/>
    </g>
   </g>
   <g id="text_57">
    <!-- 1→0 -->
    <g style="fill: #ff0000" transform="translate(309.450693 33.169005)scale(0.08 -0.08)">
     <use xlink:href="#DejaVuSans-31"/>
     <use xlink:href="#DejaVuSans-2192" x="63.623047"/>
     <use xlink:href="#DejaVuSans-30" x="147.412109"/>
    </g>
   </g>
   <g id="text_58">
    <!-- 0→1 -->
    <g style="fill: #ff0000" transform="translate(322.435519 33.169005)scale(0.08 -0.08)">
     <use xlink:href="#DejaVuSans-30"/>
     <use xlink:href="#DejaVuSans-2192" x="63.623047"/>
     <use xlink:href="#DejaVuSans-31" x="147.412109"/>
    </g>
   </g>
   <g id="text_59">
    <!-- 1→0 -->
    <g style="fill: #ff0000" transform="translate(323.734001 33.169005)scale(0.08 -0.08)">
     <use xlink:href="#DejaVuSans-31"/>
     <use xlink:href="#DejaVuSans-2192" x="63.623047"/>
     <use xlink:href="#DejaVuSans-30" x="147.412109"/>
    </g>
   </g>
   <g id="text_60">
    <!-- 0→1 -->
    <g style="fill: #ff0000" transform="translate(327.629449 33.169005)scale(0.08 -0.08)">
     <use xlink:href="#DejaVuSans-30"/>
     <use xlink:href="#DejaVuSans-2192" x="63.623047"/>
     <use xlink:href="#DejaVuSans-31" x="147.412109"/>
    </g>
   </g>
   <g id="text_61">
    <!-- 1→0 -->
    <g style="fill: #ff0000" transform="translate(327.629449 33.169005)scale(0.08 -0.08)">
     <use xlink:href="#DejaVuSans-31"/>
     <use xlink:href="#DejaVuSans-2192" x="63.623047"/>
     <use xlink:href="#DejaVuSans-30" x="147.412109"/>
    </g>
   </g>
   <g id="text_62">
    <!-- 0→1 -->
    <g style="fill: #ff0000" transform="translate(335.420344 33.169005)scale(0.08 -0.08)">
     <use xlink:href="#DejaVuSans-30"/>
     <use xlink:href="#DejaVuSans-2192" x="63.623047"/>
     <use xlink:href="#DejaVuSans-31" x="147.412109"/>
    </g>
   </g>
   <g id="text_63">
    <!-- 1→0 -->
    <g style="fill: #ff0000" transform="translate(335.420344 33.169005)scale(0.08 -0.08)">
     <use xlink:href="#DejaVuSans-31"/>
     <use xlink:href="#DejaVuSans-2192" x="63.623047"/>
     <use xlink:href="#DejaVuSans-30" x="147.412109"/>
    </g>
   </g>
   <g id="text_64">
    <!-- 0→1 -->
    <g style="fill: #ff0000" transform="translate(344.509722 33.169005)scale(0.08 -0.08)">
     <use xlink:href="#DejaVuSans-30"/>
     <use xlink:href="#DejaVuSans-2192" x="63.623047"/>
     <use xlink:href="#DejaVuSans-31" x="147.412109"/>
    </g>
   </g>
   <g id="text_65">
    <!-- 1→0 -->
    <g style="fill: #ff0000" transform="translate(345.808205 33.169005)scale(0.08 -0.08)">
     <use xlink:href="#DejaVuSans-31"/>
     <use xlink:href="#DejaVuSans-2192" x="63.623047"/>
     <use xlink:href="#DejaVuSans-30" x="147.412109"/>
    </g>
   </g>
   <g id="text_66">
    <!-- 0→1 -->
    <g style="fill: #ff0000" transform="translate(349.703653 33.169005)scale(0.08 -0.08)">
     <use xlink:href="#DejaVuSans-30"/>
     <use xlink:href="#DejaVuSans-2192" x="63.623047"/>
     <use xlink:href="#DejaVuSans-31" x="147.412109"/>
    </g>
   </g>
   <g id="text_67">
    <!-- 1→0 -->
    <g style="fill: #ff0000" transform="translate(349.703653 33.169005)scale(0.08 -0.08)">
     <use xlink:href="#DejaVuSans-31"/>
     <use xlink:href="#DejaVuSans-2192" x="63.623047"/>
     <use xlink:href="#DejaVuSans-30" x="147.412109"/>
    </g>
   </g>
   <g id="text_68">
    <!-- 0→1 -->
    <g style="fill: #ff0000" transform="translate(357.494548 33.169005)scale(0.08 -0.08)">
     <use xlink:href="#DejaVuSans-30"/>
     <use xlink:href="#DejaVuSans-2192" x="63.623047"/>
     <use xlink:href="#DejaVuSans-31" x="147.412109"/>
    </g>
   </g>
   <g id="text_69">
    <!-- 1→0 -->
    <g style="fill: #ff0000" transform="translate(360.091513 33.169005)scale(0.08 -0.08)">
     <use xlink:href="#DejaVuSans-31"/>
     <use xlink:href="#DejaVuSans-2192" x="63.623047"/>
     <use xlink:href="#DejaVuSans-30" x="147.412109"/>
    </g>
   </g>
   <g id="text_70">
    <!-- 0→1 -->
    <g style="fill: #ff0000" transform="translate(363.986961 33.169005)scale(0.08 -0.08)">
     <use xlink:href="#DejaVuSans-30"/>
     <use xlink:href="#DejaVuSans-2192" x="63.623047"/>
     <use xlink:href="#DejaVuSans-31" x="147.412109"/>
    </g>
   </g>
   <g id="text_71">
    <!-- 1→0 -->
    <g style="fill: #ff0000" transform="translate(365.285443 33.169005)scale(0.08 -0.08)">
     <use xlink:href="#DejaVuSans-31"/>
     <use xlink:href="#DejaVuSans-2192" x="63.623047"/>
     <use xlink:href="#DejaVuSans-30" x="147.412109"/>
    </g>
   </g>
   <g id="text_72">
    <!-- 0→1 -->
    <g style="fill: #ff0000" transform="translate(375.673304 33.169005)scale(0.08 -0.08)">
     <use xlink:href="#DejaVuSans-30"/>
     <use xlink:href="#DejaVuSans-2192" x="63.623047"/>
     <use xlink:href="#DejaVuSans-31" x="147.412109"/>
    </g>
   </g>
   <g id="text_73">
    <!-- 1→0 -->
    <g style="fill: #ff0000" transform="translate(376.971787 33.169005)scale(0.08 -0.08)">
     <use xlink:href="#DejaVuSans-31"/>
     <use xlink:href="#DejaVuSans-2192" x="63.623047"/>
     <use xlink:href="#DejaVuSans-30" x="147.412109"/>
    </g>
   </g>
   <g id="text_74">
    <!-- 0→1 -->
    <g style="fill: #ff0000" transform="translate(400.344473 33.169005)scale(0.08 -0.08)">
     <use xlink:href="#DejaVuSans-30"/>
     <use xlink:href="#DejaVuSans-2192" x="63.623047"/>
     <use xlink:href="#DejaVuSans-31" x="147.412109"/>
    </g>
   </g>
   <g id="text_75">
    <!-- 1→0 -->
    <g style="fill: #ff0000" transform="translate(401.642955 33.169005)scale(0.08 -0.08)">
     <use xlink:href="#DejaVuSans-31"/>
     <use xlink:href="#DejaVuSans-2192" x="63.623047"/>
     <use xlink:href="#DejaVuSans-30" x="147.412109"/>
    </g>
   </g>
   <g id="text_76">
    <!-- 0→1 -->
    <g style="fill: #ff0000" transform="translate(419.821711 33.169005)scale(0.08 -0.08)">
     <use xlink:href="#DejaVuSans-30"/>
     <use xlink:href="#DejaVuSans-2192" x="63.623047"/>
     <use xlink:href="#DejaVuSans-31" x="147.412109"/>
    </g>
   </g>
   <g id="text_77">
    <!-- 1→0 -->
    <g style="fill: #ff0000" transform="translate(419.821711 33.169005)scale(0.08 -0.08)">
     <use xlink:href="#DejaVuSans-31"/>
     <use xlink:href="#DejaVuSans-2192" x="63.623047"/>
     <use xlink:href="#DejaVuSans-30" x="147.412109"/>
    </g>
   </g>
   <g id="text_78">
    <!-- 0→1 -->
    <g style="fill: #ff0000" transform="translate(436.701985 33.169005)scale(0.08 -0.08)">
     <use xlink:href="#DejaVuSans-30"/>
     <use xlink:href="#DejaVuSans-2192" x="63.623047"/>
     <use xlink:href="#DejaVuSans-31" x="147.412109"/>
    </g>
   </g>
   <g id="text_79">
    <!-- 1→0 -->
    <g style="fill: #ff0000" transform="translate(438.000467 33.169005)scale(0.08 -0.08)">
     <use xlink:href="#DejaVuSans-31"/>
     <use xlink:href="#DejaVuSans-2192" x="63.623047"/>
     <use xlink:href="#DejaVuSans-30" x="147.412109"/>
    </g>
   </g>
   <g id="text_80">
    <!-- 0→1 -->
    <g style="fill: #ff0000" transform="translate(449.68681 33.169005)scale(0.08 -0.08)">
     <use xlink:href="#DejaVuSans-30"/>
     <use xlink:href="#DejaVuSans-2192" x="63.623047"/>
     <use xlink:href="#DejaVuSans-31" x="147.412109"/>
    </g>
   </g>
   <g id="text_81">
    <!-- 1→0 -->
    <g style="fill: #ff0000" transform="translate(449.68681 33.169005)scale(0.08 -0.08)">
     <use xlink:href="#DejaVuSans-31"/>
     <use xlink:href="#DejaVuSans-2192" x="63.623047"/>
     <use xlink:href="#DejaVuSans-30" x="147.412109"/>
    </g>
   </g>
   <g id="text_82">
    <!-- 0→1 -->
    <g style="fill: #ff0000" transform="translate(480.850392 33.169005)scale(0.08 -0.08)">
     <use xlink:href="#DejaVuSans-30"/>
     <use xlink:href="#DejaVuSans-2192" x="63.623047"/>
     <use xlink:href="#DejaVuSans-31" x="147.412109"/>
    </g>
   </g>
   <g id="text_83">
    <!-- 1→0 -->
    <g style="fill: #ff0000" transform="translate(482.148875 33.169005)scale(0.08 -0.08)">
     <use xlink:href="#DejaVuSans-31"/>
     <use xlink:href="#DejaVuSans-2192" x="63.623047"/>
     <use xlink:href="#DejaVuSans-30" x="147.412109"/>
    </g>
   </g>
   <g id="text_84">
    <!-- FR Price Variation with Regime Change Points (66 transitions) -->
    <g transform="translate(290.509453 17.077969)scale(0.13 -0.13)">
     <defs>
      <path id="DejaVuSans-Bold-46" d="M 588 4666 
L 3834 4666 
L 3834 3756 
L 1791 3756 
L 1791 2888 
L 3713 2888 
L 3713 1978 
L 1791 1978 
L 1791 0 
L 588 0 
L 588 4666 
z
" transform="scale(0.015625)"/>
      <path id="DejaVuSans-Bold-52" d="M 2297 2597 
Q 2675 2597 2839 2737 
Q 3003 2878 3003 3200 
Q 3003 3519 2839 3656 
Q 2675 3794 2297 3794 
L 1791 3794 
L 1791 2597 
L 2297 2597 
z
M 1791 1766 
L 1791 0 
L 588 0 
L 588 4666 
L 2425 4666 
Q 3347 4666 3776 4356 
Q 4206 4047 4206 3378 
Q 4206 2916 3982 2619 
Q 3759 2322 3309 2181 
Q 3556 2125 3751 1926 
Q 3947 1728 4147 1325 
L 4800 0 
L 3519 0 
L 2950 1159 
Q 2778 1509 2601 1637 
Q 2425 1766 2131 1766 
L 1791 1766 
z
" transform="scale(0.015625)"/>
      <path id="DejaVuSans-Bold-20" transform="scale(0.015625)"/>
      <path id="DejaVuSans-Bold-50" d="M 588 4666 
L 2584 4666 
Q 3475 4666 3951 4270 
Q 4428 3875 4428 3144 
Q 4428 2409 3951 2014 
Q 3475 1619 2584 1619 
L 1791 1619 
L 1791 0 
L 588 0 
L 588 4666 
z
M 1791 3794 
L 1791 2491 
L 2456 2491 
Q 2806 2491 2997 2661 
Q 3188 2831 3188 3144 
Q 3188 3456 2997 3625 
Q 2806 3794 2456 3794 
L 1791 3794 
z
" transform="scale(0.015625)"/>
      <path id="DejaVuSans-Bold-72" d="M 3138 2547 
Q 2991 2616 2845 2648 
Q 2700 2681 2553 2681 
Q 2122 2681 1889 2404 
Q 1656 2128 1656 1613 
L 1656 0 
L 538 0 
L 538 3500 
L 1656 3500 
L 1656 2925 
Q 1872 3269 2151 3426 
Q 2431 3584 2822 3584 
Q 2878 3584 2943 3579 
Q 3009 3575 3134 3559 
L 3138 2547 
z
" transform="scale(0.015625)"/>
      <path id="DejaVuSans-Bold-69" d="M 538 3500 
L 1656 3500 
L 1656 0 
L 538 0 
L 538 3500 
z
M 538 4863 
L 1656 4863 
L 1656 3950 
L 538 3950 
L 538 4863 
z
" transform="scale(0.015625)"/>
      <path id="DejaVuSans-Bold-63" d="M 3366 3391 
L 3366 2478 
Q 3138 2634 2908 2709 
Q 2678 2784 2431 2784 
Q 1963 2784 1702 2511 
Q 1441 2238 1441 1747 
Q 1441 1256 1702 982 
Q 1963 709 2431 709 
Q 2694 709 2930 787 
Q 3166 866 3366 1019 
L 3366 103 
Q 3103 6 2833 -42 
Q 2563 -91 2291 -91 
Q 1344 -91 809 395 
Q 275 881 275 1747 
Q 275 2613 809 3098 
Q 1344 3584 2291 3584 
Q 2566 3584 2833 3536 
Q 3100 3488 3366 3391 
z
" transform="scale(0.015625)"/>
      <path id="DejaVuSans-Bold-65" d="M 4031 1759 
L 4031 1441 
L 1416 1441 
Q 1456 1047 1700 850 
Q 1944 653 2381 653 
Q 2734 653 3104 758 
Q 3475 863 3866 1075 
L 3866 213 
Q 3469 63 3072 -14 
Q 2675 -91 2278 -91 
Q 1328 -91 801 392 
Q 275 875 275 1747 
Q 275 2603 792 3093 
Q 1309 3584 2216 3584 
Q 3041 3584 3536 3087 
Q 4031 2591 4031 1759 
z
M 2881 2131 
Q 2881 2450 2695 2645 
Q 2509 2841 2209 2841 
Q 1884 2841 1681 2658 
Q 1478 2475 1428 2131 
L 2881 2131 
z
" transform="scale(0.015625)"/>
      <path id="DejaVuSans-Bold-56" d="M 31 4666 
L 1241 4666 
L 2478 1222 
L 3713 4666 
L 4922 4666 
L 3194 0 
L 1759 0 
L 31 4666 
z
" transform="scale(0.015625)"/>
      <path id="DejaVuSans-Bold-61" d="M 2106 1575 
Q 1756 1575 1579 1456 
Q 1403 1338 1403 1106 
Q 1403 894 1545 773 
Q 1688 653 1941 653 
Q 2256 653 2472 879 
Q 2688 1106 2688 1447 
L 2688 1575 
L 2106 1575 
z
M 3816 1997 
L 3816 0 
L 2688 0 
L 2688 519 
Q 2463 200 2181 54 
Q 1900 -91 1497 -91 
Q 953 -91 614 226 
Q 275 544 275 1050 
Q 275 1666 698 1953 
Q 1122 2241 2028 2241 
L 2688 2241 
L 2688 2328 
Q 2688 2594 2478 2717 
Q 2269 2841 1825 2841 
Q 1466 2841 1156 2769 
Q 847 2697 581 2553 
L 581 3406 
Q 941 3494 1303 3539 
Q 1666 3584 2028 3584 
Q 2975 3584 3395 3211 
Q 3816 2838 3816 1997 
z
" transform="scale(0.015625)"/>
      <path id="DejaVuSans-Bold-74" d="M 1759 4494 
L 1759 3500 
L 2913 3500 
L 2913 2700 
L 1759 2700 
L 1759 1216 
Q 1759 972 1856 886 
Q 1953 800 2241 800 
L 2816 800 
L 2816 0 
L 1856 0 
Q 1194 0 917 276 
Q 641 553 641 1216 
L 641 2700 
L 84 2700 
L 84 3500 
L 641 3500 
L 641 4494 
L 1759 4494 
z
" transform="scale(0.015625)"/>
      <path id="DejaVuSans-Bold-6f" d="M 2203 2784 
Q 1831 2784 1636 2517 
Q 1441 2250 1441 1747 
Q 1441 1244 1636 976 
Q 1831 709 2203 709 
Q 2569 709 2762 976 
Q 2956 1244 2956 1747 
Q 2956 2250 2762 2517 
Q 2569 2784 2203 2784 
z
M 2203 3584 
Q 3106 3584 3614 3096 
Q 4122 2609 4122 1747 
Q 4122 884 3614 396 
Q 3106 -91 2203 -91 
Q 1297 -91 786 396 
Q 275 884 275 1747 
Q 275 2609 786 3096 
Q 1297 3584 2203 3584 
z
" transform="scale(0.015625)"/>
      <path id="DejaVuSans-Bold-6e" d="M 4056 2131 
L 4056 0 
L 2931 0 
L 2931 347 
L 2931 1631 
Q 2931 2084 2911 2256 
Q 2891 2428 2841 2509 
Q 2775 2619 2662 2680 
Q 2550 2741 2406 2741 
Q 2056 2741 1856 2470 
Q 1656 2200 1656 1722 
L 1656 0 
L 538 0 
L 538 3500 
L 1656 3500 
L 1656 2988 
Q 1909 3294 2193 3439 
Q 2478 3584 2822 3584 
Q 3428 3584 3742 3212 
Q 4056 2841 4056 2131 
z
" transform="scale(0.015625)"/>
      <path id="DejaVuSans-Bold-77" d="M 225 3500 
L 1313 3500 
L 1900 1088 
L 2491 3500 
L 3425 3500 
L 4013 1113 
L 4603 3500 
L 5691 3500 
L 4769 0 
L 3547 0 
L 2956 2406 
L 2369 0 
L 1147 0 
L 225 3500 
z
" transform="scale(0.015625)"/>
      <path id="DejaVuSans-Bold-68" d="M 4056 2131 
L 4056 0 
L 2931 0 
L 2931 347 
L 2931 1625 
Q 2931 2084 2911 2256 
Q 2891 2428 2841 2509 
Q 2775 2619 2662 2680 
Q 2550 2741 2406 2741 
Q 2056 2741 1856 2470 
Q 1656 2200 1656 1722 
L 1656 0 
L 538 0 
L 538 4863 
L 1656 4863 
L 1656 2988 
Q 1909 3294 2193 3439 
Q 2478 3584 2822 3584 
Q 3428 3584 3742 3212 
Q 4056 2841 4056 2131 
z
" transform="scale(0.015625)"/>
      <path id="DejaVuSans-Bold-67" d="M 2919 594 
Q 2688 288 2409 144 
Q 2131 0 1766 0 
Q 1125 0 706 504 
Q 288 1009 288 1791 
Q 288 2575 706 3076 
Q 1125 3578 1766 3578 
Q 2131 3578 2409 3434 
Q 2688 3291 2919 2981 
L 2919 3500 
L 4044 3500 
L 4044 353 
Q 4044 -491 3511 -936 
Q 2978 -1381 1966 -1381 
Q 1638 -1381 1331 -1331 
Q 1025 -1281 716 -1178 
L 716 -306 
Q 1009 -475 1290 -558 
Q 1572 -641 1856 -641 
Q 2406 -641 2662 -400 
Q 2919 -159 2919 353 
L 2919 594 
z
M 2181 2772 
Q 1834 2772 1640 2515 
Q 1447 2259 1447 1791 
Q 1447 1309 1634 1061 
Q 1822 813 2181 813 
Q 2531 813 2725 1069 
Q 2919 1325 2919 1791 
Q 2919 2259 2725 2515 
Q 2531 2772 2181 2772 
z
" transform="scale(0.015625)"/>
      <path id="DejaVuSans-Bold-6d" d="M 3781 2919 
Q 3994 3244 4286 3414 
Q 4578 3584 4928 3584 
Q 5531 3584 5847 3212 
Q 6163 2841 6163 2131 
L 6163 0 
L 5038 0 
L 5038 1825 
Q 5041 1866 5042 1909 
Q 5044 1953 5044 2034 
Q 5044 2406 4934 2573 
Q 4825 2741 4581 2741 
Q 4263 2741 4089 2478 
Q 3916 2216 3909 1719 
L 3909 0 
L 2784 0 
L 2784 1825 
Q 2784 2406 2684 2573 
Q 2584 2741 2328 2741 
Q 2006 2741 1831 2477 
Q 1656 2213 1656 1722 
L 1656 0 
L 531 0 
L 531 3500 
L 1656 3500 
L 1656 2988 
Q 1863 3284 2130 3434 
Q 2397 3584 2719 3584 
Q 3081 3584 3359 3409 
Q 3638 3234 3781 2919 
z
" transform="scale(0.015625)"/>
      <path id="DejaVuSans-Bold-43" d="M 4288 256 
Q 3956 84 3597 -3 
Q 3238 -91 2847 -91 
Q 1681 -91 1000 561 
Q 319 1213 319 2328 
Q 319 3447 1000 4098 
Q 1681 4750 2847 4750 
Q 3238 4750 3597 4662 
Q 3956 4575 4288 4403 
L 4288 3438 
Q 3953 3666 3628 3772 
Q 3303 3878 2944 3878 
Q 2300 3878 1931 3465 
Q 1563 3053 1563 2328 
Q 1563 1606 1931 1193 
Q 2300 781 2944 781 
Q 3303 781 3628 887 
Q 3953 994 4288 1222 
L 4288 256 
z
" transform="scale(0.015625)"/>
      <path id="DejaVuSans-Bold-73" d="M 3272 3391 
L 3272 2541 
Q 2913 2691 2578 2766 
Q 2244 2841 1947 2841 
Q 1628 2841 1473 2761 
Q 1319 2681 1319 2516 
Q 1319 2381 1436 2309 
Q 1553 2238 1856 2203 
L 2053 2175 
Q 2913 2066 3209 1816 
Q 3506 1566 3506 1031 
Q 3506 472 3093 190 
Q 2681 -91 1863 -91 
Q 1516 -91 1145 -36 
Q 775 19 384 128 
L 384 978 
Q 719 816 1070 734 
Q 1422 653 1784 653 
Q 2113 653 2278 743 
Q 2444 834 2444 1013 
Q 2444 1163 2330 1236 
Q 2216 1309 1875 1350 
L 1678 1375 
Q 931 1469 631 1722 
Q 331 1975 331 2491 
Q 331 3047 712 3315 
Q 1094 3584 1881 3584 
Q 2191 3584 2531 3537 
Q 2872 3491 3272 3391 
z
" transform="scale(0.015625)"/>
      <path id="DejaVuSans-Bold-28" d="M 2413 -844 
L 1484 -844 
Q 1006 -72 778 623 
Q 550 1319 550 2003 
Q 550 2688 779 3389 
Q 1009 4091 1484 4856 
L 2413 4856 
Q 2013 4116 1813 3408 
Q 1613 2700 1613 2009 
Q 1613 1319 1811 609 
Q 2009 -100 2413 -844 
z
" transform="scale(0.015625)"/>
      <path id="DejaVuSans-Bold-36" d="M 2316 2303 
Q 2000 2303 1842 2098 
Q 1684 1894 1684 1484 
Q 1684 1075 1842 870 
Q 2000 666 2316 666 
Q 2634 666 2792 870 
Q 2950 1075 2950 1484 
Q 2950 1894 2792 2098 
Q 2634 2303 2316 2303 
z
M 3803 4544 
L 3803 3681 
Q 3506 3822 3243 3889 
Q 2981 3956 2731 3956 
Q 2194 3956 1894 3657 
Q 1594 3359 1544 2772 
Q 1750 2925 1990 3001 
Q 2231 3078 2516 3078 
Q 3231 3078 3670 2659 
Q 4109 2241 4109 1563 
Q 4109 813 3618 361 
Q 3128 -91 2303 -91 
Q 1394 -91 895 523 
Q 397 1138 397 2266 
Q 397 3422 980 4083 
Q 1563 4744 2578 4744 
Q 2900 4744 3203 4694 
Q 3506 4644 3803 4544 
z
" transform="scale(0.015625)"/>
      <path id="DejaVuSans-Bold-29" d="M 513 -844 
Q 913 -100 1113 609 
Q 1313 1319 1313 2009 
Q 1313 2700 1113 3408 
Q 913 4116 513 4856 
L 1441 4856 
Q 1916 4091 2145 3389 
Q 2375 2688 2375 2003 
Q 2375 1319 2147 623 
Q 1919 -72 1441 -844 
L 513 -844 
z
" transform="scale(0.015625)"/>
     </defs>
     <use xlink:href="#DejaVuSans-Bold-46"/>
     <use xlink:href="#DejaVuSans-Bold-52" x="68.310547"/>
     <use xlink:href="#DejaVuSans-Bold-20" x="145.3125"/>
     <use xlink:href="#DejaVuSans-Bold-50" x="180.126953"/>
     <use xlink:href="#DejaVuSans-Bold-72" x="253.417969"/>
     <use xlink:href="#DejaVuSans-Bold-69" x="302.734375"/>
     <use xlink:href="#DejaVuSans-Bold-63" x="337.011719"/>
     <use xlink:href="#DejaVuSans-Bold-65" x="396.289062"/>
     <use xlink:href="#DejaVuSans-Bold-20" x="464.111328"/>
     <use xlink:href="#DejaVuSans-Bold-56" x="498.925781"/>
     <use xlink:href="#DejaVuSans-Bold-61" x="570.818359"/>
     <use xlink:href="#DejaVuSans-Bold-72" x="638.298828"/>
     <use xlink:href="#DejaVuSans-Bold-69" x="687.615234"/>
     <use xlink:href="#DejaVuSans-Bold-61" x="721.892578"/>
     <use xlink:href="#DejaVuSans-Bold-74" x="789.373047"/>
     <use xlink:href="#DejaVuSans-Bold-69" x="837.175781"/>
     <use xlink:href="#DejaVuSans-Bold-6f" x="871.453125"/>
     <use xlink:href="#DejaVuSans-Bold-6e" x="940.154297"/>
     <use xlink:href="#DejaVuSans-Bold-20" x="1011.345703"/>
     <use xlink:href="#DejaVuSans-Bold-77" x="1046.160156"/>
     <use xlink:href="#DejaVuSans-Bold-69" x="1138.542969"/>
     <use xlink:href="#DejaVuSans-Bold-74" x="1172.820312"/>
     <use xlink:href="#DejaVuSans-Bold-68" x="1220.623047"/>
     <use xlink:href="#DejaVuSans-Bold-20" x="1291.814453"/>
     <use xlink:href="#DejaVuSans-Bold-52" x="1326.628906"/>
     <use xlink:href="#DejaVuSans-Bold-65" x="1403.630859"/>
     <use xlink:href="#DejaVuSans-Bold-67" x="1471.453125"/>
     <use xlink:href="#DejaVuSans-Bold-69" x="1543.035156"/>
     <use xlink:href="#DejaVuSans-Bold-6d" x="1577.3125"/>
     <use xlink:href="#DejaVuSans-Bold-65" x="1681.511719"/>
     <use xlink:href="#DejaVuSans-Bold-20" x="1749.333984"/>
     <use xlink:href="#DejaVuSans-Bold-43" x="1784.148438"/>
     <use xlink:href="#DejaVuSans-Bold-68" x="1857.537109"/>
     <use xlink:href="#DejaVuSans-Bold-61" x="1928.728516"/>
     <use xlink:href="#DejaVuSans-Bold-6e" x="1996.208984"/>
     <use xlink:href="#DejaVuSans-Bold-67" x="2067.400391"/>
     <use xlink:href="#DejaVuSans-Bold-65" x="2138.982422"/>
     <use xlink:href="#DejaVuSans-Bold-20" x="2206.804688"/>
     <use xlink:href="#DejaVuSans-Bold-50" x="2241.619141"/>
     <use xlink:href="#DejaVuSans-Bold-6f" x="2314.910156"/>
     <use xlink:href="#DejaVuSans-Bold-69" x="2383.611328"/>
     <use xlink:href="#DejaVuSans-Bold-6e" x="2417.888672"/>
     <use xlink:href="#DejaVuSans-Bold-74" x="2489.080078"/>
     <use xlink:href="#DejaVuSans-Bold-73" x="2536.882812"/>
     <use xlink:href="#DejaVuSans-Bold-20" x="2596.404297"/>
     <use xlink:href="#DejaVuSans-Bold-28" x="2631.21875"/>
     <use xlink:href="#DejaVuSans-Bold-36" x="2676.921875"/>
     <use xlink:href="#DejaVuSans-Bold-36" x="2746.501953"/>
     <use xlink:href="#DejaVuSans-Bold-20" x="2816.082031"/>
     <use xlink:href="#DejaVuSans-Bold-74" x="2850.896484"/>
     <use xlink:href="#DejaVuSans-Bold-72" x="2898.699219"/>
     <use xlink:href="#DejaVuSans-Bold-61" x="2948.015625"/>
     <use xlink:href="#DejaVuSans-Bold-6e" x="3015.496094"/>
     <use xlink:href="#DejaVuSans-Bold-73" x="3086.6875"/>
     <use xlink:href="#DejaVuSans-Bold-69" x="3146.208984"/>
     <use xlink:href="#DejaVuSans-Bold-74" x="3180.486328"/>
     <use xlink:href="#DejaVuSans-Bold-69" x="3228.289062"/>
     <use xlink:href="#DejaVuSans-Bold-6f" x="3262.566406"/>
     <use xlink:href="#DejaVuSans-Bold-6e" x="3331.267578"/>
     <use xlink:href="#DejaVuSans-Bold-73" x="3402.458984"/>
     <use xlink:href="#DejaVuSans-Bold-29" x="3461.980469"/>
    </g>
   </g>
  </g>
 </g>
 <defs>
  <clipPath id="pc08521af22">
   <rect x="43.588125" y="23.077969" width="949.84" height="217.57375"/>
  </clipPath>
 </defs>
</svg>
