<?xml version="1.0" encoding="utf-8" standalone="no"?>
<!DOCTYPE svg PUBLIC "-//W3C//DTD SVG 1.1//EN"
  "http://www.w3.org/Graphics/SVG/1.1/DTD/svg11.dtd">
<svg xmlns:xlink="http://www.w3.org/1999/xlink" width="991.414437pt" height="1098.99pt" viewBox="0 0 991.414437 1098.99" xmlns="http://www.w3.org/2000/svg" version="1.1">
 <metadata>
  <rdf:RDF xmlns:dc="http://purl.org/dc/elements/1.1/" xmlns:cc="http://creativecommons.org/ns#" xmlns:rdf="http://www.w3.org/1999/02/22-rdf-syntax-ns#">
   <cc:Work>
    <dc:type rdf:resource="http://purl.org/dc/dcmitype/StillImage"/>
    <dc:date>2026-02-08T21:11:52.064538</dc:date>
    <dc:format>image/svg+xml</dc:format>
    <dc:creator>
     <cc:Agent>
      <dc:title>Matplotlib v3.5.1, https://matplotlib.org/</dc:title>
     </cc:Agent>
    </dc:creator>
   </cc:Work>
  </rdf:RDF>
 </metadata>
 <defs>
  <style type="text/css">*{stroke-linejoin: round; stroke-linecap: butt}</style>
 </defs>
 <g id="figure_1">
  <g id="patch_1">
   <path d="M 0 1098.99 
L 991.414437 1098.99 
L 991.414437 0 
L 0 0 
z
" style="fill: #ffffff"/>
  </g>
  <g id="axes_1">
   <g id="patch_2">
    <path d="M 343.4229 125.90235 
L 635.0571 125.90235 
Q 641.0826 125.90235 641.0826 119.87685 
L 641.0826 75.28815 
Q 641.0826 69.26265 635.0571 69.26265 
L 343.4229 69.26265 
Q 337.3974 69.26265 337.3974 75.28815 
L 337.3974 119.87685 
Q 337.3974 125.90235 343.4229 125.90235 
z
" clip-path="url(#pfc45b4252b)" style="fill: #ffe066; opacity: 0.4; stroke: #000000; stroke-width: 1.5; stroke-linejoin: miter"/>
   </g>
   <g id="patch_3">
    <path d="M 358.48665 246.41235 
L 619.99335 246.41235 
Q 626.01885 246.41235 626.01885 240.38685 
L 626.01885 195.79815 
Q 626.01885 189.77265 619.99335 189.77265 
L 358.48665 189.77265 
Q 352.46115 189.77265 352.46115 195.79815 
L 352.46115 240.38685 
Q 352.46115 246.41235 358.48665 246.41235 
z
" clip-path="url(#pfc45b4252b)" style="fill: #ff9500; opacity: 0.3; stroke: #000000; stroke-width: 1.5; stroke-linejoin: miter"/>
   </g>
   <g id="patch_4">
    <path d="M 358.48665 366.92235 
L 619.99335 366.92235 
Q 626.01885 366.92235 626.01885 360.89685 
L 626.01885 316.30815 
Q 626.01885 310.28265 619.99335 310.28265 
L 358.48665 310.28265 
Q 352.46115 310.28265 352.46115 316.30815 
L 352.46115 360.89685 
Q 352.46115 366.92235 358.48665 366.92235 
z
" clip-path="url(#pfc45b4252b)" style="fill: #7cb342; opacity: 0.3; stroke: #000000; stroke-width: 1.5; stroke-linejoin: miter"/>
   </g>
   <g id="patch_5">
    <path d="M 328.35915 574.8021 
L 650.12085 574.8021 
Q 656.14635 574.8021 656.14635 568.7766 
L 656.14635 409.7034 
Q 656.14635 403.6779 650.12085 403.6779 
L 328.35915 403.6779 
Q 322.33365 403.6779 322.33365 409.7034 
L 322.33365 568.7766 
Q 322.33365 574.8021 328.35915 574.8021 
z
" clip-path="url(#pfc45b4252b)" style="fill: #4a90d9; opacity: 0.25; stroke: #000000; stroke-width: 1.5; stroke-linejoin: miter"/>
   </g>
   <g id="patch_6">
    <path d="M 373.5504 499.48335 
L 604.9296 499.48335 
Q 610.9551 499.48335 610.9551 493.45785 
L 610.9551 472.97115 
Q 610.9551 466.94565 604.9296 466.94565 
L 373.5504 466.94565 
Q 367.5249 466.94565 367.5249 472.97115 
L 367.5249 493.45785 
Q 367.5249 499.48335 373.5504 499.48335 
z
" clip-path="url(#pfc45b4252b)" style="fill: #e0e0e0; opacity: 0.6; stroke: #808080; stroke-width: 1.5; stroke-linejoin: miter"/>
   </g>
   <g id="patch_7">
    <path d="M 373.5504 535.63635 
L 604.9296 535.63635 
Q 610.9551 535.63635 610.9551 529.61085 
L 610.9551 509.12415 
Q 610.9551 503.09865 604.9296 503.09865 
L 373.5504 503.09865 
Q 367.5249 503.09865 367.5249 509.12415 
L 367.5249 529.61085 
Q 367.5249 535.63635 373.5504 535.63635 
z
" clip-path="url(#pfc45b4252b)" style="fill: #e0e0e0; opacity: 0.6; stroke: #808080; stroke-width: 1.5; stroke-linejoin: miter"/>
   </g>
   <g id="patch_8">
    <path d="M 373.5504 571.78935 
L 604.9296 571.78935 
Q 610.9551 571.78935 610.9551 565.76385 
L 610.9551 545.27715 
Q 610.9551 539.25165 604.9296 539.25165 
L 373.5504 539.25165 
Q 367.5249 539.25165 367.5249 545.27715 
L 367.5249 565.76385 
Q 367.5249 571.78935 373.5504 571.78935 
z
" clip-path="url(#pfc45b4252b)" style="fill: #e0e0e0; opacity: 0.6; stroke: #808080; stroke-width: 1.5; stroke-linejoin: miter"/>
   </g>
   <g id="patch_9">
    <path d="M 313.2954 719.4141 
L 665.1846 719.4141 
Q 671.2101 719.4141 671.2101 713.3886 
L 671.2101 626.6214 
Q 671.2101 620.5959 665.1846 620.5959 
L 313.2954 620.5959 
Q 307.2699 620.5959 307.2699 626.6214 
L 307.2699 713.3886 
Q 307.2699 719.4141 313.2954 719.4141 
z
" clip-path="url(#pfc45b4252b)" style="fill: #4a90d9; opacity: 0.4; stroke: #000000; stroke-width: 1.5; stroke-linejoin: miter"/>
   </g>
   <g id="patch_10">
    <path d="M 186.7599 695.3121 
L 249.4251 695.3121 
Q 255.4506 695.3121 255.4506 689.2866 
L 255.4506 650.7234 
Q 255.4506 644.6979 249.4251 644.6979 
L 186.7599 644.6979 
Q 180.7344 644.6979 180.7344 650.7234 
L 180.7344 689.2866 
Q 180.7344 695.3121 186.7599 695.3121 
z
" clip-path="url(#pfc45b4252b)" style="fill: #4a90d9; opacity: 0.5; stroke: #808080; stroke-width: 1.5; stroke-linejoin: miter"/>
   </g>
   <g id="patch_11">
    <path d="M 30.0969 695.3121 
L 104.8131 695.3121 
Q 110.8386 695.3121 110.8386 689.2866 
L 110.8386 650.7234 
Q 110.8386 644.6979 104.8131 644.6979 
L 30.0969 644.6979 
Q 24.0714 644.6979 24.0714 650.7234 
L 24.0714 689.2866 
Q 24.0714 695.3121 30.0969 695.3121 
z
" clip-path="url(#pfc45b4252b)" style="fill: #ff9500; opacity: 0.5; stroke: #808080; stroke-width: 1.5; stroke-linejoin: miter"/>
   </g>
   <g id="patch_12">
    <path d="M 111.632683 670.005 
Q 145.784099 670.005 178.258464 670.005 
" clip-path="url(#pfc45b4252b)" style="fill: none; stroke: #333333; stroke-width: 1.5; stroke-linecap: round"/>
    <path d="M 173.458464 667.605 
L 178.258464 670.005 
L 173.458464 672.405 
L 173.458464 667.605 
z
" clip-path="url(#pfc45b4252b)" style="fill: #333333; stroke: #333333; stroke-width: 1.5; stroke-linecap: round"/>
   </g>
   <g id="patch_13">
    <path d="M 256.247993 670.005 
Q 281.362158 670.005 304.799271 670.005 
" clip-path="url(#pfc45b4252b)" style="fill: none; stroke: #333333; stroke-width: 1.5; stroke-linecap: round"/>
    <path d="M 299.999271 667.605 
L 304.799271 670.005 
L 299.999271 672.405 
L 299.999271 667.605 
z
" clip-path="url(#pfc45b4252b)" style="fill: #333333; stroke: #333333; stroke-width: 1.5; stroke-linecap: round"/>
   </g>
   <g id="patch_14">
    <path d="M 328.35915 936.3321 
L 650.12085 936.3321 
Q 656.14635 936.3321 656.14635 930.3066 
L 656.14635 771.2334 
Q 656.14635 765.2079 650.12085 765.2079 
L 328.35915 765.2079 
Q 322.33365 765.2079 322.33365 771.2334 
L 322.33365 930.3066 
Q 322.33365 936.3321 328.35915 936.3321 
z
" clip-path="url(#pfc45b4252b)" style="fill: #4a90d9; opacity: 0.25; stroke: #000000; stroke-width: 1.5; stroke-linejoin: miter"/>
   </g>
   <g id="patch_15">
    <path d="M 373.5504 861.01335 
L 604.9296 861.01335 
Q 610.9551 861.01335 610.9551 854.98785 
L 610.9551 834.50115 
Q 610.9551 828.47565 604.9296 828.47565 
L 373.5504 828.47565 
Q 367.5249 828.47565 367.5249 834.50115 
L 367.5249 854.98785 
Q 367.5249 861.01335 373.5504 861.01335 
z
" clip-path="url(#pfc45b4252b)" style="fill: #e0e0e0; opacity: 0.6; stroke: #808080; stroke-width: 1.5; stroke-linejoin: miter"/>
   </g>
   <g id="patch_16">
    <path d="M 373.5504 897.16635 
L 604.9296 897.16635 
Q 610.9551 897.16635 610.9551 891.14085 
L 610.9551 870.65415 
Q 610.9551 864.62865 604.9296 864.62865 
L 373.5504 864.62865 
Q 367.5249 864.62865 367.5249 870.65415 
L 367.5249 891.14085 
Q 367.5249 897.16635 373.5504 897.16635 
z
" clip-path="url(#pfc45b4252b)" style="fill: #e0e0e0; opacity: 0.6; stroke: #808080; stroke-width: 1.5; stroke-linejoin: miter"/>
   </g>
   <g id="patch_17">
    <path d="M 373.5504 933.31935 
L 604.9296 933.31935 
Q 610.9551 933.31935 610.9551 927.29385 
L 610.9551 906.80715 
Q 610.9551 900.78165 604.9296 900.78165 
L 373.5504 900.78165 
Q 367.5249 900.78165 367.5249 906.80715 
L 367.5249 927.29385 
Q 367.5249 933.31935 373.5504 933.31935 
z
" clip-path="url(#pfc45b4252b)" style="fill: #e0e0e0; opacity: 0.6; stroke: #808080; stroke-width: 1.5; stroke-linejoin: miter"/>
   </g>
   <g id="patch_18">
    <path d="M 343.4229 1029.72735 
L 635.0571 1029.72735 
Q 641.0826 1029.72735 641.0826 1023.70185 
L 641.0826 979.11315 
Q 641.0826 973.08765 635.0571 973.08765 
L 343.4229 973.08765 
Q 337.3974 973.08765 337.3974 979.11315 
L 337.3974 1023.70185 
Q 337.3974 1029.72735 343.4229 1029.72735 
z
" clip-path="url(#pfc45b4252b)" style="fill: #7cb342; opacity: 0.4; stroke: #000000; stroke-width: 1.5; stroke-linejoin: miter"/>
   </g>
   <g id="patch_19">
    <path d="M 795.3354 827.8731 
L 906.2046 827.8731 
Q 912.2301 827.8731 912.2301 821.8476 
L 912.2301 759.1824 
Q 912.2301 753.1569 906.2046 753.1569 
L 795.3354 753.1569 
Q 789.3099 753.1569 789.3099 759.1824 
L 789.3099 821.8476 
Q 789.3099 827.8731 795.3354 827.8731 
z
" clip-path="url(#pfc45b4252b)" style="fill: #bbbbbb; opacity: 0.3; stroke: #808080; stroke-width: 1.5; stroke-linejoin: miter"/>
   </g>
   <g id="patch_20">
    <path d="M 819.4374 903.19185 
L 882.1026 903.19185 
Q 888.1281 903.19185 888.1281 897.16635 
L 888.1281 864.62865 
Q 888.1281 858.60315 882.1026 858.60315 
L 819.4374 858.60315 
Q 813.4119 858.60315 813.4119 864.62865 
L 813.4119 897.16635 
Q 813.4119 903.19185 819.4374 903.19185 
z
" clip-path="url(#pfc45b4252b)" style="fill: #bbbbbb; opacity: 0.5; stroke: #808080; stroke-width: 1.5; stroke-linejoin: miter"/>
   </g>
   <g id="patch_21">
    <path d="M 641.877109 688.164186 
Q 735.385587 692.369956 799.988608 757.768114 
" clip-path="url(#pfc45b4252b)" style="fill: none; stroke: #808080; stroke-width: 1.5; stroke-linecap: round"/>
    <path d="M 798.322723 752.666661 
L 799.988608 757.768114 
L 794.907914 756.039951 
L 798.322723 752.666661 
z
" clip-path="url(#pfc45b4252b)" style="fill: #808080; stroke: #808080; stroke-width: 1.5; stroke-linecap: round"/>
   </g>
   <g id="patch_22">
    <path d="M 850.77 828.670493 
Q 850.77 843.237809 850.77 856.128074 
" clip-path="url(#pfc45b4252b)" style="fill: none; stroke: #808080; stroke-width: 1.5; stroke-linecap: round"/>
    <path d="M 853.17 851.328074 
L 850.77 856.128074 
L 848.37 851.328074 
L 853.17 851.328074 
z
" clip-path="url(#pfc45b4252b)" style="fill: #808080; stroke: #808080; stroke-width: 1.5; stroke-linecap: round"/>
   </g>
   <g id="patch_23">
    <path d="M 489.24 126.699743 
Q 489.24 157.840288 489.24 187.303781 
" clip-path="url(#pfc45b4252b)" style="fill: none; stroke: #333333; stroke-width: 1.5; stroke-linecap: round"/>
    <path d="M 491.64 182.503781 
L 489.24 187.303781 
L 486.84 182.503781 
L 491.64 182.503781 
z
" clip-path="url(#pfc45b4252b)" style="fill: #333333; stroke: #333333; stroke-width: 1.5; stroke-linecap: round"/>
   </g>
   <g id="patch_24">
    <path d="M 489.24 247.209743 
Q 489.24 278.350288 489.24 307.813781 
" clip-path="url(#pfc45b4252b)" style="fill: none; stroke: #333333; stroke-width: 1.5; stroke-linecap: round"/>
    <path d="M 491.64 303.013781 
L 489.24 307.813781 
L 486.84 303.013781 
L 491.64 303.013781 
z
" clip-path="url(#pfc45b4252b)" style="fill: #333333; stroke: #333333; stroke-width: 1.5; stroke-linecap: round"/>
   </g>
   <g id="patch_25">
    <path d="M 489.24 367.720479 
Q 489.24 385.301454 489.24 401.205379 
" clip-path="url(#pfc45b4252b)" style="fill: none; stroke: #333333; stroke-width: 1.5; stroke-linecap: round"/>
    <path d="M 491.64 396.405379 
L 489.24 401.205379 
L 486.84 396.405379 
L 491.64 396.405379 
z
" clip-path="url(#pfc45b4252b)" style="fill: #333333; stroke: #333333; stroke-width: 1.5; stroke-linecap: round"/>
   </g>
   <g id="patch_26">
    <path d="M 489.24 575.594712 
Q 489.24 597.698092 489.24 618.124422 
" clip-path="url(#pfc45b4252b)" style="fill: none; stroke: #333333; stroke-width: 1.5; stroke-linecap: round"/>
    <path d="M 491.64 613.324422 
L 489.24 618.124422 
L 486.84 613.324422 
L 491.64 613.324422 
z
" clip-path="url(#pfc45b4252b)" style="fill: #333333; stroke: #333333; stroke-width: 1.5; stroke-linecap: round"/>
   </g>
   <g id="patch_27">
    <path d="M 489.24 720.206712 
Q 489.24 742.310092 489.24 762.736422 
" clip-path="url(#pfc45b4252b)" style="fill: none; stroke: #333333; stroke-width: 1.5; stroke-linecap: round"/>
    <path d="M 491.64 757.936422 
L 489.24 762.736422 
L 486.84 757.936422 
L 491.64 757.936422 
z
" clip-path="url(#pfc45b4252b)" style="fill: #333333; stroke: #333333; stroke-width: 1.5; stroke-linecap: round"/>
   </g>
   <g id="patch_28">
    <path d="M 489.24 937.130229 
Q 489.24 954.711204 489.24 970.615129 
" clip-path="url(#pfc45b4252b)" style="fill: none; stroke: #333333; stroke-width: 1.5; stroke-linecap: round"/>
    <path d="M 491.64 965.815129 
L 489.24 970.615129 
L 486.84 965.815129 
L 491.64 965.815129 
z
" clip-path="url(#pfc45b4252b)" style="fill: #333333; stroke: #333333; stroke-width: 1.5; stroke-linecap: round"/>
   </g>
   <g id="text_1">
    <!-- Input: $X \in \mathbb{R}^{B \times (L+1) \times n}$ -->
    <g transform="translate(429.565 101.4875)scale(0.11 -0.11)">
     <defs>
      <path id="DejaVuSans-49" d="M 628 4666 
L 1259 4666 
L 1259 0 
L 628 0 
L 628 4666 
z
" transform="scale(0.015625)"/>
      <path id="DejaVuSans-6e" d="M 3513 2113 
L 3513 0 
L 2938 0 
L 2938 2094 
Q 2938 2591 2744 2837 
Q 2550 3084 2163 3084 
Q 1697 3084 1428 2787 
Q 1159 2491 1159 1978 
L 1159 0 
L 581 0 
L 581 3500 
L 1159 3500 
L 1159 2956 
Q 1366 3272 1645 3428 
Q 1925 3584 2291 3584 
Q 2894 3584 3203 3211 
Q 3513 2838 3513 2113 
z
" transform="scale(0.015625)"/>
      <path id="DejaVuSans-70" d="M 1159 525 
L 1159 -1331 
L 581 -1331 
L 581 3500 
L 1159 3500 
L 1159 2969 
Q 1341 3281 1617 3432 
Q 1894 3584 2278 3584 
Q 2916 3584 3314 3078 
Q 3713 2572 3713 1747 
Q 3713 922 3314 415 
Q 2916 -91 2278 -91 
Q 1894 -91 1617 61 
Q 1341 213 1159 525 
z
M 3116 1747 
Q 3116 2381 2855 2742 
Q 2594 3103 2138 3103 
Q 1681 3103 1420 2742 
Q 1159 2381 1159 1747 
Q 1159 1113 1420 752 
Q 1681 391 2138 391 
Q 2594 391 2855 752 
Q 3116 1113 3116 1747 
z
" transform="scale(0.015625)"/>
      <path id="DejaVuSans-75" d="M 544 1381 
L 544 3500 
L 1119 3500 
L 1119 1403 
Q 1119 906 1312 657 
Q 1506 409 1894 409 
Q 2359 409 2629 706 
Q 2900 1003 2900 1516 
L 2900 3500 
L 3475 3500 
L 3475 0 
L 2900 0 
L 2900 538 
Q 2691 219 2414 64 
Q 2138 -91 1772 -91 
Q 1169 -91 856 284 
Q 544 659 544 1381 
z
M 1991 3584 
L 1991 3584 
z
" transform="scale(0.015625)"/>
      <path id="DejaVuSans-74" d="M 1172 4494 
L 1172 3500 
L 2356 3500 
L 2356 3053 
L 1172 3053 
L 1172 1153 
Q 1172 725 1289 603 
Q 1406 481 1766 481 
L 2356 481 
L 2356 0 
L 1766 0 
Q 1100 0 847 248 
Q 594 497 594 1153 
L 594 3053 
L 172 3053 
L 172 3500 
L 594 3500 
L 594 4494 
L 1172 4494 
z
" transform="scale(0.015625)"/>
      <path id="DejaVuSans-3a" d="M 750 794 
L 1409 794 
L 1409 0 
L 750 0 
L 750 794 
z
M 750 3309 
L 1409 3309 
L 1409 2516 
L 750 2516 
L 750 3309 
z
" transform="scale(0.015625)"/>
      <path id="DejaVuSans-20" transform="scale(0.015625)"/>
      <path id="DejaVuSans-Oblique-58" d="M 878 4666 
L 1516 4666 
L 2316 2981 
L 3763 4666 
L 4500 4666 
L 2578 2438 
L 3738 0 
L 3103 0 
L 2163 1966 
L 459 0 
L -275 0 
L 1906 2509 
L 878 4666 
z
" transform="scale(0.015625)"/>
      <path id="DejaVuSans-2208" d="M 1072 1959 
Q 1094 1728 1291 1353 
Q 1522 919 1959 675 
Q 2388 438 2850 434 
L 5028 434 
L 5028 -63 
L 2850 -63 
Q 2250 -63 1695 246 
Q 1141 556 844 1106 
Q 547 1656 547 2241 
Q 547 2819 844 3369 
Q 1141 3919 1695 4231 
Q 2250 4544 2850 4544 
L 5028 4544 
L 5028 4047 
L 2850 4047 
Q 2388 4044 1959 3803 
Q 1525 3556 1291 3125 
Q 1091 2750 1063 2459 
L 5028 2459 
L 5028 1959 
L 1072 1959 
z
" transform="scale(0.015625)"/>
      <path id="STIXGeneral-Italic-211d" d="M 1229 4179 
L 3360 4179 
Q 3827 4179 4108 3894 
Q 4390 3610 4390 3142 
Q 4390 2554 4060 2186 
Q 3731 1818 3149 1715 
L 4026 0 
L 2925 0 
L 2125 1690 
L 1549 1690 
L 1094 0 
L 109 0 
L 1229 4179 
z
M 3866 3821 
L 3392 2022 
Q 3770 2144 3962 2438 
Q 4154 2733 4154 3136 
Q 4154 3584 3866 3821 
z
M 3142 1978 
L 3648 3872 
Q 3450 3942 3296 3942 
L 2150 3942 
L 1613 1926 
L 2630 1926 
Q 2957 1926 3142 1978 
z
M 3629 237 
L 2899 1696 
Q 2829 1683 2682 1683 
Q 2630 1683 2531 1686 
Q 2432 1690 2387 1690 
L 3072 237 
L 3629 237 
z
M 1907 3942 
L 1408 3942 
L 416 237 
L 915 237 
L 1907 3942 
z
" transform="scale(0.015625)"/>
      <path id="DejaVuSans-Oblique-42" d="M 1081 4666 
L 2694 4666 
Q 3350 4666 3675 4422 
Q 4000 4178 4000 3688 
Q 4000 3238 3720 2911 
Q 3441 2584 2988 2516 
Q 3375 2428 3569 2181 
Q 3763 1934 3763 1522 
Q 3763 819 3242 409 
Q 2722 0 1819 0 
L 172 0 
L 1081 4666 
z
M 1234 2228 
L 903 519 
L 1919 519 
Q 2491 519 2800 781 
Q 3109 1044 3109 1522 
Q 3109 1891 2904 2059 
Q 2700 2228 2247 2228 
L 1234 2228 
z
M 1606 4147 
L 1331 2741 
L 2272 2741 
Q 2775 2741 3058 2959 
Q 3341 3178 3341 3566 
Q 3341 3869 3150 4008 
Q 2959 4147 2541 4147 
L 1606 4147 
z
" transform="scale(0.015625)"/>
      <path id="DejaVuSans-d7" d="M 4488 3438 
L 3059 2003 
L 4488 575 
L 4116 197 
L 2681 1631 
L 1247 197 
L 878 575 
L 2303 2003 
L 878 3438 
L 1247 3816 
L 2681 2381 
L 4116 3816 
L 4488 3438 
z
" transform="scale(0.015625)"/>
      <path id="DejaVuSans-28" d="M 1984 4856 
Q 1566 4138 1362 3434 
Q 1159 2731 1159 2009 
Q 1159 1288 1364 580 
Q 1569 -128 1984 -844 
L 1484 -844 
Q 1016 -109 783 600 
Q 550 1309 550 2009 
Q 550 2706 781 3412 
Q 1013 4119 1484 4856 
L 1984 4856 
z
" transform="scale(0.015625)"/>
      <path id="DejaVuSans-Oblique-4c" d="M 1075 4666 
L 1709 4666 
L 909 525 
L 3181 525 
L 3078 0 
L 172 0 
L 1075 4666 
z
" transform="scale(0.015625)"/>
      <path id="DejaVuSans-2b" d="M 2944 4013 
L 2944 2272 
L 4684 2272 
L 4684 1741 
L 2944 1741 
L 2944 0 
L 2419 0 
L 2419 1741 
L 678 1741 
L 678 2272 
L 2419 2272 
L 2419 4013 
L 2944 4013 
z
" transform="scale(0.015625)"/>
      <path id="DejaVuSans-31" d="M 794 531 
L 1825 531 
L 1825 4091 
L 703 3866 
L 703 4441 
L 1819 4666 
L 2450 4666 
L 2450 531 
L 3481 531 
L 3481 0 
L 794 0 
L 794 531 
z
" transform="scale(0.015625)"/>
      <path id="DejaVuSans-29" d="M 513 4856 
L 1013 4856 
Q 1481 4119 1714 3412 
Q 1947 2706 1947 2009 
Q 1947 1309 1714 600 
Q 1481 -109 1013 -844 
L 513 -844 
Q 928 -128 1133 580 
Q 1338 1288 1338 2009 
Q 1338 2731 1133 3434 
Q 928 4138 513 4856 
z
" transform="scale(0.015625)"/>
      <path id="DejaVuSans-Oblique-6e" d="M 3566 2113 
L 3156 0 
L 2578 0 
L 2988 2091 
Q 3016 2238 3031 2350 
Q 3047 2463 3047 2528 
Q 3047 2791 2881 2937 
Q 2716 3084 2419 3084 
Q 1956 3084 1622 2776 
Q 1288 2469 1184 1941 
L 800 0 
L 225 0 
L 903 3500 
L 1478 3500 
L 1363 2950 
Q 1603 3253 1940 3418 
Q 2278 3584 2650 3584 
Q 3113 3584 3367 3334 
Q 3622 3084 3622 2631 
Q 3622 2519 3608 2391 
Q 3594 2263 3566 2113 
z
" transform="scale(0.015625)"/>
     </defs>
     <use xlink:href="#DejaVuSans-49" transform="translate(0 0.60625)"/>
     <use xlink:href="#DejaVuSans-6e" transform="translate(29.492188 0.60625)"/>
     <use xlink:href="#DejaVuSans-70" transform="translate(92.871094 0.60625)"/>
     <use xlink:href="#DejaVuSans-75" transform="translate(156.347656 0.60625)"/>
     <use xlink:href="#DejaVuSans-74" transform="translate(219.726562 0.60625)"/>
     <use xlink:href="#DejaVuSans-3a" transform="translate(258.935547 0.60625)"/>
     <use xlink:href="#DejaVuSans-20" transform="translate(292.626953 0.60625)"/>
     <use xlink:href="#DejaVuSans-Oblique-58" transform="translate(324.414062 0.60625)"/>
     <use xlink:href="#DejaVuSans-2208" transform="translate(412.402344 0.60625)"/>
     <use xlink:href="#STIXGeneral-Italic-211d" transform="translate(518.994141 0.60625)"/>
     <use xlink:href="#DejaVuSans-Oblique-42" transform="translate(593.645581 38.8875)scale(0.7)"/>
     <use xlink:href="#DejaVuSans-d7" transform="translate(655.305737 38.8875)scale(0.7)"/>
     <use xlink:href="#DejaVuSans-28" transform="translate(727.595776 38.8875)scale(0.7)"/>
     <use xlink:href="#DejaVuSans-Oblique-4c" transform="translate(754.905346 38.8875)scale(0.7)"/>
     <use xlink:href="#DejaVuSans-2b" transform="translate(807.542065 38.8875)scale(0.7)"/>
     <use xlink:href="#DejaVuSans-31" transform="translate(879.832104 38.8875)scale(0.7)"/>
     <use xlink:href="#DejaVuSans-29" transform="translate(924.368237 38.8875)scale(0.7)"/>
     <use xlink:href="#DejaVuSans-d7" transform="translate(965.315503 38.8875)scale(0.7)"/>
     <use xlink:href="#DejaVuSans-Oblique-6e" transform="translate(1037.605542 38.8875)scale(0.7)"/>
    </g>
   </g>
   <g id="text_2">
    <!-- $B$: batch, $L$: lag, $n$: nodes -->
    <g style="fill: #808080" transform="translate(700.1325 99.7825)scale(0.08 -0.08)">
     <defs>
      <path id="DejaVuSans-Oblique-3a" d="M 978 3309 
L 1638 3309 
L 1484 2516 
L 825 2516 
L 978 3309 
z
M 488 794 
L 1147 794 
L 991 0 
L 331 0 
L 488 794 
z
" transform="scale(0.015625)"/>
      <path id="DejaVuSans-Oblique-20" transform="scale(0.015625)"/>
      <path id="DejaVuSans-Oblique-62" d="M 3169 2138 
Q 3169 2591 2961 2847 
Q 2753 3103 2388 3103 
Q 2122 3103 1889 2973 
Q 1656 2844 1484 2597 
Q 1303 2338 1198 1995 
Q 1094 1653 1094 1313 
Q 1094 881 1298 636 
Q 1503 391 1863 391 
Q 2134 391 2365 517 
Q 2597 644 2772 891 
Q 2950 1147 3059 1487 
Q 3169 1828 3169 2138 
z
M 1381 2969 
Q 1594 3256 1914 3420 
Q 2234 3584 2584 3584 
Q 3122 3584 3439 3221 
Q 3756 2859 3756 2241 
Q 3756 1734 3570 1259 
Q 3384 784 3041 416 
Q 2816 172 2522 40 
Q 2228 -91 1906 -91 
Q 1566 -91 1316 65 
Q 1066 222 909 531 
L 806 0 
L 231 0 
L 1178 4863 
L 1753 4863 
L 1381 2969 
z
" transform="scale(0.015625)"/>
      <path id="DejaVuSans-Oblique-61" d="M 3438 1997 
L 3047 0 
L 2472 0 
L 2578 531 
Q 2325 219 2001 64 
Q 1678 -91 1281 -91 
Q 834 -91 548 182 
Q 263 456 263 884 
Q 263 1497 752 1853 
Q 1241 2209 2100 2209 
L 2900 2209 
L 2931 2363 
Q 2938 2388 2941 2417 
Q 2944 2447 2944 2509 
Q 2944 2788 2717 2942 
Q 2491 3097 2081 3097 
Q 1800 3097 1504 3025 
Q 1209 2953 897 2809 
L 997 3341 
Q 1322 3463 1633 3523 
Q 1944 3584 2234 3584 
Q 2853 3584 3176 3315 
Q 3500 3047 3500 2534 
Q 3500 2431 3484 2292 
Q 3469 2153 3438 1997 
z
M 2816 1759 
L 2241 1759 
Q 1534 1759 1195 1570 
Q 856 1381 856 984 
Q 856 709 1029 553 
Q 1203 397 1509 397 
Q 1978 397 2328 733 
Q 2678 1069 2791 1631 
L 2816 1759 
z
" transform="scale(0.015625)"/>
      <path id="DejaVuSans-Oblique-74" d="M 2706 3500 
L 2619 3053 
L 1472 3053 
L 1100 1153 
Q 1081 1047 1072 975 
Q 1063 903 1063 863 
Q 1063 663 1183 572 
Q 1303 481 1569 481 
L 2150 481 
L 2053 0 
L 1503 0 
Q 991 0 739 200 
Q 488 400 488 806 
Q 488 878 497 964 
Q 506 1050 525 1153 
L 897 3053 
L 409 3053 
L 500 3500 
L 978 3500 
L 1172 4494 
L 1747 4494 
L 1556 3500 
L 2706 3500 
z
" transform="scale(0.015625)"/>
      <path id="DejaVuSans-Oblique-63" d="M 3431 3366 
L 3316 2797 
Q 3109 2947 2876 3022 
Q 2644 3097 2394 3097 
Q 2119 3097 1870 3000 
Q 1622 2903 1453 2725 
Q 1184 2453 1037 2087 
Q 891 1722 891 1331 
Q 891 859 1127 628 
Q 1363 397 1844 397 
Q 2081 397 2348 469 
Q 2616 541 2906 684 
L 2797 116 
Q 2547 13 2283 -39 
Q 2019 -91 1741 -91 
Q 1044 -91 669 257 
Q 294 606 294 1253 
Q 294 1797 489 2255 
Q 684 2713 1069 3078 
Q 1331 3328 1684 3456 
Q 2038 3584 2456 3584 
Q 2700 3584 2940 3529 
Q 3181 3475 3431 3366 
z
" transform="scale(0.015625)"/>
      <path id="DejaVuSans-Oblique-68" d="M 3566 2113 
L 3156 0 
L 2578 0 
L 2988 2091 
Q 3016 2238 3031 2350 
Q 3047 2463 3047 2528 
Q 3047 2791 2881 2937 
Q 2716 3084 2419 3084 
Q 1956 3084 1617 2771 
Q 1278 2459 1178 1941 
L 800 0 
L 225 0 
L 1172 4863 
L 1747 4863 
L 1375 2950 
Q 1594 3244 1934 3414 
Q 2275 3584 2650 3584 
Q 3113 3584 3367 3334 
Q 3622 3084 3622 2631 
Q 3622 2519 3608 2391 
Q 3594 2263 3566 2113 
z
" transform="scale(0.015625)"/>
      <path id="DejaVuSans-Oblique-2c" d="M 575 794 
L 1234 794 
L 1131 256 
L 422 -744 
L 19 -744 
L 469 256 
L 575 794 
z
" transform="scale(0.015625)"/>
      <path id="DejaVuSans-Oblique-6c" d="M 1172 4863 
L 1747 4863 
L 800 0 
L 225 0 
L 1172 4863 
z
" transform="scale(0.015625)"/>
      <path id="DejaVuSans-Oblique-67" d="M 3816 3500 
L 3219 434 
Q 3047 -456 2561 -893 
Q 2075 -1331 1253 -1331 
Q 950 -1331 690 -1286 
Q 431 -1241 206 -1147 
L 313 -588 
Q 525 -725 762 -790 
Q 1000 -856 1269 -856 
Q 1816 -856 2167 -557 
Q 2519 -259 2631 300 
L 2681 563 
Q 2441 288 2122 144 
Q 1803 0 1434 0 
Q 903 0 598 351 
Q 294 703 294 1319 
Q 294 1803 478 2267 
Q 663 2731 997 3091 
Q 1219 3328 1514 3456 
Q 1809 3584 2131 3584 
Q 2484 3584 2746 3420 
Q 3009 3256 3138 2956 
L 3238 3500 
L 3816 3500 
z
M 2950 2216 
Q 2950 2641 2750 2872 
Q 2550 3103 2181 3103 
Q 1953 3103 1747 3012 
Q 1541 2922 1394 2759 
Q 1156 2491 1023 2127 
Q 891 1763 891 1375 
Q 891 944 1092 712 
Q 1294 481 1672 481 
Q 2219 481 2584 976 
Q 2950 1472 2950 2216 
z
" transform="scale(0.015625)"/>
      <path id="DejaVuSans-Oblique-6f" d="M 1625 -91 
Q 1009 -91 651 289 
Q 294 669 294 1325 
Q 294 1706 417 2101 
Q 541 2497 738 2766 
Q 1047 3184 1428 3384 
Q 1809 3584 2291 3584 
Q 2888 3584 3255 3212 
Q 3622 2841 3622 2241 
Q 3622 1825 3500 1412 
Q 3378 1000 3181 728 
Q 2875 309 2494 109 
Q 2113 -91 1625 -91 
z
M 891 1344 
Q 891 869 1089 633 
Q 1288 397 1691 397 
Q 2269 397 2648 901 
Q 3028 1406 3028 2181 
Q 3028 2634 2825 2865 
Q 2622 3097 2228 3097 
Q 1903 3097 1650 2945 
Q 1397 2794 1197 2484 
Q 1050 2253 970 1956 
Q 891 1659 891 1344 
z
" transform="scale(0.015625)"/>
      <path id="DejaVuSans-Oblique-64" d="M 2675 525 
Q 2444 222 2128 65 
Q 1813 -91 1428 -91 
Q 903 -91 598 267 
Q 294 625 294 1247 
Q 294 1766 478 2236 
Q 663 2706 1013 3078 
Q 1244 3325 1534 3454 
Q 1825 3584 2144 3584 
Q 2481 3584 2739 3421 
Q 2997 3259 3138 2956 
L 3513 4863 
L 4091 4863 
L 3144 0 
L 2566 0 
L 2675 525 
z
M 891 1350 
Q 891 897 1095 644 
Q 1300 391 1663 391 
Q 1931 391 2161 520 
Q 2391 650 2566 903 
Q 2750 1166 2856 1509 
Q 2963 1853 2963 2188 
Q 2963 2622 2758 2865 
Q 2553 3109 2194 3109 
Q 1922 3109 1687 2981 
Q 1453 2853 1288 2613 
Q 1106 2353 998 2009 
Q 891 1666 891 1350 
z
" transform="scale(0.015625)"/>
      <path id="DejaVuSans-Oblique-65" d="M 3078 2063 
Q 3088 2113 3092 2166 
Q 3097 2219 3097 2272 
Q 3097 2653 2873 2875 
Q 2650 3097 2266 3097 
Q 1838 3097 1509 2826 
Q 1181 2556 1013 2059 
L 3078 2063 
z
M 3578 1613 
L 903 1613 
Q 884 1494 878 1425 
Q 872 1356 872 1306 
Q 872 872 1139 634 
Q 1406 397 1894 397 
Q 2269 397 2603 481 
Q 2938 566 3225 728 
L 3116 159 
Q 2806 34 2476 -28 
Q 2147 -91 1806 -91 
Q 1078 -91 686 257 
Q 294 606 294 1247 
Q 294 1794 489 2264 
Q 684 2734 1063 3103 
Q 1306 3334 1642 3459 
Q 1978 3584 2356 3584 
Q 2950 3584 3301 3228 
Q 3653 2872 3653 2272 
Q 3653 2128 3634 1964 
Q 3616 1800 3578 1613 
z
" transform="scale(0.015625)"/>
      <path id="DejaVuSans-Oblique-73" d="M 3200 3397 
L 3091 2853 
Q 2863 2978 2609 3040 
Q 2356 3103 2088 3103 
Q 1634 3103 1373 2948 
Q 1113 2794 1113 2528 
Q 1113 2219 1719 2053 
Q 1766 2041 1788 2034 
L 1972 1978 
Q 2547 1819 2739 1644 
Q 2931 1469 2931 1166 
Q 2931 609 2489 259 
Q 2047 -91 1331 -91 
Q 1053 -91 747 -37 
Q 441 16 72 128 
L 184 722 
Q 500 559 806 475 
Q 1113 391 1394 391 
Q 1816 391 2080 572 
Q 2344 753 2344 1031 
Q 2344 1331 1650 1516 
L 1591 1531 
L 1394 1581 
Q 956 1697 753 1886 
Q 550 2075 550 2369 
Q 550 2928 970 3256 
Q 1391 3584 2113 3584 
Q 2397 3584 2667 3537 
Q 2938 3491 3200 3397 
z
" transform="scale(0.015625)"/>
     </defs>
     <use xlink:href="#DejaVuSans-Oblique-42" transform="translate(0 0.015625)"/>
     <use xlink:href="#DejaVuSans-Oblique-3a" transform="translate(68.603516 0.015625)"/>
     <use xlink:href="#DejaVuSans-Oblique-20" transform="translate(102.294922 0.015625)"/>
     <use xlink:href="#DejaVuSans-Oblique-62" transform="translate(134.082031 0.015625)"/>
     <use xlink:href="#DejaVuSans-Oblique-61" transform="translate(197.558594 0.015625)"/>
     <use xlink:href="#DejaVuSans-Oblique-74" transform="translate(258.837891 0.015625)"/>
     <use xlink:href="#DejaVuSans-Oblique-63" transform="translate(298.046875 0.015625)"/>
     <use xlink:href="#DejaVuSans-Oblique-68" transform="translate(353.027344 0.015625)"/>
     <use xlink:href="#DejaVuSans-Oblique-2c" transform="translate(416.40625 0.015625)"/>
     <use xlink:href="#DejaVuSans-Oblique-20" transform="translate(448.193359 0.015625)"/>
     <use xlink:href="#DejaVuSans-Oblique-4c" transform="translate(479.980469 0.015625)"/>
     <use xlink:href="#DejaVuSans-Oblique-3a" transform="translate(535.693359 0.015625)"/>
     <use xlink:href="#DejaVuSans-Oblique-20" transform="translate(569.384766 0.015625)"/>
     <use xlink:href="#DejaVuSans-Oblique-6c" transform="translate(601.171875 0.015625)"/>
     <use xlink:href="#DejaVuSans-Oblique-61" transform="translate(628.955078 0.015625)"/>
     <use xlink:href="#DejaVuSans-Oblique-67" transform="translate(690.234375 0.015625)"/>
     <use xlink:href="#DejaVuSans-Oblique-2c" transform="translate(753.710938 0.015625)"/>
     <use xlink:href="#DejaVuSans-Oblique-20" transform="translate(785.498047 0.015625)"/>
     <use xlink:href="#DejaVuSans-Oblique-6e" transform="translate(817.285156 0.015625)"/>
     <use xlink:href="#DejaVuSans-Oblique-3a" transform="translate(880.664062 0.015625)"/>
     <use xlink:href="#DejaVuSans-Oblique-20" transform="translate(914.355469 0.015625)"/>
     <use xlink:href="#DejaVuSans-Oblique-6e" transform="translate(946.142578 0.015625)"/>
     <use xlink:href="#DejaVuSans-Oblique-6f" transform="translate(1009.521484 0.015625)"/>
     <use xlink:href="#DejaVuSans-Oblique-64" transform="translate(1070.703125 0.015625)"/>
     <use xlink:href="#DejaVuSans-Oblique-65" transform="translate(1134.179688 0.015625)"/>
     <use xlink:href="#DejaVuSans-Oblique-73" transform="translate(1195.703125 0.015625)"/>
    </g>
   </g>
   <g id="text_3">
    <!-- Node Embeddings $E$ -->
    <g transform="translate(427.805 221.0625)scale(0.11 -0.11)">
     <defs>
      <path id="DejaVuSans-Bold-4e" d="M 588 4666 
L 1931 4666 
L 3628 1466 
L 3628 4666 
L 4769 4666 
L 4769 0 
L 3425 0 
L 1728 3200 
L 1728 0 
L 588 0 
L 588 4666 
z
" transform="scale(0.015625)"/>
      <path id="DejaVuSans-Bold-6f" d="M 2203 2784 
Q 1831 2784 1636 2517 
Q 1441 2250 1441 1747 
Q 1441 1244 1636 976 
Q 1831 709 2203 709 
Q 2569 709 2762 976 
Q 2956 1244 2956 1747 
Q 2956 2250 2762 2517 
Q 2569 2784 2203 2784 
z
M 2203 3584 
Q 3106 3584 3614 3096 
Q 4122 2609 4122 1747 
Q 4122 884 3614 396 
Q 3106 -91 2203 -91 
Q 1297 -91 786 396 
Q 275 884 275 1747 
Q 275 2609 786 3096 
Q 1297 3584 2203 3584 
z
" transform="scale(0.015625)"/>
      <path id="DejaVuSans-Bold-64" d="M 2919 2988 
L 2919 4863 
L 4044 4863 
L 4044 0 
L 2919 0 
L 2919 506 
Q 2688 197 2409 53 
Q 2131 -91 1766 -91 
Q 1119 -91 703 423 
Q 288 938 288 1747 
Q 288 2556 703 3070 
Q 1119 3584 1766 3584 
Q 2128 3584 2408 3439 
Q 2688 3294 2919 2988 
z
M 2181 722 
Q 2541 722 2730 984 
Q 2919 1247 2919 1747 
Q 2919 2247 2730 2509 
Q 2541 2772 2181 2772 
Q 1825 2772 1636 2509 
Q 1447 2247 1447 1747 
Q 1447 1247 1636 984 
Q 1825 722 2181 722 
z
" transform="scale(0.015625)"/>
      <path id="DejaVuSans-Bold-65" d="M 4031 1759 
L 4031 1441 
L 1416 1441 
Q 1456 1047 1700 850 
Q 1944 653 2381 653 
Q 2734 653 3104 758 
Q 3475 863 3866 1075 
L 3866 213 
Q 3469 63 3072 -14 
Q 2675 -91 2278 -91 
Q 1328 -91 801 392 
Q 275 875 275 1747 
Q 275 2603 792 3093 
Q 1309 3584 2216 3584 
Q 3041 3584 3536 3087 
Q 4031 2591 4031 1759 
z
M 2881 2131 
Q 2881 2450 2695 2645 
Q 2509 2841 2209 2841 
Q 1884 2841 1681 2658 
Q 1478 2475 1428 2131 
L 2881 2131 
z
" transform="scale(0.015625)"/>
      <path id="DejaVuSans-Bold-20" transform="scale(0.015625)"/>
      <path id="DejaVuSans-Bold-45" d="M 588 4666 
L 3834 4666 
L 3834 3756 
L 1791 3756 
L 1791 2888 
L 3713 2888 
L 3713 1978 
L 1791 1978 
L 1791 909 
L 3903 909 
L 3903 0 
L 588 0 
L 588 4666 
z
" transform="scale(0.015625)"/>
      <path id="DejaVuSans-Bold-6d" d="M 3781 2919 
Q 3994 3244 4286 3414 
Q 4578 3584 4928 3584 
Q 5531 3584 5847 3212 
Q 6163 2841 6163 2131 
L 6163 0 
L 5038 0 
L 5038 1825 
Q 5041 1866 5042 1909 
Q 5044 1953 5044 2034 
Q 5044 2406 4934 2573 
Q 4825 2741 4581 2741 
Q 4263 2741 4089 2478 
Q 3916 2216 3909 1719 
L 3909 0 
L 2784 0 
L 2784 1825 
Q 2784 2406 2684 2573 
Q 2584 2741 2328 2741 
Q 2006 2741 1831 2477 
Q 1656 2213 1656 1722 
L 1656 0 
L 531 0 
L 531 3500 
L 1656 3500 
L 1656 2988 
Q 1863 3284 2130 3434 
Q 2397 3584 2719 3584 
Q 3081 3584 3359 3409 
Q 3638 3234 3781 2919 
z
" transform="scale(0.015625)"/>
      <path id="DejaVuSans-Bold-62" d="M 2400 722 
Q 2759 722 2948 984 
Q 3138 1247 3138 1747 
Q 3138 2247 2948 2509 
Q 2759 2772 2400 2772 
Q 2041 2772 1848 2508 
Q 1656 2244 1656 1747 
Q 1656 1250 1848 986 
Q 2041 722 2400 722 
z
M 1656 2988 
Q 1888 3294 2169 3439 
Q 2450 3584 2816 3584 
Q 3463 3584 3878 3070 
Q 4294 2556 4294 1747 
Q 4294 938 3878 423 
Q 3463 -91 2816 -91 
Q 2450 -91 2169 54 
Q 1888 200 1656 506 
L 1656 0 
L 538 0 
L 538 4863 
L 1656 4863 
L 1656 2988 
z
" transform="scale(0.015625)"/>
      <path id="DejaVuSans-Bold-69" d="M 538 3500 
L 1656 3500 
L 1656 0 
L 538 0 
L 538 3500 
z
M 538 4863 
L 1656 4863 
L 1656 3950 
L 538 3950 
L 538 4863 
z
" transform="scale(0.015625)"/>
      <path id="DejaVuSans-Bold-6e" d="M 4056 2131 
L 4056 0 
L 2931 0 
L 2931 347 
L 2931 1631 
Q 2931 2084 2911 2256 
Q 2891 2428 2841 2509 
Q 2775 2619 2662 2680 
Q 2550 2741 2406 2741 
Q 2056 2741 1856 2470 
Q 1656 2200 1656 1722 
L 1656 0 
L 538 0 
L 538 3500 
L 1656 3500 
L 1656 2988 
Q 1909 3294 2193 3439 
Q 2478 3584 2822 3584 
Q 3428 3584 3742 3212 
Q 4056 2841 4056 2131 
z
" transform="scale(0.015625)"/>
      <path id="DejaVuSans-Bold-67" d="M 2919 594 
Q 2688 288 2409 144 
Q 2131 0 1766 0 
Q 1125 0 706 504 
Q 288 1009 288 1791 
Q 288 2575 706 3076 
Q 1125 3578 1766 3578 
Q 2131 3578 2409 3434 
Q 2688 3291 2919 2981 
L 2919 3500 
L 4044 3500 
L 4044 353 
Q 4044 -491 3511 -936 
Q 2978 -1381 1966 -1381 
Q 1638 -1381 1331 -1331 
Q 1025 -1281 716 -1178 
L 716 -306 
Q 1009 -475 1290 -558 
Q 1572 -641 1856 -641 
Q 2406 -641 2662 -400 
Q 2919 -159 2919 353 
L 2919 594 
z
M 2181 2772 
Q 1834 2772 1640 2515 
Q 1447 2259 1447 1791 
Q 1447 1309 1634 1061 
Q 1822 813 2181 813 
Q 2531 813 2725 1069 
Q 2919 1325 2919 1791 
Q 2919 2259 2725 2515 
Q 2531 2772 2181 2772 
z
" transform="scale(0.015625)"/>
      <path id="DejaVuSans-Bold-73" d="M 3272 3391 
L 3272 2541 
Q 2913 2691 2578 2766 
Q 2244 2841 1947 2841 
Q 1628 2841 1473 2761 
Q 1319 2681 1319 2516 
Q 1319 2381 1436 2309 
Q 1553 2238 1856 2203 
L 2053 2175 
Q 2913 2066 3209 1816 
Q 3506 1566 3506 1031 
Q 3506 472 3093 190 
Q 2681 -91 1863 -91 
Q 1516 -91 1145 -36 
Q 775 19 384 128 
L 384 978 
Q 719 816 1070 734 
Q 1422 653 1784 653 
Q 2113 653 2278 743 
Q 2444 834 2444 1013 
Q 2444 1163 2330 1236 
Q 2216 1309 1875 1350 
L 1678 1375 
Q 931 1469 631 1722 
Q 331 1975 331 2491 
Q 331 3047 712 3315 
Q 1094 3584 1881 3584 
Q 2191 3584 2531 3537 
Q 2872 3491 3272 3391 
z
" transform="scale(0.015625)"/>
      <path id="DejaVuSans-Oblique-45" d="M 1081 4666 
L 4031 4666 
L 3928 4134 
L 1606 4134 
L 1338 2753 
L 3566 2753 
L 3463 2222 
L 1234 2222 
L 909 531 
L 3284 531 
L 3181 0 
L 172 0 
L 1081 4666 
z
" transform="scale(0.015625)"/>
     </defs>
     <use xlink:href="#DejaVuSans-Bold-4e" transform="translate(0 0.015625)"/>
     <use xlink:href="#DejaVuSans-Bold-6f" transform="translate(83.691406 0.015625)"/>
     <use xlink:href="#DejaVuSans-Bold-64" transform="translate(152.392578 0.015625)"/>
     <use xlink:href="#DejaVuSans-Bold-65" transform="translate(223.974609 0.015625)"/>
     <use xlink:href="#DejaVuSans-Bold-20" transform="translate(291.796875 0.015625)"/>
     <use xlink:href="#DejaVuSans-Bold-45" transform="translate(326.611328 0.015625)"/>
     <use xlink:href="#DejaVuSans-Bold-6d" transform="translate(394.921875 0.015625)"/>
     <use xlink:href="#DejaVuSans-Bold-62" transform="translate(499.121094 0.015625)"/>
     <use xlink:href="#DejaVuSans-Bold-65" transform="translate(570.703125 0.015625)"/>
     <use xlink:href="#DejaVuSans-Bold-64" transform="translate(638.525391 0.015625)"/>
     <use xlink:href="#DejaVuSans-Bold-64" transform="translate(710.107422 0.015625)"/>
     <use xlink:href="#DejaVuSans-Bold-69" transform="translate(781.689453 0.015625)"/>
     <use xlink:href="#DejaVuSans-Bold-6e" transform="translate(815.966797 0.015625)"/>
     <use xlink:href="#DejaVuSans-Bold-67" transform="translate(887.158203 0.015625)"/>
     <use xlink:href="#DejaVuSans-Bold-73" transform="translate(958.740234 0.015625)"/>
     <use xlink:href="#DejaVuSans-Bold-20" transform="translate(1018.261719 0.015625)"/>
     <use xlink:href="#DejaVuSans-Oblique-45" transform="translate(1053.076172 0.015625)"/>
    </g>
   </g>
   <g id="text_4">
    <!-- $E \in \mathbb{R}^{(L+1) \times n \times d}$ (learnable) -->
    <g style="fill: #808080" transform="translate(700.1325 220.66875)scale(0.08 -0.08)">
     <defs>
      <path id="DejaVuSans-Oblique-28" d="M 2731 4856 
Q 1903 3822 1495 2892 
Q 1088 1963 1088 1100 
Q 1088 606 1206 120 
Q 1325 -366 1563 -844 
L 1063 -844 
Q 775 -306 634 201 
Q 494 709 494 1197 
Q 494 2125 923 3036 
Q 1353 3947 2222 4856 
L 2731 4856 
z
" transform="scale(0.015625)"/>
      <path id="DejaVuSans-Oblique-72" d="M 2853 2969 
Q 2766 3016 2653 3041 
Q 2541 3066 2413 3066 
Q 1953 3066 1609 2717 
Q 1266 2369 1153 1784 
L 800 0 
L 225 0 
L 909 3500 
L 1484 3500 
L 1375 2956 
Q 1603 3259 1920 3421 
Q 2238 3584 2597 3584 
Q 2691 3584 2781 3573 
Q 2872 3563 2963 3538 
L 2853 2969 
z
" transform="scale(0.015625)"/>
      <path id="DejaVuSans-Oblique-29" d="M -397 -844 
Q 434 191 840 1120 
Q 1247 2050 1247 2913 
Q 1247 3406 1130 3892 
Q 1013 4378 775 4856 
L 1275 4856 
Q 1563 4316 1703 3812 
Q 1844 3309 1844 2822 
Q 1844 1891 1411 973 
Q 978 56 116 -844 
L -397 -844 
z
" transform="scale(0.015625)"/>
     </defs>
     <use xlink:href="#DejaVuSans-Oblique-45" transform="translate(0 0.529687)"/>
     <use xlink:href="#DejaVuSans-2208" transform="translate(82.666016 0.529687)"/>
     <use xlink:href="#STIXGeneral-Italic-211d" transform="translate(189.257812 0.529687)"/>
     <use xlink:href="#DejaVuSans-28" transform="translate(263.909253 38.810937)scale(0.7)"/>
     <use xlink:href="#DejaVuSans-Oblique-4c" transform="translate(291.218823 38.810937)scale(0.7)"/>
     <use xlink:href="#DejaVuSans-2b" transform="translate(343.855542 38.810937)scale(0.7)"/>
     <use xlink:href="#DejaVuSans-31" transform="translate(416.145581 38.810937)scale(0.7)"/>
     <use xlink:href="#DejaVuSans-29" transform="translate(460.681713 38.810937)scale(0.7)"/>
     <use xlink:href="#DejaVuSans-d7" transform="translate(501.628979 38.810937)scale(0.7)"/>
     <use xlink:href="#DejaVuSans-Oblique-6e" transform="translate(573.919018 38.810937)scale(0.7)"/>
     <use xlink:href="#DejaVuSans-d7" transform="translate(631.921948 38.810937)scale(0.7)"/>
     <use xlink:href="#DejaVuSans-Oblique-64" transform="translate(704.211987 38.810937)scale(0.7)"/>
     <use xlink:href="#DejaVuSans-Oblique-20" transform="translate(751.379956 0.529687)"/>
     <use xlink:href="#DejaVuSans-Oblique-28" transform="translate(783.167065 0.529687)"/>
     <use xlink:href="#DejaVuSans-Oblique-6c" transform="translate(822.180737 0.529687)"/>
     <use xlink:href="#DejaVuSans-Oblique-65" transform="translate(849.96394 0.529687)"/>
     <use xlink:href="#DejaVuSans-Oblique-61" transform="translate(911.487378 0.529687)"/>
     <use xlink:href="#DejaVuSans-Oblique-72" transform="translate(972.766674 0.529687)"/>
     <use xlink:href="#DejaVuSans-Oblique-6e" transform="translate(1013.879956 0.529687)"/>
     <use xlink:href="#DejaVuSans-Oblique-61" transform="translate(1077.258862 0.529687)"/>
     <use xlink:href="#DejaVuSans-Oblique-62" transform="translate(1138.538159 0.529687)"/>
     <use xlink:href="#DejaVuSans-Oblique-6c" transform="translate(1202.014721 0.529687)"/>
     <use xlink:href="#DejaVuSans-Oblique-65" transform="translate(1229.797924 0.529687)"/>
     <use xlink:href="#DejaVuSans-Oblique-29" transform="translate(1291.321362 0.529687)"/>
    </g>
   </g>
   <g id="text_5">
    <!-- Concatenate $[X_{\mathrm{exp}}, E]$ -->
    <g transform="translate(430.83 341.0775)scale(0.11 -0.11)">
     <defs>
      <path id="DejaVuSans-43" d="M 4122 4306 
L 4122 3641 
Q 3803 3938 3442 4084 
Q 3081 4231 2675 4231 
Q 1875 4231 1450 3742 
Q 1025 3253 1025 2328 
Q 1025 1406 1450 917 
Q 1875 428 2675 428 
Q 3081 428 3442 575 
Q 3803 722 4122 1019 
L 4122 359 
Q 3791 134 3420 21 
Q 3050 -91 2638 -91 
Q 1578 -91 968 557 
Q 359 1206 359 2328 
Q 359 3453 968 4101 
Q 1578 4750 2638 4750 
Q 3056 4750 3426 4639 
Q 3797 4528 4122 4306 
z
" transform="scale(0.015625)"/>
      <path id="DejaVuSans-6f" d="M 1959 3097 
Q 1497 3097 1228 2736 
Q 959 2375 959 1747 
Q 959 1119 1226 758 
Q 1494 397 1959 397 
Q 2419 397 2687 759 
Q 2956 1122 2956 1747 
Q 2956 2369 2687 2733 
Q 2419 3097 1959 3097 
z
M 1959 3584 
Q 2709 3584 3137 3096 
Q 3566 2609 3566 1747 
Q 3566 888 3137 398 
Q 2709 -91 1959 -91 
Q 1206 -91 779 398 
Q 353 888 353 1747 
Q 353 2609 779 3096 
Q 1206 3584 1959 3584 
z
" transform="scale(0.015625)"/>
      <path id="DejaVuSans-63" d="M 3122 3366 
L 3122 2828 
Q 2878 2963 2633 3030 
Q 2388 3097 2138 3097 
Q 1578 3097 1268 2742 
Q 959 2388 959 1747 
Q 959 1106 1268 751 
Q 1578 397 2138 397 
Q 2388 397 2633 464 
Q 2878 531 3122 666 
L 3122 134 
Q 2881 22 2623 -34 
Q 2366 -91 2075 -91 
Q 1284 -91 818 406 
Q 353 903 353 1747 
Q 353 2603 823 3093 
Q 1294 3584 2113 3584 
Q 2378 3584 2631 3529 
Q 2884 3475 3122 3366 
z
" transform="scale(0.015625)"/>
      <path id="DejaVuSans-61" d="M 2194 1759 
Q 1497 1759 1228 1600 
Q 959 1441 959 1056 
Q 959 750 1161 570 
Q 1363 391 1709 391 
Q 2188 391 2477 730 
Q 2766 1069 2766 1631 
L 2766 1759 
L 2194 1759 
z
M 3341 1997 
L 3341 0 
L 2766 0 
L 2766 531 
Q 2569 213 2275 61 
Q 1981 -91 1556 -91 
Q 1019 -91 701 211 
Q 384 513 384 1019 
Q 384 1609 779 1909 
Q 1175 2209 1959 2209 
L 2766 2209 
L 2766 2266 
Q 2766 2663 2505 2880 
Q 2244 3097 1772 3097 
Q 1472 3097 1187 3025 
Q 903 2953 641 2809 
L 641 3341 
Q 956 3463 1253 3523 
Q 1550 3584 1831 3584 
Q 2591 3584 2966 3190 
Q 3341 2797 3341 1997 
z
" transform="scale(0.015625)"/>
      <path id="DejaVuSans-65" d="M 3597 1894 
L 3597 1613 
L 953 1613 
Q 991 1019 1311 708 
Q 1631 397 2203 397 
Q 2534 397 2845 478 
Q 3156 559 3463 722 
L 3463 178 
Q 3153 47 2828 -22 
Q 2503 -91 2169 -91 
Q 1331 -91 842 396 
Q 353 884 353 1716 
Q 353 2575 817 3079 
Q 1281 3584 2069 3584 
Q 2775 3584 3186 3129 
Q 3597 2675 3597 1894 
z
M 3022 2063 
Q 3016 2534 2758 2815 
Q 2500 3097 2075 3097 
Q 1594 3097 1305 2825 
Q 1016 2553 972 2059 
L 3022 2063 
z
" transform="scale(0.015625)"/>
      <path id="DejaVuSans-5b" d="M 550 4863 
L 1875 4863 
L 1875 4416 
L 1125 4416 
L 1125 -397 
L 1875 -397 
L 1875 -844 
L 550 -844 
L 550 4863 
z
" transform="scale(0.015625)"/>
      <path id="DejaVuSans-78" d="M 3513 3500 
L 2247 1797 
L 3578 0 
L 2900 0 
L 1881 1375 
L 863 0 
L 184 0 
L 1544 1831 
L 300 3500 
L 978 3500 
L 1906 2253 
L 2834 3500 
L 3513 3500 
z
" transform="scale(0.015625)"/>
      <path id="DejaVuSans-2c" d="M 750 794 
L 1409 794 
L 1409 256 
L 897 -744 
L 494 -744 
L 750 256 
L 750 794 
z
" transform="scale(0.015625)"/>
      <path id="DejaVuSans-5d" d="M 1947 4863 
L 1947 -844 
L 622 -844 
L 622 -397 
L 1369 -397 
L 1369 4416 
L 622 4416 
L 622 4863 
L 1947 4863 
z
" transform="scale(0.015625)"/>
     </defs>
     <use xlink:href="#DejaVuSans-43" transform="translate(0 0.015625)"/>
     <use xlink:href="#DejaVuSans-6f" transform="translate(69.824219 0.015625)"/>
     <use xlink:href="#DejaVuSans-6e" transform="translate(131.005859 0.015625)"/>
     <use xlink:href="#DejaVuSans-63" transform="translate(194.384766 0.015625)"/>
     <use xlink:href="#DejaVuSans-61" transform="translate(249.365234 0.015625)"/>
     <use xlink:href="#DejaVuSans-74" transform="translate(310.644531 0.015625)"/>
     <use xlink:href="#DejaVuSans-65" transform="translate(349.853516 0.015625)"/>
     <use xlink:href="#DejaVuSans-6e" transform="translate(411.376953 0.015625)"/>
     <use xlink:href="#DejaVuSans-61" transform="translate(474.755859 0.015625)"/>
     <use xlink:href="#DejaVuSans-74" transform="translate(536.035156 0.015625)"/>
     <use xlink:href="#DejaVuSans-65" transform="translate(575.244141 0.015625)"/>
     <use xlink:href="#DejaVuSans-20" transform="translate(636.767578 0.015625)"/>
     <use xlink:href="#DejaVuSans-5b" transform="translate(668.554688 0.015625)"/>
     <use xlink:href="#DejaVuSans-Oblique-58" transform="translate(707.568359 0.015625)"/>
     <use xlink:href="#DejaVuSans-65" transform="translate(776.074219 -16.390625)scale(0.7)"/>
     <use xlink:href="#DejaVuSans-78" transform="translate(819.140625 -16.390625)scale(0.7)"/>
     <use xlink:href="#DejaVuSans-70" transform="translate(860.566406 -16.390625)scale(0.7)"/>
     <use xlink:href="#DejaVuSans-2c" transform="translate(907.734375 0.015625)"/>
     <use xlink:href="#DejaVuSans-Oblique-45" transform="translate(959.003906 0.015625)"/>
     <use xlink:href="#DejaVuSans-5d" transform="translate(1022.1875 0.015625)"/>
    </g>
   </g>
   <g id="text_6">
    <!-- Shape: $[B, L{+}1, n, n, d{+}n]$ -->
    <g style="fill: #808080" transform="translate(700.1325 340.8025)scale(0.08 -0.08)">
     <defs>
      <path id="DejaVuSans-Oblique-53" d="M 3859 4513 
L 3738 3897 
Q 3422 4066 3111 4152 
Q 2800 4238 2509 4238 
Q 1944 4238 1609 3991 
Q 1275 3744 1275 3334 
Q 1275 3109 1398 2989 
Q 1522 2869 2034 2731 
L 2413 2638 
Q 3053 2472 3303 2217 
Q 3553 1963 3553 1503 
Q 3553 797 2998 353 
Q 2444 -91 1538 -91 
Q 1166 -91 791 -17 
Q 416 56 38 206 
L 166 856 
Q 513 641 861 531 
Q 1209 422 1556 422 
Q 2147 422 2503 684 
Q 2859 947 2859 1369 
Q 2859 1650 2717 1795 
Q 2575 1941 2106 2059 
L 1728 2156 
Q 1081 2325 845 2545 
Q 609 2766 609 3163 
Q 609 3859 1145 4304 
Q 1681 4750 2541 4750 
Q 2875 4750 3203 4690 
Q 3531 4631 3859 4513 
z
" transform="scale(0.015625)"/>
      <path id="DejaVuSans-Oblique-70" d="M 3175 2156 
Q 3175 2616 2975 2859 
Q 2775 3103 2400 3103 
Q 2144 3103 1911 2972 
Q 1678 2841 1497 2591 
Q 1319 2344 1212 1994 
Q 1106 1644 1106 1300 
Q 1106 863 1306 627 
Q 1506 391 1875 391 
Q 2147 391 2380 519 
Q 2613 647 2778 891 
Q 2956 1147 3065 1494 
Q 3175 1841 3175 2156 
z
M 1394 2969 
Q 1625 3272 1939 3428 
Q 2253 3584 2638 3584 
Q 3175 3584 3472 3232 
Q 3769 2881 3769 2247 
Q 3769 1728 3584 1258 
Q 3400 788 3053 416 
Q 2822 169 2531 39 
Q 2241 -91 1919 -91 
Q 1547 -91 1294 64 
Q 1041 219 916 525 
L 556 -1331 
L -19 -1331 
L 922 3500 
L 1497 3500 
L 1394 2969 
z
" transform="scale(0.015625)"/>
     </defs>
     <use xlink:href="#DejaVuSans-Oblique-53" transform="translate(0 0.015625)"/>
     <use xlink:href="#DejaVuSans-Oblique-68" transform="translate(63.476562 0.015625)"/>
     <use xlink:href="#DejaVuSans-Oblique-61" transform="translate(126.855469 0.015625)"/>
     <use xlink:href="#DejaVuSans-Oblique-70" transform="translate(188.134766 0.015625)"/>
     <use xlink:href="#DejaVuSans-Oblique-65" transform="translate(251.611328 0.015625)"/>
     <use xlink:href="#DejaVuSans-Oblique-3a" transform="translate(313.134766 0.015625)"/>
     <use xlink:href="#DejaVuSans-Oblique-20" transform="translate(346.826172 0.015625)"/>
     <use xlink:href="#DejaVuSans-5b" transform="translate(378.613281 0.015625)"/>
     <use xlink:href="#DejaVuSans-Oblique-42" transform="translate(417.626953 0.015625)"/>
     <use xlink:href="#DejaVuSans-2c" transform="translate(486.230469 0.015625)"/>
     <use xlink:href="#DejaVuSans-Oblique-4c" transform="translate(537.5 0.015625)"/>
     <use xlink:href="#DejaVuSans-2b" transform="translate(593.212891 0.015625)"/>
     <use xlink:href="#DejaVuSans-31" transform="translate(677.001953 0.015625)"/>
     <use xlink:href="#DejaVuSans-2c" transform="translate(740.625 0.015625)"/>
     <use xlink:href="#DejaVuSans-Oblique-6e" transform="translate(791.894531 0.015625)"/>
     <use xlink:href="#DejaVuSans-2c" transform="translate(855.273438 0.015625)"/>
     <use xlink:href="#DejaVuSans-Oblique-6e" transform="translate(906.542969 0.015625)"/>
     <use xlink:href="#DejaVuSans-2c" transform="translate(969.921875 0.015625)"/>
     <use xlink:href="#DejaVuSans-Oblique-64" transform="translate(1021.191406 0.015625)"/>
     <use xlink:href="#DejaVuSans-2b" transform="translate(1084.667969 0.015625)"/>
     <use xlink:href="#DejaVuSans-Oblique-6e" transform="translate(1168.457031 0.015625)"/>
     <use xlink:href="#DejaVuSans-5d" transform="translate(1231.835938 0.015625)"/>
    </g>
   </g>
   <g id="text_7">
    <!-- Encoder Network $g$ -->
    <g transform="translate(430.61 432.01)scale(0.11 -0.11)">
     <defs>
      <path id="DejaVuSans-Bold-63" d="M 3366 3391 
L 3366 2478 
Q 3138 2634 2908 2709 
Q 2678 2784 2431 2784 
Q 1963 2784 1702 2511 
Q 1441 2238 1441 1747 
Q 1441 1256 1702 982 
Q 1963 709 2431 709 
Q 2694 709 2930 787 
Q 3166 866 3366 1019 
L 3366 103 
Q 3103 6 2833 -42 
Q 2563 -91 2291 -91 
Q 1344 -91 809 395 
Q 275 881 275 1747 
Q 275 2613 809 3098 
Q 1344 3584 2291 3584 
Q 2566 3584 2833 3536 
Q 3100 3488 3366 3391 
z
" transform="scale(0.015625)"/>
      <path id="DejaVuSans-Bold-72" d="M 3138 2547 
Q 2991 2616 2845 2648 
Q 2700 2681 2553 2681 
Q 2122 2681 1889 2404 
Q 1656 2128 1656 1613 
L 1656 0 
L 538 0 
L 538 3500 
L 1656 3500 
L 1656 2925 
Q 1872 3269 2151 3426 
Q 2431 3584 2822 3584 
Q 2878 3584 2943 3579 
Q 3009 3575 3134 3559 
L 3138 2547 
z
" transform="scale(0.015625)"/>
      <path id="DejaVuSans-Bold-74" d="M 1759 4494 
L 1759 3500 
L 2913 3500 
L 2913 2700 
L 1759 2700 
L 1759 1216 
Q 1759 972 1856 886 
Q 1953 800 2241 800 
L 2816 800 
L 2816 0 
L 1856 0 
Q 1194 0 917 276 
Q 641 553 641 1216 
L 641 2700 
L 84 2700 
L 84 3500 
L 641 3500 
L 641 4494 
L 1759 4494 
z
" transform="scale(0.015625)"/>
      <path id="DejaVuSans-Bold-77" d="M 225 3500 
L 1313 3500 
L 1900 1088 
L 2491 3500 
L 3425 3500 
L 4013 1113 
L 4603 3500 
L 5691 3500 
L 4769 0 
L 3547 0 
L 2956 2406 
L 2369 0 
L 1147 0 
L 225 3500 
z
" transform="scale(0.015625)"/>
      <path id="DejaVuSans-Bold-6b" d="M 538 4863 
L 1656 4863 
L 1656 2216 
L 2944 3500 
L 4244 3500 
L 2534 1894 
L 4378 0 
L 3022 0 
L 1656 1459 
L 1656 0 
L 538 0 
L 538 4863 
z
" transform="scale(0.015625)"/>
     </defs>
     <use xlink:href="#DejaVuSans-Bold-45" transform="translate(0 0.015625)"/>
     <use xlink:href="#DejaVuSans-Bold-6e" transform="translate(68.310547 0.015625)"/>
     <use xlink:href="#DejaVuSans-Bold-63" transform="translate(139.501953 0.015625)"/>
     <use xlink:href="#DejaVuSans-Bold-6f" transform="translate(198.779297 0.015625)"/>
     <use xlink:href="#DejaVuSans-Bold-64" transform="translate(267.480469 0.015625)"/>
     <use xlink:href="#DejaVuSans-Bold-65" transform="translate(339.0625 0.015625)"/>
     <use xlink:href="#DejaVuSans-Bold-72" transform="translate(406.884766 0.015625)"/>
     <use xlink:href="#DejaVuSans-Bold-20" transform="translate(456.201172 0.015625)"/>
     <use xlink:href="#DejaVuSans-Bold-4e" transform="translate(491.015625 0.015625)"/>
     <use xlink:href="#DejaVuSans-Bold-65" transform="translate(574.707031 0.015625)"/>
     <use xlink:href="#DejaVuSans-Bold-74" transform="translate(642.529297 0.015625)"/>
     <use xlink:href="#DejaVuSans-Bold-77" transform="translate(690.332031 0.015625)"/>
     <use xlink:href="#DejaVuSans-Bold-6f" transform="translate(782.714844 0.015625)"/>
     <use xlink:href="#DejaVuSans-Bold-72" transform="translate(851.416016 0.015625)"/>
     <use xlink:href="#DejaVuSans-Bold-6b" transform="translate(900.732422 0.015625)"/>
     <use xlink:href="#DejaVuSans-Bold-20" transform="translate(967.236328 0.015625)"/>
     <use xlink:href="#DejaVuSans-Oblique-67" transform="translate(1002.050781 0.015625)"/>
    </g>
   </g>
   <g id="text_8">
    <!-- FC $\rightarrow$ LN $\rightarrow$ LeakyReLU -->
    <g transform="translate(441.76 485.4145)scale(0.08 -0.08)">
     <defs>
      <path id="DejaVuSans-46" d="M 628 4666 
L 3309 4666 
L 3309 4134 
L 1259 4134 
L 1259 2759 
L 3109 2759 
L 3109 2228 
L 1259 2228 
L 1259 0 
L 628 0 
L 628 4666 
z
" transform="scale(0.015625)"/>
      <path id="DejaVuSans-2192" d="M 5050 2147 
L 5050 1866 
L 3822 638 
L 3447 1013 
L 4175 1741 
L 366 1741 
L 366 2272 
L 4175 2272 
L 3447 3000 
L 3822 3375 
L 5050 2147 
z
" transform="scale(0.015625)"/>
      <path id="DejaVuSans-4c" d="M 628 4666 
L 1259 4666 
L 1259 531 
L 3531 531 
L 3531 0 
L 628 0 
L 628 4666 
z
" transform="scale(0.015625)"/>
      <path id="DejaVuSans-4e" d="M 628 4666 
L 1478 4666 
L 3547 763 
L 3547 4666 
L 4159 4666 
L 4159 0 
L 3309 0 
L 1241 3903 
L 1241 0 
L 628 0 
L 628 4666 
z
" transform="scale(0.015625)"/>
      <path id="DejaVuSans-6b" d="M 581 4863 
L 1159 4863 
L 1159 1991 
L 2875 3500 
L 3609 3500 
L 1753 1863 
L 3688 0 
L 2938 0 
L 1159 1709 
L 1159 0 
L 581 0 
L 581 4863 
z
" transform="scale(0.015625)"/>
      <path id="DejaVuSans-79" d="M 2059 -325 
Q 1816 -950 1584 -1140 
Q 1353 -1331 966 -1331 
L 506 -1331 
L 506 -850 
L 844 -850 
Q 1081 -850 1212 -737 
Q 1344 -625 1503 -206 
L 1606 56 
L 191 3500 
L 800 3500 
L 1894 763 
L 2988 3500 
L 3597 3500 
L 2059 -325 
z
" transform="scale(0.015625)"/>
      <path id="DejaVuSans-52" d="M 2841 2188 
Q 3044 2119 3236 1894 
Q 3428 1669 3622 1275 
L 4263 0 
L 3584 0 
L 2988 1197 
Q 2756 1666 2539 1819 
Q 2322 1972 1947 1972 
L 1259 1972 
L 1259 0 
L 628 0 
L 628 4666 
L 2053 4666 
Q 2853 4666 3247 4331 
Q 3641 3997 3641 3322 
Q 3641 2881 3436 2590 
Q 3231 2300 2841 2188 
z
M 1259 4147 
L 1259 2491 
L 2053 2491 
Q 2509 2491 2742 2702 
Q 2975 2913 2975 3322 
Q 2975 3731 2742 3939 
Q 2509 4147 2053 4147 
L 1259 4147 
z
" transform="scale(0.015625)"/>
      <path id="DejaVuSans-55" d="M 556 4666 
L 1191 4666 
L 1191 1831 
Q 1191 1081 1462 751 
Q 1734 422 2344 422 
Q 2950 422 3222 751 
Q 3494 1081 3494 1831 
L 3494 4666 
L 4128 4666 
L 4128 1753 
Q 4128 841 3676 375 
Q 3225 -91 2344 -91 
Q 1459 -91 1007 375 
Q 556 841 556 1753 
L 556 4666 
z
" transform="scale(0.015625)"/>
     </defs>
     <use xlink:href="#DejaVuSans-46" transform="translate(0 0.015625)"/>
     <use xlink:href="#DejaVuSans-43" transform="translate(57.519531 0.015625)"/>
     <use xlink:href="#DejaVuSans-20" transform="translate(127.34375 0.015625)"/>
     <use xlink:href="#DejaVuSans-2192" transform="translate(178.613281 0.015625)"/>
     <use xlink:href="#DejaVuSans-20" transform="translate(281.884766 0.015625)"/>
     <use xlink:href="#DejaVuSans-4c" transform="translate(313.671875 0.015625)"/>
     <use xlink:href="#DejaVuSans-4e" transform="translate(369.384766 0.015625)"/>
     <use xlink:href="#DejaVuSans-20" transform="translate(444.189453 0.015625)"/>
     <use xlink:href="#DejaVuSans-2192" transform="translate(495.458984 0.015625)"/>
     <use xlink:href="#DejaVuSans-20" transform="translate(598.730469 0.015625)"/>
     <use xlink:href="#DejaVuSans-4c" transform="translate(630.517578 0.015625)"/>
     <use xlink:href="#DejaVuSans-65" transform="translate(686.230469 0.015625)"/>
     <use xlink:href="#DejaVuSans-61" transform="translate(747.753906 0.015625)"/>
     <use xlink:href="#DejaVuSans-6b" transform="translate(809.033203 0.015625)"/>
     <use xlink:href="#DejaVuSans-79" transform="translate(866.943359 0.015625)"/>
     <use xlink:href="#DejaVuSans-52" transform="translate(926.123047 0.015625)"/>
     <use xlink:href="#DejaVuSans-65" transform="translate(995.605469 0.015625)"/>
     <use xlink:href="#DejaVuSans-4c" transform="translate(1057.128906 0.015625)"/>
     <use xlink:href="#DejaVuSans-55" transform="translate(1112.841797 0.015625)"/>
    </g>
   </g>
   <g id="text_9">
    <!-- FC $\rightarrow$ LN $\rightarrow$ LeakyReLU -->
    <g transform="translate(441.76 521.5675)scale(0.08 -0.08)">
     <use xlink:href="#DejaVuSans-46" transform="translate(0 0.015625)"/>
     <use xlink:href="#DejaVuSans-43" transform="translate(57.519531 0.015625)"/>
     <use xlink:href="#DejaVuSans-20" transform="translate(127.34375 0.015625)"/>
     <use xlink:href="#DejaVuSans-2192" transform="translate(178.613281 0.015625)"/>
     <use xlink:href="#DejaVuSans-20" transform="translate(281.884766 0.015625)"/>
     <use xlink:href="#DejaVuSans-4c" transform="translate(313.671875 0.015625)"/>
     <use xlink:href="#DejaVuSans-4e" transform="translate(369.384766 0.015625)"/>
     <use xlink:href="#DejaVuSans-20" transform="translate(444.189453 0.015625)"/>
     <use xlink:href="#DejaVuSans-2192" transform="translate(495.458984 0.015625)"/>
     <use xlink:href="#DejaVuSans-20" transform="translate(598.730469 0.015625)"/>
     <use xlink:href="#DejaVuSans-4c" transform="translate(630.517578 0.015625)"/>
     <use xlink:href="#DejaVuSans-65" transform="translate(686.230469 0.015625)"/>
     <use xlink:href="#DejaVuSans-61" transform="translate(747.753906 0.015625)"/>
     <use xlink:href="#DejaVuSans-6b" transform="translate(809.033203 0.015625)"/>
     <use xlink:href="#DejaVuSans-79" transform="translate(866.943359 0.015625)"/>
     <use xlink:href="#DejaVuSans-52" transform="translate(926.123047 0.015625)"/>
     <use xlink:href="#DejaVuSans-65" transform="translate(995.605469 0.015625)"/>
     <use xlink:href="#DejaVuSans-4c" transform="translate(1057.128906 0.015625)"/>
     <use xlink:href="#DejaVuSans-55" transform="translate(1112.841797 0.015625)"/>
    </g>
   </g>
   <g id="text_10">
    <!-- FC $\rightarrow$ Output$(d)$ -->
    <g transform="translate(457.12 557.7205)scale(0.08 -0.08)">
     <defs>
      <path id="DejaVuSans-4f" d="M 2522 4238 
Q 1834 4238 1429 3725 
Q 1025 3213 1025 2328 
Q 1025 1447 1429 934 
Q 1834 422 2522 422 
Q 3209 422 3611 934 
Q 4013 1447 4013 2328 
Q 4013 3213 3611 3725 
Q 3209 4238 2522 4238 
z
M 2522 4750 
Q 3503 4750 4090 4092 
Q 4678 3434 4678 2328 
Q 4678 1225 4090 567 
Q 3503 -91 2522 -91 
Q 1538 -91 948 565 
Q 359 1222 359 2328 
Q 359 3434 948 4092 
Q 1538 4750 2522 4750 
z
" transform="scale(0.015625)"/>
     </defs>
     <use xlink:href="#DejaVuSans-46" transform="translate(0 0.015625)"/>
     <use xlink:href="#DejaVuSans-43" transform="translate(57.519531 0.015625)"/>
     <use xlink:href="#DejaVuSans-20" transform="translate(127.34375 0.015625)"/>
     <use xlink:href="#DejaVuSans-2192" transform="translate(178.613281 0.015625)"/>
     <use xlink:href="#DejaVuSans-20" transform="translate(281.884766 0.015625)"/>
     <use xlink:href="#DejaVuSans-4f" transform="translate(313.671875 0.015625)"/>
     <use xlink:href="#DejaVuSans-75" transform="translate(392.382812 0.015625)"/>
     <use xlink:href="#DejaVuSans-74" transform="translate(455.761719 0.015625)"/>
     <use xlink:href="#DejaVuSans-70" transform="translate(494.970703 0.015625)"/>
     <use xlink:href="#DejaVuSans-75" transform="translate(558.447266 0.015625)"/>
     <use xlink:href="#DejaVuSans-74" transform="translate(621.826172 0.015625)"/>
     <use xlink:href="#DejaVuSans-28" transform="translate(661.035156 0.015625)"/>
     <use xlink:href="#DejaVuSans-Oblique-64" transform="translate(700.048828 0.015625)"/>
     <use xlink:href="#DejaVuSans-29" transform="translate(763.525391 0.015625)"/>
    </g>
   </g>
   <g id="text_11">
    <!-- $h = g(X, E)$ -->
    <g style="fill: #808080" transform="translate(718.209 486.960875)scale(0.08 -0.08)">
     <defs>
      <path id="DejaVuSans-3d" d="M 678 2906 
L 4684 2906 
L 4684 2381 
L 678 2381 
L 678 2906 
z
M 678 1631 
L 4684 1631 
L 4684 1100 
L 678 1100 
L 678 1631 
z
" transform="scale(0.015625)"/>
     </defs>
     <use xlink:href="#DejaVuSans-Oblique-68" transform="translate(0 0.015625)"/>
     <use xlink:href="#DejaVuSans-3d" transform="translate(82.861328 0.015625)"/>
     <use xlink:href="#DejaVuSans-Oblique-67" transform="translate(186.132812 0.015625)"/>
     <use xlink:href="#DejaVuSans-28" transform="translate(249.609375 0.015625)"/>
     <use xlink:href="#DejaVuSans-Oblique-58" transform="translate(288.623047 0.015625)"/>
     <use xlink:href="#DejaVuSans-2c" transform="translate(357.128906 0.015625)"/>
     <use xlink:href="#DejaVuSans-Oblique-45" transform="translate(408.398438 0.015625)"/>
     <use xlink:href="#DejaVuSans-29" transform="translate(471.582031 0.015625)"/>
    </g>
    <!-- $\in \mathbb{R}^{B \times (L{+}1) \times n \times n \times d}$ -->
    <g style="fill: #808080" transform="translate(718.209 495.935375)scale(0.08 -0.08)">
     <use xlink:href="#DejaVuSans-2208" transform="translate(19.482422 0.529687)"/>
     <use xlink:href="#STIXGeneral-Italic-211d" transform="translate(126.074219 0.529687)"/>
     <use xlink:href="#DejaVuSans-Oblique-42" transform="translate(200.725659 38.810937)scale(0.7)"/>
     <use xlink:href="#DejaVuSans-d7" transform="translate(262.385815 38.810937)scale(0.7)"/>
     <use xlink:href="#DejaVuSans-28" transform="translate(334.675854 38.810937)scale(0.7)"/>
     <use xlink:href="#DejaVuSans-Oblique-4c" transform="translate(361.985424 38.810937)scale(0.7)"/>
     <use xlink:href="#DejaVuSans-2b" transform="translate(400.984448 38.810937)scale(0.7)"/>
     <use xlink:href="#DejaVuSans-31" transform="translate(459.636792 38.810937)scale(0.7)"/>
     <use xlink:href="#DejaVuSans-29" transform="translate(504.172924 38.810937)scale(0.7)"/>
     <use xlink:href="#DejaVuSans-d7" transform="translate(545.12019 38.810937)scale(0.7)"/>
     <use xlink:href="#DejaVuSans-Oblique-6e" transform="translate(617.410229 38.810937)scale(0.7)"/>
     <use xlink:href="#DejaVuSans-d7" transform="translate(675.413159 38.810937)scale(0.7)"/>
     <use xlink:href="#DejaVuSans-Oblique-6e" transform="translate(747.703198 38.810937)scale(0.7)"/>
     <use xlink:href="#DejaVuSans-d7" transform="translate(805.706128 38.810937)scale(0.7)"/>
     <use xlink:href="#DejaVuSans-Oblique-64" transform="translate(877.996167 38.810937)scale(0.7)"/>
    </g>
   </g>
   <g id="text_12">
    <!-- Weighted Message Aggregation -->
    <g transform="translate(390.220234 651.908094)scale(0.11 -0.11)">
     <defs>
      <path id="DejaVuSans-Bold-57" d="M 191 4666 
L 1344 4666 
L 2150 1275 
L 2950 4666 
L 4109 4666 
L 4909 1275 
L 5716 4666 
L 6859 4666 
L 5759 0 
L 4372 0 
L 3525 3547 
L 2688 0 
L 1300 0 
L 191 4666 
z
" transform="scale(0.015625)"/>
      <path id="DejaVuSans-Bold-68" d="M 4056 2131 
L 4056 0 
L 2931 0 
L 2931 347 
L 2931 1625 
Q 2931 2084 2911 2256 
Q 2891 2428 2841 2509 
Q 2775 2619 2662 2680 
Q 2550 2741 2406 2741 
Q 2056 2741 1856 2470 
Q 1656 2200 1656 1722 
L 1656 0 
L 538 0 
L 538 4863 
L 1656 4863 
L 1656 2988 
Q 1909 3294 2193 3439 
Q 2478 3584 2822 3584 
Q 3428 3584 3742 3212 
Q 4056 2841 4056 2131 
z
" transform="scale(0.015625)"/>
      <path id="DejaVuSans-Bold-4d" d="M 588 4666 
L 2119 4666 
L 3181 2169 
L 4250 4666 
L 5778 4666 
L 5778 0 
L 4641 0 
L 4641 3413 
L 3566 897 
L 2803 897 
L 1728 3413 
L 1728 0 
L 588 0 
L 588 4666 
z
" transform="scale(0.015625)"/>
      <path id="DejaVuSans-Bold-61" d="M 2106 1575 
Q 1756 1575 1579 1456 
Q 1403 1338 1403 1106 
Q 1403 894 1545 773 
Q 1688 653 1941 653 
Q 2256 653 2472 879 
Q 2688 1106 2688 1447 
L 2688 1575 
L 2106 1575 
z
M 3816 1997 
L 3816 0 
L 2688 0 
L 2688 519 
Q 2463 200 2181 54 
Q 1900 -91 1497 -91 
Q 953 -91 614 226 
Q 275 544 275 1050 
Q 275 1666 698 1953 
Q 1122 2241 2028 2241 
L 2688 2241 
L 2688 2328 
Q 2688 2594 2478 2717 
Q 2269 2841 1825 2841 
Q 1466 2841 1156 2769 
Q 847 2697 581 2553 
L 581 3406 
Q 941 3494 1303 3539 
Q 1666 3584 2028 3584 
Q 2975 3584 3395 3211 
Q 3816 2838 3816 1997 
z
" transform="scale(0.015625)"/>
      <path id="DejaVuSans-Bold-41" d="M 3419 850 
L 1538 850 
L 1241 0 
L 31 0 
L 1759 4666 
L 3194 4666 
L 4922 0 
L 3713 0 
L 3419 850 
z
M 1838 1716 
L 3116 1716 
L 2478 3572 
L 1838 1716 
z
" transform="scale(0.015625)"/>
     </defs>
     <use xlink:href="#DejaVuSans-Bold-57"/>
     <use xlink:href="#DejaVuSans-Bold-65" x="106.677734"/>
     <use xlink:href="#DejaVuSans-Bold-69" x="174.5"/>
     <use xlink:href="#DejaVuSans-Bold-67" x="208.777344"/>
     <use xlink:href="#DejaVuSans-Bold-68" x="280.359375"/>
     <use xlink:href="#DejaVuSans-Bold-74" x="351.550781"/>
     <use xlink:href="#DejaVuSans-Bold-65" x="399.353516"/>
     <use xlink:href="#DejaVuSans-Bold-64" x="467.175781"/>
     <use xlink:href="#DejaVuSans-Bold-20" x="538.757812"/>
     <use xlink:href="#DejaVuSans-Bold-4d" x="573.572266"/>
     <use xlink:href="#DejaVuSans-Bold-65" x="673.083984"/>
     <use xlink:href="#DejaVuSans-Bold-73" x="740.90625"/>
     <use xlink:href="#DejaVuSans-Bold-73" x="800.427734"/>
     <use xlink:href="#DejaVuSans-Bold-61" x="859.949219"/>
     <use xlink:href="#DejaVuSans-Bold-67" x="927.429688"/>
     <use xlink:href="#DejaVuSans-Bold-65" x="999.011719"/>
     <use xlink:href="#DejaVuSans-Bold-20" x="1066.833984"/>
     <use xlink:href="#DejaVuSans-Bold-41" x="1101.648438"/>
     <use xlink:href="#DejaVuSans-Bold-67" x="1179.041016"/>
     <use xlink:href="#DejaVuSans-Bold-67" x="1250.623047"/>
     <use xlink:href="#DejaVuSans-Bold-72" x="1322.205078"/>
     <use xlink:href="#DejaVuSans-Bold-65" x="1371.521484"/>
     <use xlink:href="#DejaVuSans-Bold-67" x="1439.34375"/>
     <use xlink:href="#DejaVuSans-Bold-61" x="1510.925781"/>
     <use xlink:href="#DejaVuSans-Bold-74" x="1578.40625"/>
     <use xlink:href="#DejaVuSans-Bold-69" x="1626.208984"/>
     <use xlink:href="#DejaVuSans-Bold-6f" x="1660.486328"/>
     <use xlink:href="#DejaVuSans-Bold-6e" x="1729.1875"/>
    </g>
   </g>
   <g id="text_13">
    <!-- $h_{\mathrm{agg}} = \sum_j (W \odot A)_{ij} \cdot h_j$ -->
    <g transform="translate(440.29 690.49425)scale(0.1 -0.1)">
     <defs>
      <path id="DejaVuSans-67" d="M 2906 1791 
Q 2906 2416 2648 2759 
Q 2391 3103 1925 3103 
Q 1463 3103 1205 2759 
Q 947 2416 947 1791 
Q 947 1169 1205 825 
Q 1463 481 1925 481 
Q 2391 481 2648 825 
Q 2906 1169 2906 1791 
z
M 3481 434 
Q 3481 -459 3084 -895 
Q 2688 -1331 1869 -1331 
Q 1566 -1331 1297 -1286 
Q 1028 -1241 775 -1147 
L 775 -588 
Q 1028 -725 1275 -790 
Q 1522 -856 1778 -856 
Q 2344 -856 2625 -561 
Q 2906 -266 2906 331 
L 2906 616 
Q 2728 306 2450 153 
Q 2172 0 1784 0 
Q 1141 0 747 490 
Q 353 981 353 1791 
Q 353 2603 747 3093 
Q 1141 3584 1784 3584 
Q 2172 3584 2450 3431 
Q 2728 3278 2906 2969 
L 2906 3500 
L 3481 3500 
L 3481 434 
z
" transform="scale(0.015625)"/>
      <path id="DejaVuSansDisplay-2211" d="M 244 6509 
L 5803 6509 
L 5803 5656 
L 1566 5656 
L 4534 2488 
L 1469 -888 
L 5919 -888 
L 5919 -1738 
L 109 -1738 
L 109 -1078 
L 3316 2463 
L 244 5728 
L 244 6509 
z
" transform="scale(0.015625)"/>
      <path id="DejaVuSans-Oblique-6a" d="M 928 3500 
L 1503 3500 
L 813 -63 
L 809 -78 
Q 694 -675 544 -897 
Q 403 -1106 132 -1218 
Q -138 -1331 -506 -1331 
L -722 -1331 
L -628 -844 
L -481 -844 
Q -144 -844 -1 -703 
Q 141 -563 238 -63 
L 928 3500 
z
M 1197 4863 
L 1772 4863 
L 1631 4134 
L 1056 4134 
L 1197 4863 
z
" transform="scale(0.015625)"/>
      <path id="DejaVuSans-Oblique-57" d="M 616 4666 
L 1228 4666 
L 1453 697 
L 3213 4666 
L 3916 4666 
L 4147 697 
L 5888 4666 
L 6528 4666 
L 4453 0 
L 3659 0 
L 3444 3891 
L 1697 0 
L 903 0 
L 616 4666 
z
" transform="scale(0.015625)"/>
      <path id="DejaVuSans-2299" d="M 2350 2403 
L 3013 2403 
L 3013 1609 
L 2350 1609 
L 2350 2403 
z
M 3306 3522 
Q 3016 3644 2681 3644 
Q 2347 3644 2056 3522 
Q 1769 3400 1531 3163 
Q 1291 2922 1172 2634 
Q 1053 2347 1053 2006 
Q 1053 1675 1172 1387 
Q 1291 1100 1531 859 
Q 1769 622 2056 500 
Q 2347 378 2681 378 
Q 3016 378 3306 500 
Q 3594 622 3831 859 
Q 4072 1100 4190 1387 
Q 4309 1675 4309 2006 
Q 4309 2347 4190 2634 
Q 4072 2922 3831 3163 
Q 3594 3400 3306 3522 
z
M 1878 3956 
Q 2250 4113 2681 4113 
Q 3113 4113 3484 3956 
Q 3856 3800 4163 3494 
Q 4472 3184 4625 2813 
Q 4778 2444 4778 2006 
Q 4778 1578 4625 1206 
Q 4472 838 4163 528 
Q 3856 222 3484 65 
Q 3113 -91 2681 -91 
Q 2250 -91 1878 65 
Q 1506 222 1200 528 
Q 891 838 738 1206 
Q 584 1578 584 2006 
Q 584 2444 738 2813 
Q 891 3184 1200 3494 
Q 1506 3800 1878 3956 
z
" transform="scale(0.015625)"/>
      <path id="DejaVuSans-Oblique-41" d="M 2356 4666 
L 3072 4666 
L 3938 0 
L 3278 0 
L 3084 1197 
L 984 1197 
L 325 0 
L -341 0 
L 2356 4666 
z
M 2584 4044 
L 1275 1722 
L 2988 1722 
L 2584 4044 
z
" transform="scale(0.015625)"/>
      <path id="DejaVuSans-Oblique-69" d="M 1172 4863 
L 1747 4863 
L 1606 4134 
L 1031 4134 
L 1172 4863 
z
M 909 3500 
L 1484 3500 
L 800 0 
L 225 0 
L 909 3500 
z
" transform="scale(0.015625)"/>
      <path id="DejaVuSans-22c5" d="M 684 2619 
L 1344 2619 
L 1344 1825 
L 684 1825 
L 684 2619 
z
" transform="scale(0.015625)"/>
     </defs>
     <use xlink:href="#DejaVuSans-Oblique-68" transform="translate(0 0.296875)"/>
     <use xlink:href="#DejaVuSans-61" transform="translate(63.378906 -16.109375)scale(0.7)"/>
     <use xlink:href="#DejaVuSans-67" transform="translate(106.274414 -16.109375)scale(0.7)"/>
     <use xlink:href="#DejaVuSans-67" transform="translate(150.708008 -16.109375)scale(0.7)"/>
     <use xlink:href="#DejaVuSans-3d" transform="translate(217.358398 0.296875)"/>
     <use xlink:href="#DejaVuSansDisplay-2211" transform="translate(320.629883 0.296875)"/>
     <use xlink:href="#DejaVuSans-Oblique-6a" transform="translate(352.629883 -98.798438)scale(0.7)"/>
     <use xlink:href="#DejaVuSans-28" transform="translate(411.395508 0.296875)"/>
     <use xlink:href="#DejaVuSans-Oblique-57" transform="translate(450.40918 0.296875)"/>
     <use xlink:href="#DejaVuSans-2299" transform="translate(568.768555 0.296875)"/>
     <use xlink:href="#DejaVuSans-Oblique-41" transform="translate(672.040039 0.296875)"/>
     <use xlink:href="#DejaVuSans-29" transform="translate(740.448242 0.296875)"/>
     <use xlink:href="#DejaVuSans-Oblique-69" transform="translate(780.418945 -16.109375)scale(0.7)"/>
     <use xlink:href="#DejaVuSans-Oblique-6a" transform="translate(799.867188 -16.109375)scale(0.7)"/>
     <use xlink:href="#DejaVuSans-22c5" transform="translate(841.532227 0.296875)"/>
     <use xlink:href="#DejaVuSans-Oblique-68" transform="translate(892.801758 0.296875)"/>
     <use xlink:href="#DejaVuSans-Oblique-6a" transform="translate(956.180664 -16.109375)scale(0.7)"/>
    </g>
   </g>
   <g id="text_14">
    <!-- $W$: learned weights -->
    <g style="fill: #808080" transform="translate(730.26 667.725875)scale(0.08 -0.08)">
     <defs>
      <path id="DejaVuSans-Oblique-77" d="M 544 3500 
L 1113 3500 
L 1259 684 
L 2566 3500 
L 3231 3500 
L 3425 684 
L 4666 3500 
L 5241 3500 
L 3641 0 
L 2969 0 
L 2797 2900 
L 1459 0 
L 781 0 
L 544 3500 
z
" transform="scale(0.015625)"/>
     </defs>
     <use xlink:href="#DejaVuSans-Oblique-57" transform="translate(0 0.015625)"/>
     <use xlink:href="#DejaVuSans-Oblique-3a" transform="translate(98.876953 0.015625)"/>
     <use xlink:href="#DejaVuSans-Oblique-20" transform="translate(132.568359 0.015625)"/>
     <use xlink:href="#DejaVuSans-Oblique-6c" transform="translate(164.355469 0.015625)"/>
     <use xlink:href="#DejaVuSans-Oblique-65" transform="translate(192.138672 0.015625)"/>
     <use xlink:href="#DejaVuSans-Oblique-61" transform="translate(253.662109 0.015625)"/>
     <use xlink:href="#DejaVuSans-Oblique-72" transform="translate(314.941406 0.015625)"/>
     <use xlink:href="#DejaVuSans-Oblique-6e" transform="translate(356.054688 0.015625)"/>
     <use xlink:href="#DejaVuSans-Oblique-65" transform="translate(419.433594 0.015625)"/>
     <use xlink:href="#DejaVuSans-Oblique-64" transform="translate(480.957031 0.015625)"/>
     <use xlink:href="#DejaVuSans-Oblique-20" transform="translate(544.433594 0.015625)"/>
     <use xlink:href="#DejaVuSans-Oblique-77" transform="translate(576.220703 0.015625)"/>
     <use xlink:href="#DejaVuSans-Oblique-65" transform="translate(658.007812 0.015625)"/>
     <use xlink:href="#DejaVuSans-Oblique-69" transform="translate(719.53125 0.015625)"/>
     <use xlink:href="#DejaVuSans-Oblique-67" transform="translate(747.314453 0.015625)"/>
     <use xlink:href="#DejaVuSans-Oblique-68" transform="translate(810.791016 0.015625)"/>
     <use xlink:href="#DejaVuSans-Oblique-74" transform="translate(874.169922 0.015625)"/>
     <use xlink:href="#DejaVuSans-Oblique-73" transform="translate(913.378906 0.015625)"/>
    </g>
    <!-- $A$: DAG (Gumbel) -->
    <g style="fill: #808080" transform="translate(730.26 676.700375)scale(0.08 -0.08)">
     <defs>
      <path id="DejaVuSans-Oblique-44" d="M 1081 4666 
L 2438 4666 
Q 3519 4666 4070 4208 
Q 4622 3750 4622 2847 
Q 4622 2250 4412 1698 
Q 4203 1147 3834 769 
Q 3463 381 2891 190 
Q 2319 0 1538 0 
L 172 0 
L 1081 4666 
z
M 1613 4147 
L 909 519 
L 1734 519 
Q 2794 519 3375 1128 
Q 3956 1738 3956 2847 
Q 3956 3519 3581 3833 
Q 3206 4147 2406 4147 
L 1613 4147 
z
" transform="scale(0.015625)"/>
      <path id="DejaVuSans-Oblique-47" d="M 3494 697 
L 3738 1919 
L 2700 1919 
L 2797 2438 
L 4453 2438 
L 4050 384 
Q 3634 156 3143 32 
Q 2653 -91 2156 -91 
Q 1278 -91 783 396 
Q 288 884 288 1753 
Q 288 2475 589 3126 
Q 891 3778 1422 4213 
Q 1756 4484 2153 4617 
Q 2550 4750 3034 4750 
Q 3472 4750 3873 4639 
Q 4275 4528 4641 4306 
L 4513 3634 
Q 4231 3928 3853 4083 
Q 3475 4238 3047 4238 
Q 2550 4238 2172 4048 
Q 1794 3859 1497 3463 
Q 1244 3125 1098 2667 
Q 953 2209 953 1734 
Q 953 1081 1287 751 
Q 1622 422 2284 422 
Q 2616 422 2925 492 
Q 3234 563 3494 697 
z
" transform="scale(0.015625)"/>
      <path id="DejaVuSans-Oblique-75" d="M 428 1388 
L 838 3500 
L 1416 3500 
L 1006 1409 
Q 975 1256 961 1147 
Q 947 1038 947 966 
Q 947 700 1109 554 
Q 1272 409 1569 409 
Q 2031 409 2368 721 
Q 2706 1034 2809 1563 
L 3194 3500 
L 3769 3500 
L 3091 0 
L 2516 0 
L 2631 550 
Q 2388 244 2052 76 
Q 1716 -91 1338 -91 
Q 878 -91 622 161 
Q 366 413 366 863 
Q 366 956 381 1097 
Q 397 1238 428 1388 
z
" transform="scale(0.015625)"/>
      <path id="DejaVuSans-Oblique-6d" d="M 5747 2113 
L 5338 0 
L 4763 0 
L 5166 2094 
Q 5191 2228 5203 2325 
Q 5216 2422 5216 2491 
Q 5216 2772 5059 2928 
Q 4903 3084 4622 3084 
Q 4203 3084 3875 2770 
Q 3547 2456 3450 1953 
L 3066 0 
L 2491 0 
L 2900 2094 
Q 2925 2209 2937 2307 
Q 2950 2406 2950 2484 
Q 2950 2769 2794 2926 
Q 2638 3084 2363 3084 
Q 1938 3084 1609 2770 
Q 1281 2456 1184 1953 
L 800 0 
L 225 0 
L 909 3500 
L 1484 3500 
L 1375 2956 
Q 1609 3263 1923 3423 
Q 2238 3584 2597 3584 
Q 2978 3584 3223 3384 
Q 3469 3184 3519 2828 
Q 3781 3197 4126 3390 
Q 4472 3584 4856 3584 
Q 5306 3584 5551 3325 
Q 5797 3066 5797 2591 
Q 5797 2488 5784 2364 
Q 5772 2241 5747 2113 
z
" transform="scale(0.015625)"/>
     </defs>
     <use xlink:href="#DejaVuSans-Oblique-41" transform="translate(0 0.015625)"/>
     <use xlink:href="#DejaVuSans-Oblique-3a" transform="translate(68.408203 0.015625)"/>
     <use xlink:href="#DejaVuSans-Oblique-20" transform="translate(102.099609 0.015625)"/>
     <use xlink:href="#DejaVuSans-Oblique-44" transform="translate(133.886719 0.015625)"/>
     <use xlink:href="#DejaVuSans-Oblique-41" transform="translate(210.888672 0.015625)"/>
     <use xlink:href="#DejaVuSans-Oblique-47" transform="translate(279.296875 0.015625)"/>
     <use xlink:href="#DejaVuSans-Oblique-20" transform="translate(356.787109 0.015625)"/>
     <use xlink:href="#DejaVuSans-Oblique-28" transform="translate(388.574219 0.015625)"/>
     <use xlink:href="#DejaVuSans-Oblique-47" transform="translate(427.587891 0.015625)"/>
     <use xlink:href="#DejaVuSans-Oblique-75" transform="translate(505.078125 0.015625)"/>
     <use xlink:href="#DejaVuSans-Oblique-6d" transform="translate(568.457031 0.015625)"/>
     <use xlink:href="#DejaVuSans-Oblique-62" transform="translate(665.869141 0.015625)"/>
     <use xlink:href="#DejaVuSans-Oblique-65" transform="translate(729.345703 0.015625)"/>
     <use xlink:href="#DejaVuSans-Oblique-6c" transform="translate(790.869141 0.015625)"/>
     <use xlink:href="#DejaVuSans-Oblique-29" transform="translate(818.652344 0.015625)"/>
    </g>
   </g>
   <g id="text_15">
    <!-- $W$ -->
    <g transform="translate(213.1425 672.764375)scale(0.1 -0.1)">
     <use xlink:href="#DejaVuSans-Oblique-57" transform="translate(0 0.09375)"/>
    </g>
   </g>
   <g id="text_16">
    <!-- $A^{(d)}$ -->
    <g transform="translate(58.555 672.764375)scale(0.1 -0.1)">
     <use xlink:href="#DejaVuSans-Oblique-41" transform="translate(0 0.529687)"/>
     <use xlink:href="#DejaVuSans-28" transform="translate(75.424974 38.810937)scale(0.7)"/>
     <use xlink:href="#DejaVuSans-Oblique-64" transform="translate(102.734544 38.810937)scale(0.7)"/>
     <use xlink:href="#DejaVuSans-29" transform="translate(147.168138 38.810937)scale(0.7)"/>
    </g>
   </g>
   <g id="text_17">
    <!-- Decoder Network $f$ -->
    <g transform="translate(431.545 793.550313)scale(0.11 -0.11)">
     <defs>
      <path id="DejaVuSans-Bold-44" d="M 1791 3756 
L 1791 909 
L 2222 909 
Q 2959 909 3348 1275 
Q 3738 1641 3738 2338 
Q 3738 3031 3350 3393 
Q 2963 3756 2222 3756 
L 1791 3756 
z
M 588 4666 
L 1856 4666 
Q 2919 4666 3439 4514 
Q 3959 4363 4331 4000 
Q 4659 3684 4818 3271 
Q 4978 2859 4978 2338 
Q 4978 1809 4818 1395 
Q 4659 981 4331 666 
Q 3956 303 3431 151 
Q 2906 0 1856 0 
L 588 0 
L 588 4666 
z
" transform="scale(0.015625)"/>
      <path id="DejaVuSans-Oblique-66" d="M 3059 4863 
L 2969 4384 
L 2419 4384 
Q 2106 4384 1964 4261 
Q 1822 4138 1753 3809 
L 1691 3500 
L 2638 3500 
L 2553 3053 
L 1606 3053 
L 1013 0 
L 434 0 
L 1031 3053 
L 481 3053 
L 563 3500 
L 1113 3500 
L 1159 3744 
Q 1278 4363 1576 4613 
Q 1875 4863 2516 4863 
L 3059 4863 
z
" transform="scale(0.015625)"/>
     </defs>
     <use xlink:href="#DejaVuSans-Bold-44" transform="translate(0 0.015625)"/>
     <use xlink:href="#DejaVuSans-Bold-65" transform="translate(83.007812 0.015625)"/>
     <use xlink:href="#DejaVuSans-Bold-63" transform="translate(150.830078 0.015625)"/>
     <use xlink:href="#DejaVuSans-Bold-6f" transform="translate(210.107422 0.015625)"/>
     <use xlink:href="#DejaVuSans-Bold-64" transform="translate(278.808594 0.015625)"/>
     <use xlink:href="#DejaVuSans-Bold-65" transform="translate(350.390625 0.015625)"/>
     <use xlink:href="#DejaVuSans-Bold-72" transform="translate(418.212891 0.015625)"/>
     <use xlink:href="#DejaVuSans-Bold-20" transform="translate(467.529297 0.015625)"/>
     <use xlink:href="#DejaVuSans-Bold-4e" transform="translate(502.34375 0.015625)"/>
     <use xlink:href="#DejaVuSans-Bold-65" transform="translate(586.035156 0.015625)"/>
     <use xlink:href="#DejaVuSans-Bold-74" transform="translate(653.857422 0.015625)"/>
     <use xlink:href="#DejaVuSans-Bold-77" transform="translate(701.660156 0.015625)"/>
     <use xlink:href="#DejaVuSans-Bold-6f" transform="translate(794.042969 0.015625)"/>
     <use xlink:href="#DejaVuSans-Bold-72" transform="translate(862.744141 0.015625)"/>
     <use xlink:href="#DejaVuSans-Bold-6b" transform="translate(912.060547 0.015625)"/>
     <use xlink:href="#DejaVuSans-Bold-20" transform="translate(978.564453 0.015625)"/>
     <use xlink:href="#DejaVuSans-Oblique-66" transform="translate(1013.378906 0.015625)"/>
    </g>
   </g>
   <g id="text_18">
    <!-- FC $\rightarrow$ LN $\rightarrow$ LeakyReLU -->
    <g transform="translate(441.76 846.9445)scale(0.08 -0.08)">
     <use xlink:href="#DejaVuSans-46" transform="translate(0 0.015625)"/>
     <use xlink:href="#DejaVuSans-43" transform="translate(57.519531 0.015625)"/>
     <use xlink:href="#DejaVuSans-20" transform="translate(127.34375 0.015625)"/>
     <use xlink:href="#DejaVuSans-2192" transform="translate(178.613281 0.015625)"/>
     <use xlink:href="#DejaVuSans-20" transform="translate(281.884766 0.015625)"/>
     <use xlink:href="#DejaVuSans-4c" transform="translate(313.671875 0.015625)"/>
     <use xlink:href="#DejaVuSans-4e" transform="translate(369.384766 0.015625)"/>
     <use xlink:href="#DejaVuSans-20" transform="translate(444.189453 0.015625)"/>
     <use xlink:href="#DejaVuSans-2192" transform="translate(495.458984 0.015625)"/>
     <use xlink:href="#DejaVuSans-20" transform="translate(598.730469 0.015625)"/>
     <use xlink:href="#DejaVuSans-4c" transform="translate(630.517578 0.015625)"/>
     <use xlink:href="#DejaVuSans-65" transform="translate(686.230469 0.015625)"/>
     <use xlink:href="#DejaVuSans-61" transform="translate(747.753906 0.015625)"/>
     <use xlink:href="#DejaVuSans-6b" transform="translate(809.033203 0.015625)"/>
     <use xlink:href="#DejaVuSans-79" transform="translate(866.943359 0.015625)"/>
     <use xlink:href="#DejaVuSans-52" transform="translate(926.123047 0.015625)"/>
     <use xlink:href="#DejaVuSans-65" transform="translate(995.605469 0.015625)"/>
     <use xlink:href="#DejaVuSans-4c" transform="translate(1057.128906 0.015625)"/>
     <use xlink:href="#DejaVuSans-55" transform="translate(1112.841797 0.015625)"/>
    </g>
   </g>
   <g id="text_19">
    <!-- FC $\rightarrow$ LN $\rightarrow$ LeakyReLU -->
    <g transform="translate(441.76 883.0975)scale(0.08 -0.08)">
     <use xlink:href="#DejaVuSans-46" transform="translate(0 0.015625)"/>
     <use xlink:href="#DejaVuSans-43" transform="translate(57.519531 0.015625)"/>
     <use xlink:href="#DejaVuSans-20" transform="translate(127.34375 0.015625)"/>
     <use xlink:href="#DejaVuSans-2192" transform="translate(178.613281 0.015625)"/>
     <use xlink:href="#DejaVuSans-20" transform="translate(281.884766 0.015625)"/>
     <use xlink:href="#DejaVuSans-4c" transform="translate(313.671875 0.015625)"/>
     <use xlink:href="#DejaVuSans-4e" transform="translate(369.384766 0.015625)"/>
     <use xlink:href="#DejaVuSans-20" transform="translate(444.189453 0.015625)"/>
     <use xlink:href="#DejaVuSans-2192" transform="translate(495.458984 0.015625)"/>
     <use xlink:href="#DejaVuSans-20" transform="translate(598.730469 0.015625)"/>
     <use xlink:href="#DejaVuSans-4c" transform="translate(630.517578 0.015625)"/>
     <use xlink:href="#DejaVuSans-65" transform="translate(686.230469 0.015625)"/>
     <use xlink:href="#DejaVuSans-61" transform="translate(747.753906 0.015625)"/>
     <use xlink:href="#DejaVuSans-6b" transform="translate(809.033203 0.015625)"/>
     <use xlink:href="#DejaVuSans-79" transform="translate(866.943359 0.015625)"/>
     <use xlink:href="#DejaVuSans-52" transform="translate(926.123047 0.015625)"/>
     <use xlink:href="#DejaVuSans-65" transform="translate(995.605469 0.015625)"/>
     <use xlink:href="#DejaVuSans-4c" transform="translate(1057.128906 0.015625)"/>
     <use xlink:href="#DejaVuSans-55" transform="translate(1112.841797 0.015625)"/>
    </g>
   </g>
   <g id="text_20">
    <!-- FC $\rightarrow$ Output$(n)$ -->
    <g transform="translate(457.12 919.2505)scale(0.08 -0.08)">
     <use xlink:href="#DejaVuSans-46" transform="translate(0 0.125)"/>
     <use xlink:href="#DejaVuSans-43" transform="translate(57.519531 0.125)"/>
     <use xlink:href="#DejaVuSans-20" transform="translate(127.34375 0.125)"/>
     <use xlink:href="#DejaVuSans-2192" transform="translate(178.613281 0.125)"/>
     <use xlink:href="#DejaVuSans-20" transform="translate(281.884766 0.125)"/>
     <use xlink:href="#DejaVuSans-4f" transform="translate(313.671875 0.125)"/>
     <use xlink:href="#DejaVuSans-75" transform="translate(392.382812 0.125)"/>
     <use xlink:href="#DejaVuSans-74" transform="translate(455.761719 0.125)"/>
     <use xlink:href="#DejaVuSans-70" transform="translate(494.970703 0.125)"/>
     <use xlink:href="#DejaVuSans-75" transform="translate(558.447266 0.125)"/>
     <use xlink:href="#DejaVuSans-74" transform="translate(621.826172 0.125)"/>
     <use xlink:href="#DejaVuSans-28" transform="translate(661.035156 0.125)"/>
     <use xlink:href="#DejaVuSans-Oblique-6e" transform="translate(700.048828 0.125)"/>
     <use xlink:href="#DejaVuSans-29" transform="translate(763.427734 0.125)"/>
    </g>
   </g>
   <g id="text_21">
    <!-- $\hat{y} = f(E, h_{\mathrm{agg}})$ -->
    <g style="fill: #808080" transform="translate(718.209 848.730875)scale(0.08 -0.08)">
     <defs>
      <path id="DejaVuSans-302" d="M -1831 5119 
L -1369 5119 
L -603 3944 
L -1038 3944 
L -1600 4709 
L -2163 3944 
L -2597 3944 
L -1831 5119 
z
M -1600 3584 
L -1600 3584 
z
" transform="scale(0.015625)"/>
      <path id="DejaVuSans-Oblique-79" d="M 1588 -325 
Q 1188 -997 936 -1164 
Q 684 -1331 294 -1331 
L -159 -1331 
L -63 -850 
L 269 -850 
Q 509 -850 678 -719 
Q 847 -588 1056 -206 
L 1234 128 
L 459 3500 
L 1069 3500 
L 1650 819 
L 3256 3500 
L 3859 3500 
L 1588 -325 
z
" transform="scale(0.015625)"/>
     </defs>
     <use xlink:href="#DejaVuSans-302" transform="translate(62.373047 12.015625)"/>
     <use xlink:href="#DejaVuSans-Oblique-79" transform="translate(0 0.828125)"/>
     <use xlink:href="#DejaVuSans-3d" transform="translate(78.662109 0.828125)"/>
     <use xlink:href="#DejaVuSans-Oblique-66" transform="translate(181.933594 0.828125)"/>
     <use xlink:href="#DejaVuSans-28" transform="translate(217.138672 0.828125)"/>
     <use xlink:href="#DejaVuSans-Oblique-45" transform="translate(256.152344 0.828125)"/>
     <use xlink:href="#DejaVuSans-2c" transform="translate(319.335938 0.828125)"/>
     <use xlink:href="#DejaVuSans-Oblique-68" transform="translate(370.605469 0.828125)"/>
     <use xlink:href="#DejaVuSans-61" transform="translate(433.984375 -15.578125)scale(0.7)"/>
     <use xlink:href="#DejaVuSans-67" transform="translate(476.879883 -15.578125)scale(0.7)"/>
     <use xlink:href="#DejaVuSans-67" transform="translate(521.313477 -15.578125)scale(0.7)"/>
     <use xlink:href="#DejaVuSans-29" transform="translate(568.481445 0.828125)"/>
    </g>
    <!-- $\in \mathbb{R}^{B \times n}$ -->
    <g style="fill: #808080" transform="translate(718.209 858.505375)scale(0.08 -0.08)">
     <use xlink:href="#DejaVuSans-2208" transform="translate(19.482422 0.684375)"/>
     <use xlink:href="#STIXGeneral-Italic-211d" transform="translate(126.074219 0.684375)"/>
     <use xlink:href="#DejaVuSans-Oblique-42" transform="translate(200.725659 38.965625)scale(0.7)"/>
     <use xlink:href="#DejaVuSans-d7" transform="translate(262.385815 38.965625)scale(0.7)"/>
     <use xlink:href="#DejaVuSans-Oblique-6e" transform="translate(334.675854 38.965625)scale(0.7)"/>
    </g>
   </g>
   <g id="text_22">
    <!-- Predictions: $\hat{y} \in \mathbb{R}^{B \times n}$ -->
    <g transform="translate(425.825 1005.3125)scale(0.11 -0.11)">
     <defs>
      <path id="DejaVuSans-Bold-50" d="M 588 4666 
L 2584 4666 
Q 3475 4666 3951 4270 
Q 4428 3875 4428 3144 
Q 4428 2409 3951 2014 
Q 3475 1619 2584 1619 
L 1791 1619 
L 1791 0 
L 588 0 
L 588 4666 
z
M 1791 3794 
L 1791 2491 
L 2456 2491 
Q 2806 2491 2997 2661 
Q 3188 2831 3188 3144 
Q 3188 3456 2997 3625 
Q 2806 3794 2456 3794 
L 1791 3794 
z
" transform="scale(0.015625)"/>
      <path id="DejaVuSans-Bold-3a" d="M 716 3500 
L 1844 3500 
L 1844 2291 
L 716 2291 
L 716 3500 
z
M 716 1209 
L 1844 1209 
L 1844 0 
L 716 0 
L 716 1209 
z
" transform="scale(0.015625)"/>
     </defs>
     <use xlink:href="#DejaVuSans-Bold-50" transform="translate(0 0.828125)"/>
     <use xlink:href="#DejaVuSans-Bold-72" transform="translate(73.291016 0.828125)"/>
     <use xlink:href="#DejaVuSans-Bold-65" transform="translate(122.607422 0.828125)"/>
     <use xlink:href="#DejaVuSans-Bold-64" transform="translate(190.429688 0.828125)"/>
     <use xlink:href="#DejaVuSans-Bold-69" transform="translate(262.011719 0.828125)"/>
     <use xlink:href="#DejaVuSans-Bold-63" transform="translate(296.289062 0.828125)"/>
     <use xlink:href="#DejaVuSans-Bold-74" transform="translate(355.566406 0.828125)"/>
     <use xlink:href="#DejaVuSans-Bold-69" transform="translate(403.369141 0.828125)"/>
     <use xlink:href="#DejaVuSans-Bold-6f" transform="translate(437.646484 0.828125)"/>
     <use xlink:href="#DejaVuSans-Bold-6e" transform="translate(506.347656 0.828125)"/>
     <use xlink:href="#DejaVuSans-Bold-73" transform="translate(577.539062 0.828125)"/>
     <use xlink:href="#DejaVuSans-Bold-3a" transform="translate(637.060547 0.828125)"/>
     <use xlink:href="#DejaVuSans-Bold-20" transform="translate(677.050781 0.828125)"/>
     <use xlink:href="#DejaVuSans-302" transform="translate(774.238281 12.015625)"/>
     <use xlink:href="#DejaVuSans-Oblique-79" transform="translate(711.865234 0.828125)"/>
     <use xlink:href="#DejaVuSans-2208" transform="translate(790.527344 0.828125)"/>
     <use xlink:href="#STIXGeneral-Italic-211d" transform="translate(897.119141 0.828125)"/>
     <use xlink:href="#DejaVuSans-Oblique-42" transform="translate(971.770581 39.109375)scale(0.7)"/>
     <use xlink:href="#DejaVuSans-d7" transform="translate(1033.430737 39.109375)scale(0.7)"/>
     <use xlink:href="#DejaVuSans-Oblique-6e" transform="translate(1105.720776 39.109375)scale(0.7)"/>
    </g>
   </g>
   <g id="text_23">
    <!-- Variance -->
    <g transform="translate(831.33 780.947437)scale(0.09 -0.09)">
     <defs>
      <path id="DejaVuSans-56" d="M 1831 0 
L 50 4666 
L 709 4666 
L 2188 738 
L 3669 4666 
L 4325 4666 
L 2547 0 
L 1831 0 
z
" transform="scale(0.015625)"/>
      <path id="DejaVuSans-72" d="M 2631 2963 
Q 2534 3019 2420 3045 
Q 2306 3072 2169 3072 
Q 1681 3072 1420 2755 
Q 1159 2438 1159 1844 
L 1159 0 
L 581 0 
L 581 3500 
L 1159 3500 
L 1159 2956 
Q 1341 3275 1631 3429 
Q 1922 3584 2338 3584 
Q 2397 3584 2469 3576 
Q 2541 3569 2628 3553 
L 2631 2963 
z
" transform="scale(0.015625)"/>
      <path id="DejaVuSans-69" d="M 603 3500 
L 1178 3500 
L 1178 0 
L 603 0 
L 603 3500 
z
M 603 4863 
L 1178 4863 
L 1178 4134 
L 603 4134 
L 603 4863 
z
" transform="scale(0.015625)"/>
     </defs>
     <use xlink:href="#DejaVuSans-56"/>
     <use xlink:href="#DejaVuSans-61" x="60.658203"/>
     <use xlink:href="#DejaVuSans-72" x="121.9375"/>
     <use xlink:href="#DejaVuSans-69" x="163.050781"/>
     <use xlink:href="#DejaVuSans-61" x="190.833984"/>
     <use xlink:href="#DejaVuSans-6e" x="252.113281"/>
     <use xlink:href="#DejaVuSans-63" x="315.492188"/>
     <use xlink:href="#DejaVuSans-65" x="370.472656"/>
    </g>
   </g>
   <g id="text_24">
    <!-- $g_{\mathrm{var}}, f_{\mathrm{var}}$ -->
    <g transform="translate(835.49 807.77875)scale(0.08 -0.08)">
     <defs>
      <path id="DejaVuSans-76" d="M 191 3500 
L 800 3500 
L 1894 563 
L 2988 3500 
L 3597 3500 
L 2284 0 
L 1503 0 
L 191 3500 
z
" transform="scale(0.015625)"/>
     </defs>
     <use xlink:href="#DejaVuSans-Oblique-67" transform="translate(0 0.015625)"/>
     <use xlink:href="#DejaVuSans-76" transform="translate(63.476562 -16.390625)scale(0.7)"/>
     <use xlink:href="#DejaVuSans-61" transform="translate(104.902344 -16.390625)scale(0.7)"/>
     <use xlink:href="#DejaVuSans-72" transform="translate(147.797852 -16.390625)scale(0.7)"/>
     <use xlink:href="#DejaVuSans-2c" transform="translate(179.311523 0.015625)"/>
     <use xlink:href="#DejaVuSans-Oblique-66" transform="translate(230.581055 0.015625)"/>
     <use xlink:href="#DejaVuSans-76" transform="translate(265.786133 -16.390625)scale(0.7)"/>
     <use xlink:href="#DejaVuSans-61" transform="translate(307.211914 -16.390625)scale(0.7)"/>
     <use xlink:href="#DejaVuSans-72" transform="translate(350.107422 -16.390625)scale(0.7)"/>
    </g>
   </g>
   <g id="text_25">
    <!-- $\sigma^2$ -->
    <g transform="translate(844.97 883.656875)scale(0.1 -0.1)">
     <defs>
      <path id="DejaVuSans-Oblique-3c3" d="M 2219 3044 
Q 1744 3044 1422 2700 
Q 1081 2341 969 1747 
Q 844 1119 1044 756 
Q 1241 397 1706 397 
Q 2166 397 2503 759 
Q 2844 1122 2966 1747 
Q 3075 2319 2881 2700 
Q 2700 3044 2219 3044 
z
M 2309 3503 
L 4219 3500 
L 4106 2925 
L 3463 2925 
Q 3706 2438 3575 1747 
Q 3406 888 2884 400 
Q 2359 -91 1609 -91 
Q 856 -91 525 400 
Q 194 888 363 1747 
Q 528 2609 1050 3097 
Q 1484 3503 2309 3503 
z
" transform="scale(0.015625)"/>
      <path id="DejaVuSans-32" d="M 1228 531 
L 3431 531 
L 3431 0 
L 469 0 
L 469 531 
Q 828 903 1448 1529 
Q 2069 2156 2228 2338 
Q 2531 2678 2651 2914 
Q 2772 3150 2772 3378 
Q 2772 3750 2511 3984 
Q 2250 4219 1831 4219 
Q 1534 4219 1204 4116 
Q 875 4013 500 3803 
L 500 4441 
Q 881 4594 1212 4672 
Q 1544 4750 1819 4750 
Q 2544 4750 2975 4387 
Q 3406 4025 3406 3419 
Q 3406 3131 3298 2873 
Q 3191 2616 2906 2266 
Q 2828 2175 2409 1742 
Q 1991 1309 1228 531 
z
" transform="scale(0.015625)"/>
     </defs>
     <use xlink:href="#DejaVuSans-Oblique-3c3" transform="translate(0 0.765625)"/>
     <use xlink:href="#DejaVuSans-32" transform="translate(67.851615 39.046875)scale(0.7)"/>
    </g>
   </g>
   <g id="text_26">
    <!-- (heteroscedastic) -->
    <g style="fill: #808080" transform="translate(923.076 792.446563)scale(0.07 -0.07)">
     <use xlink:href="#DejaVuSans-Oblique-28"/>
     <use xlink:href="#DejaVuSans-Oblique-68" x="39.013672"/>
     <use xlink:href="#DejaVuSans-Oblique-65" x="102.392578"/>
     <use xlink:href="#DejaVuSans-Oblique-74" x="163.916016"/>
     <use xlink:href="#DejaVuSans-Oblique-65" x="203.125"/>
     <use xlink:href="#DejaVuSans-Oblique-72" x="264.648438"/>
     <use xlink:href="#DejaVuSans-Oblique-6f" x="305.761719"/>
     <use xlink:href="#DejaVuSans-Oblique-73" x="366.943359"/>
     <use xlink:href="#DejaVuSans-Oblique-63" x="419.042969"/>
     <use xlink:href="#DejaVuSans-Oblique-65" x="474.023438"/>
     <use xlink:href="#DejaVuSans-Oblique-64" x="535.546875"/>
     <use xlink:href="#DejaVuSans-Oblique-61" x="599.023438"/>
     <use xlink:href="#DejaVuSans-Oblique-73" x="660.302734"/>
     <use xlink:href="#DejaVuSans-Oblique-74" x="712.402344"/>
     <use xlink:href="#DejaVuSans-Oblique-69" x="751.611328"/>
     <use xlink:href="#DejaVuSans-Oblique-63" x="779.394531"/>
     <use xlink:href="#DejaVuSans-Oblique-29" x="834.375"/>
    </g>
   </g>
   <g id="patch_29">
    <path d="M 296.032307 220.057067 
Q 233.547337 534.4343 295.706581 847.166659 
" style="fill: none; stroke-dasharray: 5.55,2.4; stroke-dashoffset: 0; stroke: #808080; stroke-width: 1.5; stroke-linecap: round"/>
    <path d="M 296.888415 842.853508 
L 295.706581 847.166659 
L 292.965161 843.633301 
L 296.888415 842.853508 
z
" style="fill: #808080; stroke-dasharray: 5.55,2.4; stroke-dashoffset: 0; stroke: #808080; stroke-width: 1.5; stroke-linecap: round"/>
   </g>
   <g id="text_27">
    <!-- $E$ -->
    <g style="fill: #808080" transform="translate(257.391 536.914688)scale(0.09 -0.09)">
     <use xlink:href="#DejaVuSans-Oblique-45" transform="translate(0 0.09375)"/>
    </g>
   </g>
   <g id="text_28">
    <!-- CausalICGNN: Internal Architecture -->
    <g transform="translate(349.816406 41.190625)scale(0.14 -0.14)">
     <defs>
      <path id="DejaVuSans-Bold-43" d="M 4288 256 
Q 3956 84 3597 -3 
Q 3238 -91 2847 -91 
Q 1681 -91 1000 561 
Q 319 1213 319 2328 
Q 319 3447 1000 4098 
Q 1681 4750 2847 4750 
Q 3238 4750 3597 4662 
Q 3956 4575 4288 4403 
L 4288 3438 
Q 3953 3666 3628 3772 
Q 3303 3878 2944 3878 
Q 2300 3878 1931 3465 
Q 1563 3053 1563 2328 
Q 1563 1606 1931 1193 
Q 2300 781 2944 781 
Q 3303 781 3628 887 
Q 3953 994 4288 1222 
L 4288 256 
z
" transform="scale(0.015625)"/>
      <path id="DejaVuSans-Bold-75" d="M 500 1363 
L 500 3500 
L 1625 3500 
L 1625 3150 
Q 1625 2866 1622 2436 
Q 1619 2006 1619 1863 
Q 1619 1441 1641 1255 
Q 1663 1069 1716 984 
Q 1784 875 1895 815 
Q 2006 756 2150 756 
Q 2500 756 2700 1025 
Q 2900 1294 2900 1772 
L 2900 3500 
L 4019 3500 
L 4019 0 
L 2900 0 
L 2900 506 
Q 2647 200 2364 54 
Q 2081 -91 1741 -91 
Q 1134 -91 817 281 
Q 500 653 500 1363 
z
" transform="scale(0.015625)"/>
      <path id="DejaVuSans-Bold-6c" d="M 538 4863 
L 1656 4863 
L 1656 0 
L 538 0 
L 538 4863 
z
" transform="scale(0.015625)"/>
      <path id="DejaVuSans-Bold-49" d="M 588 4666 
L 1791 4666 
L 1791 0 
L 588 0 
L 588 4666 
z
" transform="scale(0.015625)"/>
      <path id="DejaVuSans-Bold-47" d="M 4781 347 
Q 4331 128 3847 18 
Q 3363 -91 2847 -91 
Q 1681 -91 1000 561 
Q 319 1213 319 2328 
Q 319 3456 1012 4103 
Q 1706 4750 2913 4750 
Q 3378 4750 3804 4662 
Q 4231 4575 4609 4403 
L 4609 3438 
Q 4219 3659 3833 3768 
Q 3447 3878 3059 3878 
Q 2341 3878 1952 3476 
Q 1563 3075 1563 2328 
Q 1563 1588 1938 1184 
Q 2313 781 3003 781 
Q 3191 781 3352 804 
Q 3513 828 3641 878 
L 3641 1784 
L 2906 1784 
L 2906 2591 
L 4781 2591 
L 4781 347 
z
" transform="scale(0.015625)"/>
     </defs>
     <use xlink:href="#DejaVuSans-Bold-43"/>
     <use xlink:href="#DejaVuSans-Bold-61" x="73.388672"/>
     <use xlink:href="#DejaVuSans-Bold-75" x="140.869141"/>
     <use xlink:href="#DejaVuSans-Bold-73" x="212.060547"/>
     <use xlink:href="#DejaVuSans-Bold-61" x="271.582031"/>
     <use xlink:href="#DejaVuSans-Bold-6c" x="339.0625"/>
     <use xlink:href="#DejaVuSans-Bold-49" x="373.339844"/>
     <use xlink:href="#DejaVuSans-Bold-43" x="410.546875"/>
     <use xlink:href="#DejaVuSans-Bold-47" x="483.935547"/>
     <use xlink:href="#DejaVuSans-Bold-4e" x="566.015625"/>
     <use xlink:href="#DejaVuSans-Bold-4e" x="649.707031"/>
     <use xlink:href="#DejaVuSans-Bold-3a" x="733.398438"/>
     <use xlink:href="#DejaVuSans-Bold-20" x="773.388672"/>
     <use xlink:href="#DejaVuSans-Bold-49" x="808.203125"/>
     <use xlink:href="#DejaVuSans-Bold-6e" x="845.410156"/>
     <use xlink:href="#DejaVuSans-Bold-74" x="916.601562"/>
     <use xlink:href="#DejaVuSans-Bold-65" x="964.404297"/>
     <use xlink:href="#DejaVuSans-Bold-72" x="1032.226562"/>
     <use xlink:href="#DejaVuSans-Bold-6e" x="1081.542969"/>
     <use xlink:href="#DejaVuSans-Bold-61" x="1152.734375"/>
     <use xlink:href="#DejaVuSans-Bold-6c" x="1220.214844"/>
     <use xlink:href="#DejaVuSans-Bold-20" x="1254.492188"/>
     <use xlink:href="#DejaVuSans-Bold-41" x="1289.306641"/>
     <use xlink:href="#DejaVuSans-Bold-72" x="1366.699219"/>
     <use xlink:href="#DejaVuSans-Bold-63" x="1416.015625"/>
     <use xlink:href="#DejaVuSans-Bold-68" x="1475.292969"/>
     <use xlink:href="#DejaVuSans-Bold-69" x="1546.484375"/>
     <use xlink:href="#DejaVuSans-Bold-74" x="1580.761719"/>
     <use xlink:href="#DejaVuSans-Bold-65" x="1628.564453"/>
     <use xlink:href="#DejaVuSans-Bold-63" x="1696.386719"/>
     <use xlink:href="#DejaVuSans-Bold-74" x="1755.664062"/>
     <use xlink:href="#DejaVuSans-Bold-75" x="1803.466797"/>
     <use xlink:href="#DejaVuSans-Bold-72" x="1874.658203"/>
     <use xlink:href="#DejaVuSans-Bold-65" x="1923.974609"/>
    </g>
   </g>
  </g>
 </g>
 <defs>
  <clipPath id="pfc45b4252b">
   <rect x="7.2" y="7.2" width="964.08" height="1084.59"/>
  </clipPath>
 </defs>
</svg>
